<svg width="128" height="137" viewBox="0 0 128 137" fill="none" xmlns="http://www.w3.org/2000/svg">
<path d="M72.0314 136.433C69.622 136.433 67.3632 135.981 65.255 135.078C60.7373 133.722 56.571 131.112 52.7561 128.201C48.5396 132.518 43.7711 133.271 40.8095 133.271C40.2071 133.271 39.6047 133.22 39.0024 133.17C37.8479 133.17 36.593 132.969 35.3883 132.618C35.1373 132.568 34.3844 132.317 33.2801 131.815C31.6236 131.213 30.1679 130.409 28.9632 129.456C24.7969 126.645 19.5263 121.525 17.4683 112.69C17.2173 111.686 16.5647 106.466 16.1632 102.45C10.5914 99.7396 6.57573 95.7741 3.26279 89.6502C0.702793 84.9819 -0.100344 80.1129 0.752989 74.7921C1.45573 70.5255 3.11222 66.6102 4.71849 62.7953C6.52555 58.4784 8.23221 54.4125 8.53338 50.1459C8.73417 46.7827 8.5836 43.2188 8.43301 39.7553C8.18203 33.9827 7.931 27.9592 9.38669 22.4878C11.2439 15.6109 15.36 10.6415 22.0863 7.2784C25.6502 5.47134 29.164 4.6682 33.0793 4.6682C35.7397 4.6682 38.2997 5.06977 41.0605 5.42114C44.3734 5.9231 48.0879 6.42506 52.8565 6.42506C60.8879 6.42506 70.0738 4.869 80.8659 1.60625C83.5765 0.803114 86.4377 0.351349 89.3491 0.351349C98.033 0.351349 105.964 4.01565 111.084 10.4407C115.451 15.8619 119.868 25.851 116.104 42.5161C114.497 49.7443 116.857 52.9067 120.471 57.6753C122.88 60.8376 125.591 64.4015 126.896 69.3207C128.402 74.8423 127.849 80.9662 125.189 87.9937C122.529 95.0713 115.853 102.5 107.068 108.223C105.311 112.74 101.998 117.459 97.1295 122.177C92.9632 126.243 87.7428 130.259 82.7734 133.22C79.3601 135.329 75.5953 136.433 72.0314 136.433Z" fill="#FDFDFD"/>
<path d="M79.611 128C88.2447 122.88 101.547 111.837 102.35 101.848C103.153 91.8588 86.3874 84.731 80.8157 93.2643C75.2439 101.798 60.6368 111.034 62.0423 122.328C62.8455 128.803 71.0274 133.12 79.611 128Z" fill="#FF77E6"/>
<path d="M37.095 126.695C37.095 126.695 26.3028 123.583 23.4416 111.234C20.5804 98.8863 22.6887 92.4612 22.6887 92.4612L46.1303 94.72C46.1303 94.7702 50.9491 130.811 37.095 126.695Z" fill="#4BC17E"/>
<path d="M82.5725 7.5294C96.527 3.36313 116.505 12.298 110.08 41.211C105.261 62.6949 128.552 61.691 119.416 85.9357C113.845 100.794 82.3215 122.93 48.7905 106.867C28.0596 96.9286 17.0666 102.149 8.63367 86.6886C1.8572 74.24 13.8039 64.1004 14.607 50.4972C15.5105 35.338 9.98902 20.1788 24.7467 12.7498C37.898 6.17412 43.6706 19.1749 82.5725 7.5294Z" fill="#010101"/>
<path d="M28.963 31.7238C28.5113 27.8086 21.9858 27.9089 21.6846 31.8744C21.6846 32.0752 21.6846 32.3262 21.6846 32.527C21.9356 37.2454 20.4297 38.4501 21.1324 42.767C21.6846 46.2807 27.6078 46.4815 28.8125 43.1685C30.218 39.2533 28.5113 36.8438 28.963 33.6815C29.0634 32.9285 29.0634 32.276 28.963 31.7238Z" fill="#FFCA49"/>
<path d="M28.9128 24.0941C28.8124 26.2023 27.0054 27.8588 24.9473 27.7082C22.8893 27.6078 21.283 25.7505 21.3834 23.6423C21.4838 21.5341 23.2909 19.8776 25.3489 20.0282C27.407 20.1788 29.0634 21.9859 28.9128 24.0941Z" fill="#FFCA49"/>
<path d="M66.2587 31.7238C65.807 27.8085 59.2815 27.9088 58.9803 31.8743C58.9803 32.0751 58.9803 32.3261 58.9803 32.5269C59.2313 37.2453 57.7254 38.45 58.4282 42.7669C58.9803 46.2806 64.9034 46.4814 66.1081 43.1685C67.5136 39.2532 65.807 36.8437 66.2587 33.6814C66.3089 32.9284 66.3089 32.2759 66.2587 31.7238Z" fill="#FFCA49"/>
<path d="M66.2086 24.094C66.1082 26.2022 64.3011 27.8587 62.2431 27.7081C60.185 27.6077 58.5788 25.7505 58.6791 23.6422C58.7795 21.534 60.5866 19.8775 62.6446 20.0281C64.7529 20.1787 66.3089 21.9858 66.2086 24.094Z" fill="#FFCA49"/>
<path d="M37.9483 22.287C39.7051 20.9819 41.7632 21.4336 42.9679 23.4917C44.273 25.7003 43.6706 31.9246 43.3695 34.1332C43.3193 34.5348 43.6707 34.8862 44.0722 34.8862C44.4738 34.836 44.7749 34.4846 44.6746 34.0831C44.4236 33.0289 44.022 31.0211 44.022 29.465C44.022 28.3105 44.3734 27.7082 44.9757 27.3066C46.2306 26.4031 49.142 26.654 49.142 29.3646C49.142 30.9709 48.9412 32.9285 48.7404 34.0328C48.6902 34.4344 48.9914 34.7858 49.393 34.7858C49.7946 34.7858 50.1459 34.4344 50.0455 34.0328C49.6439 31.8242 48.7404 25.6501 49.895 23.3913C50.9491 21.283 53.0573 20.7309 54.8644 21.9356C57.4244 23.6423 57.073 27.0054 56.6714 28.9631C54.764 37.898 56.1193 41.1607 54.7138 43.4697C53.76 44.9756 52.0032 45.7285 50.1961 45.327C48.0377 44.8752 47.1844 39.6548 46.8832 36.9442H46.7828C46.6322 39.6548 46.0298 44.8752 43.9216 45.4775C42.1146 45.9795 40.3075 45.327 39.3036 43.8713C37.7475 41.6627 38.9522 38.3497 36.5428 29.5152C35.9907 27.5074 35.4385 24.1442 37.9483 22.287Z" fill="#FFCA49"/>
<path d="M75.9467 39.956C75.9467 39.956 76.9506 36.3921 73.1357 35.9403C71.0777 35.6893 68.8189 36.3419 68.5177 39.6047C68.2165 42.8674 71.1279 45.6784 76.8502 45.5278C79.9122 45.4776 83.9781 43.269 83.9781 37.7976C83.9781 34.1835 82.0706 30.6697 78.5067 29.9168C77.4526 29.716 76.5491 29.6658 76.0471 28.7121C75.1436 27.0556 77.2518 26.5035 77.2518 26.5035C77.2518 26.5035 75.9467 29.0635 80.113 29.8164C83.2753 30.4188 85.5342 26.8548 83.9781 23.9937C82.422 21.1325 77.4526 19.8776 73.3365 22.287C70.6259 23.8933 69.3208 26.7545 69.8729 30.9709C70.4251 35.1372 76.0471 35.087 76.8 36.7435C77.553 38.4501 75.9467 39.956 75.9467 39.956Z" fill="#FFCA49"/>
<path d="M85.9859 25.2988C85.5843 28.8627 86.2871 29.1639 86.538 33.8321C86.8392 38.5506 84.6306 45.0258 89.349 45.4776C96.1255 46.1804 94.5192 38.0486 93.1137 34.8863L98.0831 34.6855L97.4808 32.2259L93.1639 32.3765C93.1639 32.3765 95.1216 26.4031 93.8667 23.8933C92.3106 20.5302 86.4377 21.3333 85.9859 25.2988Z" fill="#FFCA49"/>
<path d="M102.952 25.1482C103.404 28.7121 102.751 29.0133 102.5 33.6815C102.3 38.4 104.609 44.8251 99.84 45.3772C93.0635 46.1804 94.5694 38.0486 95.9247 34.8361L90.9553 34.7357L91.5075 32.2761L95.8243 32.3765C95.8243 32.3765 94.0172 26.4533 95.1717 23.8933C96.8282 20.5302 102.45 21.1827 102.952 25.1482Z" fill="#FFCA49"/>
<path d="M51.9029 58.3279C53.4088 59.6832 53.4088 61.9922 51.9029 63.2973C48.9915 65.9075 43.7711 69.7224 37.7978 69.7224C31.8245 69.7224 26.604 65.9576 23.6926 63.2973C22.1868 61.942 22.1868 59.633 23.6926 58.3279C26.604 55.7177 31.8245 51.9028 37.7978 51.9028C43.7711 51.953 48.9915 55.7177 51.9029 58.3279Z" fill="white"/>
<path d="M39.1531 66.3592C44.2263 66.3592 48.339 62.2466 48.339 57.1734C48.339 52.1001 44.2263 47.9875 39.1531 47.9875C34.0798 47.9875 29.9672 52.1001 29.9672 57.1734C29.9672 62.2466 34.0798 66.3592 39.1531 66.3592Z" fill="#010101"/>
<path d="M102.099 58.3279C103.605 59.6832 103.605 61.9922 102.099 63.2973C99.1877 65.9075 93.9673 69.7224 87.994 69.7224C82.0206 69.7224 76.8002 65.9576 73.8888 63.2973C72.3829 61.942 72.3829 59.633 73.8888 58.3279C76.8002 55.7177 82.0206 51.9028 87.994 51.9028C93.9673 51.9028 99.1375 55.7177 102.099 58.3279Z" fill="white"/>
<path d="M85.9358 66.811C91.0091 66.811 95.1218 62.6983 95.1218 57.6251C95.1218 52.5519 91.0091 48.4392 85.9358 48.4392C80.8626 48.4392 76.75 52.5519 76.75 57.6251C76.75 62.6983 80.8626 66.811 85.9358 66.811Z" fill="#010101"/>
<path d="M68.7186 65.5561C68.7186 68.7686 66.1084 71.3788 62.8959 71.3788C59.6833 71.3788 57.0731 68.7686 57.0731 65.5561" stroke="#FDFDFD" stroke-width="1.50588" stroke-miterlimit="10" stroke-linecap="round" stroke-linejoin="round"/>
<path d="M30.1176 93.3646C30.5694 93.465 31.0212 93.6156 31.5231 93.716C31.0212 93.6156 30.5694 93.5152 30.1176 93.3646Z" fill="#FF77E6"/>
<path d="M39.3537 96.276C39.7051 96.4266 40.1066 96.527 40.458 96.6776C40.1066 96.5772 39.7051 96.4266 39.3537 96.276Z" fill="#FF77E6"/>
<path d="M33.4305 94.2682C33.7819 94.3686 34.1333 94.469 34.4846 94.5694C34.1333 94.5192 33.7819 94.3686 33.4305 94.2682Z" fill="#FF77E6"/>
<path d="M40.5584 96.7278C41.0102 96.8784 41.4117 97.0792 41.8635 97.2297C41.4619 97.0792 41.0102 96.9286 40.5584 96.7278Z" fill="#FF77E6"/>
<path d="M56.9725 112.64C56.8721 112.791 56.7215 112.941 56.5709 113.042C56.7215 112.941 56.8721 112.791 56.9725 112.64Z" fill="#FF77E6"/>
<path d="M31.5733 93.7662C32.0753 93.9168 32.527 94.0172 33.029 94.1678C32.527 94.0172 32.0251 93.8666 31.5733 93.7662Z" fill="#FF77E6"/>
<path d="M34.8862 94.7199C35.338 94.8705 35.7396 95.0211 36.1411 95.1215C35.7396 95.0211 35.2878 94.8705 34.8862 94.7199Z" fill="#FF77E6"/>
<path d="M37.9984 95.8243C38.2995 95.9247 38.6509 96.0752 38.9521 96.1756C38.6509 96.025 38.2995 95.9247 37.9984 95.8243Z" fill="#FF77E6"/>
<path d="M36.2415 95.1717C36.6932 95.3223 37.145 95.4729 37.5968 95.6235C37.145 95.5231 36.6932 95.3725 36.2415 95.1717Z" fill="#FF77E6"/>
<path d="M28.6117 93.0133C28.9631 93.1137 29.3144 93.1638 29.716 93.2642C29.3144 93.214 28.9631 93.1137 28.6117 93.0133Z" fill="#FF77E6"/>
<path d="M26.7042 92.6619C27.2062 92.7623 27.7082 92.8627 28.1599 92.9631C27.658 92.8627 27.156 92.7623 26.7042 92.6619Z" fill="#FF77E6"/>
<path d="M57.6251 111.285C57.6251 111.385 57.5748 111.485 57.5748 111.536C57.5748 111.485 57.6251 111.385 57.6251 111.285Z" fill="#FF77E6"/>
<path d="M57.5748 109.779C57.5748 109.879 57.6251 109.98 57.6251 110.08C57.6251 109.929 57.5748 109.879 57.5748 109.779Z" fill="#FF77E6"/>
<path d="M57.4243 109.227C57.4745 109.327 57.4744 109.427 57.5246 109.528C57.4744 109.427 57.4243 109.327 57.4243 109.227Z" fill="#FF77E6"/>
<path d="M57.2737 112.238C57.3239 112.188 57.3239 112.138 57.3741 112.038C57.4243 111.937 57.4745 111.837 57.4745 111.787C57.4745 111.736 57.5247 111.636 57.5247 111.586C57.5749 111.485 57.5749 111.385 57.5749 111.335C57.5749 111.285 57.5749 111.184 57.6251 111.134C57.6251 111.034 57.6251 110.933 57.6251 110.833C57.6251 110.783 57.6251 110.682 57.6251 110.632C57.6251 110.532 57.6251 110.431 57.6251 110.331C57.6251 110.231 57.6251 110.18 57.5749 110.08C57.5749 109.98 57.5247 109.879 57.5247 109.779C57.5247 109.678 57.4745 109.628 57.4745 109.528C57.4243 109.427 57.4243 109.327 57.3741 109.227C57.3239 109.126 57.3239 109.076 57.2737 108.976C57.2235 108.875 57.1733 108.775 57.1231 108.674C57.073 108.574 57.0729 108.524 57.0227 108.424C56.9725 108.323 56.9224 108.223 56.8722 108.122C56.822 108.022 56.7717 107.972 56.7717 107.871C56.7215 107.771 56.6211 107.671 56.5709 107.52C56.5207 107.47 56.4706 107.369 56.4204 107.319C56.32 107.219 56.2698 107.068 56.1694 106.968C56.1192 106.918 56.069 106.867 56.069 106.767C55.9184 106.566 55.818 106.416 55.6675 106.215C55.5169 106.014 55.3663 105.864 55.2157 105.663C55.1655 105.613 55.1153 105.562 55.0651 105.462C54.9647 105.362 54.8643 105.261 54.7639 105.111C51.9529 101.948 48.3388 99.5388 44.3733 98.0831H44.3232C44.273 98.0831 44.2227 98.0329 44.1224 98.0329C43.8212 97.9325 43.52 97.8321 43.2188 97.6815C43.0682 97.6313 42.9679 97.5812 42.8173 97.531C42.5161 97.4306 42.1647 97.28 41.8635 97.1796C41.462 97.029 41.0102 96.8784 40.5584 96.6776C40.5083 96.6776 40.458 96.6274 40.458 96.6274C40.1066 96.4769 39.7051 96.3765 39.3537 96.2259C39.2031 96.1757 39.1027 96.1255 38.9521 96.0753C38.651 95.9749 38.2996 95.8243 37.9984 95.7239C37.8478 95.6737 37.7475 95.6235 37.5969 95.5733C37.1451 95.4227 36.6933 95.2721 36.2415 95.1216C36.1913 95.1216 36.1914 95.1216 36.1412 95.0714C35.7396 94.9208 35.2878 94.7702 34.8863 94.6698C34.7357 94.6196 34.5851 94.5694 34.4847 94.5192C34.1333 94.4188 33.7819 94.3184 33.4306 94.218C33.28 94.1678 33.1294 94.1176 33.029 94.0675C32.5271 93.9169 32.0753 93.7662 31.5733 93.6659H31.5232C31.0714 93.5655 30.6196 93.4149 30.1176 93.3145C29.967 93.2643 29.8164 93.2643 29.6659 93.2141C29.3145 93.1137 28.9631 93.0635 28.5616 92.9631C28.411 92.9129 28.2604 92.9129 28.1098 92.8627C27.6078 92.7623 27.1059 92.662 26.6541 92.5616C22.8392 91.909 21.0321 93.0635 22.6886 94.6698C23.7427 95.6737 26.9553 96.778 29.2141 97.4808C32.276 96.8784 34.6855 97.6816 34.8361 97.7318C35.2377 97.8823 35.4384 98.2839 35.2879 98.6855C35.1875 98.9866 34.8863 99.1874 34.5851 99.1874C34.4847 99.1874 34.4345 99.1874 34.3341 99.1372C34.2839 99.1372 32.0251 98.3843 29.2141 98.9867C28.9631 99.0369 28.7122 98.9365 28.5114 98.7859C23.542 100.041 21.2329 102.149 21.5843 103.755C21.7349 104.408 22.1365 104.709 22.5882 104.809C24.6463 103.304 29.2141 100.794 35.6894 102.3C36.091 102.4 36.3419 102.802 36.2415 103.203C36.1411 103.605 35.7396 103.856 35.338 103.755C28.5616 102.199 24.0439 105.462 22.789 106.566C22.538 107.018 22.4878 107.42 22.6886 107.721C23.04 108.323 23.4918 108.624 23.9937 108.775C24.8973 108.072 29.8165 104.609 37.7977 106.918C38.1992 107.018 38.4502 107.47 38.2996 107.871C38.1992 108.273 37.7475 108.524 37.3459 108.373C30.4188 106.365 26.0518 109.126 24.9977 109.879C24.7467 110.482 24.9976 111.134 26.2023 111.636C28.5113 112.64 31.3726 111.034 41.5624 114.296C51.7522 117.559 56.4706 112.991 56.4706 112.991C56.6212 112.841 56.7718 112.74 56.8722 112.59C56.9224 112.54 56.9223 112.489 56.9725 112.439C57.1733 112.389 57.2235 112.339 57.2737 112.238Z" fill="#FF77E6"/>
<path d="M57.5246 111.787C57.4744 111.887 57.4243 111.987 57.4243 112.038C57.4243 111.937 57.4744 111.837 57.5246 111.787Z" fill="#FF77E6"/>
<path d="M57.2737 112.238C57.2235 112.339 57.1231 112.439 57.0729 112.54C57.1733 112.389 57.2235 112.339 57.2737 112.238Z" fill="#FF77E6"/>
<path d="M54.814 105.211C54.9144 105.311 54.9646 105.412 55.065 105.512C55.0148 105.412 54.9144 105.311 54.814 105.211Z" fill="#FF77E6"/>
<path d="M55.2156 105.713C55.3662 105.914 55.5168 106.064 55.6674 106.265C55.5168 106.064 55.3662 105.863 55.2156 105.713Z" fill="#FF77E6"/>
<path d="M55.6674 106.265C55.818 106.466 55.9686 106.616 56.069 106.817C55.9686 106.616 55.818 106.416 55.6674 106.265Z" fill="#FF77E6"/>
<path d="M57.1733 108.674C57.2235 108.775 57.2736 108.875 57.3238 108.976C57.2736 108.875 57.2235 108.775 57.1733 108.674Z" fill="#FF77E6"/>
<path d="M44.1725 98.0831C44.2227 98.0831 44.2729 98.1333 44.3733 98.1333C44.2729 98.1333 44.2227 98.1333 44.1725 98.0831Z" fill="#FF77E6"/>
<path d="M42.8172 97.5811C42.9678 97.6313 43.1183 97.6815 43.2187 97.7317C43.1183 97.6815 42.9678 97.6313 42.8172 97.5811Z" fill="#FF77E6"/>
<path d="M56.9223 108.122C56.9725 108.223 57.0227 108.323 57.0729 108.423C57.0227 108.323 56.9725 108.223 56.9223 108.122Z" fill="#FF77E6"/>
<path d="M56.5709 107.57C56.6211 107.671 56.7215 107.771 56.7717 107.922C56.7215 107.771 56.6713 107.671 56.5709 107.57Z" fill="#FF77E6"/>
<path d="M56.2195 106.968C56.3199 107.068 56.3701 107.219 56.4705 107.319C56.3701 107.219 56.2697 107.118 56.2195 106.968Z" fill="#FF77E6"/>
<path d="M37.4964 108.423C37.8979 108.524 38.2995 108.323 38.4501 107.922C38.5505 107.52 38.3497 107.118 37.9481 106.968C29.967 104.659 24.9976 108.122 24.1442 108.825C25.2485 109.176 26.403 108.674 26.403 108.674C25.9011 108.976 25.3991 109.427 25.1983 109.879C26.2023 109.176 30.5693 106.466 37.4964 108.423Z" fill="#030401"/>
<path d="M35.4384 103.805C35.8399 103.906 36.2415 103.655 36.3419 103.253C36.4423 102.852 36.1913 102.45 35.7898 102.35C29.3145 100.844 24.7466 103.354 22.6885 104.86C23.5921 105.06 24.7466 104.508 24.7466 104.508C23.9937 105.211 23.2407 105.914 22.9395 106.566C24.1442 105.562 28.6117 102.249 35.4384 103.805Z" fill="#030401"/>
<path d="M29.2643 99.087C32.0752 98.4847 34.334 99.1874 34.3842 99.2376C34.4846 99.2878 34.5348 99.2878 34.6352 99.2878C34.9364 99.2878 35.2376 99.087 35.338 98.7858C35.4886 98.3843 35.2376 97.9827 34.8862 97.8321C34.7858 97.7819 32.3764 97.029 29.2643 97.5811C30.6698 98.0329 31.7238 98.2839 31.7238 98.2839C30.5693 98.4345 29.5654 98.6352 28.6117 98.8862C28.7623 99.087 29.0133 99.1372 29.2643 99.087Z" fill="#030401"/>
<path d="M79.6109 127.548C67.4635 135.128 55.6674 123.081 44.6243 112.941L48.138 99.3882C48.1882 99.3882 101.848 113.694 79.6109 127.548Z" fill="#FF77E6"/>
<path d="M84.48 90.7545L85.2329 90.9553L84.5804 91.1059C81.167 92.0094 78.607 94.8706 78.0549 98.3843L77.2518 103.605L76.4486 98.3843C75.8965 94.8706 73.3365 92.0094 69.9231 91.1059L69.2706 90.9553L70.0235 90.7545C73.3866 89.851 75.9466 87.04 76.549 83.5765L77.3019 79.1592L78.0549 83.5765C78.5568 87.04 81.0667 89.851 84.48 90.7545Z" fill="#FFCA49"/>
<path d="M25.6001 72.3325L26.0017 72.4329L25.6503 72.5333C23.7429 73.0353 22.3374 74.6416 22.0362 76.549L21.5845 79.4604L21.1327 76.549C20.8315 74.5914 19.426 73.0353 17.5186 72.5333L17.1672 72.4329L17.5688 72.3325C19.426 71.8306 20.8315 70.2745 21.1829 68.3671L21.5845 65.9577L21.986 68.3671C22.3374 70.2745 23.7429 71.8306 25.6001 72.3325Z" fill="#FFCA49"/>
<path d="M112.54 78.7577L113.042 78.9083L112.59 79.0087C110.18 79.6612 108.424 81.669 108.022 84.1286L107.47 87.793L106.918 84.1286C106.516 81.669 104.759 79.6612 102.35 79.0087L101.898 78.9083L102.4 78.7577C104.759 78.1051 106.566 76.1475 106.968 73.7381L107.47 70.6761L107.972 73.7381C108.373 76.1475 110.13 78.1051 112.54 78.7577Z" fill="#FFCA49"/>
<path d="M111.736 75.2941C112.457 75.2941 113.042 74.7098 113.042 73.9891C113.042 73.2683 112.457 72.6839 111.736 72.6839C111.016 72.6839 110.431 73.2683 110.431 73.9891C110.431 74.7098 111.016 75.2941 111.736 75.2941Z" fill="#FFCA49"/>
<path d="M17.4181 79.109C18.1388 79.109 18.7232 78.5247 18.7232 77.8039C18.7232 77.0831 18.1388 76.4988 17.4181 76.4988C16.6973 76.4988 16.113 77.0831 16.113 77.8039C16.113 78.5247 16.6973 79.109 17.4181 79.109Z" fill="#FFCA49"/>
<path d="M88.7468 99.6392C89.4676 99.6392 90.0519 99.0549 90.0519 98.3341C90.0519 97.6134 89.4676 97.029 88.7468 97.029C88.026 97.029 87.4417 97.6134 87.4417 98.3341C87.4417 99.0549 88.026 99.6392 88.7468 99.6392Z" fill="#FFCA49"/>
<path d="M55.2159 96.8282C55.0653 95.9749 54.8645 95.1215 54.6135 94.3184C53.8606 91.8588 51.9029 88.2949 46.8833 84.8815C38.0488 78.858 37.5469 75.5953 35.3382 74.4407C34.1837 73.8384 33.5311 74.0392 33.23 74.5913C33.23 75.1435 33.3806 76.3984 33.9327 77.9545C34.6355 79.9121 36.1915 82.7231 39.6551 85.2329C40.0064 85.4839 40.0567 85.9357 39.8057 86.287C39.6551 86.4878 39.4041 86.5882 39.2033 86.5882C39.0527 86.5882 38.9021 86.538 38.7515 86.4376C32.0252 81.5686 31.7241 75.5451 31.7241 74.3906C31.3225 74.0894 30.7704 73.9388 30.1178 74.0392C29.7163 74.0894 29.4653 74.3905 29.2645 74.8423C29.1641 76.4988 29.3649 82.0706 34.7861 86.4376C35.0873 86.6886 35.1374 87.1905 34.8864 87.4917C34.7359 87.6925 34.5351 87.7929 34.2841 87.7929C34.1335 87.7929 33.9327 87.7427 33.8323 87.6423C28.6621 83.476 27.859 78.3059 27.7586 75.7459C27.4073 75.4447 26.9053 75.2941 26.3029 75.5952C24.8472 76.298 24.5962 79.4604 26.6543 84.0784C26.9053 84.1286 27.1563 84.2792 27.2567 84.48C28.5116 87.0902 30.4692 88.3953 30.5194 88.4455C30.8708 88.6964 30.9711 89.1482 30.7201 89.4996C30.5696 89.7004 30.3186 89.8509 30.0676 89.8509C29.917 89.8509 29.7664 89.8007 29.666 89.7505C29.5657 89.7004 27.4574 88.2949 26.052 85.4839C24.0943 84.1286 21.2331 82.2713 19.8276 82.0706C17.5688 81.7192 17.7696 83.8776 20.6308 86.4878C25.55 90.9553 31.6739 94.4188 35.8402 97.029C36.041 96.9286 36.2919 96.9286 36.4927 97.029L39.0025 98.3341L39.5547 98.5851C39.5547 98.5851 39.6049 98.5851 39.6049 98.6353L39.6551 98.6854L39.7053 98.7357L39.7554 98.7858C39.7554 98.7858 39.7555 98.8361 39.8057 98.8361L39.8559 98.8862V98.9364C39.8559 98.9866 39.8559 98.9866 39.9061 99.0368V99.087C39.9061 99.1372 39.9061 99.1372 39.9061 99.1874V99.2376C39.9061 99.2878 39.9061 99.2878 39.9061 99.338V99.3882C39.9061 99.4384 39.9061 99.4384 39.9061 99.4886V99.5388C39.9061 99.5388 39.9061 99.589 39.8559 99.589L30.7201 118.061C30.0676 121.776 31.172 124.637 35.79 126.243C55.0653 132.969 55.8182 100.894 55.2159 96.8282Z" fill="#4BC17E"/>
<path d="M38.5506 98.7858C37.7976 98.2337 36.8439 97.6313 35.7898 96.9788C35.6392 97.029 35.4886 97.1796 35.3882 97.3302C35.1874 97.6815 35.338 98.1333 35.6894 98.3341L38.0988 99.589L38.4502 98.9364C38.5004 98.836 38.5004 98.7858 38.5506 98.7858Z" fill="#030401"/>
<path d="M38.8517 98.5349C38.9019 98.4345 38.9019 98.3843 38.952 98.2839L36.4422 96.9789C36.2415 96.8785 35.9905 96.8785 35.7897 96.9789C36.8439 97.6314 37.7976 98.2337 38.5505 98.7859C38.6007 98.6353 38.7011 98.5851 38.8517 98.5349Z" fill="#030401"/>
<path d="M39.7051 98.7357C39.7051 98.7357 39.7051 98.7858 39.7553 98.7858C39.7553 98.7858 39.7051 98.7357 39.7051 98.7357Z" fill="#030401"/>
<path d="M39.454 98.5349L38.9018 98.2839C38.8516 98.3843 38.8516 98.4345 38.8015 98.5349C39.0524 98.4345 39.2532 98.4345 39.454 98.5349Z" fill="#030401"/>
<path d="M39.9059 99.2879V99.3381C39.8557 99.3381 39.9059 99.2879 39.9059 99.2879Z" fill="#030401"/>
<path d="M39.5044 98.5349C39.5044 98.5349 39.5546 98.5349 39.5546 98.5851C39.5044 98.5851 39.5044 98.5851 39.5044 98.5349Z" fill="#030401"/>
<path d="M39.6047 98.6353C39.6047 98.6353 39.6549 98.6855 39.6047 98.6353C39.6549 98.6855 39.6047 98.6353 39.6047 98.6353Z" fill="#030401"/>
<path d="M38.1492 99.5388L28.9131 118.212C28.7123 118.563 28.8629 119.015 29.2645 119.216C29.3649 119.266 29.4652 119.316 29.6158 119.316C29.917 119.316 30.168 119.166 30.2684 118.915L30.7201 118.011C31.5734 113.042 35.5892 106.616 38.4001 99.6894L38.1492 99.5388Z" fill="#030401"/>
<path d="M39.8558 99.4886C39.8558 99.5388 39.8558 99.5388 39.8056 99.589C39.655 99.84 39.404 99.9905 39.1531 99.9905C39.0527 99.9905 38.9021 99.9403 38.8017 99.8901L38.4001 99.6894C35.5389 106.616 31.5734 113.042 30.7201 118.011L39.8558 99.5388C39.8056 99.5388 39.8056 99.4886 39.8558 99.4886Z" fill="#030401"/>
<path d="M39.5544 98.5851L39.6046 98.6353C39.6046 98.6353 39.5544 98.5851 39.5544 98.5851Z" fill="#030401"/>
<path d="M39.8054 98.8863C39.8054 98.9365 39.8054 98.9365 39.8556 98.9867C39.8556 98.9867 39.8054 98.9365 39.8054 98.8863Z" fill="#030401"/>
<path d="M39.7554 98.7859L39.8056 98.8361L39.7554 98.7859Z" fill="#030401"/>
<path d="M39.6549 98.6855L39.7051 98.7357L39.6549 98.6855Z" fill="#030401"/>
<path d="M38.7011 98.8863C38.6509 98.8361 38.6007 98.7859 38.5505 98.7859C38.5003 98.8361 38.5003 98.8863 38.4501 98.8863L38.0988 99.5388L38.3497 99.6894C38.5003 99.4384 38.6007 99.1373 38.7011 98.8863Z" fill="#030401"/>
<path d="M39.153 99.2377C39.0024 99.1373 38.8518 99.0369 38.7012 98.8863C38.6008 99.1373 38.5004 99.4384 38.4 99.6894L38.8016 99.8902C38.902 99.9404 39.0526 99.9906 39.153 99.9906C39.4039 99.9906 39.7051 99.84 39.8055 99.589C39.8055 99.5389 39.8055 99.5388 39.8557 99.4887V99.4384C39.404 99.2878 39.153 99.2377 39.153 99.2377Z" fill="#030401"/>
<path d="M38.5505 98.7859C38.6007 98.8361 38.6508 98.8863 38.701 98.8863C38.7512 98.7859 38.8014 98.6353 38.8516 98.5349C38.7011 98.5851 38.6007 98.6353 38.5505 98.7859Z" fill="#030401"/>
<path d="M39.8558 99.4384C39.8558 99.3882 39.8558 99.3882 39.8558 99.338V99.2878C39.8558 99.2376 39.8558 99.2376 39.8558 99.1874V99.1372C39.8558 99.087 39.8558 99.087 39.8558 99.0368V98.9866C39.8558 98.9364 39.8558 98.9364 39.8056 98.8862V98.8361L39.7553 98.7858C39.7553 98.7858 39.7554 98.7357 39.7052 98.7357L39.655 98.6854L39.6048 98.6353L39.5546 98.5851L39.5044 98.5349C39.3036 98.4345 39.0526 98.4345 38.8518 98.5349C38.8016 98.6353 38.7514 98.7858 38.7012 98.8862C38.8518 98.9866 39.0024 99.1372 39.153 99.2376C39.153 99.2376 39.404 99.2878 39.8558 99.4384Z" fill="#030401"/>
<path d="M38.8017 86.4377C38.9522 86.5381 39.1028 86.5883 39.2534 86.5883C39.5044 86.5883 39.7052 86.4879 39.8558 86.2871C40.1067 85.9357 40.0063 85.4839 39.7052 85.233C36.2416 82.7232 34.6855 79.9122 33.9828 77.9545C33.4306 76.3985 33.3303 75.1436 33.2801 74.5914C33.0291 75.0432 32.9789 75.6957 33.0793 76.2981C33.0793 76.2981 32.7279 75.0934 31.7742 74.4408C31.724 75.5451 32.0252 81.5687 38.8017 86.4377Z" fill="#030401"/>
<path d="M33.8321 87.5922C33.9827 87.6926 34.1333 87.7427 34.2839 87.7427C34.4846 87.7427 34.7356 87.6424 34.8862 87.4416C35.1372 87.1404 35.087 86.6384 34.7858 86.3874C29.3646 81.9702 29.214 76.4486 29.2642 74.7922C28.9631 75.4447 28.8125 76.4486 28.7623 77.5028C28.7623 77.5028 28.4611 76.298 27.7584 75.6957C27.8086 78.3059 28.6619 83.4259 33.8321 87.5922Z" fill="#030401"/>
<path d="M29.6658 90.2024C29.8164 90.3028 29.9168 90.3028 30.0674 90.3028C30.3184 90.3028 30.5693 90.2024 30.7199 89.9514C30.9709 89.6 30.8705 89.1482 30.5192 88.8972C30.5192 88.8972 28.5113 87.542 27.2564 84.9318C27.156 84.6808 26.905 84.5302 26.654 84.5302C27.0556 85.4337 27.5074 86.3874 28.1097 87.3914C28.1097 87.3914 27.2564 86.7388 26.0517 85.8855C27.4572 88.6965 29.5654 90.1522 29.6658 90.2024Z" fill="#030401"/>
<path d="M81.2173 114.447C81.0668 114.447 80.9161 114.397 80.8158 114.347L71.3789 108.122C71.0275 107.871 70.9271 107.42 71.1781 107.068C71.4291 106.717 71.8809 106.616 72.2322 106.867L81.6189 113.042C81.9702 113.242 82.1208 113.694 81.92 114.045C81.7695 114.296 81.5185 114.447 81.2173 114.447Z" fill="#030401"/>
</svg>
