<svg width="128" height="108" viewBox="0 0 128 108" fill="none" xmlns="http://www.w3.org/2000/svg">
<path fill-rule="evenodd" clip-rule="evenodd" d="M69.4017 25.6091H118.051C118.34 25.609 118.626 25.6658 118.893 25.7763C119.16 25.8869 119.402 26.0489 119.606 26.2531C119.811 26.4574 119.973 26.6999 120.083 26.9668C120.194 27.2338 120.251 27.5198 120.251 27.8088V61.467C120.309 61.7669 120.339 62.0768 120.339 62.3937V94.9995C120.339 97.6765 118.169 99.8466 115.492 99.8466H38.0069C35.3299 99.8466 33.1597 97.6765 33.1597 94.9995V73.9128C31.1904 69.2001 29.2053 64.4502 27.2548 59.7828C23.2998 50.319 19.4866 41.1944 16.2334 33.4078C15.9885 32.8215 16.3355 32.3461 17.0089 32.3461H29.4179V30.1133C29.4178 23.4064 26.7535 16.9741 22.0109 12.2316H36.787C43.494 12.2317 49.9263 14.8959 54.669 19.6383L56.8261 21.7954V12.3554L69.4017 25.6091Z" fill="white"/>
<path d="M118.051 25.6091L118.051 31.1878L118.052 31.1878L118.051 25.6091ZM69.4017 25.6091L65.3548 29.449C66.4082 30.5591 67.8713 31.1878 69.4017 31.1878V25.6091ZM120.083 26.9668L114.929 29.1021L114.929 29.1021L120.083 26.9668ZM120.251 61.467H114.672C114.672 61.8229 114.706 62.1779 114.774 62.5273L120.251 61.467ZM33.1597 73.9128H38.7385C38.7385 73.1743 38.5918 72.4432 38.3071 71.7618L33.1597 73.9128ZM27.2548 59.7828L32.4021 57.6317L27.2548 59.7828ZM16.2334 33.4078L11.0857 35.558L11.0859 35.5584L16.2334 33.4078ZM29.4179 32.3461V37.9249C32.4989 37.9249 34.9966 35.4272 34.9966 32.3461H29.4179ZM29.4179 30.1133L34.9966 30.1133L34.9966 30.1133L29.4179 30.1133ZM22.0109 12.2316V6.65283C19.7546 6.65283 17.7203 8.01205 16.8569 10.0967C15.9934 12.1813 16.4707 14.5808 18.0662 16.1764L22.0109 12.2316ZM36.787 12.2316L36.7871 6.65283H36.787V12.2316ZM54.669 19.6383L58.6137 15.6935L58.6136 15.6934L54.669 19.6383ZM56.8261 21.7954L52.8813 25.7402C54.4768 27.3357 56.8763 27.813 58.961 26.9495C61.0456 26.086 62.4048 24.0518 62.4048 21.7954H56.8261ZM56.8261 12.3554L60.873 8.51553C59.3016 6.85935 56.8796 6.32783 54.759 7.17377C52.6384 8.01971 51.2473 10.0724 51.2473 12.3554L56.8261 12.3554ZM118.051 20.0303H69.4017V31.1878H118.051V20.0303ZM121.027 20.6218C120.083 20.231 119.071 20.0301 118.049 20.0303L118.052 31.1878C117.608 31.1879 117.169 31.1006 116.759 30.9308L121.027 20.6218ZM123.551 22.3078C122.828 21.5856 121.971 21.0126 121.027 20.6218L116.759 30.9308C116.349 30.7611 115.976 30.5122 115.662 30.1984L123.551 22.3078ZM125.237 24.8316C124.846 23.8878 124.273 23.0302 123.551 22.3078L115.662 30.1984C115.348 29.8846 115.099 29.512 114.929 29.1021L125.237 24.8316ZM125.83 27.8088C125.83 26.787 125.628 25.7754 125.237 24.8316L114.929 29.1021C114.76 28.6921 114.672 28.2527 114.672 27.8088H125.83ZM125.83 61.467V27.8088H114.672V61.467H125.83ZM125.918 62.3937C125.918 61.719 125.853 61.0541 125.728 60.4066L114.774 62.5273C114.765 62.4797 114.761 62.4345 114.761 62.3937H125.918ZM125.918 94.9995V62.3937H114.761V94.9995H125.918ZM115.492 105.425C121.25 105.425 125.918 100.758 125.918 94.9995H114.761C114.761 94.5954 115.088 94.2679 115.492 94.2679V105.425ZM38.0069 105.425H115.492V94.2679H38.0069V105.425ZM27.5809 94.9995C27.5809 100.758 32.2488 105.425 38.0069 105.425V94.2679C38.4109 94.2679 38.7385 94.5954 38.7385 94.9995H27.5809ZM27.5809 73.9128V94.9995H38.7385V73.9128H27.5809ZM22.1074 61.9339C24.058 66.6013 26.043 71.3512 28.0123 76.0638L38.3071 71.7618C36.3377 67.0491 34.3527 62.2991 32.4021 57.6317L22.1074 61.9339ZM11.0859 35.5584C14.3392 43.3453 18.1525 52.4701 22.1074 61.9339L32.4021 57.6317C28.4471 48.1678 24.634 39.0435 21.381 31.2572L11.0859 35.5584ZM17.0089 26.7674C15.4154 26.7674 13.2372 27.36 11.7716 29.3669C10.2403 31.4636 10.3822 33.8738 11.0857 35.558L21.3811 31.2576C21.8397 32.3554 22.0327 34.2348 20.782 35.9473C19.597 37.57 17.9289 37.9249 17.0089 37.9249V26.7674ZM29.4179 26.7674H17.0089V37.9249H29.4179V26.7674ZM23.8391 30.1133V32.3461H34.9966V30.1133H23.8391ZM18.0662 16.1764C21.7625 19.8727 23.8391 24.886 23.8391 30.1134L34.9966 30.1133C34.9966 21.9268 31.7445 14.0756 25.9557 8.28681L18.0662 16.1764ZM36.787 6.65283H22.0109V17.8103H36.787V6.65283ZM58.6136 15.6934C52.8247 9.90491 44.9736 6.65295 36.7871 6.65283L36.7869 17.8103C42.0144 17.8104 47.0278 19.887 50.7243 23.5832L58.6136 15.6934ZM60.7709 17.8506L58.6137 15.6935L50.7242 23.5831L52.8813 25.7402L60.7709 17.8506ZM51.2473 12.3554V21.7954H62.4048V12.3554H51.2473ZM73.4486 21.7692L60.873 8.51553L52.7792 16.1953L65.3548 29.449L73.4486 21.7692Z" fill="white"/>
<path d="M118.05 25.4369H58.1049C56.8899 25.4369 55.905 26.4218 55.905 27.6368V74.5066C55.905 75.7216 56.8899 76.7065 58.1049 76.7065H118.05C119.265 76.7065 120.25 75.7216 120.25 74.5066V27.6368C120.25 26.4218 119.265 25.4369 118.05 25.4369Z" fill="url(#paint0_linear)"/>
<path d="M104.747 25.4763H55.4734C54.5766 25.4763 53.8496 26.2033 53.8496 27.1001V75.1222C53.8496 76.019 54.5766 76.746 55.4734 76.746H104.747C105.644 76.746 106.371 76.019 106.371 75.1222V27.1001C106.371 26.2033 105.644 25.4763 104.747 25.4763Z" fill="#4DB3FF"/>
<path d="M86.1859 29.5724H47.3457C46.3009 29.5724 45.4539 30.4194 45.4539 31.4642V74.738C45.4539 75.7828 46.3009 76.6297 47.3457 76.6297H86.1859C87.2307 76.6297 88.0777 75.7828 88.0777 74.738V31.4642C88.0777 30.4194 87.2307 29.5724 86.1859 29.5724Z" fill="#292929"/>
<path d="M29.9078 35.5805V31.2708C29.9078 24.5638 27.2434 18.1316 22.5009 13.389H37.2764C43.9831 13.389 50.4151 16.0532 55.1576 20.7954L57.3147 22.9525V13.5136L83.6762 41.2958C93.4041 51.548 85.8835 68.4439 71.7553 68.0777L61.9062 67.9611C53.385 67.8598 45.2471 64.4037 39.2572 58.3422C33.2672 52.2807 29.908 44.1024 29.9078 35.5805Z" fill="url(#paint1_linear)"/>
<path d="M88.3778 76.8269H39.5451C38.8719 76.8269 38.1275 76.3515 37.8824 75.7652L20.11 33.2324C19.8651 32.6461 20.2121 32.1708 20.8853 32.1708H69.718C70.3911 32.1708 71.1355 32.6461 71.3804 33.2324L89.1525 75.7652C89.3981 76.3515 89.0509 76.8269 88.3778 76.8269Z" fill="url(#paint2_linear)"/>
<path d="M84.1519 76.8269H35.3193C34.6461 76.8269 33.9017 76.3515 33.6566 75.7652L15.8849 33.2324C15.64 32.6461 15.987 32.1708 16.6602 32.1708H65.4929C66.166 32.1708 66.9104 32.6461 67.1555 33.2324L84.9272 75.7652C85.173 76.3515 84.8253 76.8269 84.1519 76.8269Z" fill="#5ECAFF"/>
<path d="M62.323 39.0513H25.1313C24.6702 39.0513 24.4323 39.3769 24.6002 39.7787L37.3198 70.2164C37.4265 70.429 37.5887 70.6089 37.7892 70.7369C37.9897 70.865 38.221 70.9365 38.4588 70.9439H75.6505C76.1117 70.9439 76.3495 70.6181 76.1816 70.2164L63.462 39.7787C63.3554 39.566 63.1933 39.3861 62.9928 39.258C62.7923 39.1299 62.5608 39.0585 62.323 39.0513V39.0513Z" fill="#4DB3FF"/>
<path d="M33.1597 48.9801L40.2785 53.101" stroke="#292929" stroke-width="2.2315" stroke-linecap="round" stroke-linejoin="round"/>
<path d="M38.7902 49.0114L34.671 53.1322" stroke="#292929" stroke-width="2.2315" stroke-linecap="round" stroke-linejoin="round"/>
<path d="M52.6639 48.9801L59.7828 53.101" stroke="#292929" stroke-width="2.2315" stroke-linecap="round" stroke-linejoin="round"/>
<path d="M58.2944 49.0114L54.1752 53.1322" stroke="#292929" stroke-width="2.2315" stroke-linecap="round" stroke-linejoin="round"/>
<path d="M43.0668 62.3675C43.8308 61.3157 44.7944 60.4246 45.9027 59.7452C47.011 59.0658 48.2423 58.6113 49.5262 58.4077C50.8101 58.2042 52.1216 58.2555 53.3857 58.5588C54.6498 58.862 55.8418 59.4113 56.8936 60.1752" stroke="#292929" stroke-width="2.2315" stroke-linecap="round" stroke-linejoin="round"/>
<path d="M100.881 33.6912C98.7624 31.5722 95.3268 31.5722 93.2077 33.6912C91.0887 35.8102 91.0887 39.2458 93.2077 41.3648C95.3268 43.4839 98.7624 43.4839 100.881 41.3648C103 39.2458 103 35.8102 100.881 33.6912Z" fill="url(#paint3_angular)"/>
<path d="M97.0446 40.2282C98.5358 40.2282 99.7447 39.0193 99.7447 37.5281C99.7447 36.0368 98.5358 34.828 97.0446 34.828C95.5534 34.828 94.3445 36.0368 94.3445 37.5281C94.3445 39.0193 95.5534 40.2282 97.0446 40.2282Z" fill="#4DB3FF"/>
<path d="M99.3367 34.7928L97.4114 35.5813L98.9921 37.1619L99.7807 35.2367C99.8063 35.1746 99.8129 35.1063 99.7997 35.0405C99.7865 34.9747 99.7541 34.9142 99.7066 34.8667C99.6591 34.8193 99.5987 34.7869 99.5328 34.7738C99.467 34.7606 99.3987 34.7672 99.3367 34.7928Z" fill="#4DB3FF"/>
<path d="M101.952 47.9695H92.4023C91.5455 47.9695 90.851 48.6639 90.851 49.5206C90.851 50.3773 91.5455 51.0718 92.4023 51.0718H101.952C102.809 51.0718 103.503 50.3773 103.503 49.5206C103.503 48.6639 102.809 47.9695 101.952 47.9695Z" fill="white"/>
<path d="M101.952 54.0722H92.4023C91.5455 54.0722 90.851 54.7667 90.851 55.6234C90.851 56.4801 91.5455 57.1746 92.4023 57.1746H101.952C102.809 57.1746 103.503 56.4801 103.503 55.6234C103.503 54.7667 102.809 54.0722 101.952 54.0722Z" fill="white"/>
<path d="M101.952 60.175H92.4023C91.5455 60.175 90.851 60.8695 90.851 61.7262C90.851 62.5829 91.5455 63.2774 92.4023 63.2774H101.952C102.809 63.2774 103.503 62.5829 103.503 61.7262C103.503 60.8695 102.809 60.175 101.952 60.175Z" fill="white"/>
<g clip-path="url(#clip0)">
<path d="M41.7272 96.2279C41.7272 97.3753 42.9582 96.8434 42.9582 98.1024C42.9582 99.1102 42.3427 100.005 38.1735 100.005C34.7612 100.005 32.9146 99.8355 32.9146 98.2139C32.9146 96.9829 34.4543 97.0387 34.7054 96.2C35.9643 91.9471 36.3009 87.2201 36.3009 84.3935C36.3009 82.7701 34.7054 83.6106 34.7054 82.0709C34.7054 81.764 34.2851 79.9454 40.8048 79.9454C44.1893 79.9454 44.8903 80.5888 44.8903 81.5967C44.8903 83.2201 43.239 82.7162 42.988 84.3396C42.7648 85.7938 42.6235 86.7738 42.6235 87.3614C42.6235 87.7538 42.4003 88.1722 45.0019 88.1722C45.5059 88.1722 46.709 88.1164 46.9322 87.5009C47.1274 86.969 47.2669 84.7877 47.2669 84.1443C47.2669 82.6064 46.0358 83.222 46.0358 81.8496C46.0358 80.4233 47.1274 79.9472 51.7429 79.9472C55.4918 79.9472 56.0794 80.5906 56.0794 81.5428C56.0794 83.3893 54.2887 82.1862 54.0097 84.3414C53.5337 87.8114 52.8345 92.0066 52.7229 95.6161C52.6671 97.6858 54.2329 96.2874 54.2329 98.134C54.2329 99.1976 53.3105 100.008 49.4761 100.008C45.4463 100.008 44.02 99.8411 44.02 98.2176C44.02 96.7635 45.4742 97.4627 45.7271 96.1758C46.1195 94.1898 46.3427 93.0982 46.3427 92.2874C46.3427 91.4209 45.1395 91.393 44.524 91.393C42.1456 91.393 42.2014 91.7296 42.0061 92.8472L41.7272 96.2279Z" fill="url(#paint4_linear)"/>
<path d="M61.2565 99.7797C59.9976 99.7797 58.7108 100.031 57.4518 100.031C55.6611 100.031 55.1013 99.3036 55.1013 98.3794C55.1013 96.7002 56.8363 97.485 57.4518 95.6942C58.0952 93.736 59.0752 87.0211 59.0752 84.9235C59.0752 82.7403 57.3403 83.553 57.3403 82.0132C57.3403 80.3898 58.8223 80.0272 60.1668 80.083C60.866 80.1109 61.5652 80.1388 62.2923 80.1388C63.0194 80.1667 63.7465 80.1667 64.4755 80.1667H68.8678C69.8757 80.1667 70.4912 80.083 70.9096 79.9993C71.328 79.9156 71.581 79.8319 71.8617 79.8319C72.8139 79.8319 74.2123 81.3717 74.2123 84.0011C74.2123 85.0369 73.7083 86.1545 72.5331 86.1545C70.2662 86.1545 71.5531 83.3837 68.2244 83.3837C65.3978 83.3837 65.7623 83.8877 65.4555 86.8537C65.3718 87.9453 65.1468 88.1685 66.071 88.1685C67.7223 88.1685 66.7702 85.5948 68.5052 85.5948C70.2123 85.5948 70.3797 87.8337 70.3797 89.0927C70.3797 90.5748 69.8757 94.2121 67.9176 94.2121C65.8479 94.2121 67.4694 91.3855 65.7344 91.3855C64.5592 91.3855 64.8679 93.9871 64.8679 94.8555C64.8679 96.6184 64.8957 96.5626 66.7423 96.5626C71.1068 96.5626 70.0989 92.9532 72.3657 92.9532C73.7083 92.9532 74.0449 94.0447 74.0449 95.1921C74.0449 97.7937 72.1147 99.9768 71.0789 99.9768C70.9115 99.9768 70.7423 99.921 70.4354 99.8652C70.0989 99.8373 69.6247 99.7816 68.7283 99.7816H61.2565V99.7797Z" fill="url(#paint5_linear)"/>
<path d="M78.7143 99.7797C78.6306 99.7797 78.294 99.8076 77.8198 99.8076C77.3717 99.8355 76.7841 99.8634 76.1964 99.8634C75.1327 99.8634 74.2104 99.4431 74.2104 98.2121C74.2104 96.5329 75.8059 97.26 76.5051 95.5547C77.1485 93.9871 78.1006 86.294 78.1006 84.1406C78.1006 82.9374 76.0867 83.4693 76.0867 81.8738C76.0867 80.2503 78.1285 79.9435 83.4451 79.9435C86.9709 79.9435 87.5306 80.6148 87.5306 81.6506C87.5306 84.1685 84.9848 81.314 84.5924 85.9314L83.9211 94.1284C83.8653 94.6324 83.7817 95.3037 83.949 95.7797C84.2559 96.5068 85.684 96.3953 86.2716 96.3953C89.8253 96.3953 89.2098 92.9829 91.2516 92.9829C92.4548 92.9829 92.9308 93.7658 92.9308 94.9132C92.9308 96.3953 91.9508 100.088 90.0485 100.088C89.5445 100.088 89.2935 100.005 89.0406 99.921C88.7616 99.8652 88.4808 99.7816 87.8932 99.7816H78.7143V99.7797Z" fill="url(#paint6_linear)"/>
<path d="M102.216 94.7718C101.768 97.961 104.034 96.1424 104.034 98.0726C104.034 99.4989 102.327 100.003 97.935 100.003C92.9829 100.003 92.9829 98.8276 92.9829 98.1284C92.9829 96.4213 94.465 97.6802 94.9968 95.8616C95.7239 93.3716 96.7597 86.4056 96.7597 83.8598C96.7597 82.4893 94.7737 83.553 94.7737 81.8459C94.7737 80.2783 96.5645 80.0272 97.7676 80.0272C98.4389 80.0272 99.2776 80.0551 100.062 80.083C100.873 80.1388 101.6 80.1667 102.076 80.1667C102.803 80.1667 103.53 80.1388 104.287 80.083C105.014 80.0551 105.742 80.0272 106.47 80.0272C109.94 80.0272 112.626 81.2304 112.626 85.1745C112.626 88.8677 110.136 92.6724 103.674 92.6724C103.226 92.6724 102.807 92.6445 102.359 92.6445L102.216 94.7718ZM102.859 87.5827C102.803 88.003 102.664 88.8695 102.664 89.234C102.664 89.6822 102.775 89.7101 103.196 89.7101C105.379 89.7101 105.769 86.1564 105.769 84.5627C105.769 83.4433 105.265 82.7998 104.146 82.7998C103.447 82.7998 103.419 83.499 103.166 85.2898L102.859 87.5827Z" fill="url(#paint7_linear)"/>
<path d="M119.309 97.0945C119.225 99.0526 117.686 100.367 115.98 100.367C114.273 100.367 112.847 99.0526 112.931 97.0945C113.014 95.22 114.554 93.989 116.259 93.989C117.965 93.989 119.393 95.22 119.309 97.0945ZM121.072 82.798C121.016 85.6803 119.504 88.6166 118.19 91.0508C117.911 91.5827 117.379 92.2819 116.68 92.2819C115.925 92.2819 115.616 91.5827 115.393 90.9671C114.526 88.7282 114.05 85.8198 114.05 83.4135C114.048 80.9514 115.504 79.7762 117.938 79.7762C119.897 79.7762 121.1 80.8119 121.072 82.798Z" fill="url(#paint8_linear)"/>
</g>
<defs>
<linearGradient id="paint0_linear" x1="88.0776" y1="25.4369" x2="88.0776" y2="76.7065" gradientUnits="userSpaceOnUse">
<stop stop-color="#517CEA"/>
<stop offset="1" stop-color="#50B2FF"/>
</linearGradient>
<linearGradient id="paint1_linear" x1="55.2842" y1="13.389" x2="55.2842" y2="68.0836" gradientUnits="userSpaceOnUse">
<stop stop-color="#F98300"/>
<stop offset="1" stop-color="#FF4205"/>
</linearGradient>
<linearGradient id="paint2_linear" x1="54.6314" y1="32.1708" x2="54.6314" y2="76.8269" gradientUnits="userSpaceOnUse">
<stop stop-color="#517CEA"/>
<stop offset="1" stop-color="#4DB3FF"/>
</linearGradient>
<radialGradient id="paint3_angular" cx="0" cy="0" r="1" gradientUnits="userSpaceOnUse" gradientTransform="translate(97.0446 37.528) rotate(-45) scale(5.42608)">
<stop stop-color="#7AD0FF"/>
<stop offset="1" stop-color="white"/>
</radialGradient>
<linearGradient id="paint4_linear" x1="44.497" y1="79.9454" x2="44.497" y2="100.008" gradientUnits="userSpaceOnUse">
<stop stop-color="#F27E00"/>
<stop offset="1" stop-color="#FD5D03"/>
</linearGradient>
<linearGradient id="paint5_linear" x1="64.6568" y1="79.8319" x2="64.6568" y2="100.031" gradientUnits="userSpaceOnUse">
<stop stop-color="#F27E00"/>
<stop offset="1" stop-color="#FD5D03"/>
</linearGradient>
<linearGradient id="paint6_linear" x1="83.5706" y1="79.9435" x2="83.5706" y2="100.088" gradientUnits="userSpaceOnUse">
<stop stop-color="#F27E00"/>
<stop offset="1" stop-color="#FD5D03"/>
</linearGradient>
<linearGradient id="paint7_linear" x1="102.804" y1="80.0272" x2="102.804" y2="100.003" gradientUnits="userSpaceOnUse">
<stop stop-color="#F27E00"/>
<stop offset="1" stop-color="#FD5D03"/>
</linearGradient>
<linearGradient id="paint8_linear" x1="117" y1="79.7762" x2="117" y2="100.367" gradientUnits="userSpaceOnUse">
<stop stop-color="#F27E00"/>
<stop offset="1" stop-color="#FD5D03"/>
</linearGradient>
<clipPath id="clip0">
<rect width="88.1573" height="20.5912" fill="white" transform="translate(32.9146 79.7762)"/>
</clipPath>
</defs>
</svg>
