<svg width="64" height="64" viewBox="0 0 64 64" fill="none" xmlns="http://www.w3.org/2000/svg">
<path fill-rule="evenodd" clip-rule="evenodd" d="M22.2886 58.2932V54.1608L24.4394 43.4068L14.3251 42.283C10.7242 41.8829 8 38.8392 8 35.2161V31.2161C8 29.4286 8.67323 27.7067 9.88564 26.3933L32.7025 1.67505C33.6881 0.607291 35.0751 0 36.5283 0C39.636 0 42.0088 2.68924 41.7114 5.70675V9.44316C41.7114 9.70657 41.6853 9.96933 41.6337 10.2276L39.5606 20.5932L49.6749 21.717C53.2758 22.1171 56 25.1608 56 28.7839V32.7839C56 34.5714 55.3268 36.2933 54.1144 37.6067L31.2975 62.325C30.3119 63.3927 28.9249 64 27.4717 64C24.364 64 21.9912 61.3108 22.2886 58.2932Z" fill="#815C13"/>
<path d="M14.7669 38.3074L29.2174 39.913L26.2886 54.5568V58.5568C26.1393 59.3034 26.7104 60 27.4717 60C27.8085 60 28.1299 59.8593 28.3583 59.6118L51.1751 34.8936C51.7055 34.319 52 33.5658 52 32.7839V28.7839C52 27.199 50.8083 25.8676 49.2331 25.6926L34.7826 24.087L37.7114 9.44316V5.44316C37.8607 4.69657 37.2896 4 36.5283 4C36.1915 4 35.8701 4.14073 35.6417 4.38817L12.8249 29.1064C12.2945 29.681 12 30.4342 12 31.2161V35.2161C12 36.801 13.1917 38.1324 14.7669 38.3074Z" fill="#FEAA01"/>
<path d="M30 36L14.7669 34.3074C13.1917 34.1324 12 32.801 12 31.2161C12 30.4342 12.2945 29.681 12.8249 29.1064L35.6417 4.38817C35.8701 4.14073 36.1915 4 36.5283 4C37.2896 4 37.8607 4.69657 37.7114 5.44316L34 24L49.2331 25.6926C50.8083 25.8676 52 27.199 52 28.7839C52 29.5658 51.7055 30.319 51.1751 30.8936L28.3583 55.6118C28.1299 55.8593 27.8085 56 27.4717 56C26.7104 56 26.1393 55.3034 26.2886 54.5568L30 36Z" fill="url(#paint0_linear)"/>
<defs>
<linearGradient id="paint0_linear" x1="32" y1="4" x2="32" y2="56" gradientUnits="userSpaceOnUse">
<stop stop-color="#FFE7B8"/>
<stop offset="1" stop-color="#FFD175"/>
</linearGradient>
</defs>
</svg>
