<svg width="128" height="109" viewBox="0 0 128 109" fill="none" xmlns="http://www.w3.org/2000/svg">
<path d="M78.0503 108.703C71.1992 108.703 65.0079 106.318 60.1868 101.751C59.8823 101.497 59.6285 101.193 59.3748 100.939C56.1269 102.411 51.8133 103.781 46.7384 103.781C42.9323 103.781 39.1261 103.02 35.4722 101.497C26.2868 97.6402 22.3791 91.3981 20.7552 86.8308C20.4507 86.0188 20.2477 85.2068 20.0447 84.4456C17.7102 83.9381 14.9698 83.0246 12.3309 81.4514C7.35754 78.508 1.16621 72.3674 0.151243 60.0863C-0.711482 49.5813 2.28268 42.9333 4.9216 39.2286C5.83508 37.9599 6.7993 36.8942 7.71277 36.0315C7.66203 34.4075 7.66202 32.4283 7.91577 30.3476C8.93074 22.3294 12.7369 15.9858 18.979 12.0782C23.2926 9.33773 27.8599 7.96752 32.4781 7.96752C34.6602 7.96752 36.5887 8.27201 38.3141 8.72875C41.765 4.31363 47.7534 0.202994 57.2434 0C57.4464 0 57.7001 0 57.9031 0C65.3631 0 70.1842 2.68967 73.0262 5.2271C75.8681 3.85689 79.522 2.74042 83.7849 2.74042C87.185 2.74042 90.5851 3.4509 93.8838 4.92261C102.613 8.7795 106.622 14.6156 108.499 18.8277C108.855 19.6904 109.159 20.5024 109.413 21.2636C110.479 21.5174 111.544 21.8726 112.712 22.3294C117.482 24.2578 121.187 27.7087 123.47 32.3268C128.19 41.8676 126.667 49.7843 123.673 55.1637C127.276 59.934 129.814 67.1403 126.363 76.1736C122.201 87.1353 113.422 93.5296 102.207 93.8341C101.699 94.7983 101.141 95.864 100.481 96.879C96.472 103.07 90.6359 106.978 83.7341 108.196C81.7549 108.5 79.8772 108.703 78.0503 108.703Z" fill="white"/>
<path d="M15.7818 39.0764C15.7818 39.0764 12.6354 24.5623 23.3433 17.8128C33.9497 11.1647 42.1203 17.6098 42.1203 17.6098C42.1203 17.6098 44.2517 7.10482 58.0046 6.80033C69.5752 6.54659 71.9097 14.5649 71.9097 14.5649C71.9097 14.5649 80.3339 6.1406 91.6001 11.1647C104.439 16.8485 103.932 27.5057 103.932 27.5057C103.932 27.5057 113.473 26.7445 117.685 35.2703C124.181 48.4649 114.741 55.6712 114.741 55.6712C114.741 55.6712 124.84 61.7103 120.375 73.4839C114.082 89.9265 98.1467 86.2726 98.1467 86.2726C98.1467 86.2726 95.254 98.9597 83.1251 101.091C67.4945 103.832 61.9122 91.4489 61.9122 91.4489C61.9122 91.4489 51.7625 100.228 38.8724 94.7983C25.6777 89.2667 27.2002 77.8483 27.2002 77.8483C27.2002 77.8483 9.48895 79.0663 7.86499 59.3251C6.49478 43.0855 15.7818 39.0764 15.7818 39.0764Z" fill="white" stroke="#030401" stroke-width="1.52246" stroke-miterlimit="10" stroke-linecap="round" stroke-linejoin="round"/>
<path d="M21.4656 40.8526C21.4656 40.8526 18.9789 28.2162 28.3674 22.3294C37.6544 16.4933 44.8099 22.1772 44.8099 22.1772C44.8099 22.1772 46.6876 12.9409 58.7658 12.6872C68.9155 12.4842 70.9454 19.4875 70.9454 19.4875C70.9454 19.4875 78.304 12.129 88.2507 16.4933C99.5169 21.4667 99.1616 30.5507 99.1616 30.5507C99.1616 30.5507 107.434 30.1447 111.138 37.6555C116.822 49.2261 108.55 55.519 108.55 55.519C108.55 55.519 117.431 60.7968 113.473 71.1495C107.941 85.6129 93.9853 82.365 93.9853 82.365C93.9853 82.365 91.4479 93.4789 80.7907 95.3566C67.0886 97.7925 62.1659 86.8816 62.1659 86.8816C62.1659 86.8816 53.2342 94.5446 41.968 89.825C30.3974 85.0039 31.7168 74.9557 31.7168 74.9557C31.7168 74.9557 16.1878 76.0214 14.7668 58.7161C13.5996 44.4558 21.4656 40.8526 21.4656 40.8526Z" stroke="#FFCA49" stroke-width="1.52246" stroke-miterlimit="10" stroke-linecap="round" stroke-linejoin="round"/>
<path d="M26.1852 42.2736C26.1852 42.2736 24.3075 31.2612 32.6303 26.0341C40.8516 20.8577 47.1444 25.8818 47.1444 25.8818C47.1444 25.8818 48.7683 17.762 59.4255 17.5083C68.408 17.3053 70.1842 23.4966 70.1842 23.4966C70.1842 23.4966 76.68 17.0008 85.4088 20.8577C95.3555 25.2221 95.1525 32.8344 95.1525 32.8344C95.1525 32.8344 102.359 32.8851 105.607 39.4824C110.631 49.6829 103.323 55.2652 103.323 55.2652C103.323 55.2652 111.138 59.9341 107.687 69.0181C102.816 81.756 90.4836 78.9141 90.4836 78.9141C90.4836 78.9141 88.2507 88.7085 78.8622 90.3832C66.7841 92.5147 62.4704 82.9232 62.4704 82.9232C62.4704 82.9232 54.6044 89.6727 44.6577 85.5114C34.4572 81.2485 35.6245 72.4182 35.6245 72.4182C35.6245 72.4182 21.9223 73.3825 20.6536 58.1071C19.5879 45.623 26.1852 42.2736 26.1852 42.2736Z" fill="#4BC17E"/>
<path d="M64.6019 77.4423C83.5486 77.4423 98.9079 67.0134 98.9079 54.1487C98.9079 41.284 83.5486 30.8551 64.6019 30.8551C45.6552 30.8551 30.2958 41.284 30.2958 54.1487C30.2958 67.0134 45.6552 77.4423 64.6019 77.4423Z" fill="#010101"/>
<path d="M40.1921 45.8259C39.8876 48.7186 40.4458 48.9723 40.6488 52.7784C40.9026 56.5846 39.0756 61.8624 42.9325 62.2684C48.4641 62.8267 47.1446 56.2293 45.9774 53.6412L49.9865 53.4889L49.4791 51.5097L45.9774 51.662C45.9774 51.662 47.5506 46.7901 46.5864 44.7602C45.3177 41.969 40.5473 42.578 40.1921 45.8259Z" fill="#FF77E6"/>
<path d="M53.9956 45.7244C54.3509 48.6171 53.7926 48.8708 53.6404 52.677C53.4882 56.4831 55.3658 61.761 51.509 62.2177C45.9774 62.8774 47.1953 56.2801 48.3118 53.6412L44.3027 53.5905L44.7594 51.5605L48.2611 51.6113C48.2611 51.6113 46.7893 46.7901 47.7536 44.7095C49.0223 41.9183 53.5897 42.4765 53.9956 45.7244Z" fill="#FF77E6"/>
<path d="M56.533 61.761C57.9539 62.776 61.3033 62.3192 60.6944 56.9399C60.6436 56.5846 60.8974 56.3309 61.2526 56.3309C61.5571 56.3309 61.8108 56.6354 61.7601 56.9906C61.6078 57.8534 61.3034 58.9191 61.3034 60.1878C61.3034 61.152 61.6078 61.6087 62.1153 61.9132C63.1303 62.6237 65.5155 62.37 65.4647 60.137C65.414 58.8683 65.211 57.8026 65.0587 56.9399C65.008 56.6354 65.211 56.3309 65.5662 56.2801C65.9215 56.2801 66.226 56.5846 66.1245 56.8891C64.8557 61.761 68.8141 62.7252 70.2858 61.7102C72.3158 60.2893 71.9606 57.5489 71.6053 55.9757C69.8799 48.7694 70.8948 46.0797 69.7276 44.2527C68.9664 43.0855 67.4947 42.4765 66.023 42.8318C64.2975 43.2378 63.4348 45.6737 63.4348 45.6737C63.4348 45.6737 62.5213 43.0855 60.9481 42.8318C59.4256 42.578 58.0047 43.0348 57.2435 44.202C56.0255 46.0289 57.0912 48.7186 55.315 55.9249C54.8583 57.5996 54.503 60.34 56.533 61.761Z" fill="#FF77E6"/>
<path d="M74.1934 61.761C75.6143 62.776 78.9638 62.3192 78.3548 56.9399C78.304 56.5846 78.5578 56.3309 78.913 56.3309C79.2175 56.3309 79.4712 56.6354 79.4205 56.9906C79.2682 57.8534 78.9638 58.9191 78.9638 60.1878C78.9638 61.152 79.2682 61.6087 79.7757 61.9132C80.7907 62.6237 83.1759 62.37 83.1251 60.137C83.0744 58.8683 82.8714 57.8026 82.7191 56.9399C82.6684 56.6354 82.8714 56.3309 83.2266 56.2801C83.5819 56.2801 83.8864 56.5846 83.7849 56.8891C82.5162 61.761 86.4745 62.7252 87.9462 61.7102C89.9762 60.2893 89.621 57.5489 89.2657 55.9757C87.5403 48.7694 88.5552 46.0797 87.388 44.2527C86.6268 43.0855 85.1551 42.4765 83.6834 42.8318C81.9579 43.2378 81.0952 45.6737 81.0952 45.6737C81.0952 45.6737 80.1817 43.0855 78.6085 42.8318C77.0861 42.578 75.6651 43.0348 74.9039 44.202C73.6859 46.0289 74.7516 48.7186 72.9754 55.9249C72.5187 57.5996 72.1634 60.34 74.1934 61.761Z" fill="#FF77E6"/>
<path d="M58.1568 69.9823C59.2779 69.9823 60.1867 69.0734 60.1867 67.9523C60.1867 66.8312 59.2779 65.9224 58.1568 65.9224C57.0357 65.9224 56.1268 66.8312 56.1268 67.9523C56.1268 69.0734 57.0357 69.9823 58.1568 69.9823Z" fill="#FF77E6"/>
<path d="M64.8048 69.9823C65.9259 69.9823 66.8347 69.0734 66.8347 67.9523C66.8347 66.8312 65.9259 65.9224 64.8048 65.9224C63.6837 65.9224 62.7748 66.8312 62.7748 67.9523C62.7748 69.0734 63.6837 69.9823 64.8048 69.9823Z" fill="#FF77E6"/>
<path d="M71.5036 69.9823C72.6247 69.9823 73.5335 69.0734 73.5335 67.9523C73.5335 66.8312 72.6247 65.9224 71.5036 65.9224C70.3825 65.9224 69.4736 66.8312 69.4736 67.9523C69.4736 69.0734 70.3825 69.9823 71.5036 69.9823Z" fill="#FF77E6"/>
</svg>
