<svg width="128" height="135" viewBox="0 0 128 135" fill="none" xmlns="http://www.w3.org/2000/svg">
<g clip-path="url(#clip0)">
<path fill-rule="evenodd" clip-rule="evenodd" d="M112.5 99.5399C116.795 90.3009 119.283 79.253 119.283 67.3593C119.283 34.9538 100.691 8.68778 77.7557 8.68778C54.7909 8.68778 36.1991 34.9538 36.1991 67.3593C36.1991 75.4151 37.3483 83.0829 39.4232 90.0633H26.3529C16.5967 90.0633 8.68778 97.9723 8.68778 107.729C8.68778 117.485 16.5967 125.394 26.3529 125.394H49.81C59.4209 125.394 67.2393 117.718 67.4699 108.163H97.6899C103.9 108.163 109.882 105.171 112.5 99.5399Z" fill="white"/>
<path d="M112.5 99.5399L104.622 95.8777L104.622 95.8777L112.5 99.5399ZM39.4232 90.0633V98.7511H51.069L47.7508 87.588L39.4232 90.0633ZM67.4699 108.163V99.4751H58.9892L58.7846 107.953L67.4699 108.163ZM110.595 67.3593C110.595 78.0634 108.352 87.8525 104.622 95.8777L120.378 103.202C125.237 92.7494 127.971 80.4426 127.971 67.3593H110.595ZM77.7557 17.3756C85.6543 17.3756 93.6548 21.885 100.029 30.8907C106.388 39.8752 110.595 52.7411 110.595 67.3593H127.971C127.971 49.5721 122.882 33.1021 114.212 20.8523C105.556 8.62364 92.7928 -9.53674e-07 77.7557 -9.53674e-07V17.3756ZM44.8869 67.3593C44.8869 52.741 49.0939 39.876 55.4557 30.8923C61.8316 21.8887 69.8389 17.3756 77.7557 17.3756V-9.53674e-07C62.7077 -9.53674e-07 49.9368 8.61989 41.2755 20.8507C32.6003 33.1013 27.5113 49.5721 27.5113 67.3593H44.8869ZM47.7508 87.588C45.9196 81.4272 44.8869 74.594 44.8869 67.3593H27.5113C27.5113 76.2361 28.777 84.7385 31.0955 92.5387L47.7508 87.588ZM26.3529 98.7511H39.4232V81.3756H26.3529V98.7511ZM17.3756 107.729C17.3756 102.77 21.3949 98.7511 26.3529 98.7511V81.3756C11.7986 81.3756 -9.53674e-07 93.1742 -9.53674e-07 107.729H17.3756ZM26.3529 116.706C21.3949 116.706 17.3756 112.687 17.3756 107.729H-9.53674e-07C-9.53674e-07 122.283 11.7986 134.081 26.3529 134.081V116.706ZM49.81 116.706H26.3529V134.081H49.81V116.706ZM58.7846 107.953C58.6675 112.805 54.693 116.706 49.81 116.706V134.081C64.1489 134.081 75.811 122.632 76.1551 108.373L58.7846 107.953ZM97.6899 99.4751H67.4699V116.851H97.6899V99.4751ZM104.622 95.8777C103.751 97.7502 101.359 99.4751 97.6899 99.4751V116.851C106.442 116.851 116.013 112.593 120.378 103.202L104.622 95.8777Z" fill="white"/>
<path d="M119.283 67.0697C119.283 78.9634 116.795 90.0114 112.5 99.2503C109.882 104.882 103.9 107.873 97.6899 107.873H57.8149C51.5923 107.873 45.6014 104.869 42.9828 99.2244C38.6994 89.9907 36.1991 78.9523 36.1991 67.0697C36.1991 34.6643 54.791 8.39819 77.7557 8.39819C100.691 8.39819 119.283 34.6643 119.283 67.0697Z" fill="#FAE4D4"/>
<path fill-rule="evenodd" clip-rule="evenodd" d="M102.364 99.2503C106.659 90.0114 109.148 78.9634 109.148 67.0697C109.148 37.0867 93.2314 12.3595 72.6848 8.83012C74.3467 8.54497 76.039 8.39819 77.7557 8.39819C100.691 8.39819 119.283 34.6643 119.283 67.0697C119.283 78.9634 116.795 90.0114 112.5 99.2503C109.882 104.882 103.9 107.873 97.6899 107.873H87.5542C93.7643 107.873 99.7462 104.882 102.364 99.2503Z" fill="url(#paint0_linear)"/>
<rect x="8.68778" y="89.7738" width="56.5339" height="34.0588" rx="17.0294" fill="#7AD0FF"/>
<path d="M23.5932 112.462C26.1842 112.462 27.9455 110.775 27.9398 108.422C27.9455 106.195 26.3887 104.593 24.2921 104.593C23.2694 104.593 22.3887 105.019 21.9796 105.593H21.9114L22.2126 102.678H27.2978V100.667H20.1842L19.633 106.803L21.8205 107.195C22.1785 106.712 22.8717 106.411 23.5592 106.411C24.7296 106.417 25.5705 107.263 25.5705 108.485C25.5705 109.695 24.7467 110.53 23.5932 110.53C22.616 110.53 21.8262 109.917 21.7694 109.013H19.383C19.4285 111.025 21.1842 112.462 23.5932 112.462ZM31.0932 105.246C31.8205 105.246 32.4512 104.638 32.4569 103.883C32.4512 103.138 31.8205 102.53 31.0932 102.53C30.3432 102.53 29.7239 103.138 29.7296 103.883C29.7239 104.638 30.3432 105.246 31.0932 105.246ZM31.0932 110.951C31.8205 110.951 32.4512 110.343 32.4569 109.587C32.4512 108.843 31.8205 108.235 31.0932 108.235C30.3432 108.235 29.7239 108.843 29.7296 109.587C29.7239 110.343 30.3432 110.951 31.0932 110.951ZM38.9839 112.559C41.91 112.559 43.6771 110.332 43.6827 106.496C43.6884 102.69 41.8986 100.508 38.9839 100.508C36.0634 100.508 34.2907 102.684 34.285 106.496C34.2736 110.32 36.0521 112.553 38.9839 112.559ZM38.9839 110.519C37.6486 110.519 36.785 109.178 36.7907 106.496C36.7964 103.854 37.6543 102.525 38.9839 102.525C40.3077 102.525 41.1714 103.854 41.1714 106.496C41.1771 109.178 40.3134 110.519 38.9839 110.519ZM49.9995 112.559C52.9256 112.559 54.6927 110.332 54.6984 106.496C54.704 102.69 52.9143 100.508 49.9995 100.508C47.079 100.508 45.3063 102.684 45.3006 106.496C45.2893 110.32 47.0677 112.553 49.9995 112.559ZM49.9995 110.519C48.6643 110.519 47.8006 109.178 47.8063 106.496C47.812 103.854 48.6699 102.525 49.9995 102.525C51.3234 102.525 52.187 103.854 52.187 106.496C52.1927 109.178 51.329 110.519 49.9995 110.519Z" fill="#292929"/>
<path d="M42.4543 62.9865C41.6724 62.9865 41.0643 63.6236 41.0643 64.3765V70.4C41.0643 71.1819 41.7014 71.7901 42.4543 71.7901C43.2362 71.7901 43.8444 71.153 43.8444 70.4V64.3765C43.8444 63.6236 43.2073 62.9865 42.4543 62.9865Z" fill="#292929"/>
<path d="M49.2598 65.419C48.4779 65.419 47.8697 66.0561 47.8697 66.8091V70.4C47.8697 71.1819 48.5068 71.7901 49.2598 71.7901C50.0417 71.7901 50.6498 71.153 50.6498 70.4V66.8091C50.6498 66.0561 50.0417 65.419 49.2598 65.419Z" fill="#292929"/>
<path d="M55.3702 62.9865C54.5883 62.9865 53.9801 63.6236 53.9801 64.3765V70.4C53.9801 71.1819 54.6172 71.7901 55.3702 71.7901C56.1521 71.7901 56.7602 71.153 56.7602 70.4V64.3765C56.7602 63.6236 56.1521 62.9865 55.3702 62.9865Z" fill="#292929"/>
<path d="M61.4806 65.419C60.6987 65.419 60.0905 66.0561 60.0905 66.8091V70.4C60.0905 71.1819 60.7276 71.7901 61.4806 71.7901C62.2625 71.7901 62.8706 71.153 62.8706 70.4V66.8091C62.8706 66.0561 62.2625 65.419 61.4806 65.419Z" fill="#292929"/>
<path d="M67.591 62.9865C66.8091 62.9865 66.2009 63.6236 66.2009 64.3765V70.4C66.2009 71.1819 66.838 71.7901 67.591 71.7901C68.3729 71.7901 68.981 71.153 68.981 70.4V64.3765C68.981 63.6236 68.3729 62.9865 67.591 62.9865Z" fill="#292929"/>
<path d="M73.7014 65.419C72.9195 65.419 72.3113 66.0561 72.3113 66.8091V70.4C72.3113 71.1819 72.9484 71.7901 73.7014 71.7901C74.4833 71.7901 75.0914 71.153 75.0914 70.4V66.8091C75.0914 66.0561 74.4833 65.419 73.7014 65.419Z" fill="#292929"/>
<path d="M79.8118 62.9865C79.0299 62.9865 78.4217 63.6236 78.4217 64.3765V70.4C78.4217 71.1819 79.0589 71.7901 79.8118 71.7901C80.5937 71.7901 81.2018 71.153 81.2018 70.4V64.3765C81.2308 63.6236 80.5937 62.9865 79.8118 62.9865Z" fill="#292929"/>
<path d="M85.9222 65.419C85.1403 65.419 84.5322 66.0561 84.5322 66.8091V70.4C84.5322 71.1819 85.1693 71.7901 85.9222 71.7901C86.7041 71.7901 87.3122 71.153 87.3122 70.4V66.8091C87.3412 66.0561 86.7041 65.419 85.9222 65.419Z" fill="#292929"/>
<path d="M77.9873 76.6842L79.8407 73.4697C80.3909 72.543 79.6959 71.3557 78.6244 71.3557H74.9176C73.8462 71.3557 73.1511 72.514 73.7014 73.4697L75.5547 76.6842C76.105 77.6109 77.4661 77.6109 77.9873 76.6842Z" fill="#292929"/>
<path d="M93.3647 65.3321L91.5113 68.5466C90.9611 69.4733 91.6561 70.6607 92.7276 70.6607H96.4344C97.5059 70.6607 98.2009 69.5023 97.6507 68.5466L95.7973 65.3321C95.2471 64.4054 93.886 64.4054 93.3647 65.3321Z" fill="#292929"/>
<path d="M94.581 61.2489C96.1324 61.2489 97.3901 59.9912 97.3901 58.4398C97.3901 56.8884 96.1324 55.6308 94.581 55.6308C93.0296 55.6308 91.772 56.8884 91.772 58.4398C91.772 59.9912 93.0296 61.2489 94.581 61.2489Z" fill="#FF4205"/>
<path d="M36.4597 73.4697H119.052C119.167 71.9349 119.254 70.4 119.283 68.8362H36.2281C36.257 70.4 36.3149 71.9349 36.4597 73.4697Z" fill="#292929"/>
<path d="M70.0815 33.8823C71.6809 33.8823 72.9774 32.5858 72.9774 30.9864C72.9774 29.387 71.6809 28.0905 70.0815 28.0905C68.4821 28.0905 67.1856 29.387 67.1856 30.9864C67.1856 32.5858 68.4821 33.8823 70.0815 33.8823Z" fill="#292929"/>
<path d="M85.4299 33.8823C87.0293 33.8823 88.3258 32.5858 88.3258 30.9864C88.3258 29.387 87.0293 28.0905 85.4299 28.0905C83.8305 28.0905 82.534 29.387 82.534 30.9864C82.534 32.5858 83.8305 33.8823 85.4299 33.8823Z" fill="#292929"/>
<path opacity="0.3" d="M62.5521 40.2534C65.7508 40.2534 68.3439 38.1789 68.3439 35.6199C68.3439 33.0609 65.7508 30.9864 62.5521 30.9864C59.3533 30.9864 56.7602 33.0609 56.7602 35.6199C56.7602 38.1789 59.3533 40.2534 62.5521 40.2534Z" fill="#FF4205"/>
<path opacity="0.3" d="M93.2489 40.2534C96.4477 40.2534 99.0408 38.1789 99.0408 35.6199C99.0408 33.0609 96.4477 30.9864 93.2489 30.9864C90.0502 30.9864 87.4571 33.0609 87.4571 35.6199C87.4571 38.1789 90.0502 40.2534 93.2489 40.2534Z" fill="#FF4205"/>
<path fill-rule="evenodd" clip-rule="evenodd" d="M77.7557 47.2576C84.1423 47.2576 89.4262 42.35 90.0572 36.0239C90.1271 35.3234 90.691 34.7511 91.395 34.7511V34.7511C92.099 34.7511 92.6753 35.3238 92.6171 36.0254C91.9765 43.7463 85.568 49.8099 77.7557 49.8099C69.9434 49.8099 63.5349 43.7463 62.8943 36.0254C62.8361 35.3238 63.4124 34.7511 64.1164 34.7511V34.7511C64.8204 34.7511 65.3843 35.3234 65.4542 36.0239C66.0852 42.35 71.3691 47.2576 77.7557 47.2576Z" fill="#292929" stroke="#292929" stroke-width="0.579186" stroke-linecap="round"/>
</g>
<defs>
<linearGradient id="paint0_linear" x1="95.984" y1="8.39819" x2="95.984" y2="107.873" gradientUnits="userSpaceOnUse">
<stop stop-color="#FFDCB3"/>
<stop offset="1" stop-color="#FFDCB3" stop-opacity="0"/>
</linearGradient>
<clipPath id="clip0">
<rect width="128" height="134.081" fill="white"/>
</clipPath>
</defs>
</svg>
