<svg width="64" height="64" viewBox="0 0 64 64" fill="none" xmlns="http://www.w3.org/2000/svg">
<path d="M33.0064 9.8877L32 8.97717L30.9936 9.8877L10.9809 27.9945C10.038 28.8476 9.5 30.0598 9.5 31.3314V48C9.5 52.1421 12.8579 55.5 17 55.5H47C51.1421 55.5 54.5 52.1421 54.5 48V31.3314C54.5 30.0598 53.962 28.8476 53.0191 27.9945L33.0064 9.8877Z" fill="#FFC700" stroke="black" stroke-width="3"/>
<path d="M10 30.5L28.3337 42.4383C30.2687 43.6982 32.7551 43.736 34.7275 42.5355L54.5 30.5" stroke="black" stroke-width="3"/>
<path d="M45.7992 35.7694L46.5 35.3281V34.5V13C46.5 10.5147 44.4853 8.5 42 8.5H22C19.5147 8.5 17.5 10.5147 17.5 13V34.5V35.2939L18.1565 35.7404L29.0328 43.1363C30.5122 44.1422 32.4469 44.1763 33.9609 43.2231L45.7992 35.7694Z" fill="#FFF4D9" stroke="black" stroke-width="3"/>
<path d="M24.5 16C23.6716 16 23 16.6716 23 17.5C23 18.3284 23.6716 19 24.5 19V16ZM39.5 19C40.3284 19 41 18.3284 41 17.5C41 16.6716 40.3284 16 39.5 16V19ZM24.5 19H39.5V16H24.5V19Z" fill="black"/>
<path d="M24.5 23C23.6716 23 23 23.6716 23 24.5C23 25.3284 23.6716 26 24.5 26V23ZM39.5 26C40.3284 26 41 25.3284 41 24.5C41 23.6716 40.3284 23 39.5 23V26ZM24.5 26H39.5V23H24.5V26Z" fill="black"/>
<path d="M24.5 30C23.6716 30 23 30.6716 23 31.5C23 32.3284 23.6716 33 24.5 33V30ZM32.5 33C33.3284 33 34 32.3284 34 31.5C34 30.6716 33.3284 30 32.5 30V33ZM24.5 33H32.5V30H24.5V33Z" fill="black"/>
</svg>
