<svg width="64" height="64" viewBox="0 0 64 64" fill="none" xmlns="http://www.w3.org/2000/svg">
<mask id="path-1-outside-1" maskUnits="userSpaceOnUse" x="24" y="4" width="16" height="31" fill="black">
<rect fill="white" x="24" y="4" width="16" height="31"/>
<path d="M37 12.52C37 17.12 32 32 32 32C32 32 27 17.12 27 12.52C27 9.47139 29.2386 7 32 7C34.7614 7 37 9.47139 37 12.52Z"/>
</mask>
<path d="M37 12.52C37 17.12 32 32 32 32C32 32 27 17.12 27 12.52C27 9.47139 29.2386 7 32 7C34.7614 7 37 9.47139 37 12.52Z" fill="#FF7051"/>
<path d="M32 32L29.1563 32.9556C29.5667 34.1771 30.7114 35 32 35C33.2886 35 34.4333 34.1771 34.8437 32.9556L32 32ZM34 12.52C34 13.2938 33.7643 14.7878 33.2948 16.8331C32.8442 18.796 32.2367 21.0259 31.6195 23.1467C31.0039 25.2618 30.3871 27.2394 29.9236 28.6899C29.6921 29.4145 29.4994 30.0057 29.3649 30.4147C29.2977 30.6191 29.2451 30.778 29.2095 30.885C29.1917 30.9385 29.1781 30.979 29.1692 31.0059C29.1647 31.0193 29.1613 31.0293 29.1592 31.0357C29.1581 31.039 29.1573 31.0413 29.1568 31.0428C29.1566 31.0435 29.1564 31.044 29.1563 31.0443C29.1563 31.0444 29.1562 31.0445 29.1562 31.0445C29.1562 31.0445 29.1563 31.0444 32 32C34.8437 32.9556 34.8438 32.9554 34.8439 32.9551C34.8439 32.955 34.844 32.9547 34.8442 32.9544C34.8444 32.9537 34.8446 32.9529 34.845 32.9518C34.8457 32.9496 34.8468 32.9466 34.8481 32.9427C34.8507 32.9348 34.8545 32.9233 34.8595 32.9085C34.8695 32.8787 34.884 32.8352 34.9028 32.7786C34.9405 32.6654 34.9953 32.5 35.0648 32.2886C35.2038 31.8659 35.4017 31.2587 35.6389 30.5163C36.1129 29.0331 36.7461 27.0032 37.3805 24.8233C38.0133 22.6491 38.6558 20.2965 39.1427 18.1756C39.6107 16.1372 40 14.0462 40 12.52H34ZM32 32C34.8437 31.0444 34.8438 31.0445 34.8438 31.0445C34.8438 31.0445 34.8437 31.0444 34.8437 31.0443C34.8436 31.044 34.8434 31.0435 34.8432 31.0428C34.8427 31.0413 34.8419 31.039 34.8408 31.0357C34.8387 31.0293 34.8353 31.0193 34.8308 31.0059C34.8219 30.979 34.8083 30.9385 34.7905 30.885C34.7549 30.778 34.7023 30.6191 34.6351 30.4147C34.5006 30.0057 34.3079 29.4145 34.0764 28.6899C33.6129 27.2394 32.9961 25.2618 32.3805 23.1467C31.7633 21.0259 31.1558 18.796 30.7052 16.8331C30.2357 14.7878 30 13.2938 30 12.52H24C24 14.0462 24.3893 16.1372 24.8573 18.1756C25.3442 20.2965 25.9867 22.6491 26.6195 24.8233C27.2539 27.0032 27.8871 29.0331 28.3611 30.5163C28.5983 31.2587 28.7962 31.8659 28.9352 32.2886C29.0047 32.5 29.0595 32.6654 29.0972 32.7786C29.116 32.8352 29.1305 32.8787 29.1405 32.9085C29.1455 32.9233 29.1493 32.9348 29.1519 32.9427C29.1532 32.9466 29.1543 32.9496 29.155 32.9518C29.1554 32.9529 29.1556 32.9537 29.1558 32.9544C29.156 32.9547 29.1561 32.955 29.1561 32.9551C29.1562 32.9554 29.1563 32.9556 32 32ZM30 12.52C30 10.8421 31.1678 10 32 10V4C27.3093 4 24 8.10071 24 12.52H30ZM32 10C32.8322 10 34 10.8421 34 12.52H40C40 8.10071 36.6907 4 32 4V10Z" fill="black" mask="url(#path-1-outside-1)"/>
<mask id="path-3-outside-2" maskUnits="userSpaceOnUse" x="24" y="29" width="16" height="31" fill="black">
<rect fill="white" x="24" y="29" width="16" height="31"/>
<path d="M27 51.48C27 46.88 32 32 32 32C32 32 37 46.88 37 51.48C37 54.5286 34.7614 57 32 57C29.2386 57 27 54.5286 27 51.48Z"/>
</mask>
<path d="M27 51.48C27 46.88 32 32 32 32C32 32 37 46.88 37 51.48C37 54.5286 34.7614 57 32 57C29.2386 57 27 54.5286 27 51.48Z" fill="#FF7051"/>
<path d="M32 32L34.8438 31.0444C34.4333 29.8229 33.2886 29 32 29C30.7114 29 29.5667 29.8229 29.1563 31.0444L32 32ZM30 51.48C30 50.7062 30.2357 49.2122 30.7052 47.1669C31.1558 45.204 31.7633 42.9741 32.3805 40.8533C32.9961 38.7382 33.6129 36.7606 34.0764 35.3101C34.3079 34.5855 34.5006 33.9943 34.6351 33.5853C34.7023 33.3809 34.7549 33.222 34.7905 33.115C34.8083 33.0615 34.8219 33.021 34.8308 32.9941C34.8353 32.9807 34.8387 32.9707 34.8408 32.9643C34.8419 32.961 34.8427 32.9587 34.8432 32.9572C34.8434 32.9565 34.8436 32.956 34.8437 32.9557C34.8437 32.9556 34.8438 32.9555 34.8438 32.9555C34.8438 32.9555 34.8438 32.9556 32 32C29.1563 31.0444 29.1562 31.0446 29.1561 31.0449C29.1561 31.045 29.156 31.0453 29.1559 31.0456C29.1556 31.0463 29.1554 31.0471 29.155 31.0482C29.1543 31.0504 29.1532 31.0534 29.1519 31.0573C29.1493 31.0652 29.1455 31.0767 29.1405 31.0915C29.1305 31.1213 29.116 31.1648 29.0972 31.2214C29.0595 31.3346 29.0047 31.5 28.9352 31.7114C28.7962 32.1341 28.5983 32.7413 28.3611 33.4837C27.8871 34.9669 27.2539 36.9968 26.6195 39.1767C25.9867 41.3509 25.3442 43.7035 24.8573 45.8244C24.3893 47.8628 24 49.9538 24 51.48L30 51.48ZM32 32C29.1563 32.9556 29.1562 32.9555 29.1562 32.9555C29.1562 32.9555 29.1563 32.9556 29.1563 32.9557C29.1564 32.956 29.1566 32.9565 29.1568 32.9572C29.1573 32.9587 29.1581 32.961 29.1592 32.9643C29.1613 32.9707 29.1647 32.9807 29.1692 32.9941C29.1781 33.021 29.1917 33.0615 29.2095 33.115C29.2451 33.222 29.2977 33.3808 29.3649 33.5853C29.4994 33.9943 29.6921 34.5855 29.9236 35.3101C30.3871 36.7606 31.0039 38.7382 31.6195 40.8533C32.2367 42.9741 32.8442 45.204 33.2948 47.1669C33.7643 49.2122 34 50.7062 34 51.48L40 51.48C40 49.9538 39.6107 47.8628 39.1427 45.8244C38.6558 43.7035 38.0133 41.3509 37.3805 39.1767C36.7461 36.9968 36.1129 34.9669 35.6389 33.4837C35.4017 32.7413 35.2038 32.1341 35.0648 31.7114C34.9953 31.5 34.9405 31.3346 34.9028 31.2214C34.884 31.1648 34.8695 31.1213 34.8595 31.0915C34.8545 31.0767 34.8507 31.0652 34.8481 31.0573C34.8468 31.0534 34.8457 31.0504 34.845 31.0482C34.8447 31.0471 34.8444 31.0463 34.8442 31.0456C34.844 31.0453 34.8439 31.045 34.8439 31.0449C34.8438 31.0446 34.8438 31.0444 32 32ZM34 51.48C34 53.1579 32.8322 54 32 54L32 60C36.6907 60 40 55.8993 40 51.48L34 51.48ZM32 54C31.1678 54 30 53.1579 30 51.48L24 51.48C24 55.8993 27.3093 60 32 60L32 54Z" fill="black" mask="url(#path-3-outside-2)"/>
<mask id="path-5-outside-3" maskUnits="userSpaceOnUse" x="25.4019" y="11.0718" width="34.8468" height="29.3564" fill="black">
<rect fill="white" x="25.4019" y="11.0718" width="34.8468" height="29.3564"/>
<path d="M51.3702 26.5901C47.3865 28.8901 32 32 32 32C32 32 42.3865 20.2299 46.3702 17.9299C49.0103 16.4056 52.2699 17.1085 53.6506 19.5C55.0313 21.8915 54.0103 25.0658 51.3702 26.5901Z"/>
</mask>
<path d="M51.3702 26.5901C47.3865 28.8901 32 32 32 32C32 32 42.3865 20.2299 46.3702 17.9299C49.0103 16.4056 52.2699 17.1085 53.6506 19.5C55.0313 21.8915 54.0103 25.0658 51.3702 26.5901Z" fill="#FF7051"/>
<path d="M32 32L29.7506 30.015C28.898 30.9812 28.7576 32.384 29.4019 33.5C30.0462 34.616 31.3313 35.1958 32.5943 34.9405L32 32ZM49.8702 23.9921C49.2001 24.3789 47.7884 24.9219 45.7823 25.5379C43.8571 26.1291 41.6222 26.718 39.477 27.2438C37.3374 27.7683 35.3164 28.2229 33.8284 28.5468C33.0852 28.7085 32.4768 28.8372 32.0554 28.9253C31.8447 28.9693 31.6809 29.0031 31.5704 29.0258C31.5151 29.0372 31.4732 29.0457 31.4455 29.0514C31.4317 29.0542 31.4213 29.0563 31.4147 29.0576C31.4113 29.0583 31.4089 29.0588 31.4074 29.0591C31.4066 29.0593 31.4061 29.0594 31.4058 29.0594C31.4057 29.0595 31.4056 29.0595 31.4056 29.0595C31.4056 29.0595 31.4057 29.0595 32 32C32.5943 34.9405 32.5945 34.9405 32.5948 34.9404C32.5949 34.9404 32.5952 34.9404 32.5956 34.9403C32.5962 34.9402 32.5971 34.94 32.5982 34.9398C32.6004 34.9393 32.6036 34.9387 32.6077 34.9378C32.6158 34.9362 32.6276 34.9338 32.643 34.9307C32.6737 34.9244 32.7187 34.9152 32.7772 34.9032C32.894 34.8792 33.0646 34.844 33.2825 34.7985C33.718 34.7075 34.3428 34.5753 35.1044 34.4095C36.6259 34.0784 38.7004 33.6118 40.9054 33.0713C43.1048 32.5322 45.4634 31.9124 47.5436 31.2736C49.5429 30.6596 51.5484 29.9513 52.8702 29.1882L49.8702 23.9921ZM32 32C34.2494 33.985 34.2494 33.985 34.2493 33.985C34.2494 33.985 34.2494 33.985 34.2495 33.9849C34.2497 33.9846 34.2501 33.9842 34.2506 33.9837C34.2516 33.9825 34.2532 33.9807 34.2555 33.9781C34.26 33.973 34.267 33.9651 34.2764 33.9545C34.2951 33.9333 34.3235 33.9013 34.3609 33.8592C34.4358 33.7748 34.547 33.6498 34.6905 33.4894C34.9774 33.1685 35.3931 32.7059 35.9048 32.1432C36.9292 31.0165 38.3335 29.4935 39.8574 27.9028C41.3855 26.3079 43.0129 24.6669 44.4875 23.2952C46.024 21.8659 47.2001 20.9148 47.8702 20.5279L44.8702 15.3318C43.5484 16.0949 41.9323 17.4776 40.4009 18.9021C38.8076 20.3842 37.0915 22.1169 35.5249 23.752C33.9543 25.3914 32.513 26.9547 31.4655 28.1068C30.9412 28.6834 30.5143 29.1584 30.2177 29.4901C30.0694 29.656 29.9535 29.7862 29.8743 29.8754C29.8347 29.92 29.8043 29.9543 29.7835 29.9778C29.7731 29.9896 29.7651 29.9986 29.7596 30.0048C29.7568 30.0079 29.7547 30.0103 29.7532 30.0121C29.7525 30.0129 29.7519 30.0136 29.7514 30.0141C29.7512 30.0143 29.751 30.0146 29.7509 30.0147C29.7507 30.0149 29.7506 30.015 32 32ZM47.8702 20.5279C49.3233 19.689 50.6365 20.2793 51.0526 21L56.2487 18C53.9034 13.9378 48.6974 13.1221 44.8702 15.3318L47.8702 20.5279ZM51.0526 21C51.4687 21.7207 51.3233 23.1531 49.8702 23.9921L52.8702 29.1882C56.6974 26.9786 58.594 22.0622 56.2487 18L51.0526 21Z" fill="black" mask="url(#path-5-outside-3)"/>
<mask id="path-7-outside-4" maskUnits="userSpaceOnUse" x="3.75129" y="23.5718" width="34.8468" height="29.3564" fill="black">
<rect fill="white" x="3.75129" y="23.5718" width="34.8468" height="29.3564"/>
<path d="M12.6298 37.4099C16.6135 35.1099 32 32 32 32C32 32 21.6135 43.7701 17.6298 46.0701C14.9897 47.5944 11.7301 46.8915 10.3494 44.5C8.96865 42.1085 9.98965 38.9342 12.6298 37.4099Z"/>
</mask>
<path d="M12.6298 37.4099C16.6135 35.1099 32 32 32 32C32 32 21.6135 43.7701 17.6298 46.0701C14.9897 47.5944 11.7301 46.8915 10.3494 44.5C8.96865 42.1085 9.98965 38.9342 12.6298 37.4099Z" fill="#FF7051"/>
<path d="M32 32L34.2494 33.985C35.102 33.0188 35.2424 31.616 34.5981 30.5C33.9538 29.384 32.6687 28.8042 31.4057 29.0595L32 32ZM14.1298 40.0079C14.7999 39.6211 16.2116 39.0781 18.2177 38.4621C20.1429 37.8709 22.3778 37.282 24.523 36.7562C26.6626 36.2317 28.6836 35.7771 30.1716 35.4532C30.9148 35.2915 31.5232 35.1628 31.9446 35.0747C32.1553 35.0307 32.3191 34.9969 32.4296 34.9742C32.4849 34.9628 32.5268 34.9543 32.5545 34.9486C32.5683 34.9458 32.5787 34.9437 32.5853 34.9424C32.5887 34.9417 32.5911 34.9412 32.5926 34.9409C32.5934 34.9407 32.5939 34.9406 32.5942 34.9406C32.5943 34.9405 32.5944 34.9405 32.5944 34.9405C32.5944 34.9405 32.5943 34.9405 32 32C31.4057 29.0595 31.4055 29.0595 31.4052 29.0596C31.4051 29.0596 31.4048 29.0596 31.4044 29.0597C31.4038 29.0598 31.4029 29.06 31.4018 29.0602C31.3996 29.0607 31.3964 29.0613 31.3923 29.0622C31.3842 29.0638 31.3724 29.0662 31.357 29.0693C31.3263 29.0756 31.2813 29.0848 31.2228 29.0968C31.106 29.1208 30.9354 29.156 30.7175 29.2015C30.282 29.2925 29.6572 29.4247 28.8956 29.5905C27.3742 29.9216 25.2996 30.3882 23.0946 30.9287C20.8952 31.4678 18.5366 32.0876 16.4564 32.7264C14.4571 33.3404 12.4516 34.0487 11.1298 34.8118L14.1298 40.0079ZM32 32C29.7506 30.015 29.7506 30.015 29.7507 30.0149C29.7506 30.015 29.7506 30.015 29.7505 30.0151C29.7503 30.0154 29.7499 30.0158 29.7494 30.0163C29.7484 30.0175 29.7468 30.0193 29.7445 30.0219C29.74 30.027 29.733 30.0349 29.7236 30.0455C29.7049 30.0667 29.6765 30.0987 29.6391 30.1408C29.5642 30.2252 29.453 30.3502 29.3095 30.5106C29.0226 30.8315 28.6069 31.2941 28.0952 31.8568C27.0708 32.9835 25.6665 34.5065 24.1426 36.0971C22.6145 37.6921 20.9871 39.3331 19.5125 40.7048C17.976 42.1341 16.7999 43.0852 16.1298 43.472L19.1298 48.6682C20.4516 47.9051 22.0677 46.5224 23.5991 45.0979C25.1924 43.6158 26.9085 41.8831 28.4751 40.248C30.0457 38.6086 31.487 37.0453 32.5345 35.8932C33.0588 35.3166 33.4857 34.8416 33.7823 34.5099C33.9306 34.344 34.0465 34.2138 34.1257 34.1246C34.1653 34.08 34.1957 34.0457 34.2165 34.0222C34.2269 34.0104 34.2349 34.0014 34.2404 33.9952C34.2432 33.9921 34.2453 33.9897 34.2468 33.9879C34.2475 33.9871 34.2481 33.9864 34.2486 33.9859C34.2488 33.9857 34.249 33.9854 34.2491 33.9853C34.2493 33.9851 34.2494 33.985 32 32ZM16.1298 43.472C14.6767 44.311 13.3635 43.7207 12.9474 43L7.75129 46C10.0966 50.0622 15.3026 50.8778 19.1298 48.6682L16.1298 43.472ZM12.9474 43C12.5313 42.2793 12.6767 40.8469 14.1298 40.0079L11.1298 34.8118C7.30261 37.0214 5.40596 41.9378 7.75129 46L12.9474 43Z" fill="black" mask="url(#path-7-outside-4)"/>
<mask id="path-9-outside-5" maskUnits="userSpaceOnUse" x="25.4019" y="23.5718" width="34.8468" height="29.3564" fill="black">
<rect fill="white" x="25.4019" y="23.5718" width="34.8468" height="29.3564"/>
<path d="M46.3702 46.0701C42.3865 43.7701 32 32 32 32C32 32 47.3865 35.1099 51.3702 37.4099C54.0104 38.9342 55.0314 42.1085 53.6506 44.5C52.2699 46.8915 49.0104 47.5944 46.3702 46.0701Z"/>
</mask>
<path d="M46.3702 46.0701C42.3865 43.7701 32 32 32 32C32 32 47.3865 35.1099 51.3702 37.4099C54.0104 38.9342 55.0314 42.1085 53.6506 44.5C52.2699 46.8915 49.0104 47.5944 46.3702 46.0701Z" fill="#FF7051"/>
<path d="M32 32L32.5943 29.0595C31.3313 28.8042 30.0462 29.384 29.4019 30.5C28.7576 31.616 28.898 33.0188 29.7506 33.985L32 32ZM47.8702 43.4721C47.2001 43.0852 46.024 42.1341 44.4875 40.7048C43.0129 39.3331 41.3855 37.6921 39.8575 36.0972C38.3335 34.5065 36.9292 32.9835 35.9048 31.8568C35.3931 31.2941 34.9774 30.8315 34.6905 30.5106C34.547 30.3502 34.4358 30.2252 34.3609 30.1408C34.3235 30.0987 34.2951 30.0667 34.2764 30.0455C34.267 30.0349 34.26 30.027 34.2555 30.0219C34.2532 30.0194 34.2516 30.0175 34.2506 30.0163C34.2501 30.0158 34.2497 30.0154 34.2495 30.0152C34.2494 30.015 34.2494 30.015 34.2494 30.015C34.2494 30.015 34.2494 30.015 32 32C29.7506 33.985 29.7507 33.9851 29.7509 33.9853C29.751 33.9854 29.7512 33.9857 29.7514 33.9859C29.7519 33.9864 29.7525 33.9871 29.7532 33.988C29.7547 33.9897 29.7569 33.9921 29.7596 33.9952C29.7651 34.0014 29.7731 34.0104 29.7835 34.0222C29.8043 34.0457 29.8347 34.0801 29.8743 34.1247C29.9535 34.2139 30.0694 34.344 30.2177 34.5099C30.5143 34.8416 30.9412 35.3166 31.4655 35.8932C32.513 37.0453 33.9543 38.6086 35.5249 40.248C37.0915 41.8831 38.8076 43.6158 40.4009 45.0979C41.9323 46.5224 43.5484 47.9051 44.8702 48.6682L47.8702 43.4721ZM32 32C31.4057 34.9405 31.4056 34.9405 31.4056 34.9405C31.4057 34.9405 31.4057 34.9405 31.4058 34.9406C31.4061 34.9406 31.4066 34.9407 31.4074 34.9409C31.4089 34.9412 31.4113 34.9417 31.4147 34.9424C31.4213 34.9437 31.4317 34.9458 31.4455 34.9486C31.4733 34.9543 31.5151 34.9628 31.5704 34.9742C31.6809 34.9969 31.8447 35.0307 32.0554 35.0747C32.4768 35.1628 33.0852 35.2915 33.8284 35.4532C35.3164 35.7771 37.3374 36.2317 39.477 36.7562C41.6222 37.282 43.8572 37.8709 45.7823 38.4621C47.7884 39.0781 49.2001 39.6211 49.8702 40.008L52.8702 34.8118C51.5484 34.0487 49.5429 33.3404 47.5436 32.7264C45.4634 32.0876 43.1048 31.4678 40.9054 30.9287C38.7004 30.3882 36.6259 29.9216 35.1044 29.5905C34.3429 29.4247 33.718 29.2925 33.2825 29.2015C33.0646 29.156 32.894 29.1208 32.7772 29.0968C32.7187 29.0848 32.6738 29.0756 32.643 29.0694C32.6276 29.0662 32.6158 29.0638 32.6077 29.0622C32.6036 29.0613 32.6005 29.0607 32.5982 29.0603C32.5971 29.06 32.5962 29.0598 32.5956 29.0597C32.5953 29.0597 32.5949 29.0596 32.5948 29.0596C32.5945 29.0595 32.5943 29.0595 32 32ZM49.8702 40.008C51.3233 40.8469 51.4687 42.2793 51.0526 43L56.2487 46C58.594 41.9378 56.6974 37.0215 52.8702 34.8118L49.8702 40.008ZM51.0526 43C50.6365 43.7207 49.3233 44.311 47.8702 43.4721L44.8702 48.6682C48.6974 50.8779 53.9034 50.0622 56.2487 46L51.0526 43Z" fill="black" mask="url(#path-9-outside-5)"/>
<mask id="path-11-outside-6" maskUnits="userSpaceOnUse" x="3.75129" y="11.0718" width="34.8468" height="29.3564" fill="black">
<rect fill="white" x="3.75129" y="11.0718" width="34.8468" height="29.3564"/>
<path d="M17.6298 17.9299C21.6135 20.2299 32 32 32 32C32 32 16.6135 28.8901 12.6298 26.5901C9.98965 25.0658 8.96865 21.8915 10.3494 19.5C11.7301 17.1085 14.9896 16.4056 17.6298 17.9299Z"/>
</mask>
<path d="M17.6298 17.9299C21.6135 20.2299 32 32 32 32C32 32 16.6135 28.8901 12.6298 26.5901C9.98965 25.0658 8.96865 21.8915 10.3494 19.5C11.7301 17.1085 14.9896 16.4056 17.6298 17.9299Z" fill="#FF7051"/>
<path d="M32 32L31.4057 34.9406C32.6687 35.1958 33.9538 34.616 34.5981 33.5C35.2424 32.384 35.102 30.9813 34.2494 30.015L32 32ZM16.1298 20.528C16.7999 20.9148 17.976 21.866 19.5125 23.2952C20.9871 24.6669 22.6145 26.308 24.1425 27.9029C25.6665 29.4935 27.0708 31.0165 28.0952 32.1432C28.6069 32.706 29.0226 33.1685 29.3095 33.4894C29.453 33.6499 29.5642 33.7748 29.6391 33.8592C29.6765 33.9013 29.7049 33.9333 29.7236 33.9545C29.733 33.9651 29.74 33.973 29.7445 33.9781C29.7468 33.9807 29.7484 33.9825 29.7494 33.9837C29.7499 33.9842 29.7503 33.9846 29.7505 33.9849C29.7506 33.985 29.7506 33.985 29.7506 33.9851C29.7506 33.985 29.7506 33.985 32 32C34.2494 30.015 34.2493 30.0149 34.2491 30.0147C34.249 30.0146 34.2488 30.0143 34.2486 30.0141C34.2481 30.0136 34.2475 30.0129 34.2468 30.0121C34.2453 30.0104 34.2432 30.0079 34.2404 30.0048C34.2349 29.9986 34.2269 29.9896 34.2165 29.9778C34.1957 29.9543 34.1653 29.92 34.1257 29.8754C34.0465 29.7862 33.9306 29.656 33.7823 29.4901C33.4857 29.1584 33.0588 28.6834 32.5345 28.1068C31.487 26.9547 30.0457 25.3914 28.4751 23.752C26.9085 22.1169 25.1924 20.3842 23.5991 18.9021C22.0677 17.4776 20.4516 16.0949 19.1298 15.3318L16.1298 20.528ZM32 32C32.5943 29.0595 32.5944 29.0595 32.5944 29.0595C32.5944 29.0595 32.5943 29.0595 32.5942 29.0594C32.5939 29.0594 32.5934 29.0593 32.5926 29.0591C32.5911 29.0588 32.5887 29.0583 32.5853 29.0577C32.5787 29.0563 32.5683 29.0542 32.5545 29.0514C32.5268 29.0457 32.4849 29.0372 32.4296 29.0258C32.3191 29.0031 32.1553 28.9693 31.9446 28.9253C31.5232 28.8373 30.9148 28.7085 30.1716 28.5468C28.6836 28.2229 26.6626 27.7683 24.523 27.2438C22.3778 26.718 20.1429 26.1291 18.2177 25.5379C16.2116 24.9219 14.7999 24.3789 14.1298 23.9921L11.1298 29.1882C12.4516 29.9513 14.4571 30.6596 16.4564 31.2736C18.5366 31.9124 20.8952 32.5322 23.0946 33.0713C25.2996 33.6118 27.3741 34.0784 28.8956 34.4095C29.6571 34.5753 30.282 34.7075 30.7175 34.7985C30.9354 34.844 31.106 34.8792 31.2228 34.9032C31.2813 34.9152 31.3263 34.9244 31.357 34.9307C31.3724 34.9338 31.3842 34.9362 31.3923 34.9378C31.3964 34.9387 31.3996 34.9393 31.4018 34.9398C31.4029 34.94 31.4038 34.9402 31.4044 34.9403C31.4047 34.9404 31.4051 34.9404 31.4052 34.9405C31.4055 34.9405 31.4057 34.9406 32 32ZM14.1298 23.9921C12.6767 23.1531 12.5313 21.7207 12.9474 21L7.75129 18C5.40596 22.0622 7.3026 26.9786 11.1298 29.1882L14.1298 23.9921ZM12.9474 21C13.3635 20.2793 14.6767 19.689 16.1298 20.528L19.1298 15.3318C15.3026 13.1222 10.0966 13.9378 7.75129 18L12.9474 21Z" fill="black" mask="url(#path-11-outside-6)"/>
<circle cx="32" cy="32" r="8.5" fill="#FFF4D9" stroke="black" stroke-width="3"/>
</svg>
