<svg width="64" height="64" viewBox="0 0 64 64" fill="none" xmlns="http://www.w3.org/2000/svg">
<path d="M10.5 39.5L28.7061 27.6449C30.3645 26.565 30.5307 24.1994 28.8369 23.1759C24.4934 20.5512 19.0586 19.3368 15.5 22.5C11.4578 26.0931 10.6667 36 10.5 39.5Z" fill="#0FA958" stroke="black" stroke-width="3" stroke-linejoin="round"/>
<path d="M53.5 39.5L35.2939 27.6448C33.6355 26.565 33.4693 24.1994 35.1631 23.1759C39.5066 20.5512 44.9414 19.3368 48.5 22.5C52.5422 26.0931 53.3333 36 53.5 39.5Z" fill="#0FA958" stroke="black" stroke-width="3" stroke-linejoin="round"/>
<path d="M55.5 13L36.3187 22.3866C34.3256 23.362 31.9919 21.9057 32.2191 19.6984C32.7584 14.4581 34.4539 9.90923 39 9C44 8 52.3727 11.4195 55.5 13Z" fill="#0FA958" stroke="black" stroke-width="3" stroke-linejoin="round"/>
<path d="M8.50001 13L27.9102 22.3487C29.902 23.3081 32.2169 21.8507 31.9672 19.654C31.3729 14.4251 29.5532 9.91064 25 9C20 8 11.6273 11.4195 8.50001 13Z" fill="#0FA958" stroke="black" stroke-width="3" stroke-linejoin="round"/>
<path d="M29.0912 30.206C29.1402 39.9297 26.0457 47.2508 24.1625 50.797C23.1124 52.7745 24.4532 55.5 26.9148 55.5H33.7772C35.7394 55.5 37.5834 54.1974 37.9637 52.1064C38.6953 48.0847 39.5543 39.1914 35.7439 28.8645C35.3679 27.8457 34.5236 27.0896 33.5062 26.7989C31.2164 26.1447 29.0799 27.9568 29.0912 30.206Z" fill="#FFF4D9" stroke="black" stroke-width="3" stroke-linejoin="round"/>
<rect x="31" y="22" width="2" height="4" fill="black"/>
<path fill-rule="evenodd" clip-rule="evenodd" d="M11.5 53C11.5 50.5 13.5 48.5 16.5 48.5C18.0088 48.5 19.3265 49.2588 20.6364 50.0132C21.9309 50.7588 23.2179 51.5 24.6744 51.5C26.0609 51.5 27.2377 50.7179 28.399 49.9461C28.765 49.7028 29.1295 49.4605 29.4986 49.2441C29.8553 49.003 30.2672 48.8014 30.74 48.6571C31.1291 48.5265 31.5296 48.4498 31.9477 48.4523C32.3658 48.4498 32.7662 48.5265 33.1553 48.6571C33.6281 48.8014 34.0401 49.003 34.3968 49.2441C34.7658 49.4605 35.1304 49.7028 35.4964 49.9461C36.6577 50.7179 37.8344 51.5 39.2209 51.5C40.6774 51.5 41.9644 50.7588 43.259 50.0132C44.5689 49.2588 45.8865 48.5 47.3954 48.5C50.3954 48.5 52.3954 50.5 52.3954 53V53.5008C52.3954 55.1576 51.0522 56.5 49.3954 56.5H36.3954H27.5H14.5C12.8431 56.5 11.5 55.1576 11.5 53.5008V53Z" fill="#FFC700"/>
<path d="M20.6364 50.0132L19.8878 51.3131L19.8878 51.3131L20.6364 50.0132ZM28.399 49.9461L29.2292 51.1953L29.2292 51.1953L28.399 49.9461ZM29.4986 49.2441L30.2574 50.538L30.2988 50.5137L30.3386 50.4868L29.4986 49.2441ZM30.74 48.6571L31.1781 50.0917L31.1977 50.0857L31.2172 50.0792L30.74 48.6571ZM31.9477 48.4523L31.9387 49.9523L31.9477 49.9524L31.9567 49.9523L31.9477 48.4523ZM33.1553 48.6571L32.6782 50.0792L32.6976 50.0857L32.7173 50.0917L33.1553 48.6571ZM34.3968 49.2441L33.5568 50.4868L33.5966 50.5137L33.638 50.538L34.3968 49.2441ZM35.4964 49.9461L36.3267 48.6968L36.3267 48.6968L35.4964 49.9461ZM43.259 50.0132L44.0076 51.3131L44.0076 51.3131L43.259 50.0132ZM16.5 47C12.7782 47 10 49.5688 10 53H13C13 51.4312 14.2218 50 16.5 50V47ZM21.385 48.7134C20.1458 47.9997 18.4782 47 16.5 47V50C17.5394 50 18.5072 50.518 19.8878 51.3131L21.385 48.7134ZM24.6744 50C23.6889 50 22.7543 49.502 21.385 48.7134L19.8878 51.3131C21.1075 52.0156 22.747 53 24.6744 53V50ZM27.5687 48.6968C26.3249 49.5235 25.5295 50 24.6744 50V53C26.5924 53 28.1504 51.9123 29.2292 51.1953L27.5687 48.6968ZM28.7398 47.9502C28.3281 48.1916 27.9282 48.4579 27.5687 48.6968L29.2292 51.1953C29.6018 50.9477 29.931 50.7294 30.2574 50.538L28.7398 47.9502ZM30.3386 50.4868C30.571 50.3297 30.8474 50.1927 31.1781 50.0917L30.302 47.2225C29.687 47.4102 29.1396 47.6762 28.6586 48.0014L30.3386 50.4868ZM31.9567 46.9524C31.3455 46.9487 30.7798 47.0616 30.2629 47.235L31.2172 50.0792C31.4784 49.9915 31.7137 49.951 31.9387 49.9523L31.9567 46.9524ZM31.9567 49.9523C32.1816 49.951 32.4169 49.9915 32.6782 50.0792L33.6324 47.235C33.1156 47.0616 32.5499 46.9487 31.9387 46.9524L31.9567 49.9523ZM35.2368 48.0014C34.7558 47.6762 34.2083 47.4102 33.5934 47.2225L32.7173 50.0917C33.048 50.1927 33.3243 50.3297 33.5568 50.4868L35.2368 48.0014ZM33.638 50.538C33.9644 50.7294 34.2936 50.9477 34.6661 51.1953L36.3267 48.6968C35.9671 48.4579 35.5673 48.1916 35.1556 47.9502L33.638 50.538ZM34.6661 51.1953C35.7449 51.9123 37.303 53 39.2209 53V50C38.3659 50 37.5704 49.5235 36.3267 48.6968L34.6661 51.1953ZM39.2209 53C41.1484 53 42.7878 52.0156 44.0076 51.3131L42.5104 48.7134C41.141 49.502 40.2065 50 39.2209 50V53ZM44.0076 51.3131C45.3882 50.518 46.3559 50 47.3954 50V47C45.4171 47 43.7496 47.9997 42.5104 48.7134L44.0076 51.3131ZM47.3954 50C49.6736 50 50.8954 51.4312 50.8954 53H53.8954C53.8954 49.5688 51.1172 47 47.3954 47V50ZM50.8954 53V53.5008H53.8954V53H50.8954ZM50.8954 53.5008C50.8954 54.3287 50.2243 55 49.3954 55V58C51.8801 58 53.8954 55.9865 53.8954 53.5008H50.8954ZM49.3954 55H36.3954V58H49.3954V55ZM36.3954 55H27.5V58H36.3954V55ZM14.5 58H27.5V55H14.5V58ZM10 53.5008C10 55.9865 12.0152 58 14.5 58V55C13.6711 55 13 54.3287 13 53.5008H10ZM10 53V53.5008H13V53H10Z" fill="black"/>
</svg>
