<svg width="180" height="133" viewBox="0 0 180 133" fill="none" xmlns="http://www.w3.org/2000/svg">
<g clip-path="url(#clip0)">
<path d="M180 82V90.7H177.17H176C174.438 90.6101 172.873 90.8206 171.39 91.32L170.09 91.92L169.99 92.15C169.507 93.9478 169.248 95.7986 169.22 97.66C169.16 98.88 169.16 100.12 169.22 101.3V104.12V132.7H8.68V87.52C8.99689 69.1043 15.6665 51.3635 27.56 37.3C27.5273 37.158 27.4872 37.0178 27.44 36.88L27.33 36.54L26.13 36C24.5681 35.4502 22.9135 35.2124 21.26 35.3H20.37C20.37 35.3 21.15 26.73 21.54 26.73C23.1031 26.8228 24.6692 26.6088 26.15 26.1L27.47 25.5L27.54 25.28C28.34 22.68 36.95 16.11 36.95 16.11C36.95 19.58 36.95 22.88 37.68 25.29L37.79 25.63L38.99 26.2C49.4238 17.8842 61.7672 12.3026 74.9023 9.96052C88.0374 7.61847 101.549 8.59001 114.214 12.7871C126.879 16.9843 138.297 24.2745 147.434 33.9974C156.57 43.7203 163.137 55.5689 166.54 68.47H171.32V81.33H171.41C172.965 81.8951 174.619 82.1367 176.27 82.04H177.16L180 82Z" fill="black"/>
<path d="M159.1 80.24H143C143 63.6056 136.392 47.6525 124.63 35.8903C112.867 24.128 96.9144 17.52 80.28 17.52C63.6456 17.52 47.6925 24.128 35.9303 35.8903C24.168 47.6525 17.56 63.6056 17.56 80.24H1.4C1.4 59.3277 9.70739 39.2719 24.4946 24.4846C39.2819 9.69739 59.3377 1.39 80.25 1.39C101.162 1.39 121.218 9.69739 136.005 24.4846C150.793 39.2719 159.1 59.3277 159.1 80.24V80.24Z" fill="#F24E1E"/>
<path d="M143 80.24H126.84C126.84 67.8836 121.931 56.0332 113.194 47.2959C104.457 38.5586 92.6064 33.65 80.25 33.65C67.8936 33.65 56.0432 38.5586 47.3059 47.2959C38.5686 56.0332 33.66 67.8836 33.66 80.24H17.53C17.53 63.6056 24.138 47.6525 35.9003 35.8903C47.6625 24.128 63.6156 17.52 80.25 17.52C96.8844 17.52 112.837 24.128 124.6 35.8903C136.362 47.6525 142.97 63.6056 142.97 80.24H143Z" fill="#FFC700"/>
<path d="M126.84 80.24H110.7C110.773 76.1942 110.04 72.1743 108.542 68.4151C107.045 64.6559 104.813 61.2328 101.978 58.3457C99.1424 55.4585 95.7603 53.1653 92.0289 51.5998C88.2975 50.0344 84.2915 49.2281 80.245 49.2281C76.1985 49.2281 72.1925 50.0344 68.4611 51.5998C64.7297 53.1653 61.3476 55.4585 58.5123 58.3457C55.677 61.2328 53.4454 64.6559 51.9478 68.4151C50.4502 72.1743 49.7167 76.1942 49.79 80.24H33.66C33.66 67.8836 38.5686 56.0332 47.3059 47.2959C56.0432 38.5586 67.8936 33.65 80.25 33.65C92.6064 33.65 104.457 38.5586 113.194 47.2959C121.931 56.0332 126.84 67.8836 126.84 80.24V80.24Z" fill="#A259FF"/>
<path d="M159.13 80.24H1.39V122.62H159.13V80.24Z" fill="#C7B9FF"/>
<path d="M20.87 38.79V37.38C20.92 33.67 20.87 30.38 20.07 27.77L19.79 26.87L18 26C16.2654 25.357 14.4171 25.0778 12.57 25.18H11.66H10.24V19.36H11.65H12.85C14.6134 19.457 16.3784 19.1985 18.04 18.6L19.9 17.76L20.18 16.93C20.9469 13.7946 21.2435 10.5626 21.06 7.34V5.93H26.9V7.34C26.9 11.05 26.9 14.34 27.7 16.95L27.99 17.85L29.78 18.72C31.5143 19.3639 33.3629 19.643 35.21 19.54H36.12H37.54V25.4H36.13H34.93C33.1665 25.3022 31.4014 25.5607 29.74 26.16L27.84 27L27.57 27.83C26.71 30.57 26.64 34.06 26.68 37.42V38.83L20.87 38.79Z" fill="white"/>
<path d="M13.76 114.48V88.37H24.76L28 98.44C28.71 100.9 28.9 104.07 28.9 109.44H31.21C31.21 104.02 31.47 100.85 32.21 98.44L35.5 88.37H46V114.48H39.17V106.91C39.3239 101.889 40.3702 96.9347 42.26 92.28L39.88 91.46L32.71 114.46H27L19.88 91.46L17.49 92.24C19.3695 96.8966 20.4056 101.85 20.55 106.87V114.44L13.76 114.48Z" fill="black"/>
<path d="M69.28 114.48L67.52 109H57.75L55.92 114.44H48.72L58.16 88.33H67.49L76.93 114.44L69.28 114.48ZM59.5 103.66H65.81L64.57 99.78C63.9666 97.2335 63.7408 94.6122 63.9 92H61.55C61.6992 94.6324 61.4497 97.2722 60.81 99.83L59.5 103.66Z" fill="black"/>
<path d="M77.56 101.57C77.56 93.78 83.16 87.73 91.77 87.73C99.46 87.73 103.23 91.65 104.54 95.6L97.67 98C96.85 95.5 95.17 93.34 91.67 93.34C87.67 93.34 84.92 96.4 84.92 101.62C84.92 107.03 87.83 109.83 91.64 109.83C95.22 109.83 97.08 107.83 97.46 105.83H90.24V100.64H104.35V114.44H98.08C98.271 112.562 98.9124 110.757 99.95 109.18H97.3C96.63 111.01 94.76 115.08 89.3 115.08C83.16 115.12 77.56 110.49 77.56 101.57Z" fill="black"/>
<path d="M108.94 114.48V88.37H116V114.48H108.94Z" fill="black"/>
<path d="M120 101.5C120 93.59 125.63 87.73 134 87.73C140.53 87.73 145.23 91.16 146.72 96.09L140 98.4C139.07 95.27 137.2 93.4 133.92 93.4C129.92 93.4 127.54 96.34 127.54 101.49C127.54 106.64 129.96 109.49 133.92 109.49C137.13 109.49 139.07 107.58 140.11 104.49L146.79 106.92C145 111.92 140.52 115.2 133.96 115.2C125.47 115.12 120 109.6 120 101.5Z" fill="black"/>
<path d="M102.33 33.35V31.94C102.462 29.9268 102.297 27.9051 101.84 25.94L101.73 25.57L100.79 25.11C99.7491 24.7371 98.6439 24.5773 97.54 24.64H97H95.58V19.94L97 20H97.76C98.8124 20.0638 99.8669 19.9142 100.86 19.56L101.86 19.12L101.97 18.8C102.438 16.8534 102.616 14.8486 102.5 12.85V11.44H107.25V12.85C107.124 14.8632 107.289 16.8839 107.74 18.85L107.86 19.22L108.8 19.68C109.841 20.0529 110.946 20.2127 112.05 20.15H112.62H114.04V24.91H112.63H111.87C110.815 24.8481 109.758 24.9942 108.76 25.34L107.76 25.79L107.65 26.11C107.173 28.0721 106.991 30.0943 107.11 32.11V33.52L102.33 33.35Z" fill="white"/>
<path d="M153.28 94V92.59C153.28 88.87 153.28 85.59 152.47 82.97L152.19 82.07L150.4 81.21C148.546 80.4779 146.562 80.1375 144.57 80.21H144.06H142.64V74.56H144.05H145.25C147.013 74.6602 148.778 74.4051 150.44 73.81L152.3 72.96L152.58 72.14C153.352 69.0054 153.648 65.7727 153.46 62.55V61.14H159.3V62.55C159.3 66.26 159.3 69.55 160.1 72.16L160.38 73.06L162.17 73.93C163.905 74.573 165.753 74.8522 167.6 74.75H168.51H169.93V80.6H168.52H167.32C165.556 80.4981 163.79 80.7567 162.13 81.36L160.27 82.2L160 83C159.14 85.74 159.07 89.23 159.12 92.58V94H153.28Z" fill="white"/>
<path d="M168.48 73.38H167.59C165.936 73.4737 164.28 73.2357 162.72 72.68L161.52 72.1L161.42 71.75C160.67 69.35 160.64 66.04 160.68 62.58V59.77H157.82C154.419 46.8725 147.856 35.0268 138.723 25.3054C129.59 15.584 118.177 8.29387 105.517 4.09501C92.8571 -0.103863 79.3496 -1.07886 66.2177 1.2583C53.0857 3.59545 40.7441 9.17094 30.31 17.48L29 16.57C28.25 14.16 28.23 10.86 28.27 7.39V4.59H19.64V7.4C19.8016 10.4768 19.5255 13.5609 18.82 16.56L18.74 16.77L17.42 17.38C15.9414 17.8837 14.3796 18.0976 12.82 18.01H11.68L8.85 17.95V26.64L11.69 26.58H12.58C14.2312 26.4894 15.8837 26.7309 17.44 27.29L18.65 27.88L18.76 28.21C18.76 28.35 18.84 28.48 18.87 28.64C6.98006 42.6971 0.313763 60.4315 0 78.84H0L0 124H160.52V95.38V92.56C160.52 91.38 160.52 90.14 160.52 88.92C160.551 87.0581 160.813 85.2074 161.3 83.41L161.39 83.17L162.69 82.59C164.173 82.0732 165.743 81.8557 167.31 81.95H168.48H171.32V73.25L168.48 73.38ZM18.61 24.75C16.7009 24.0045 14.6577 23.664 12.61 23.75H11.67V20.75H12.89C14.8465 20.8678 16.8059 20.5713 18.64 19.88L21 18.81L21.47 17.41C22.3073 14.1465 22.6445 10.7747 22.47 7.41H25.47C25.42 11.29 25.47 14.68 26.34 17.46L26.81 18.93L27.94 19.49L29.13 20.06C29.6936 20.3173 30.2838 20.5118 30.89 20.64C32.2975 20.9304 33.7332 21.0612 35.17 21.03H36.11V24.03L34.9 24C32.9395 23.8861 30.977 24.1859 29.14 24.88L26.72 25.97L26.24 27.38C25.428 30.6475 25.1111 34.0184 25.3 37.38H22.3C22.4057 34.7071 22.2752 32.03 21.91 29.38C21.8077 28.7017 21.6505 28.0328 21.44 27.38L21 26.16V25.87L18.61 24.75ZM19.43 32.35C19.52 33.91 19.52 35.61 19.49 37.35V40.17H28.14V37.35C28.14 34.26 28.14 30.78 28.97 28.2L29 28L30.31 27.4C31.7966 26.9015 33.3646 26.691 34.93 26.78H36.1L38.93 26.83V18.13L36.09 18.2H35.21C34.79 18.2 34.39 18.2 34.01 18.2C44.1143 10.6581 55.9074 5.69787 68.3647 3.75026C80.8219 1.80265 93.5663 2.92663 105.49 7.02451C117.414 11.1224 128.157 18.0702 136.786 27.2642C145.414 36.4581 151.667 47.6201 155 59.78H152.07V62.61C152.235 65.6797 151.962 68.7571 151.26 71.75L151.18 71.97L149.86 72.58C148.377 73.0799 146.812 73.2904 145.25 73.2H144C142.947 63.6801 139.776 54.517 134.717 46.3837C129.659 38.2504 122.843 31.3537 114.77 26.2H115.36V18.64L112.52 18.7H112C111.086 18.7484 110.171 18.6298 109.3 18.35L108.95 18.17C108.609 16.4118 108.485 14.6184 108.58 12.83V10.02H101V12.84C101.095 14.5962 100.964 16.3572 100.61 18.08L100.19 18.27C99.4047 18.5158 98.5815 18.6174 97.76 18.57C88.3383 15.897 78.4294 15.4184 68.794 17.171C59.1586 18.9235 50.0529 22.8606 42.1759 28.68C34.2989 34.4994 27.86 42.0464 23.3537 50.7416C18.8474 59.4367 16.3933 69.0488 16.18 78.84H2.82C3.1086 61.9411 8.9449 45.6058 19.43 32.35V32.35ZM80.26 48.35C72.0524 48.3602 64.165 51.5355 58.2397 57.215C52.3144 62.8944 48.8079 70.6402 48.45 78.84H35.1C35.49 67.1216 40.4192 56.0135 48.8467 47.8618C57.2742 39.7101 68.5401 35.153 80.265 35.153C91.9899 35.153 103.256 39.7101 111.683 47.8618C120.111 56.0135 125.04 67.1216 125.43 78.84H112.09C111.717 70.6455 108.202 62.9096 102.274 57.2391C96.347 51.5687 88.463 48.3995 80.26 48.39V48.35ZM109.26 78.8H51.23C51.5697 71.3291 54.7767 64.2767 60.1836 59.11C65.5906 53.9434 72.7814 51.0601 80.26 51.0601C87.7386 51.0601 94.9294 53.9434 100.336 59.11C105.743 64.2767 108.95 71.3291 109.29 78.8H109.26ZM80.26 32.23C67.7755 32.2378 55.7852 37.1094 46.8331 45.8113C37.881 54.5133 32.6715 66.3607 32.31 78.84H19C19.3809 62.8283 26.0042 47.5994 37.4567 36.4029C48.9091 25.2064 64.2838 18.929 80.3 18.91C84.9795 18.9058 89.6438 19.4427 94.2 20.51V26.12L97 26.07H97.55C98.4581 26.0192 99.3675 26.1413 100.23 26.43L100.58 26.6C100.926 28.3575 101.051 30.1515 100.95 31.94V34.76H108.51V31.93C108.424 30.1735 108.558 28.4131 108.91 26.69L109.32 26.5L109.63 26.39C118.365 31.1522 125.812 37.9636 131.334 46.239C136.856 54.5144 140.286 64.0066 141.33 73.9V78.9H128.21C127.854 66.4172 122.646 54.5647 113.694 45.8585C104.741 37.1523 92.7479 32.2779 80.26 32.27V32.23ZM103.85 12.75H105.79C105.65 14.9049 105.832 17.0687 106.33 19.17L106.64 20.12L108.11 20.82C109.342 21.2954 110.661 21.5067 111.98 21.44H112.56V23.4H111.79C111.205 23.3982 110.621 23.4283 110.04 23.49C109.374 23.5415 108.722 23.7037 108.11 23.97L106.57 24.67V24.83L106.33 25.56C105.787 27.6507 105.578 29.814 105.71 31.97H103.78C103.922 29.8178 103.737 27.6565 103.23 25.56L102.94 24.62L101.45 23.91C100.226 23.4278 98.9136 23.213 97.6 23.28H97V21.36H97.77C99.0224 21.4336 100.276 21.2428 101.45 20.8L102.8 20.2L103.01 20.1L103.29 19.21C103.807 17.1118 103.996 14.9461 103.85 12.79V12.75ZM157.74 121.18H2.79V81.63H146.14C147.416 81.6924 148.672 81.9767 149.85 82.47L151.06 83.06L151.18 83.39C151.92 85.79 151.94 89.1 151.91 92.56V95.38H157.79L157.74 121.18ZM168.53 79.18H167.31C165.346 79.0744 163.381 79.3774 161.54 80.07L160.54 80.53L159.14 81.17L158.68 82.57C158.108 84.6157 157.799 86.7261 157.76 88.85C157.71 90.04 157.71 91.31 157.76 92.61H154.76C154.76 88.74 154.76 85.35 153.9 82.61L153.6 81.69L153.43 81.12L151 79.94C149.466 79.3075 147.837 78.9357 146.18 78.84C145.65 78.84 145.12 78.78 144.56 78.78H144.02V76H145.24C147.2 76.1126 149.161 75.8164 151 75.13L153.46 74L153.92 72.58C154.8 69.81 154.92 66.41 154.92 62.58H157.92C157.92 66.45 157.92 69.85 158.79 72.58L159.26 74.06L160.34 74.59L161.57 75.19C163.496 75.9381 165.556 76.2786 167.62 76.19H168.56L168.53 79.18Z" fill="black"/>
<path d="M109.29 78.84H51.23C51.5697 71.3691 54.7767 64.3167 60.1836 59.15C65.5906 53.9834 72.7814 51.1001 80.26 51.1001C87.7386 51.1001 94.9294 53.9834 100.336 59.15C105.743 64.3167 108.95 71.3691 109.29 78.84V78.84Z" fill="#F5F5F5"/>
</g>
<defs>
<clipPath id="clip0">
<rect width="180" height="132.7" fill="white"/>
</clipPath>
</defs>
</svg>
