<svg width="64" height="64" viewBox="0 0 64 64" fill="none" xmlns="http://www.w3.org/2000/svg">
<path d="M13.884 45.2373L23.5 35.6213L28.3787 40.5L18.7626 50.116C16.4465 52.4322 13.557 54.0918 10.3893 54.9254L9.43393 55.1768C9.06362 55.2743 8.7257 54.9364 8.82315 54.5661L9.07456 53.6107C9.90815 50.443 11.5678 47.5535 13.884 45.2373Z" fill="#FFF4D9" stroke="black" stroke-width="3" stroke-linejoin="round"/>
<path fill-rule="evenodd" clip-rule="evenodd" d="M46.3656 36.0406C45.1941 34.869 45.1941 32.9695 46.3656 31.7979L52.4946 25.6689C56.0874 22.0761 56.0874 16.251 52.4946 12.6582L51.0281 11.1917C47.4353 7.59885 41.6102 7.59885 38.0174 11.1917L31.8884 17.3207C30.7168 18.4922 28.8173 18.4922 27.6457 17.3206L26.7932 16.4681C23.669 13.3439 18.6037 13.344 15.4795 16.4681L12.1213 19.8263C10.9498 20.9979 10.9498 22.8974 12.1213 24.069L40.1741 52.1218C41.3457 53.2934 43.2452 53.2934 44.4168 52.1218L47.775 48.7636C50.8992 45.6394 50.8992 40.5741 47.775 37.4499L46.3656 36.0406Z" fill="#D27C2C"/>
<path d="M52.4946 25.6689L51.434 24.6083L51.434 24.6083L52.4946 25.6689ZM52.4946 12.6582L51.434 13.7188L51.434 13.7188L52.4946 12.6582ZM51.0281 11.1917L52.0888 10.131L52.0888 10.131L51.0281 11.1917ZM38.0174 11.1917L36.9567 10.131L38.0174 11.1917ZM26.7932 16.4681L27.8539 15.4075L27.8539 15.4075L26.7932 16.4681ZM15.4795 16.4681L16.5402 17.5288L16.5402 17.5288L15.4795 16.4681ZM47.775 48.7636L46.7143 47.7029L46.7143 47.7029L47.775 48.7636ZM47.775 37.4499L46.7143 38.5105L46.7143 38.5106L47.775 37.4499ZM40.1741 52.1218L41.2348 51.0611L40.1741 52.1218ZM44.4168 52.1218L43.3561 51.0611L44.4168 52.1218ZM12.1213 24.069L11.0607 25.1296L12.1213 24.069ZM31.8884 17.3207L30.8277 16.26L31.8884 17.3207ZM27.6457 17.3206L28.7064 16.26L28.7064 16.26L27.6457 17.3206ZM46.3656 31.7979L45.305 30.7373L46.3656 31.7979ZM46.3656 36.0406L45.305 37.1012L46.3656 36.0406ZM51.434 24.6083L45.305 30.7373L47.4263 32.8586L53.5553 26.7296L51.434 24.6083ZM51.434 13.7188C54.441 16.7259 54.441 21.6012 51.434 24.6083L53.5553 26.7296C57.7339 22.551 57.7339 15.7761 53.5553 11.5975L51.434 13.7188ZM49.9675 12.2523L51.434 13.7188L53.5553 11.5975L52.0888 10.131L49.9675 12.2523ZM39.078 12.2523C42.085 9.2453 46.9604 9.2453 49.9675 12.2523L52.0888 10.131C47.9102 5.95241 41.1353 5.9524 36.9567 10.131L39.078 12.2523ZM32.949 18.3813L39.078 12.2523L36.9567 10.131L30.8277 16.26L32.949 18.3813ZM25.7326 17.5288L26.5851 18.3813L28.7064 16.26L27.8539 15.4075L25.7326 17.5288ZM16.5402 17.5288C19.0786 14.9904 23.1942 14.9904 25.7326 17.5288L27.8539 15.4075C24.1439 11.6975 18.1288 11.6975 14.4189 15.4075L16.5402 17.5288ZM13.182 20.887L16.5402 17.5288L14.4189 15.4075L11.0607 18.7657L13.182 20.887ZM41.2348 51.0611L13.182 23.0083L11.0607 25.1296L39.1135 53.1824L41.2348 51.0611ZM46.7143 47.7029L43.3561 51.0611L45.4774 53.1824L48.8356 49.8243L46.7143 47.7029ZM46.7143 38.5106C49.2527 41.049 49.2527 45.1645 46.7143 47.7029L48.8356 49.8243C52.5456 46.1143 52.5456 40.0992 48.8356 36.3892L46.7143 38.5106ZM45.305 37.1012L46.7143 38.5105L48.8356 36.3892L47.4263 34.9799L45.305 37.1012ZM39.1135 53.1824C40.8708 54.9398 43.7201 54.9398 45.4774 53.1824L43.3561 51.0611C42.7703 51.6469 41.8206 51.6469 41.2348 51.0611L39.1135 53.1824ZM11.0607 18.7657C9.30331 20.523 9.3033 23.3723 11.0607 25.1296L13.182 23.0083C12.5962 22.4225 12.5962 21.4728 13.182 20.887L11.0607 18.7657ZM30.8277 16.26C30.2419 16.8458 29.2922 16.8458 28.7064 16.26L26.5851 18.3813C28.3424 20.1387 31.1917 20.1387 32.949 18.3813L30.8277 16.26ZM45.305 30.7373C43.5476 32.4946 43.5476 35.3439 45.305 37.1012L47.4263 34.9799C46.8405 34.3941 46.8405 33.4444 47.4263 32.8586L45.305 30.7373Z" fill="black"/>
<path d="M45.668 16.7481C46.3573 17.2076 47.2886 17.0213 47.7481 16.3321C48.2076 15.6428 48.0213 14.7115 47.3321 14.2519L45.668 16.7481ZM37.4393 18.4393C36.8536 19.0251 36.8536 19.9749 37.4393 20.5607C38.0251 21.1464 38.9749 21.1464 39.5607 20.5607L37.4393 18.4393ZM47.3321 14.2519C46.3623 13.6054 45.3499 13.2882 44.2994 13.3632C43.2765 13.4363 42.3922 13.8695 41.6398 14.3962C40.8937 14.9184 40.1877 15.5971 39.5207 16.28C38.8005 17.0174 38.201 17.6777 37.4393 18.4393L39.5607 20.5607C40.299 19.8223 41.0745 18.9826 41.6668 18.3762C42.3123 17.7154 42.8563 17.2066 43.3602 16.8539C43.8578 16.5055 44.2236 16.3763 44.5131 16.3556C44.7751 16.3369 45.1377 16.3946 45.668 16.7481L47.3321 14.2519Z" fill="black"/>
</svg>
