<svg width="128" height="111" viewBox="0 0 128 111" fill="none" xmlns="http://www.w3.org/2000/svg">
<g clip-path="url(#clip0)">
<circle cx="94.0541" cy="33.9459" r="27.4595" fill="white" stroke="white" stroke-width="12.973"/>
<path d="M91.1135 42.3568C81.6432 20.0216 55.827 9.5784 33.4919 19.0703C11.1567 28.5622 0.713474 54.3568 10.2054 76.6919C19.6973 99.0271 45.4919 109.449 67.827 99.9784C90.1837 90.5081 100.605 64.6919 91.1135 42.3568ZM50.8756 77.8378C46.1621 77.8378 29.6216 73.7297 29.6216 59.5243C29.6216 43.8919 46.1621 37.1892 50.8756 37.1892C66.3783 37.1892 72.2162 49.0811 72.2162 59.5243C72.2162 71.4595 59.3513 77.8378 50.8756 77.8378Z" stroke="white" stroke-width="12.973"/>
<path d="M91.1135 42.3567C81.6433 20.0216 55.827 9.57837 33.4919 19.0703C11.1568 28.5622 0.713535 54.3568 10.2054 76.6919C19.6973 99.027 45.4919 109.449 67.827 99.9784C90.1838 90.5081 100.605 64.6919 91.1135 42.3567ZM50.6595 68.0649C45.946 68.0649 42.1189 64.2378 42.1189 59.5243C42.1189 54.8108 45.946 50.9838 50.6595 50.9838C55.373 50.9838 59.2 54.8108 59.2 59.5243C59.2 64.2378 55.373 68.0649 50.6595 68.0649Z" fill="#F7AC00"/>
<path d="M84.8648 45.0162C76.8432 26.1189 55.027 17.3189 36.1513 25.3405C17.2756 33.3622 8.43237 55.1568 16.454 74.0541C24.4756 92.9514 46.2918 101.751 65.1891 93.7297C84.0864 85.7081 92.8864 63.8919 84.8648 45.0162ZM50.6594 68.0649C45.9459 68.0649 42.1189 64.2378 42.1189 59.5243C42.1189 54.8108 45.9459 50.9838 50.6594 50.9838C55.3729 50.9838 59.1999 54.8108 59.1999 59.5243C59.1999 64.2378 55.3729 68.0649 50.6594 68.0649Z" fill="#FF81B6"/>
<path opacity="0.37" d="M42.1189 59.5243C42.1189 54.8108 45.9459 50.9838 50.6594 50.9838C55.2216 50.9838 58.9405 54.5729 59.1783 59.0702C59.1783 58.9189 59.1999 58.7675 59.1999 58.6162C59.1999 53.4054 54.9837 49.1892 49.7729 49.1892C44.5621 49.1892 40.3459 53.4054 40.3459 58.6162C40.3459 63.827 44.5621 68.0432 49.7729 68.0432C49.9243 68.0432 50.0756 68.0432 50.227 68.0216C45.708 67.827 42.1189 64.0865 42.1189 59.5243Z" fill="url(#paint0_linear)"/>
<path d="M91.1135 42.3568C88.627 36.4757 84.9945 31.4162 80.5837 27.3297C83.9567 30.9622 86.7675 35.2432 88.8216 40.0649C98.3135 62.4 87.8918 88.2162 65.5351 97.6865C49.081 104.67 30.7243 100.843 18.4216 89.427C30.6594 102.595 50.2918 107.395 67.8054 99.9567C90.1837 90.5081 100.605 64.6919 91.1135 42.3568Z" fill="url(#paint1_linear)"/>
<path d="M43.5891 47.827C46.467 47.827 48.7999 45.494 48.7999 42.6162C48.7999 39.7383 46.467 37.4054 43.5891 37.4054C40.7113 37.4054 38.3783 39.7383 38.3783 42.6162C38.3783 45.494 40.7113 47.827 43.5891 47.827Z" fill="white"/>
<path d="M58.5945 47.827C61.4724 47.827 63.8054 45.494 63.8054 42.6162C63.8054 39.7383 61.4724 37.4054 58.5945 37.4054C55.7167 37.4054 53.3837 39.7383 53.3837 42.6162C53.3837 45.494 55.7167 47.827 58.5945 47.827Z" fill="white"/>
<path d="M43.5243 45.9892C45.3871 45.9892 46.8972 44.479 46.8972 42.6162C46.8972 40.7534 45.3871 39.2432 43.5243 39.2432C41.6614 39.2432 40.1513 40.7534 40.1513 42.6162C40.1513 44.479 41.6614 45.9892 43.5243 45.9892Z" fill="#292929"/>
<path d="M43.5243 45.9892C45.3871 45.9892 46.8972 44.479 46.8972 42.6162C46.8972 40.7534 45.3871 39.2432 43.5243 39.2432C41.6614 39.2432 40.1513 40.7534 40.1513 42.6162C40.1513 44.479 41.6614 45.9892 43.5243 45.9892Z" fill="#292929"/>
<path d="M58.5945 45.9892C60.4573 45.9892 61.9675 44.479 61.9675 42.6162C61.9675 40.7534 60.4573 39.2432 58.5945 39.2432C56.7317 39.2432 55.2215 40.7534 55.2215 42.6162C55.2215 44.479 56.7317 45.9892 58.5945 45.9892Z" fill="#292929"/>
<path d="M58.5945 45.9892C60.4574 45.9892 61.9675 44.479 61.9675 42.6162C61.9675 40.7534 60.4574 39.2432 58.5945 39.2432C56.7317 39.2432 55.2216 40.7534 55.2216 42.6162C55.2216 44.479 56.7317 45.9892 58.5945 45.9892Z" fill="#292929"/>
<path d="M28.8649 70.1405C28.0865 70.1405 27.4379 69.5135 27.4379 68.7135V61.9892C27.4379 61.2108 28.0649 60.5622 28.8649 60.5622C29.6433 60.5622 30.2919 61.1892 30.2919 61.9892V68.7135C30.2703 69.5135 29.6433 70.1405 28.8649 70.1405Z" fill="#FF4205"/>
<path d="M66.9838 54.854C66.3568 54.3784 66.2271 53.4919 66.6811 52.8649L70.6811 47.4378C71.1568 46.8108 72.0433 46.6811 72.6703 47.1351C73.2973 47.6108 73.4271 48.4973 72.973 49.1243L68.973 54.5513C68.4973 55.1784 67.6108 55.3081 66.9838 54.854Z" fill="#FF4205"/>
<path d="M48.9082 84C48.2811 83.5243 48.1514 82.6378 48.6055 82.0108L52.6055 76.5838C53.0811 75.9568 53.9676 75.827 54.5946 76.2811C55.2217 76.7568 55.3514 77.6432 54.8973 78.2703L50.8973 83.6973C50.4217 84.3459 49.5352 84.4757 48.9082 84Z" fill="#FF4205"/>
<path d="M73.0595 79.2648C72.4108 79.1784 71.9568 78.5729 72.0433 77.9243L72.5622 74.3135C72.6487 73.6648 73.2541 73.2108 73.9027 73.2973C74.5514 73.3838 75.0054 73.9892 74.919 74.6378L74.4 78.2486C74.3135 78.8973 73.7298 79.3513 73.0595 79.2648Z" fill="#FF4205"/>
<path d="M29.1676 83.6325C28.519 83.546 28.0649 82.9406 28.1514 82.2919L28.6703 78.6811C28.7568 78.0325 29.3622 77.5784 30.0109 77.6649C30.6595 77.7514 31.1136 78.3568 31.0271 79.0054L30.5082 82.6162C30.4001 83.2865 29.8163 83.7189 29.1676 83.6325Z" fill="#FF4205"/>
<path d="M24.6055 57.0378C24.0866 57.427 23.3298 57.3189 22.9406 56.8L20.7568 53.8811C20.3676 53.3621 20.4757 52.6054 20.9947 52.2162C21.5136 51.827 22.2703 51.9351 22.6595 52.454L24.8649 55.3729C25.2325 55.8919 25.1244 56.6486 24.6055 57.0378Z" fill="#5ECAFF"/>
<path d="M22.573 73.6649C21.9244 73.7946 21.319 73.3622 21.1892 72.7135L20.519 69.1243C20.3892 68.4757 20.8217 67.8703 21.4703 67.7405C22.119 67.6108 22.7244 68.0432 22.8541 68.6919L23.5244 72.2811C23.6541 72.9297 23.2217 73.5568 22.573 73.6649Z" fill="#5ECAFF"/>
<path d="M81.4919 56.3243C80.8433 56.4541 80.2379 56.0216 80.1081 55.373L79.4379 51.7838C79.3081 51.1351 79.7406 50.5297 80.3892 50.4C81.0379 50.2703 81.6433 50.7027 81.773 51.3513L82.4433 54.9405C82.5514 55.5892 82.1406 56.2162 81.4919 56.3243Z" fill="#5ECAFF"/>
<path d="M34.8109 40.3027C34.1838 40.5189 33.5136 40.173 33.319 39.5459L32.173 36.0865C31.9568 35.4595 32.3027 34.7892 32.9298 34.5946C33.5568 34.3784 34.2271 34.7243 34.4217 35.3513L35.5676 38.8108C35.7838 39.4378 35.4379 40.1081 34.8109 40.3027Z" fill="#FF4205"/>
<path d="M59.6108 83.0054C59.0487 82.4432 59.0487 81.5568 59.6108 80.9946L64.3676 76.2378C64.9298 75.6757 65.8162 75.6757 66.3784 76.2378C66.9406 76.8 66.9406 77.6865 66.3784 78.2487L61.6216 83.0054C61.0595 83.5676 60.173 83.5676 59.6108 83.0054Z" fill="#5ECAFF"/>
<path d="M25.7514 49.7946C25.1892 49.2324 25.1892 48.3459 25.7514 47.7838L30.5082 43.027C31.0703 42.4649 31.9568 42.4649 32.519 43.027C33.0811 43.5892 33.0811 44.4757 32.519 45.0378L27.7622 49.7946C27.2 50.3567 26.3136 50.3567 25.7514 49.7946Z" fill="white"/>
<path d="M39.2 65.1676C38.5298 65.5567 37.6433 65.3189 37.2541 64.6486L33.8811 58.8108C33.4919 58.1405 33.7298 57.254 34.4 56.8649C35.0703 56.4757 35.9568 56.7135 36.346 57.3838L39.719 63.2216C40.1081 63.9135 39.8703 64.7784 39.2 65.1676Z" fill="#5ECAFF"/>
<path d="M78.2271 70.4433C77.5568 70.8324 76.6703 70.5946 76.2811 69.9243L72.9082 64.0865C72.519 63.4162 72.7568 62.5297 73.4271 62.1406C74.0973 61.7514 74.9838 61.9892 75.373 62.6595L78.746 68.4973C79.1352 69.1892 78.8973 70.0541 78.2271 70.4433Z" fill="#5ECAFF"/>
<path d="M42.7243 72.1081C42.9622 72.8433 42.573 73.6649 41.8162 73.9027L35.4162 76.0216C34.6811 76.2595 33.8595 75.8703 33.6216 75.1135C33.3838 74.3784 33.773 73.5568 34.5297 73.3189L40.9297 71.2C41.6865 70.9622 42.4865 71.3514 42.7243 72.1081Z" fill="white"/>
<path d="M69.1676 69.5783C68.7784 70.2486 67.9135 70.4865 67.2216 70.0973L61.3838 66.7243C60.7135 66.3351 60.4757 65.4702 60.8649 64.7784C61.2541 64.1081 62.1189 63.8702 62.8108 64.2594L68.6487 67.6324C69.3189 68.0216 69.5568 68.9081 69.1676 69.5783Z" fill="white"/>
<path d="M37.2108 80.0432C37.773 79.4811 38.6595 79.4811 39.2216 80.0432L43.9784 84.8C44.5406 85.3621 44.5406 86.2486 43.9784 86.8108C43.4162 87.3729 42.5298 87.3729 41.9676 86.8108L37.2108 82.054C36.6487 81.4919 36.6487 80.6054 37.2108 80.0432Z" fill="#5ECAFF"/>
<path d="M56.2594 28.382C56.6486 27.7117 57.5135 27.4739 58.2054 27.8631L64.0432 31.2361C64.7135 31.6253 64.9513 32.4901 64.5622 33.182C64.173 33.8523 63.3081 34.0901 62.6162 33.7009L56.7784 30.328C56.0865 29.9172 55.8486 29.0523 56.2594 28.382Z" fill="#5ECAFF"/>
<path d="M45.881 28.382C45.4918 27.7117 44.6269 27.4739 43.9351 27.8631L38.0972 31.2361C37.4269 31.6253 37.1891 32.4901 37.5783 33.182C37.9675 33.8523 38.8323 34.0901 39.5242 33.7009L45.3621 30.328C46.0323 29.9172 46.2702 29.0523 45.881 28.382Z" fill="#5ECAFF"/>
<path d="M59.1135 61.254H94.1405C109.254 61.254 121.514 48.9946 121.514 33.8811C121.514 18.7459 109.254 6.48648 94.1189 6.48648H93.6C78.4865 6.48648 66.227 18.7459 66.227 33.8595V49.7946L57.5568 56.9513C55.8054 58.4 56.8216 61.254 59.1135 61.254Z" fill="#FAE4D4"/>
<path d="M69.8378 36.5055C69.8378 32.6143 72.9389 29.8561 76.9494 29.8561C82.0185 29.8561 83.9716 34.3288 83.9716 36.6994C83.9716 40.6503 80.4829 43.2593 76.7258 43.2593C72.8495 43.2593 69.8378 40.4266 69.8378 36.5055ZM76.0996 32.5994C75.0709 32.5994 74.5491 33.6579 74.5491 34.5674C74.5491 36.1328 75.6524 40.5161 77.6353 40.5161C78.7534 40.5161 79.2305 39.547 79.2305 38.5481C79.2454 36.8783 78.2614 32.5994 76.0996 32.5994Z" fill="#5ECAFF"/>
<path d="M89.1152 37.8325C89.0108 37.5939 88.8021 37.0423 88.4741 37.0423C87.9076 37.0423 88.0865 39.4725 88.0865 40.0688C88.0865 42.0368 89.2643 41.1125 89.2643 42.1114C89.2643 43.155 87.2963 43.1997 86.5806 43.1997C85.9396 43.1997 84.2697 43.1401 84.2697 42.1859C84.2697 41.1423 85.373 42.007 85.5221 40.5012C85.6712 38.9506 85.8352 37.251 85.8352 34.5823C85.8352 33.479 85.7606 32.9125 85.5668 32.4801C85.3879 32.0925 84.3294 31.9583 84.3294 31.2128C84.3294 30.1692 86.0439 29.9008 87.505 29.9008C89.6519 29.9008 89.6221 30.2736 90.1737 31.2128C90.8148 32.3012 91.9628 35.3128 92.7679 35.4917C93.3344 35.6259 94.0948 33.3896 94.7508 32.1819C95.6901 30.4525 95.705 29.9008 98.1352 29.9008C98.9402 29.9008 100.774 29.9605 100.774 31.1085C100.774 31.839 99.9541 31.9881 99.7602 32.6143C99.6112 33.1361 99.4919 35.2979 99.4919 36.1179C99.4919 36.3863 99.5962 38.4139 99.6708 40.1285C99.7304 41.4703 100.834 41.1721 100.834 42.007C100.834 43.2444 98.3141 43.1848 97.509 43.1848C96.7486 43.1848 94.2439 43.2594 94.2439 42.0815C94.2439 41.4405 95.0639 41.3212 95.1981 40.7397C95.2726 40.4266 95.6453 37.2659 94.9894 37.2659C94.4228 37.2659 93.8264 38.8761 93.3941 39.8154C92.9915 40.6652 92.3355 42.7524 91.7392 42.6779C91.441 42.6481 91.2919 42.6779 90.1886 40.203L89.1152 37.8325Z" fill="#FF4205"/>
<path d="M109.332 40.5757C109.973 40.5757 110.45 40.0986 110.45 39.4426C110.45 37.9219 108.527 39.4128 108.527 37.7132C108.527 36.3714 111.3 36.2819 112.239 36.2819C115.698 36.2819 115.892 37.251 115.892 37.7877C115.892 38.2648 115.489 38.5928 115.042 38.6674C114.565 38.727 114.52 38.8164 114.401 39.2935C113.685 41.9772 111.091 43.2593 108.482 43.2593C104.591 43.2593 101.191 40.5608 101.191 36.4906C101.191 32.6143 104.486 29.8561 108.407 29.8561C110.018 29.8561 110.912 30.3481 111.389 30.3481C111.717 30.3481 112.194 30.0797 112.522 30.0797C113.655 30.0797 114.341 31.9583 114.341 32.8976C114.341 33.7921 113.879 34.7165 112.895 34.7165C111.076 34.7165 111.076 32.167 108.571 32.167C106.976 32.167 105.947 33.4939 105.947 35.4321C105.947 39.2041 108.154 40.5757 109.332 40.5757Z" fill="#FF81B6"/>
</g>
<defs>
<linearGradient id="paint0_linear" x1="49.7729" y1="49.1892" x2="49.7729" y2="68.0432" gradientUnits="userSpaceOnUse">
<stop stop-color="#FF6C6C"/>
<stop offset="1" stop-color="#FF6C6C" stop-opacity="0"/>
</linearGradient>
<linearGradient id="paint1_linear" x1="56.5223" y1="27.3297" x2="56.5223" y2="103.464" gradientUnits="userSpaceOnUse">
<stop offset="0.401042" stop-color="#FF6800" stop-opacity="0"/>
<stop offset="1" stop-color="#FF974F"/>
</linearGradient>
<clipPath id="clip0">
<rect width="128" height="110.054" fill="white"/>
</clipPath>
</defs>
</svg>
