<svg width="128" height="97" viewBox="0 0 128 97" fill="none" xmlns="http://www.w3.org/2000/svg">
<path d="M51.7221 8.25534L125.888 33.2805L77.9606 40.4089L78.7189 31.9155L69.4672 30.8538L66.8888 40.4089L34.1286 42.0773L34.8869 29.0338L15.6251 27.6688L39.2853 12.047L45.807 13.4121L51.7221 8.25534Z" fill="#C9E4FD"/>
<path d="M66.8888 40.4088L38.982 42.5321C39.6897 48.8516 41.4693 62.613 42.9253 67.1023C44.3813 71.5917 51.1154 78.8819 54.3004 81.9658L49.5987 95.1609H84.7856L86.909 83.9375C87.9707 81.3085 90.276 75.4744 91.004 73.169C91.732 70.8637 88.5773 61.1873 86.909 56.6373C87.6673 54.9183 89.366 51.0255 90.094 49.2055C90.822 47.3855 91.6107 41.2682 91.914 38.4371L78.2639 40.4088L79.0223 31.3087H70.2255L66.8888 40.4088Z" fill="#DA9267"/>
<path fill-rule="evenodd" clip-rule="evenodd" d="M15.7913 0.112951C15.0717 0.363506 14.9215 0.660019 15.1417 1.3953C15.3577 2.11588 16.0757 2.65839 17.2935 3.02103C18.4757 3.3729 19.134 3.71734 19.5435 4.19812C19.739 4.4276 19.9675 4.61521 20.0515 4.61521C20.657 4.61521 21.9168 5.16076 22.3561 5.61303C22.6332 5.89847 22.9278 6.13189 23.0107 6.13189C23.0937 6.13189 23.288 6.27172 23.4425 6.4425C23.6547 6.67683 23.8731 6.74204 24.3333 6.70792C24.8321 6.67091 25.0053 6.56975 25.287 6.15039C25.7917 5.39903 25.4897 4.26092 24.7458 4.11031C24.5259 4.06572 23.9556 3.72553 23.4785 3.35409C22.99 2.97386 22.3628 2.63246 22.0428 2.5724C21.7304 2.51385 21.3897 2.34459 21.286 2.19641C21.1822 2.04823 20.8898 1.84105 20.6362 1.73595C20.3826 1.63099 20.1751 1.48994 20.1751 1.42275C20.1751 1.25622 18.584 0.671846 18.131 0.671846C17.9305 0.671846 17.7216 0.599348 17.6669 0.510773C17.5699 0.353949 17.2276 0.194696 16.611 0.0195194C16.4441 -0.0279527 16.0753 0.0142152 15.7913 0.112951ZM50.368 7.30959C49.9133 7.91611 49.8669 7.96388 49.0054 8.71024C48.5721 9.08562 47.6179 9.99244 46.8849 10.7253C45.6699 11.9405 45.519 12.0453 45.1741 11.9141C44.9662 11.8351 44.5286 11.7281 44.2019 11.6766C43.556 11.5746 43.2147 11.4809 41.6968 10.9891C39.2672 10.2017 38.2418 10.4054 35.4884 12.2224C34.4486 12.9087 33.5762 13.5216 33.55 13.5844C33.5237 13.6473 32.9196 13.9925 32.2076 14.3515C31.4956 14.7107 30.6514 15.2433 30.3319 15.5353C29.6482 16.1599 29.4087 16.3249 28.5812 16.742C28.2413 16.9132 27.6953 17.2814 27.3678 17.5601C27.0405 17.8387 26.4656 18.2573 26.0902 18.4902C25.7148 18.7232 25.3053 19.0114 25.1802 19.1306C24.921 19.3778 23.084 20.709 21.8435 21.5486C21.3847 21.8592 20.6571 22.4077 20.2269 22.7676C19.7964 23.1275 19.3968 23.422 19.3387 23.422C19.2806 23.422 19.0302 23.5928 18.7821 23.8015C18.534 24.0103 17.8416 24.464 17.2436 24.8099C15.8942 25.5901 13.9938 26.9701 13.5404 27.499C13.1625 27.9399 13.1115 28.3738 13.371 28.9432C13.5949 29.4346 14.2248 29.6507 14.9541 29.4862C15.2678 29.4153 15.7643 29.3882 16.0575 29.4258C16.3505 29.4632 17.3117 29.5263 18.1932 29.5659C19.0746 29.6055 20.5467 29.6786 21.4643 29.7282C22.3819 29.778 23.8152 29.8417 24.6493 29.8699C25.4835 29.8981 26.439 29.9527 26.7727 29.9914C27.2379 30.0453 30.3824 30.1964 33.0161 30.2912C33.1926 30.2976 33.1849 30.9737 32.9698 34.3421C32.9245 35.0511 32.8617 36.0408 32.8303 36.5413C32.7988 37.0418 32.7254 37.929 32.6671 38.513C32.5476 39.7108 32.555 41.9818 32.68 42.4797C32.7273 42.6681 33.0715 42.9822 33.4835 43.2133C34.0939 43.5555 34.3208 43.6034 34.9628 43.526C35.3798 43.4758 36.3866 43.4026 37.2 43.3633L38.6788 43.292L38.6315 47.4242C38.6055 49.697 38.6355 51.7953 38.6983 52.0872C38.7611 52.3792 38.8497 53.4371 38.8952 54.4381C38.9991 56.7184 39.1348 58.0032 39.3076 58.3379C39.3813 58.4808 39.465 58.7879 39.4937 59.0204C39.5759 59.6863 40.6549 63.794 40.837 64.1344C40.9273 64.303 41.0525 64.6474 41.1153 64.8995C41.4168 66.1094 42.0379 67.4159 42.5821 67.9852C42.6875 68.0955 42.7737 68.2831 42.7737 68.4021C42.7737 68.6727 43.8428 70.8 44.0134 70.8687C44.0822 70.8966 44.1387 71.0023 44.1387 71.1038C44.1387 71.3243 45.566 73.5519 46.3717 74.5887C47.3339 75.827 48.399 77.0295 50.4878 79.2358C52.8394 81.7198 53.2764 82.2701 53.1902 82.6394C53.1502 82.8111 52.9679 83.327 52.7852 83.7858C52.6025 84.2446 52.3791 84.893 52.2887 85.2267C52.1983 85.5603 51.9533 86.1405 51.7442 86.5158C51.1022 87.6682 50.9657 87.9502 50.9646 88.1253C50.9637 88.2966 50.4476 89.4903 49.5092 91.4911C48.986 92.607 48.408 94.1864 48.2906 94.821C48.2232 95.1852 48.5308 95.9027 48.8777 96.1906C49.188 96.4482 50.3473 96.5148 54.3004 96.5024C58.835 96.4883 58.798 96.4882 59.6088 96.5161C60.4677 96.5456 63.0483 96.5707 63.5521 96.5543C63.7607 96.5475 65.467 96.5452 67.3438 96.5491C80.4994 96.5772 84.3202 96.5405 84.9144 96.3805C85.7037 96.1678 86.4027 95.2827 86.5162 94.3521C86.5586 94.0044 86.6647 93.2082 86.7519 92.5825C86.8391 91.9569 86.9448 90.9772 86.9865 90.4052C87.0284 89.8334 87.1016 89.3023 87.1494 89.2251C87.2298 89.095 87.4536 87.797 87.8351 85.2497C87.9614 84.406 88.1169 84.0303 88.6632 83.2488C89.0331 82.7196 89.3357 82.22 89.3357 82.1389C89.3357 82.0576 89.3879 81.9684 89.4517 81.9405C89.6307 81.8627 90.5035 79.8312 90.6098 79.2458C90.6617 78.9593 90.7979 78.618 90.9123 78.4875C91.1589 78.2058 91.6554 76.5493 91.5462 76.3724C91.5044 76.3048 91.6125 75.8806 91.7863 75.4297C92.0765 74.6771 92.0947 74.4112 92.0078 72.1832C91.9557 70.8485 91.8902 69.6542 91.8622 69.529C91.8341 69.4039 91.7583 69.0449 91.6937 68.7311C91.6292 68.4173 91.5157 68.1232 91.4419 68.0776C91.3679 68.0319 91.3074 67.6999 91.3074 67.34C91.3074 66.98 91.205 66.3953 91.0799 66.0407C90.9547 65.6861 90.8524 65.2294 90.8524 65.026C90.8524 64.8225 90.7239 64.3362 90.5669 63.9454C90.4099 63.5545 90.1943 62.9277 90.0878 62.5523C89.9815 62.1769 89.7004 61.4753 89.4634 60.9932C89.2263 60.511 89.0323 60.0098 89.0323 59.879C89.0323 59.7484 88.9336 59.4604 88.813 59.239C88.454 58.5797 88.1509 57.8162 87.9696 57.1149C87.8146 56.5153 87.8323 56.4042 88.1634 55.9015C88.3639 55.5971 88.5787 55.1436 88.6407 54.8938C88.7028 54.6439 88.9868 54.1546 89.2721 53.8066C89.5573 53.4585 89.7907 53.1093 89.7907 53.0306C89.7907 52.9519 90.0637 52.3567 90.3974 51.7081C90.731 51.0594 91.004 50.4312 91.004 50.3121C91.004 50.1931 91.0862 49.9466 91.1868 49.7643C91.2872 49.5821 91.3935 49.2677 91.4229 49.0656C91.4523 48.8634 91.5408 48.5779 91.6193 48.431C91.6981 48.284 91.7624 47.9229 91.7624 47.6283C91.7624 47.3338 91.866 46.7875 91.9928 46.4144C92.5163 44.8721 92.9775 42.2868 93.0162 40.6779L93.0515 39.2027L93.734 39.1171C94.1094 39.0699 94.6554 38.9649 94.9474 38.8838C95.2393 38.8026 95.7854 38.7079 96.1607 38.6731C98.3843 38.467 100.017 38.2859 100.235 38.2213C100.371 38.1807 101.336 38.0751 102.379 37.9868C103.422 37.8984 104.719 37.7599 105.261 37.6791C105.803 37.5981 106.772 37.4988 107.414 37.4584C108.057 37.4181 108.739 37.348 108.931 37.3027C109.123 37.2573 109.689 37.1904 110.19 37.1542C111.941 37.0269 113.077 36.8924 113.678 36.7404C114.289 36.5862 115.166 36.4105 118.228 35.829C119.146 35.6548 120.579 35.4942 121.413 35.472C122.248 35.4499 123.265 35.364 123.675 35.2811C124.126 35.1901 124.779 35.1811 125.328 35.2588C126.553 35.4318 127.017 35.3117 127.574 34.6777C128.005 34.1863 128.039 34.0721 127.975 33.3067C127.892 32.3032 127.609 32.017 126.456 31.7697C126.02 31.6762 125.308 31.4319 124.875 31.2267C124.441 31.0216 123.957 30.8537 123.799 30.8537C123.641 30.8537 123.465 30.807 123.408 30.7498C123.246 30.588 122.207 30.2519 121.861 30.2493C121.69 30.2481 121.485 30.1875 121.406 30.1145C121.327 30.0417 120.647 29.7984 119.897 29.5741C119.146 29.3496 118.327 29.0721 118.077 28.9573C117.826 28.8425 117.144 28.6156 116.56 28.453C115.484 28.1536 114.805 27.9252 113.982 27.5856C113.731 27.4823 113.254 27.3278 112.92 27.2419C112.187 27.0536 110.609 26.5124 110.19 26.3055C110.023 26.2232 109.511 26.06 109.052 25.9427C108.594 25.8255 108.048 25.6608 107.839 25.5766C107.631 25.4926 106.88 25.2457 106.171 25.028C103.53 24.2169 101.076 23.4108 100.635 23.2091C100.104 22.9663 99.0664 22.6239 98.7391 22.5838C98.2554 22.5245 97.5767 22.3165 96.9949 22.0497C96.6612 21.8967 96.1835 21.7239 95.9332 21.6659C95.683 21.6078 95.41 21.5107 95.3266 21.4503C95.2431 21.3898 94.7654 21.2198 94.2649 21.0725C92.9486 20.685 90.9773 20.0683 90.6249 19.934C90.458 19.8704 90.0485 19.709 89.7148 19.5756C89.3812 19.4421 88.528 19.1873 87.819 19.0094C87.11 18.8315 86.3592 18.6016 86.1507 18.4984C85.5622 18.2077 83.5006 17.5121 81.8281 17.04C80.9939 16.8045 79.8719 16.4379 79.3347 16.2252C78.7977 16.0126 78.2368 15.8386 78.0886 15.8386C77.8282 15.8386 77.6539 15.7731 76.1043 15.0926C75.7089 14.9191 75.2272 14.777 75.0337 14.777C74.8402 14.777 74.5494 14.6767 74.3875 14.5543C74.2256 14.4318 73.9361 14.3294 73.7442 14.3268C73.5525 14.3241 73.2113 14.2276 72.9859 14.1123C72.7606 13.9971 72.2809 13.8538 71.92 13.7937C71.559 13.7338 70.7741 13.4599 70.1758 13.1851C69.5775 12.9104 68.6785 12.6035 68.178 12.5033C67.6775 12.403 66.7916 12.1228 66.2092 11.8806C65.6268 11.6385 65.0717 11.4403 64.9754 11.4403C64.7268 11.4403 63.2584 10.9977 62.718 10.76C62.1431 10.5072 60.9074 10.0945 60.2155 9.92465C59.6603 9.7883 57.2925 8.94806 57.0621 8.80564C56.989 8.76045 56.7188 8.68643 56.4617 8.64108C56.2046 8.59573 55.6985 8.43284 55.3369 8.27905C54.9753 8.1251 54.3999 7.95539 54.0582 7.9017C53.7165 7.84801 53.0628 7.63871 52.6057 7.43653C52.1485 7.23436 51.5281 7.02976 51.2267 6.98183C50.7546 6.90691 50.6358 6.95226 50.368 7.30959ZM52.2121 9.97364C52.5235 10.0821 52.8248 10.2175 52.882 10.2747C52.9392 10.3319 53.1497 10.3786 53.3498 10.3786C53.55 10.3786 53.8443 10.4485 54.0041 10.5341C54.1638 10.6194 55.166 10.9611 56.2311 11.2933C57.2965 11.6256 58.383 11.9992 58.6458 12.1238C58.9087 12.2484 59.2094 12.3503 59.3142 12.3503C59.6044 12.3503 64.689 13.9789 65.9788 14.4848C66.6045 14.7302 67.2528 14.9309 67.4197 14.9307C67.5865 14.9306 67.9278 15.0413 68.178 15.1769C68.4283 15.3125 68.8719 15.476 69.1639 15.5403C69.83 15.687 70.6287 15.9613 71.1857 16.2346C71.4219 16.3505 71.7187 16.4453 71.8452 16.4453C72.2031 16.4453 75.4305 17.5314 75.6856 17.7377C75.8107 17.8388 76.2202 17.9671 76.5956 18.0226C77.2614 18.1212 78.4911 18.515 78.7948 18.7267C78.8782 18.7848 79.2194 18.8815 79.5531 18.9416C79.8868 19.0017 80.228 19.1018 80.3114 19.1639C80.3949 19.2263 80.8726 19.393 81.3731 19.5346C82.7415 19.9215 83.2981 20.1003 83.7998 20.3142C84.2659 20.5129 85.3062 20.8526 88.5015 21.8497C89.5025 22.162 90.3556 22.4612 90.3974 22.5144C90.5047 22.6517 93.0374 23.422 93.3813 23.422C93.5381 23.422 93.8012 23.5115 93.9656 23.6207C94.1302 23.7301 94.572 23.9054 94.9474 24.0102C96.0047 24.3056 96.6568 24.5113 97.0707 24.6798C98.1491 25.1189 99.0083 25.3843 99.3652 25.3887C99.5843 25.3914 99.8485 25.4961 99.9524 25.6212C100.056 25.7463 100.286 25.8492 100.464 25.8496C100.641 25.8502 100.982 25.9526 101.221 26.0771C101.46 26.2018 101.788 26.3037 101.949 26.3037C102.279 26.3037 103.203 26.7436 103.097 26.85C103.059 26.8879 102.549 26.7464 101.965 26.5355C101.38 26.3246 100.725 26.152 100.51 26.152C100.295 26.152 99.9615 26.0909 99.77 26.0161C99.3734 25.8614 99.293 25.8398 95.1749 24.7722C93.5065 24.3396 91.8685 23.9345 91.5349 23.8719C91.2012 23.8091 90.7234 23.6838 90.4732 23.5931C89.7937 23.3471 88.0069 22.8618 87.0607 22.6661C86.6019 22.5713 85.7829 22.3669 85.2406 22.2119C84.6984 22.0569 83.9477 21.8626 83.5723 21.7799C82.5381 21.5524 78.6743 20.5487 78.4156 20.4404C78.2905 20.3879 78.0857 20.3368 77.9606 20.3266C77.4009 20.2813 75.8715 19.9062 75.4581 19.713C75.2078 19.5959 74.5559 19.4275 74.0095 19.3387C73.463 19.2496 72.7464 19.0472 72.417 18.8885C72.0875 18.7299 71.4768 18.5636 71.0597 18.5194C70.6426 18.4751 69.9601 18.3322 69.543 18.2019C69.1259 18.0718 68.5936 17.9646 68.36 17.9636C68.1266 17.9627 67.7512 17.8673 67.5258 17.7518C67.3006 17.636 66.6386 17.4363 66.0547 17.3077C65.4707 17.1791 64.4811 16.9272 63.8555 16.7477C63.2298 16.5685 62.4791 16.3637 62.1871 16.293C59.3936 15.6157 58.2976 15.3198 58.1755 15.21C58.0964 15.1387 57.8869 15.0803 57.7102 15.0803C57.4296 15.0803 56.5005 14.8481 54.6037 14.3039C54.3118 14.2202 53.9705 14.1495 53.8454 14.1471C53.7203 14.1445 52.9695 13.9707 52.1771 13.7609C51.3846 13.551 50.5991 13.3637 50.4315 13.3446C50.2638 13.3256 49.9782 13.2305 49.7968 13.1335C49.6154 13.0364 49.2578 12.9569 49.002 12.9569C48.7463 12.9569 48.537 12.8922 48.537 12.813C48.537 12.7337 48.9637 12.2596 49.485 11.7592C50.0064 11.2589 50.6718 10.6152 50.9637 10.3288C51.2557 10.0425 51.5287 9.80104 51.5704 9.79239C51.6121 9.7836 51.9009 9.86519 52.2121 9.97364ZM39.9076 13.1872C40.3303 13.2187 40.7556 13.3087 40.8528 13.3872C40.95 13.4658 41.5414 13.6464 42.167 13.7888C42.7926 13.9311 43.5092 14.1175 43.7595 14.2029C44.0097 14.2883 44.4875 14.4096 44.8212 14.4724C45.8935 14.6743 49.5597 15.6554 49.8778 15.8256C50.047 15.9161 50.4182 15.9903 50.7027 15.9903C50.9872 15.9903 51.623 16.1326 52.1156 16.3067C52.6082 16.4806 53.1894 16.6437 53.4074 16.6692C53.6252 16.6946 53.9323 16.7844 54.0899 16.8688C54.2473 16.9529 54.581 17.0615 54.8312 17.1098C56.8559 17.5009 59.1286 18.0598 61.1255 18.6574C61.5008 18.7698 62.4222 19.0097 63.173 19.1908C63.9237 19.3717 64.6062 19.5698 64.6897 19.6309C64.7731 19.6921 65.0461 19.747 65.2963 19.753C65.5466 19.7589 66.0585 19.8788 66.4338 20.0192C67.0539 20.2511 67.6323 20.3946 68.9364 20.6394C69.1866 20.6864 70.2061 20.9607 71.202 21.2491C72.1977 21.5375 73.2897 21.8316 73.6286 21.9026C73.9675 21.9736 74.4154 22.0711 74.6239 22.1192C74.8324 22.1673 75.3616 22.273 75.7999 22.3543C76.2381 22.4354 76.7159 22.5628 76.8616 22.6373C77.1047 22.7615 77.5732 22.8766 78.5673 23.0563C78.7758 23.094 79.0829 23.1871 79.2498 23.2631C79.4166 23.3392 79.9626 23.5036 80.4631 23.6284C80.9636 23.7533 81.5779 23.923 81.8281 24.0056C82.413 24.1987 83.4278 24.4459 84.4823 24.6522C84.9411 24.7418 85.7942 24.9519 86.3782 25.1189C86.9621 25.2857 87.6787 25.49 87.9707 25.5728C88.2626 25.6556 88.8893 25.8125 89.3633 25.9212C89.8372 26.0301 90.9634 26.3295 91.8658 26.5864C92.7682 26.8433 94.1849 27.1931 95.014 27.3636C95.8431 27.5342 96.6335 27.775 96.7704 27.8989C96.9074 28.023 97.0653 28.0787 97.1212 28.0227C97.1771 27.9667 97.3801 28.0053 97.5723 28.1081C97.7645 28.2109 97.9862 28.2777 98.0649 28.2563C98.1438 28.235 98.4471 28.2687 98.7391 28.3314C100.248 28.6546 101.426 28.9371 101.697 29.041C101.863 29.1049 102.341 29.2382 102.758 29.3371C103.175 29.436 103.653 29.5756 103.82 29.6475C104.142 29.7863 106.921 30.4615 107.879 30.6338C108.193 30.6903 108.483 30.7916 108.525 30.8591C108.567 30.9264 109.041 31.0288 109.579 31.0864C110.981 31.2366 111.359 31.5572 110.087 31.517C108.704 31.4735 105.476 31.303 104.502 31.222C104.044 31.1839 102.747 31.1269 101.621 31.0955C100.495 31.064 99.0955 30.9902 98.5116 30.9315C97.9277 30.873 96.5626 30.8017 95.4782 30.7734C94.3938 30.7448 93.1994 30.6857 92.824 30.6417C92.4487 30.5979 91.0154 30.5266 89.639 30.4834C87.1212 30.4043 84.7445 30.3062 82.359 30.1825C81.28 30.1265 76.6749 29.8997 74.7756 29.8089C74.4836 29.7949 73.767 29.756 73.1831 29.7225C72.5991 29.6888 71.2341 29.621 70.1497 29.5715C69.0653 29.5221 67.7003 29.4494 67.1163 29.41C66.5324 29.3706 65.0992 29.3055 63.9313 29.2655C62.7635 29.2254 61.6032 29.1519 61.353 29.1021C61.1027 29.0524 59.8742 28.9861 58.6229 28.9547C57.3717 28.9233 56.0408 28.8678 55.6654 28.8314C55.29 28.7949 53.7203 28.7199 52.1771 28.665C49.176 28.5581 46.5065 28.4386 45.2762 28.3559C44.8591 28.3279 43.8353 28.2569 43.0012 28.1982C42.167 28.1395 40.4607 28.064 39.2095 28.0304C37.9582 27.9968 36.4567 27.9394 35.8728 27.9027C35.2888 27.866 33.8968 27.7963 32.7794 27.7477C31.6619 27.6991 30.7064 27.6343 30.656 27.604C30.6056 27.5735 28.9605 27.4961 27.0002 27.432C25.0399 27.3678 23.0948 27.2889 22.6777 27.2569C22.2606 27.2248 21.3392 27.1756 20.6302 27.1477C19.9211 27.1198 19.1873 27.089 18.9997 27.0795C18.4765 27.0528 18.5873 26.8637 19.4138 26.373C19.8292 26.1264 20.1704 25.8734 20.1721 25.8108C20.1738 25.7481 20.2475 25.697 20.3359 25.697C20.4243 25.697 20.7918 25.4753 21.1526 25.2041C21.5135 24.9329 21.9609 24.6088 22.147 24.4837C22.8371 24.0196 23.2877 23.655 23.4057 23.4654C23.4724 23.3582 23.5997 23.2704 23.6885 23.2704C23.9118 23.2704 25.6877 22.0658 26.6958 21.2306C27.154 20.8509 27.5775 20.5403 27.6368 20.5403C27.6962 20.5403 27.9154 20.3697 28.1239 20.1612C28.3324 19.9526 28.6012 19.782 28.7213 19.782C28.8413 19.782 28.9775 19.6828 29.0239 19.5618C29.0705 19.4406 29.402 19.1988 29.7606 19.0244C30.1193 18.85 30.6857 18.5033 31.0194 18.2536C31.3531 18.0041 31.8763 17.6344 32.1821 17.432C32.4878 17.2297 32.7819 16.9933 32.8356 16.9065C32.8893 16.8196 33.0382 16.7486 33.1669 16.7486C33.4159 16.7486 36.2519 14.942 36.2519 14.7833C36.2519 14.7316 36.6273 14.4929 37.0861 14.2529C37.5449 14.0128 37.9203 13.7587 37.9203 13.6878C37.9203 13.5045 38.8593 12.9569 39.012 13.0513C39.0821 13.0947 39.485 13.1558 39.9076 13.1872ZM0.268747 15.7458C-0.490957 16.826 0.408585 17.8074 2.35418 18.0208C4.12642 18.2154 4.61373 18.2847 4.73506 18.3598C4.8708 18.4435 6.34214 18.6519 8.39435 18.8778C9.13055 18.9589 9.85976 19.0931 10.0148 19.1761C10.1699 19.259 10.5318 19.327 10.8191 19.327C11.1063 19.327 11.5956 19.4333 11.9064 19.5631C12.9321 19.9916 13.9568 19.4562 13.9568 18.4916C13.9568 17.5149 12.5326 16.832 10.1554 16.669C9.56704 16.6287 8.89516 16.497 8.66205 16.3766C8.42909 16.256 8.10876 16.1579 7.95042 16.1583C7.15143 16.1609 3.98962 15.8016 3.76848 15.683C3.62865 15.6081 2.84377 15.5068 2.0243 15.4576C0.562984 15.3703 0.529009 15.3757 0.268747 15.7458ZM105.261 27.3654C105.538 27.5445 105.299 27.5445 104.882 27.3654C104.682 27.2794 104.656 27.2322 104.806 27.2268C104.931 27.2221 105.136 27.2845 105.261 27.3654ZM42.167 30.7042C44.7867 30.8889 45.9074 30.9508 48.9162 31.0774C49.9172 31.1195 51.2822 31.1897 51.9496 31.2335C53.3801 31.3274 55.804 31.4211 59.4209 31.5227C60.8608 31.5632 62.1078 31.6389 62.192 31.691C62.2762 31.743 63.3163 31.8174 64.5033 31.8563C65.6902 31.8951 67.0848 31.9755 67.6024 32.0349L68.5435 32.1429L68.3494 32.5979C67.9834 33.4553 67.4674 35.0246 67.3889 35.5189C67.3457 35.7908 67.2497 36.0508 67.1755 36.0966C67.1012 36.1425 67.0402 36.3637 67.0399 36.5881C67.0396 36.8126 66.9031 37.2197 66.7366 37.4929C66.57 37.766 66.4338 38.1159 66.4338 38.2706C66.4338 38.5776 66.0791 38.9355 65.7228 38.9877C65.5989 39.0059 64.3968 39.065 63.0515 39.1192C61.7063 39.1733 60.5667 39.2417 60.5191 39.2712C60.4715 39.3006 59.4793 39.3681 58.3143 39.421C57.1493 39.4739 55.7526 39.5857 55.2104 39.6693C54.6682 39.7527 53.7127 39.812 53.0871 39.8006C51.3547 39.7695 45.5361 39.9437 44.5937 40.0548C44.1349 40.109 43.4865 40.1654 43.1528 40.1803C42.0171 40.2311 39.5988 40.5362 39.4104 40.6527C39.3071 40.7166 38.2813 40.7731 37.1307 40.7783C35.366 40.7865 35.0392 40.7523 35.0427 40.5605C35.045 40.4354 35.1129 39.6846 35.1936 38.8921C35.2744 38.0997 35.3818 36.564 35.4325 35.4796C35.483 34.3952 35.5741 33.4177 35.635 33.3073C35.6958 33.197 35.7003 32.8089 35.6451 32.445C35.5899 32.081 35.6137 31.4856 35.6982 31.1219L35.8517 30.4603L37.758 30.4941C38.8066 30.5126 40.7906 30.6073 42.167 30.7042ZM75.7949 32.4359C75.8134 32.4508 75.6769 32.678 75.4916 32.941C75.086 33.5164 73.9255 33.9549 73.2046 33.8049C72.3772 33.6326 72.0455 33.3305 72.0455 32.7491V32.2248L73.9035 32.317C74.9253 32.3677 75.7766 32.4212 75.7949 32.4359ZM82.6623 32.7408C86.2859 32.9533 86.9665 32.987 89.0323 33.0558C90.2419 33.0962 91.5728 33.1586 91.9899 33.1947C92.407 33.2308 94.011 33.2995 95.5545 33.3476C97.098 33.3957 98.5179 33.4653 98.71 33.5023C98.902 33.5393 99.9254 33.6076 100.985 33.654C102.043 33.7005 103.627 33.7711 104.502 33.8108C105.378 33.8505 107.05 33.918 108.218 33.9608C111.221 34.0709 112.404 34.198 111.958 34.3629C111.765 34.4342 110.948 34.53 110.141 34.5758C108.633 34.6614 106.318 34.9512 104.047 35.3387C103.338 35.4596 102.008 35.5862 101.09 35.6201C100.172 35.6539 99.251 35.7198 99.0424 35.7667C98.8339 35.8136 98.2196 35.8914 97.6774 35.9396C97.1352 35.9878 96.4868 36.0491 96.2366 36.076C95.693 36.1341 94.4529 36.3977 93.7833 36.5974C93.5185 36.6764 93.268 36.707 93.2264 36.6656C93.1848 36.6241 92.7873 36.6617 92.3429 36.7494C91.1291 36.9887 89.8818 37.2004 87.6425 37.5471C86.53 37.7194 85.0738 37.9562 84.4065 38.0733C83.4992 38.2325 79.9732 38.7094 79.498 38.7373C79.4677 38.739 79.4891 38.5186 79.5457 38.2475C79.6023 37.9765 79.6746 37.2086 79.7064 36.5413C79.7383 35.8739 79.8373 34.9184 79.9267 34.4179C80.016 33.9174 80.11 33.3487 80.1357 33.1542C80.1913 32.7318 80.4986 32.5121 80.9169 32.5955C81.0843 32.6289 81.8698 32.6942 82.6623 32.7408ZM77.2015 36.4741C77.1123 37.4188 76.9835 38.2642 76.9153 38.3525C76.847 38.4408 76.7031 39.1613 76.5956 39.9538C76.488 40.7463 76.3456 41.465 76.2794 41.551C76.2129 41.6369 76.0464 42.3535 75.9091 43.1435C75.7719 43.9334 75.6207 44.6821 75.5732 44.8072C75.5256 44.9323 75.2968 45.7513 75.0649 46.6272C74.833 47.5031 74.5315 48.5255 74.3949 48.899C74.2582 49.2727 74.1178 49.7846 74.0826 50.0365C73.9211 51.198 73.5292 53.4145 73.4234 53.7657C73.1606 54.6386 73.4237 60.9533 73.7924 62.6219C73.8301 62.7923 73.8962 63.2045 73.9394 63.5382C74.0413 64.3247 74.2534 65.3544 74.4706 66.1165C75.0064 67.9973 75.1321 70.3722 74.8229 72.7696C74.6284 74.2753 74.5214 74.72 74.014 76.1266C73.8636 76.5437 73.6949 77.1579 73.6391 77.4916C73.5833 77.8253 73.3726 78.5131 73.1708 79.0201C72.7435 80.0936 72.7133 80.5557 73.04 81.022C73.2146 81.2713 73.4285 81.3591 73.8607 81.3591C74.9564 81.3591 75.5994 80.1581 76.6625 76.1266C76.8824 75.2924 77.1261 74.4052 77.2041 74.1549C77.3254 73.7657 77.5646 70.6624 77.5256 69.984C77.4222 68.1834 77.3231 67.408 77.0415 66.1923C76.8578 65.3999 76.6526 64.4102 76.5853 63.9932C76.5181 63.5761 76.389 62.9959 76.2986 62.704C76.2082 62.412 76.1112 61.5166 76.0828 60.7141C76.0544 59.9116 75.9978 59.195 75.9569 59.1216C75.9159 59.0482 75.8894 58.588 75.8978 58.0992L75.9131 57.2101L77.0315 56.9257L78.1497 56.6415L78.6998 57.0777C79.0022 57.3175 79.3785 57.6565 79.536 57.8309C79.6934 58.0053 80.0688 58.1891 80.3701 58.2395C80.6715 58.2897 81.2431 58.4333 81.6404 58.5584C82.4867 58.8254 84.4978 58.7116 85.0457 58.3658C85.4697 58.0984 85.6956 58.0962 85.6956 58.3593C85.6956 58.4723 86.006 59.24 86.3853 60.0656C87.3657 62.1992 87.4677 62.4707 88.0639 64.524C88.5402 66.1646 88.5619 66.253 88.734 67.254C88.813 67.7128 88.9403 68.3049 89.0169 68.5697C89.0936 68.8346 89.117 69.0906 89.0687 69.1386C89.0207 69.1867 89.0596 69.3796 89.1553 69.5672C89.3671 69.9821 89.5826 72.0103 89.5465 73.2488C89.5213 74.1077 89.0791 76.107 88.658 77.2641C88.5519 77.5561 88.3438 78.1703 88.1959 78.6291C88.0479 79.0879 87.8343 79.571 87.7212 79.7028C87.6082 79.8344 87.5157 80.1211 87.5157 80.3398C87.5157 80.5585 87.4254 80.7919 87.315 80.8586C87.2047 80.9254 86.7939 81.4421 86.4023 82.0071C85.5736 83.2022 85.2675 84.2986 85.013 86.9851C84.9608 87.5352 84.819 88.1766 84.6977 88.4105C84.5654 88.6654 84.5125 89.0249 84.5656 89.3079C84.6143 89.5674 84.5845 89.9628 84.4995 90.1865C84.4145 90.4101 84.3044 91.1261 84.2548 91.7773C84.2052 92.4288 84.0933 93.2036 84.0061 93.4994L83.8476 94.037L73.7378 94.0154C68.1774 94.0035 63.5203 93.9465 63.3886 93.8887C63.2571 93.8308 62.9761 93.8494 62.7642 93.93C62.5434 94.014 62.1475 94.0242 61.8357 93.9538C61.5368 93.8864 61.2642 93.8593 61.23 93.8937C61.0806 94.043 51.2672 93.98 51.2666 93.8297C51.2664 93.7694 51.4128 93.4129 51.5919 93.0376C52.0151 92.1509 52.199 91.7144 52.806 90.1559C53.0822 89.4468 53.459 88.6189 53.6431 88.3161C54.1117 87.5457 54.7554 85.9788 54.7554 85.6087C54.7554 85.4385 54.8901 85.0099 55.0548 84.6562C55.8724 82.9001 56.0085 81.8954 55.5322 81.1316C55.3762 80.8814 54.7568 80.1647 54.1556 79.5391C53.5545 78.9135 52.744 78.0311 52.3545 77.578C51.9649 77.1252 51.2026 76.3042 50.6604 75.7536C50.1182 75.2031 49.4775 74.4645 49.2368 74.1124C48.9961 73.7604 48.7384 73.4724 48.6643 73.4724C48.5901 73.4724 48.4632 73.3188 48.382 73.1311C48.2032 72.7179 48.0418 72.4594 47.2146 71.2634C46.8628 70.7544 46.4067 69.9752 46.2013 69.5318C45.9958 69.0884 45.7639 68.6845 45.686 68.6343C45.6079 68.5843 45.2971 68.0313 44.9953 67.4057C44.6935 66.7801 44.3104 66.0463 44.1438 65.775C43.9773 65.5036 43.8077 65.0941 43.7669 64.865C43.726 64.6358 43.5986 64.2093 43.4838 63.9173C42.831 62.2584 42.4222 60.7955 42.0852 58.9123C41.6668 56.5743 41.575 55.9654 41.4915 54.9689C41.4461 54.4267 41.3692 53.6418 41.3207 53.2247C41.2051 52.2307 41.1525 44.7042 41.2539 43.695C41.3292 42.9468 41.3534 42.9107 41.7878 42.8977C42.0381 42.8901 42.4476 42.8406 42.6978 42.7876C43.382 42.6429 45.1201 42.5378 48.1888 42.456C50.395 42.3972 50.974 42.4233 51.0705 42.5857C51.1369 42.6973 51.63 43.1778 52.1661 43.6533C53.1499 44.5257 53.5962 45.2268 54.397 47.158C54.6045 47.6585 54.8649 48.2728 54.9756 48.523C55.0864 48.7733 55.2905 49.524 55.4294 50.1914C55.5682 50.8587 55.781 51.7222 55.902 52.1103C56.0232 52.4983 56.0814 52.9223 56.0315 53.0525C55.8902 53.4205 56.7171 54.9727 57.1402 55.1335C58.287 55.5695 59.22 55.09 61.1905 53.0517C63.3281 50.8404 63.7554 50.3381 64.5262 49.1297C64.8987 48.5458 65.331 47.8974 65.487 47.6889C65.643 47.4803 65.8619 47.0708 65.9734 46.7789C66.2362 46.0903 66.4663 45.541 66.95 44.4476C67.1665 43.9578 67.346 43.446 67.3487 43.3101C67.3513 43.1742 67.4536 42.9304 67.5762 42.7686C67.6986 42.6066 67.7988 42.3206 67.7988 42.133C67.7988 41.9452 67.8556 41.7567 67.9249 41.7139C67.9942 41.671 68.1371 41.2404 68.2425 40.757C68.3479 40.2735 68.5228 39.738 68.6311 39.5671C68.7392 39.396 68.9468 38.8158 69.0923 38.2779C69.2377 37.7398 69.4499 37.1484 69.5636 36.9637C69.6774 36.779 69.7705 36.4967 69.7705 36.3365C69.7705 36.1764 69.8585 35.8362 69.9659 35.5808C70.1506 35.1415 70.1815 35.1276 70.5346 35.3266C71.7 35.9834 72.2068 36.182 73.0672 36.3195C73.891 36.451 74.1199 36.4318 74.7399 36.1779C75.1349 36.0162 75.6449 35.843 75.8733 35.7931C76.1016 35.7432 76.5111 35.4745 76.7833 35.1958C77.0554 34.9172 77.2973 34.7044 77.3207 34.7228C77.3442 34.7411 77.2905 35.5292 77.2015 36.4741ZM19.5418 36.1782C18.6462 36.4571 17.7033 37.0104 16.9383 37.7058C16.6926 37.929 16.329 38.1526 16.1303 38.2025C15.9316 38.2524 15.6344 38.4279 15.4696 38.5926C15.3049 38.7573 15.0441 38.8921 14.89 38.8921C14.7359 38.8921 14.4459 39.0361 14.2454 39.2122C14.0449 39.3881 13.3008 39.8061 12.5918 40.1411C10.9977 40.8938 10.6201 41.2211 10.6201 41.8497C10.6201 42.5731 11.7142 43.3726 12.2047 43.0073C12.2925 42.9421 12.6714 42.802 13.0468 42.696C13.4221 42.5899 13.8658 42.3811 14.0326 42.2319C14.1994 42.0825 14.4882 41.9143 14.6742 41.8578C14.8602 41.8014 15.4023 41.5205 15.8787 41.2337C16.3551 40.9468 16.7998 40.7121 16.867 40.7121C16.9343 40.7121 17.4125 40.4005 17.9299 40.0196C18.4473 39.6388 19.3176 39.1216 19.8641 38.8703C20.4105 38.6188 20.96 38.3624 21.0852 38.3C21.2103 38.2378 21.4264 37.9642 21.5655 37.692C21.9729 36.8945 21.6237 36.2533 20.6302 35.974C20.505 35.9389 20.0153 36.0308 19.5418 36.1782ZM90.6244 39.8008C90.6772 39.9668 90.677 40.1728 90.6241 40.2585C90.5712 40.3441 90.4967 40.7713 90.4586 41.2078C90.4206 41.6441 90.3226 42.2085 90.2407 42.4616C90.1589 42.7148 90.096 43.0902 90.1008 43.2958C90.1169 43.9739 89.8999 45.181 89.7063 45.4897C89.6019 45.6565 89.4676 46.1684 89.4083 46.6272C89.349 47.086 89.0866 48.0212 88.8252 48.7052C88.3793 49.8723 88.3265 49.9436 87.9707 49.8597C87.7621 49.8105 87.5232 49.7186 87.4398 49.6554C87.3564 49.5921 87.0325 49.4707 86.7199 49.3853C86.2395 49.2542 86.0527 49.2812 85.5132 49.5591C85.1621 49.74 84.7817 49.9734 84.6678 50.0776C84.5539 50.182 84.3815 50.2672 84.2847 50.2672C84.0173 50.2672 82.5105 51.9604 82.4052 52.3794C82.3543 52.5817 82.1325 53.0253 81.9121 53.3652C81.4896 54.0172 81.1456 54.8946 81.1456 55.321C81.1456 55.4609 81.0525 55.5756 80.9386 55.5756C80.6883 55.5756 79.9323 55.0014 79.9323 54.8114C79.9323 54.7367 80.2433 54.3254 80.6236 53.8974C81.0038 53.4692 81.5327 52.6651 81.799 52.1101C82.0653 51.5553 82.3685 51.0468 82.4727 50.9801C82.5771 50.9133 82.6627 50.7427 82.6632 50.6009C82.6638 50.4591 82.7706 50.1389 82.9007 49.8893C83.0308 49.6398 83.2309 49.0255 83.3453 48.5243C83.4596 48.0232 83.6319 47.34 83.7284 47.0064C83.8247 46.6727 83.9877 46.0584 84.0908 45.6414C84.194 45.2243 84.3211 44.7806 84.3734 44.6555C84.5697 44.1859 84.7856 42.5925 84.7856 41.614V40.5999L85.4302 40.4364C85.7848 40.3465 86.5184 40.2326 87.0607 40.1833C88.3846 40.0629 89.8336 39.7911 90.0106 39.63C90.2539 39.4086 90.5237 39.4836 90.6244 39.8008ZM82.3075 41.4326C82.2579 41.7455 82.17 42.407 82.1122 42.903C82.0543 43.3989 81.9159 43.9791 81.8048 44.1922C81.6934 44.4053 81.6026 44.6821 81.6026 44.8072C81.6029 45.2476 80.8112 48.227 80.5347 48.8264L80.2547 49.433L79.9952 48.7898C79.7374 48.1509 78.8325 47.4141 77.9985 47.1641C77.6086 47.0472 77.6108 47.059 77.8239 46.248C78.0743 45.2957 78.2671 44.3519 78.408 43.3886C78.4794 42.9004 78.6128 42.426 78.7042 42.3345C78.7957 42.2431 78.8706 41.9883 78.8706 41.7685C78.8706 41.3761 78.9003 41.3646 80.501 41.1338C81.3977 41.0046 82.1914 40.8908 82.2646 40.8813C82.3379 40.8717 82.3571 41.1198 82.3075 41.4326ZM64.9563 42.4281C64.6599 43.4411 64.5827 43.6374 64.0505 44.7313L63.6076 45.6414L62.7609 45.6676C62.2951 45.682 61.7107 45.7989 61.4622 45.9274C61.2136 46.056 60.7351 46.2559 60.3988 46.3718L59.7873 46.5824L59.9549 46.1877C60.0471 45.9706 60.2067 45.6906 60.3096 45.5655C60.7105 45.0784 61.3269 42.7072 61.1922 42.1704C61.1062 41.8283 61.1472 41.8069 62.074 41.7075C62.6085 41.6504 63.2109 41.6408 63.4128 41.6863C63.6145 41.732 64.0185 41.7136 64.3105 41.6457C65.1472 41.4509 65.2173 41.5359 64.9563 42.4281ZM58.695 42.3047C58.6859 43.0591 57.6266 45.5002 56.9925 46.228C56.7279 46.532 56.7271 46.5318 56.7271 46.1996C56.7271 45.8922 55.5391 43.6011 54.8902 42.6571L54.6113 42.2513L55.0246 42.1639C55.252 42.116 55.6095 42.1093 55.8192 42.1492C56.0288 42.1891 56.4042 42.1618 56.6534 42.0885C56.9024 42.0153 57.4645 41.9657 57.9025 41.9783C58.5912 41.9983 58.6982 42.0423 58.695 42.3047ZM61.5867 49.0451C61.4051 49.3002 61.1984 49.5089 61.1274 49.5089C61.0566 49.5089 60.8611 49.7308 60.6934 50.0018C60.5255 50.2728 60.1731 50.6212 59.9106 50.7758L59.4332 51.0568L59.6603 50.6241C59.9434 50.0852 61.2736 48.6548 61.5805 48.5594C61.9395 48.4478 61.9408 48.5479 61.5867 49.0451ZM77.6536 49.8836C77.7758 50.0309 77.8085 50.3788 77.7495 50.9074C77.7003 51.3477 77.6374 51.9183 77.6095 52.1752C77.5817 52.4321 77.4445 52.8057 77.3048 53.0053C77.1649 53.2049 77.0506 53.5904 77.0506 53.8622C77.0506 54.2781 76.9845 54.3709 76.6335 54.4478C76.404 54.4981 76.1312 54.5655 76.0268 54.5976C75.8036 54.6665 75.7819 54.3645 75.9753 53.8765C76.0511 53.6849 76.1861 53.0503 76.2751 52.4664C76.3643 51.8825 76.4765 51.1449 76.5247 50.8275C76.6074 50.2841 77.0404 49.6606 77.3354 49.6606C77.4085 49.6606 77.5518 49.7609 77.6536 49.8836ZM87.0796 52.2465C87.0776 52.284 86.8661 52.7776 86.6096 53.3435C86.3019 54.0221 86.0154 54.4304 85.7677 54.5432C85.5613 54.6374 85.3923 54.793 85.3923 54.889C85.3923 55.3627 83.9686 56.2755 83.5925 56.043C83.3662 55.9032 83.4905 55.5442 84.0528 54.7141C84.2891 54.3654 84.4823 54.0222 84.4823 53.9515C84.4823 53.8809 84.6188 53.7061 84.7856 53.5633C84.9525 53.4204 85.089 53.21 85.089 53.0958C85.089 52.6915 86.3739 51.9334 86.8065 52.0827C86.9586 52.1352 87.0816 52.2089 87.0796 52.2465Z" fill="black"/>
</svg>
