<svg width="171" height="76" viewBox="0 0 171 76" fill="none" xmlns="http://www.w3.org/2000/svg">
<rect x="166.772" y="3.4928" width="67.8046" height="163.28" transform="rotate(90 166.772 3.4928)" stroke="#00B6FF" stroke-width="2"/>
<rect x="169.265" y="69.3031" width="4.98563" height="4.98563" transform="rotate(90 169.265 69.3031)" fill="white" stroke="#00B6FF" stroke-width="2"/>
<rect x="169.265" y="0.999973" width="4.98563" height="4.98563" transform="rotate(90 169.265 0.999973)" fill="white" stroke="#00B6FF" stroke-width="2"/>
<rect x="5.98561" y="68.5552" width="4.98563" height="4.98563" transform="rotate(90 5.98561 68.5552)" fill="white" stroke="#00B6FF" stroke-width="2"/>
<rect x="5.98561" y="0.999973" width="4.98563" height="4.98563" transform="rotate(90 5.98561 0.999973)" fill="white" stroke="#00B6FF" stroke-width="2"/>
<path d="M10.2631 64.7493H50.8963V55.5932H20.6818V8.52769H10.2631V64.7493Z" fill="white"/>
<path d="M80.8728 65.954C98.5847 65.954 110.045 53.8262 110.045 36.7188C110.045 19.6917 98.4244 7.32295 80.8728 7.32295C63.241 7.32295 51.7002 19.6917 51.7002 36.7188C51.7002 53.8262 63.1609 65.954 80.8728 65.954ZM80.8728 57.0389C69.4121 57.0389 62.5998 48.3647 62.5998 36.7188C62.5998 24.9123 69.4121 16.2381 80.8728 16.2381C92.3334 16.2381 99.0655 24.9123 99.0655 36.7188C99.0655 48.3647 92.3334 57.0389 80.8728 57.0389Z" fill="white"/>
<path d="M119.369 64.7493H160.002V55.5932H129.788V8.52769H119.369V64.7493Z" fill="white"/>
<path d="M10.2631 64.7493H50.8963V55.5932H20.6818V8.52769H10.2631V64.7493Z" stroke="black" stroke-width="2"/>
<path d="M80.8728 65.954C98.5847 65.954 110.045 53.8262 110.045 36.7188C110.045 19.6917 98.4244 7.32295 80.8728 7.32295C63.241 7.32295 51.7002 19.6917 51.7002 36.7188C51.7002 53.8262 63.1609 65.954 80.8728 65.954ZM80.8728 57.0389C69.4121 57.0389 62.5998 48.3647 62.5998 36.7188C62.5998 24.9123 69.4121 16.2381 80.8728 16.2381C92.3334 16.2381 99.0655 24.9123 99.0655 36.7188C99.0655 48.3647 92.3334 57.0389 80.8728 57.0389Z" stroke="black" stroke-width="2"/>
<path d="M119.369 64.7493H160.002V55.5932H129.788V8.52769H119.369V64.7493Z" stroke="black" stroke-width="2"/>
</svg>
