<svg width="64" height="64" viewBox="0 0 64 64" fill="none" xmlns="http://www.w3.org/2000/svg">
<path d="M32 32.5C35.3777 32.5 38.3046 31.3785 40.3775 29.1455C42.4388 26.925 43.5 23.7741 43.5 20C43.5 16.2222 42.4342 13.2693 40.3018 11.2786C38.1882 9.30533 35.2634 8.5 32 8.5C28.7366 8.5 25.8118 9.30533 23.6982 11.2786C21.5658 13.2693 20.5 16.2222 20.5 20C20.5 23.7741 21.5612 26.925 23.6225 29.1455C25.6954 31.3785 28.6223 32.5 32 32.5Z" fill="#699BF7" stroke="black" stroke-width="3"/>
<path d="M32 32.5H32L31.9473 32.5C27.929 32.4999 21.5707 32.4998 15.1702 36.7505C9.53855 40.4905 8.67171 45.9539 8.52858 50.9573C8.45595 53.4962 10.5363 55.5 13 55.5H51.0312C53.4809 55.5 55.5371 53.526 55.5264 51.0249C55.5158 48.5443 55.3579 45.8968 54.4306 43.4066C53.4838 40.864 51.7658 38.5627 48.7882 36.7238C41.9489 32.5 36.0741 32.5 32.0208 32.5H32H32Z" fill="#699BF7" stroke="black" stroke-width="3"/>
<path d="M29.5 19.5C29.5 18.6716 28.8284 18 28 18C27.1716 18 26.5 18.6716 26.5 19.5H29.5ZM37.5 19.5C37.5 18.6716 36.8284 18 36 18C35.1716 18 34.5 18.6716 34.5 19.5H37.5ZM34.5 20C34.5 21.4602 34.2549 22.3182 33.9119 22.7898C33.644 23.1582 33.1632 23.5 32 23.5V26.5C33.8368 26.5 35.356 25.9046 36.3381 24.5544C37.2451 23.3074 37.5 21.6654 37.5 20H34.5ZM32 23.5C30.8368 23.5 30.356 23.1582 30.0881 22.7898C29.7451 22.3182 29.5 21.4602 29.5 20H26.5C26.5 21.6654 26.7549 23.3074 27.6619 24.5544C28.644 25.9046 30.1632 26.5 32 26.5V23.5ZM29.5 20V19.5H26.5V20H29.5ZM37.5 20V19.5H34.5V20H37.5Z" fill="black"/>
</svg>
