<svg width="130" height="118" viewBox="0 0 130 118" fill="none" xmlns="http://www.w3.org/2000/svg">
<path d="M77.7142 113.78C74.1124 113.78 70.6795 113.161 67.9219 112.036C65.0517 110.854 62.6318 110.291 60.0993 110.291C57.398 110.291 54.6404 110.91 50.7009 111.811C48.5061 112.317 46.1424 112.599 43.5537 112.599C32.9735 112.599 19.4668 108.04 13.3326 95.2088C9.84336 87.9489 10.1247 82.3212 10.4061 77.8753C10.6312 73.373 10.8001 70.6717 7.25459 65.6067C2.02077 58.0655 -0.0614999 49.1174 1.51427 40.3381C2.86494 32.5718 6.91692 25.4808 12.6572 20.866C18.3976 16.195 25.1509 14.9006 30.6098 13.8876C34.5492 13.156 37.9822 12.4807 39.9519 10.9049C45.9173 6.12128 53.2334 1 65.3331 1C66.5149 1 67.753 1.05631 68.9911 1.16886C83.567 2.35069 89.3074 9.10398 94.9351 15.6322C98.8183 20.1344 102.814 24.8054 110.974 28.8574C117.502 32.0652 122.061 37.5805 124.256 44.9528C126.845 53.7322 125.55 64.7063 120.992 72.3038C118.966 75.7367 116.883 78.2692 115.026 80.5203C112.269 83.897 110.299 86.3169 108.723 90.9879L108.104 92.7888L108.836 93.3516L106.247 98.304L105.346 100.949L104.896 100.611C98.9308 109.672 87.2251 113.78 77.7142 113.78Z" fill="white"/>
<path d="M77.7142 113.78C74.1124 113.78 70.6795 113.161 67.9219 112.036C65.0517 110.854 62.6318 110.291 60.0993 110.291C57.398 110.291 54.6404 110.91 50.7009 111.811C48.5061 112.317 46.1424 112.599 43.5537 112.599C32.9735 112.599 19.4668 108.04 13.3326 95.2088C9.84336 87.9489 10.1247 82.3212 10.4061 77.8753C10.6312 73.373 10.8001 70.6717 7.25459 65.6067C2.02077 58.0655 -0.0614999 49.1174 1.51427 40.3381C2.86494 32.5718 6.91692 25.4808 12.6572 20.866C18.3976 16.195 25.1509 14.9006 30.6098 13.8876C34.5492 13.156 37.9822 12.4807 39.9519 10.9049C45.9173 6.12128 53.2334 1 65.3331 1C66.5149 1 67.753 1.05631 68.9911 1.16886C83.567 2.35069 89.3074 9.10398 94.9351 15.6322C98.8183 20.1344 102.814 24.8054 110.974 28.8574C117.502 32.0652 122.061 37.5805 124.256 44.9528C126.845 53.7322 125.55 64.7063 120.992 72.3038C118.966 75.7367 116.883 78.2692 115.026 80.5203C112.269 83.897 110.299 86.3169 108.723 90.9879L108.104 92.7888L108.836 93.3516L106.247 98.304L105.346 100.949L104.896 100.611C98.9308 109.672 87.2251 113.78 77.7142 113.78Z" stroke="white" stroke-width="1.68833" stroke-miterlimit="10"/>
<path d="M118.29 116.876C115.87 116.876 113.507 116.032 111.593 114.512L89.9827 97.291L92.7965 91.8884C93.0779 91.3819 93.303 90.8191 93.4156 90.2563C93.7533 88.8494 94.1472 87.4987 94.5974 86.2606L97.9741 76.2432L124.931 97.7413C127.182 99.5421 128.589 102.075 128.927 104.945C129.264 107.815 128.42 110.573 126.676 112.824C124.65 115.356 121.554 116.876 118.29 116.876Z" fill="white"/>
<path d="M118.29 116.876C115.87 116.876 113.507 116.032 111.593 114.512L89.9827 97.291L92.7965 91.8884C93.0779 91.3819 93.303 90.8191 93.4156 90.2563C93.7533 88.8494 94.1472 87.4987 94.5974 86.2606L97.9741 76.2432L124.931 97.7413C127.182 99.5421 128.589 102.075 128.927 104.945C129.264 107.815 128.42 110.573 126.676 112.824C124.65 115.356 121.554 116.876 118.29 116.876Z" stroke="white" stroke-width="1.68833" stroke-miterlimit="10"/>
<path d="M85.5367 75.7367L101.576 88.568C104.84 79.0008 109.849 76.2995 114.52 68.4769C119.81 59.6976 120.429 41.8013 107.598 35.5545C86.1558 25.0306 89.026 10.2858 68.2595 8.5975C56.8352 7.64078 50.4195 11.9742 44.4541 16.7015C37.3631 22.4418 25.4885 19.9093 17.2157 26.6626C8.9429 33.3597 4.15931 48.3858 13.2763 61.3859C22.3933 74.3861 14.0642 79.6762 19.9733 92.0572C25.8825 104.438 41.19 106.521 48.9563 104.663C56.7226 102.863 62.1815 101.737 70.6795 105.226C78.3895 108.434 94.0909 105.226 99.2685 95.3213L81.3159 80.9705L85.5367 75.7367Z" fill="#010101"/>
<path d="M120.373 103.482L101.632 88.5117C101.294 89.581 100.957 90.7065 100.619 91.9446C100.338 93.1265 99.8875 94.1957 99.381 95.2087L116.208 108.715C117.671 109.841 119.753 109.616 120.879 108.209C122.005 106.746 121.779 104.663 120.373 103.482Z" fill="#010101"/>
<path d="M101.632 88.568L85.593 75.7367L81.4285 80.9705L99.3811 95.3213C99.9438 94.3083 100.338 93.1828 100.619 92.0572C100.901 90.7628 101.238 89.6373 101.632 88.568Z" stroke="white" stroke-width="1.68833" stroke-miterlimit="10"/>
<path d="M87.3376 77.1436C91.277 71.9098 93.6407 65.3253 93.6407 58.2906C93.6407 40.9009 79.5713 26.8314 62.1815 26.8314C44.7917 26.8314 30.7223 40.9009 30.7223 58.2906C30.7223 75.6804 44.7917 89.7498 62.1815 89.7498C70.0603 89.7498 77.2639 86.8234 82.7791 82.0398L99.381 95.265C99.9438 94.252 100.338 93.1265 100.619 92.0009C100.957 90.7628 101.294 89.6373 101.632 88.568L87.3376 77.1436ZM33.1985 58.2906C33.1985 42.3078 46.1424 29.3639 62.1252 29.3639C78.108 29.3639 91.0519 42.3078 91.0519 58.2906C91.0519 74.2735 78.108 87.2173 62.1252 87.2173C46.1424 87.2173 33.1985 74.2735 33.1985 58.2906Z" fill="white"/>
<path d="M62.125 87.2736C78.1079 87.2736 91.0517 74.3298 91.0517 58.3469C91.0517 42.3641 78.1079 29.4202 62.125 29.4202C46.1422 29.4202 33.1983 42.3641 33.1983 58.3469C33.1983 74.3298 46.1422 87.2736 62.125 87.2736ZM38.601 47.0351C39.7265 44.6715 41.246 42.4766 43.0469 40.5632C45.692 37.693 48.9561 35.4419 52.6141 34.035C55.428 32.9094 58.5233 32.2904 61.7311 32.2341C61.8436 32.2341 62.0125 32.2341 62.125 32.2341C65.2766 32.2341 68.3156 32.7969 71.1294 33.8099C76.8698 35.9484 81.6534 40.0004 84.6924 45.2342C85.7616 47.1477 86.6621 49.1737 87.2248 51.3122C87.8439 53.5633 88.1816 55.8707 88.1816 58.2907C88.1816 60.0353 88.0127 61.7236 87.6751 63.3556C87.1686 66.0007 86.2119 68.5332 84.9737 70.8406C84.1859 72.3038 83.2291 73.6544 82.1599 74.9488C81.0906 76.2432 79.8525 77.425 78.5581 78.4943C76.7572 79.9575 74.7875 81.1956 72.6489 82.1523C69.3848 83.6156 65.8394 84.4035 62.0688 84.4035C55.5968 84.4035 49.6877 82.0398 45.1292 78.1567C42.4841 75.9055 40.3456 73.1479 38.7698 70.0527C36.9689 66.5072 35.9559 62.5115 35.9559 58.2907C36.0685 54.2949 36.9689 50.4681 38.601 47.0351Z" fill="#010101"/>
<path d="M52.7267 78.6069C49.9691 79.1696 47.4929 78.8883 45.2418 78.1567C49.8003 82.0398 55.7095 84.4035 62.1814 84.4035C65.952 84.4035 69.5538 83.6156 72.7616 82.1524C70.6793 77.8753 62.913 76.4683 52.7267 78.6069Z" fill="#FFCA49"/>
<path d="M61.1684 71.0657C59.5364 71.2345 57.848 71.3471 56.1597 71.5159C52.2766 71.7973 49.2938 71.0657 46.9865 69.6024C40.9085 65.8318 39.6704 57.3902 39.6704 51.9313C39.6704 49.9615 39.2764 48.3858 38.6574 47.0914C37.0253 50.5243 36.1249 54.2949 36.1249 58.3469C36.1249 62.5677 37.1379 66.5635 38.9388 70.109C40.5145 73.2042 42.7094 75.9618 45.2981 78.2129C47.493 78.9445 50.0255 79.2259 52.7831 78.6631C62.9693 76.5246 70.7919 77.9316 72.8179 82.2086C74.9564 81.2519 76.9262 80.0138 78.727 78.5506C80.0214 77.4813 81.2595 76.2995 82.3288 75.0051C78.5019 69.6587 70.3979 70.2215 61.1684 71.0657Z" fill="#4BC17E"/>
<path d="M72.7616 60.3729C72.4802 60.3729 72.2551 60.3729 71.9737 60.3729C57.7354 59.979 53.2332 53.0006 52.3891 46.7538C51.9951 43.7711 52.3891 40.9572 52.9518 39.0437C53.5146 37.074 53.2332 35.3857 52.6142 34.035C48.9561 35.4982 45.692 37.7494 43.047 40.5632C41.2461 42.4767 39.7829 44.6715 38.601 47.0352C39.2201 48.3296 39.614 49.9053 39.614 51.875C39.614 57.334 40.8522 65.7756 46.9301 69.5462C49.2375 70.9532 52.2202 71.741 56.1034 71.4596C57.7917 71.3471 59.48 71.1783 61.1121 71.0094C70.3416 70.1653 78.4456 69.6588 82.2162 74.9489C83.2855 73.6545 84.1859 72.3038 85.0301 70.8406C86.2682 68.5332 87.2249 66.0007 87.7314 63.3557C84.2985 61.6674 79.4586 60.4292 72.7616 60.3729Z" fill="#FF77E6"/>
<path d="M87.2812 51.3122C86.6622 49.1737 85.818 47.1477 84.7487 45.2343C83.5669 44.8403 82.4413 44.5026 81.3158 44.3338C74.1122 43.0394 68.2031 45.4594 64.7702 42.8143C61.3935 40.2256 61.4498 35.1605 61.7874 32.2341C58.5796 32.2904 55.4844 32.9094 52.6705 34.035C53.2895 35.3857 53.6272 37.0177 53.0081 39.0437C52.4454 40.9572 52.0514 43.771 52.4454 46.7538C53.2895 53.0568 57.7917 59.979 72.03 60.3729C72.3114 60.3729 72.5365 60.3729 72.8179 60.3729C79.5149 60.4292 84.3548 61.6673 87.7877 63.4119C88.1254 61.7799 88.2942 60.0915 88.2942 58.3469C88.2379 55.8707 87.9003 53.5071 87.2812 51.3122Z" fill="#4BC17E"/>
<path d="M71.1857 33.8099C68.3719 32.7969 65.3329 32.2341 62.1813 32.2341C62.0688 32.2341 61.8999 32.2341 61.7874 32.2341C61.4497 35.1605 61.4497 40.2256 64.7701 42.8143C68.2593 45.5156 74.1685 43.0394 81.3157 44.3338C82.4413 44.5589 83.5668 44.8403 84.7486 45.2343C81.7097 40.0004 76.9261 35.8922 71.1857 33.8099Z" fill="#FFCA49"/>
<path d="M78.5583 56.1521C79.6839 57.3339 79.6839 59.1911 78.5583 60.3729C75.6319 63.5244 69.3851 69.1522 62.1253 69.1522C54.9217 69.1522 48.6749 63.5244 45.6922 60.3729C44.5667 59.1911 44.5667 57.3339 45.6922 56.1521C48.6187 53.0005 54.8655 47.3728 62.1253 47.3728C69.3851 47.3728 75.6319 53.0005 78.5583 56.1521Z" fill="white"/>
<path d="M62.1251 67.1825C67.036 67.1825 71.017 63.2015 71.017 58.2906C71.017 53.3798 67.036 49.3987 62.1251 49.3987C57.2143 49.3987 53.2333 53.3798 53.2333 58.2906C53.2333 63.2015 57.2143 67.1825 62.1251 67.1825Z" fill="#010101"/>
<path d="M25.3196 42.0828L25.9386 42.2516L25.3759 42.4204C22.5057 43.2083 20.3672 45.6283 19.8607 48.5547L19.1853 52.9444L18.51 48.5547C18.0598 45.6283 15.9212 43.2083 12.9948 42.4204L12.432 42.2516L13.0511 42.0828C15.9212 41.2949 18.0598 38.9875 18.51 36.0611L19.129 32.3467L19.7481 36.0611C20.3672 38.9875 22.5057 41.3512 25.3196 42.0828Z" fill="#FFCA49"/>
<path d="M40.8523 93.1265L41.3588 93.2391L40.9085 93.3517C38.6574 93.9707 36.9128 95.8841 36.5752 98.1915L36.0687 101.681L35.5622 98.1915C35.2245 95.8841 33.4799 93.9707 31.2288 93.3517L30.7786 93.2391L31.2851 93.1265C33.5362 92.5075 35.2245 90.6503 35.6184 88.3429L36.1249 85.4165L36.6314 88.3429C36.9128 90.6503 38.6012 92.5075 40.8523 93.1265Z" fill="#FFCA49"/>
<path d="M112.325 57.7279L112.944 57.8967L112.381 58.0656C109.511 58.8535 107.372 61.2734 106.866 64.1998L106.191 68.5895L105.515 64.1998C105.065 61.2734 102.926 58.8535 100 58.0656L99.4373 57.8967L100.056 57.7279C102.926 56.94 105.065 54.6326 105.515 51.7062L106.134 47.9919L106.753 51.7062C107.316 54.6326 109.455 56.9963 112.325 57.7279Z" fill="#FFCA49"/>
<path d="M102.42 42.6455C103.29 42.6455 103.996 41.94 103.996 41.0697C103.996 40.1995 103.29 39.494 102.42 39.494C101.55 39.494 100.844 40.1995 100.844 41.0697C100.844 41.94 101.55 42.6455 102.42 42.6455Z" fill="#FFCA49"/>
<path d="M24.3628 58.4032C25.2331 58.4032 25.9386 57.6978 25.9386 56.8275C25.9386 55.9572 25.2331 55.2517 24.3628 55.2517C23.4925 55.2517 22.787 55.9572 22.787 56.8275C22.787 57.6978 23.4925 58.4032 24.3628 58.4032Z" fill="#FFCA49"/>
<path d="M51.6013 21.7665C52.4715 21.7665 53.177 21.061 53.177 20.1908C53.177 19.3205 52.4715 18.615 51.6013 18.615C50.731 18.615 50.0255 19.3205 50.0255 20.1908C50.0255 21.061 50.731 21.7665 51.6013 21.7665Z" fill="#FFCA49"/>
<path d="M65.7833 58.7972C67.4928 58.7972 68.8786 57.4114 68.8786 55.7019C68.8786 53.9924 67.4928 52.6066 65.7833 52.6066C64.0738 52.6066 62.688 53.9924 62.688 55.7019C62.688 57.4114 64.0738 58.7972 65.7833 58.7972Z" fill="white"/>
</svg>
