<svg width="64" height="64" viewBox="0 0 64 64" fill="none" xmlns="http://www.w3.org/2000/svg">
<path d="M16 6.5H51C51.8284 6.5 52.5 7.17157 52.5 8V49.5H11.5V11C11.5 8.51472 13.5147 6.5 16 6.5Z" fill="#FF7051" stroke="black" stroke-width="3"/>
<path d="M17.5 45.5H51C51.8284 45.5 52.5 46.1716 52.5 47V56C52.5 56.8284 51.8284 57.5 51 57.5H17.5C14.1863 57.5 11.5 54.8137 11.5 51.5C11.5 48.1863 14.1863 45.5 17.5 45.5Z" fill="#FFF4D9" stroke="black" stroke-width="3"/>
<path d="M37.5 50C36.6716 50 36 50.6716 36 51.5C36 52.3284 36.6716 53 37.5 53V50ZM51.5 53C52.3284 53 53 52.3284 53 51.5C53 50.6716 52.3284 50 51.5 50V53ZM37.5 53H51.5V50H37.5V53Z" fill="black"/>
<path d="M21.5 50C20.6716 50 20 50.6716 20 51.5C20 52.3284 20.6716 53 21.5 53V50ZM28.5 53C29.3284 53 30 52.3284 30 51.5C30 50.6716 29.3284 50 28.5 50V53ZM21.5 53H28.5V50H21.5V53Z" fill="black"/>
<rect x="22.5" y="14.5" width="19" height="11" rx="1.5" fill="#FFF4D9" stroke="black" stroke-width="3"/>
</svg>
