<svg width="128" height="156" viewBox="0 0 128 156" fill="none" xmlns="http://www.w3.org/2000/svg">
<path d="M79.3624 155.996C76.0408 155.996 73.0751 154.098 71.5922 151.133C69.5162 146.803 67.5589 142.176 65.8981 137.609C65.0083 141.761 64.2966 145.557 63.7628 148.404C62.9917 152.497 59.4328 155.463 55.2215 155.463C52.1965 155.463 49.468 153.92 47.8665 151.311L46.443 148.997L44.6635 151.251C43.0027 153.327 40.5116 154.573 37.9018 154.573C35.4106 154.573 33.0973 153.505 31.4365 151.666C29.835 149.887 29.0047 147.396 29.3012 144.964C30.3689 134.88 32.8601 124.085 35.0547 115.841C34.4022 115.07 33.8091 114.298 33.216 113.587C31.8517 111.867 30.6061 110.265 29.4198 109.435C28.2335 108.545 26.2761 107.833 24.2001 107.062C20.2854 105.579 15.3624 103.8 12.2187 99.4106C9.07506 95.0807 8.8378 89.9203 8.65986 85.709C8.54123 83.4551 8.48193 81.3791 8.00742 79.9555C7.59222 78.6506 6.46526 76.9898 5.27898 75.2104C2.90641 71.6516 0 67.2623 0 61.7461C0 56.2299 2.96572 51.8406 5.27898 48.2817C6.46526 46.5023 7.59222 44.8415 8.00742 43.5366C8.48193 42.1131 8.54123 39.9778 8.65986 37.7832C8.8378 33.6312 9.07506 28.4115 12.2187 24.0816C15.3624 19.7516 20.2854 17.9129 24.2001 16.43C26.2761 15.6589 28.2335 14.9472 29.4198 14.0575C30.5468 13.2271 31.8517 11.6256 33.216 9.90546C35.8258 6.58387 39.088 2.49119 44.2484 0.771077C45.7905 0.296564 47.4514 0 49.1715 0C52.3745 0 55.4588 0.830388 58.1872 1.60147C60.3818 2.19461 62.4579 2.78776 64 2.78776C65.6015 2.78776 67.6775 2.19461 69.8128 1.60147C72.5412 0.830388 75.6256 0 78.8286 0C80.5487 0 82.2094 0.23725 83.7516 0.771077C88.912 2.43188 92.1742 6.58387 94.784 9.90546C96.1483 11.6256 97.3939 13.2271 98.5802 14.0575C99.7665 14.9472 101.724 15.6589 103.8 16.43C107.715 17.9129 112.638 19.6923 115.781 24.0816C118.925 28.4115 119.162 33.5718 119.34 37.7832C119.459 40.0371 119.518 42.1131 119.993 43.5366C120.408 44.8415 121.535 46.5023 122.721 48.2817C125.094 51.8406 128 56.2299 128 61.7461C128 67.2623 125.034 71.6516 122.721 75.2104C121.535 76.9898 120.408 78.6506 119.993 79.9555C119.518 81.3791 119.459 83.5144 119.34 85.709C119.162 89.861 118.925 95.0807 115.781 99.4106C112.638 103.741 107.715 105.579 103.8 107.062C101.724 107.833 99.7665 108.545 98.5802 109.435C97.3939 110.265 96.1483 111.867 94.784 113.587C94.7247 113.646 94.7248 113.705 94.6654 113.765C97.3939 122.187 100.716 130.906 102.554 135.652C103.622 138.321 103.266 141.346 101.665 143.659C100.063 146.032 97.3939 147.455 94.4875 147.455C93.1826 147.455 91.8183 147.159 90.6321 146.565L88.2002 145.379L87.9036 148.286C87.4884 152.675 83.8109 155.996 79.3624 155.996Z" fill="white"/>
<path d="M96.3263 137.49C94.3689 132.567 91.4032 124.738 88.8527 116.908C84.9972 121.535 79.4217 121.95 74.558 119.755C71.6516 118.45 68.6859 118.45 66.4912 118.806C68.8638 126.754 72.6006 138.083 77.2271 147.692C78.1761 149.59 81.0232 149.116 81.2012 146.981L82.5061 134.762L93.3606 140.159C95.14 141.049 97.0381 139.329 96.3263 137.49Z" fill="#4BC17E"/>
<path d="M74.5579 119.755C79.3624 121.95 84.9972 121.535 88.8526 116.908C86.836 110.799 85.0566 104.69 84.1669 99.9444C84.1669 99.9444 75.7442 106.232 66.6098 108.367C66.0167 109.85 65.4829 111.451 64.9491 113.171C65.3643 114.714 65.8981 116.612 66.5505 118.747C68.6858 118.51 71.6515 118.45 74.5579 119.755Z" fill="#010101"/>
<path d="M52.7897 122.187C48.2818 124.204 43.5367 121.238 40.6303 118.688C38.6136 126.28 36.4189 136.067 35.4699 145.083C35.2326 147.218 37.9018 148.286 39.2067 146.625L46.7989 136.956L53.1455 147.277C54.1539 148.938 56.6451 148.463 57.001 146.565C58.3059 139.685 60.7377 127.466 63.5848 117.442C60.5598 118.332 57.1789 120.23 52.7897 122.187Z" fill="#4BC17E"/>
<path d="M66.6098 108.426C66.6098 108.367 66.6099 108.367 66.6692 108.308C66.6692 108.308 53.9166 109.375 44.6043 105.105C44.6043 105.105 42.7656 110.74 40.6302 118.688C43.596 121.238 48.3411 124.204 52.7897 122.187C57.1196 120.23 60.5598 118.332 63.5848 117.501C64 116.019 64.4153 114.595 64.8898 113.231C64.178 110.562 63.7628 108.96 63.7628 108.96C64.7118 108.842 65.6608 108.664 66.6098 108.426Z" fill="#010101"/>
<path d="M63.7628 108.96C63.7628 108.96 64.178 110.562 64.8898 113.231C65.4236 111.511 66.0167 109.85 66.5505 108.426C65.6608 108.664 64.7118 108.842 63.7628 108.96Z" fill="#010101"/>
<path d="M121.298 61.2123C121.298 67.1437 115.307 72.0668 113.587 77.405C111.807 82.9213 113.646 90.3949 110.324 95.0214C106.944 99.7072 99.2327 100.182 94.5469 103.563C89.9204 106.943 87.0733 114.121 81.557 115.9C76.2188 117.62 69.6942 113.527 63.7628 113.527C57.8314 113.527 51.3068 117.62 45.9685 115.9C40.4523 114.121 37.6052 106.884 32.9787 103.563C28.2929 100.182 20.582 99.6479 17.2011 95.0214C13.8202 90.3949 15.7183 82.9213 13.9388 77.405C12.2187 72.0668 6.228 67.1437 6.228 61.2123C6.228 55.2808 12.2187 50.3577 13.9388 45.0195C15.7183 39.5032 13.8795 32.0297 17.2011 27.4032C20.582 22.7173 28.2929 22.2428 32.9787 18.8619C37.6052 15.481 40.4523 8.30399 45.9685 6.52457C51.3068 4.80445 57.8314 8.89713 63.7628 8.89713C69.6942 8.89713 76.2188 4.80445 81.557 6.52457C87.0733 8.30399 89.9204 15.5403 94.5469 18.8619C99.2327 22.2428 106.944 22.7767 110.324 27.4032C113.705 32.0297 111.807 39.5032 113.587 45.0195C115.366 50.417 121.298 55.2808 121.298 61.2123Z" fill="#FF77E6"/>
<path d="M112.4 61.2123C112.4 66.1947 107.774 70.4653 106.291 74.9732C104.749 79.659 105.995 85.7684 103.147 89.6831C100.3 93.5979 94.0724 94.3689 90.0983 97.216C86.1836 100.063 83.5737 105.757 78.8879 107.299C74.38 108.782 68.9231 105.757 63.9407 105.757C58.9583 105.757 53.5014 108.782 48.9935 107.299C44.3077 105.757 41.6979 100.063 37.7831 97.216C33.8684 94.3689 27.6404 93.5979 24.734 89.6831C21.8869 85.7684 23.1326 79.659 21.5904 74.9732C20.1076 70.4653 15.481 66.254 15.481 61.2123C15.481 56.2299 20.1076 51.9593 21.5904 47.4514C23.1326 42.7656 21.8869 36.6562 24.734 32.7415C27.5811 28.8268 33.8091 28.0557 37.7831 25.2086C41.6979 22.3615 44.3077 16.6674 48.9935 15.1252C53.5014 13.6423 58.9583 16.6673 63.9407 16.6673C68.9231 16.6673 74.38 13.6423 78.8879 15.1252C83.5737 16.6674 86.1836 22.3615 90.0983 25.2086C94.0131 28.0557 100.241 28.8268 103.147 32.7415C105.995 36.6562 104.749 42.7656 106.291 47.4514C107.774 51.9593 112.4 56.1706 112.4 61.2123Z" fill="#010101"/>
<path d="M103.859 61.4496C103.859 65.6016 100.004 69.1011 98.8175 72.8379C97.5719 76.6933 98.5802 81.7944 96.2076 84.9973C93.8351 88.2596 88.6748 88.8527 85.4125 91.2253C82.2095 93.5979 80.0149 98.2837 76.1595 99.5293C72.4227 100.716 67.9148 98.2244 63.7628 98.2244C59.6108 98.2244 55.1029 100.716 51.3661 99.5293C47.5107 98.2837 45.3161 93.5386 42.1131 91.2253C38.8508 88.8527 33.6905 88.2596 31.3179 84.9973C28.9453 81.7944 29.9537 76.6933 28.7081 72.8379C27.5218 69.1011 23.6664 65.6016 23.6664 61.4496C23.6664 57.2976 27.5218 53.798 28.7081 50.0612C29.9537 46.2058 28.9453 41.1048 31.3179 37.9018C33.6905 34.6396 38.8508 34.0464 42.1131 31.6738C45.3161 29.3013 47.5107 24.6155 51.3661 23.3699C55.1029 22.1836 59.6108 24.6748 63.7628 24.6748C67.9148 24.6748 72.4227 22.1836 76.1595 23.3699C80.0149 24.6155 82.2095 29.3606 85.4125 31.6738C88.6748 34.0464 93.8351 34.6396 96.2076 37.9018C98.5802 41.1048 97.5719 46.2058 98.8175 50.0612C100.063 53.798 103.859 57.2976 103.859 61.4496Z" fill="#FFCA49"/>
<path d="M64.0001 92.4708C81.2637 92.4708 95.2586 78.4759 95.2586 61.2123C95.2586 43.9487 81.2637 29.9537 64.0001 29.9537C46.7364 29.9537 32.7415 43.9487 32.7415 61.2123C32.7415 78.4759 46.7364 92.4708 64.0001 92.4708Z" fill="#FDFDFD"/>
<path d="M53.5607 55.9335H50.2984V52.6712C50.2984 50.6545 48.6376 48.9937 46.621 48.9937H46.3244C44.3077 48.9937 42.6469 50.6545 42.6469 52.6712V55.9335H39.3846C37.368 55.9335 35.7071 57.5943 35.7071 59.6109V59.9075C35.7071 61.9242 37.368 63.585 39.3846 63.585H42.6469V66.8473C42.6469 68.864 44.3077 70.5247 46.3244 70.5247H46.621C48.6376 70.5247 50.2984 68.864 50.2984 66.8473V63.585H53.5607C55.5774 63.585 57.2382 61.9242 57.2382 59.9075V59.6109C57.1789 57.5943 55.5774 55.9335 53.5607 55.9335Z" fill="#030401"/>
<path d="M51.1288 55.1623H47.8665V51.9C47.8665 49.8833 46.2058 48.2225 44.1891 48.2225H43.8925C41.8758 48.2225 40.215 49.8833 40.215 51.9V55.1623H36.9527C34.936 55.1623 33.2753 56.8231 33.2753 58.8398V59.1363C33.2753 61.153 34.936 62.8138 36.9527 62.8138H40.215V66.0761C40.215 68.0927 41.8758 69.7536 43.8925 69.7536H44.1891C46.2058 69.7536 47.8665 68.0927 47.8665 66.0761V62.8138H51.1288C53.1455 62.8138 54.8064 61.153 54.8064 59.1363V58.8398C54.8064 56.7638 53.2048 55.1623 51.1288 55.1623Z" fill="#4BC17E"/>
<path d="M84.6414 81.1419C82.862 80.1335 81.7944 78.2948 81.7944 76.2781V76.1594V41.1048H69.2197C69.2197 41.1048 69.8129 49.2901 64.7711 54.5691H69.0418V76.1001C69.0418 78.1761 67.8555 80.1335 66.0167 81.0826L64.7711 81.735H69.0418H81.8537H85.8277L84.6414 81.1419Z" fill="#030401"/>
<path d="M80.1335 79.4811C78.3541 78.4727 77.2864 76.634 77.2864 74.6173V74.4986V39.444H64.7118C64.7118 39.444 65.305 47.6293 60.2632 52.9083H64.5338V74.4393C64.5338 76.5153 63.3476 78.4727 61.5088 79.4217L60.2632 80.0742H64.5338H77.3458H81.3198L80.1335 79.4811Z" fill="#4BC17E"/>
</svg>
