<svg width="64" height="64" viewBox="0 0 64 64" fill="none" xmlns="http://www.w3.org/2000/svg">
<path d="M32 57.5C42.7894 57.5 51.5 48.6355 51.5 37.7451C51.5 31.9598 48.4659 25.7183 45.0208 20.4458C41.5414 15.1207 37.4768 10.5381 35.0995 8.02102C33.402 6.22367 30.598 6.22366 28.9005 8.02102C26.5232 10.5381 22.4586 15.1207 18.9792 20.4458C15.5341 25.7183 12.5 31.9598 12.5 37.7451C12.5 48.6355 21.2106 57.5 32 57.5Z" fill="#699BF7" stroke="black" stroke-width="3"/>
<path d="M37 44.5C37 45.3284 37.6716 46 38.5 46C39.3284 46 40 45.3284 40 44.5L37 44.5ZM24 44.5C24 45.3284 24.6716 46 25.5 46C26.3284 46 27 45.3284 27 44.5L24 44.5ZM27 44C27 42.1335 27.6451 40.9373 28.4967 40.19C29.3803 39.4146 30.6291 39 32 39L32 36C30.0572 36 28.056 36.5854 26.518 37.935C24.948 39.3127 24 41.3665 24 44L27 44ZM32 39C33.3709 39 34.6197 39.4146 35.5033 40.19C36.3549 40.9373 37 42.1335 37 44L40 44C40 41.3665 39.052 39.3127 37.482 37.9351C35.944 36.5854 33.9428 36 32 36L32 39ZM37 44L37 44.5L40 44.5L40 44L37 44ZM24 44L24 44.5L27 44.5L27 44L24 44Z" fill="black"/>
<circle cx="37" cy="31" r="2" fill="black"/>
<circle cx="37" cy="31" r="2" fill="black"/>
<circle cx="37" cy="31" r="2" fill="black"/>
<circle cx="37" cy="31" r="2" fill="black"/>
<circle cx="27" cy="31" r="2" fill="black"/>
<circle cx="27" cy="31" r="2" fill="black"/>
<circle cx="27" cy="31" r="2" fill="black"/>
<circle cx="27" cy="31" r="2" fill="black"/>
</svg>
