<svg width="64" height="64" viewBox="0 0 64 64" fill="none" xmlns="http://www.w3.org/2000/svg">
<path d="M8.5 52.5V11.5C8.5 9.84315 9.84315 8.5 11.5 8.5H35.1736C36.9526 8.5 38.3362 10.054 38.1832 11.8263C36.4611 31.7764 39.4129 37.7002 47.2416 39.1461C51.6927 39.9681 55.5 43.2543 55.5 47.7806V52.5C55.5 54.1569 54.1427 55.501 52.4859 55.4986C31.8876 55.4689 28.7269 54.8052 23.5069 39.9856C23.1287 38.9118 21.5 39.1631 21.5 40.3015V52.5C21.5 54.1569 20.1569 55.5 18.5 55.5H11.5C9.84315 55.5 8.5 54.1569 8.5 52.5Z" fill="#FF7051" stroke="black" stroke-width="3" stroke-linejoin="round"/>
<path d="M40.0516 24.7059L38.6456 24.1834C38.4796 24.63 38.5356 25.1288 38.7966 25.5274C39.0575 25.9261 39.4923 26.177 39.9679 26.2036L40.0516 24.7059ZM40.0516 24.7059C38.6456 24.1834 38.6457 24.1832 38.6457 24.1829L38.646 24.1823L38.6466 24.1806L38.6485 24.1756L38.6546 24.1592L38.6767 24.1012C38.6956 24.0518 38.723 23.981 38.7584 23.8916C38.8292 23.7129 38.9321 23.4589 39.0637 23.1506C39.3262 22.5357 39.7063 21.6959 40.1757 20.8014C40.6428 19.9113 41.2129 18.9392 41.8597 18.0729C42.4913 17.2272 43.2737 16.3756 44.1946 15.8439C45.7465 14.9479 47.2814 14.6217 48.6951 14.9737C50.1129 15.3268 51.1354 16.294 51.7921 17.4314C52.4488 18.5688 52.7751 19.938 52.372 21.3423C51.97 22.7427 50.9201 23.9088 49.3682 24.8047C47.7055 25.7647 45.2377 26.0686 43.4306 26.1771C42.4806 26.2342 41.621 26.2409 40.9995 26.2335C40.688 26.2298 40.4343 26.2226 40.2567 26.2162C40.1678 26.2129 40.0978 26.2099 40.049 26.2076L39.9918 26.2049L39.9756 26.204L39.9707 26.2037L39.969 26.2037L39.9684 26.2036C39.9682 26.2036 39.9679 26.2036 40.0516 24.7059Z" stroke="black" stroke-width="3" stroke-linejoin="round"/>
<path d="M36.2782 24.7059L37.6843 24.1834C37.8502 24.63 37.7942 25.1288 37.5333 25.5274C37.2723 25.9261 36.8376 26.177 36.3619 26.2036L36.2782 24.7059ZM36.2782 24.7059C37.6843 24.1834 37.6842 24.1832 37.6841 24.1829L37.6839 24.1823L37.6832 24.1806L37.6814 24.1756L37.6752 24.1592L37.6532 24.1012C37.6342 24.0518 37.6068 23.981 37.5714 23.8916C37.5007 23.7129 37.3977 23.4589 37.2661 23.1506C37.0037 22.5357 36.6236 21.6959 36.1541 20.8014C35.687 19.9113 35.117 18.9392 34.4701 18.0729C33.8386 17.2272 33.0561 16.3756 32.1352 15.8439C30.5833 14.9479 29.0485 14.6217 27.6347 14.9737C26.217 15.3268 25.1944 16.294 24.5377 17.4314C23.8811 18.5688 23.5547 19.938 23.9578 21.3423C24.3598 22.7427 25.4098 23.9088 26.9616 24.8047C28.6244 25.7647 31.0921 26.0686 32.8992 26.1771C33.8493 26.2342 34.7088 26.2409 35.3303 26.2335C35.6418 26.2298 35.8955 26.2226 36.0732 26.2162C36.162 26.2129 36.232 26.2099 36.2809 26.2076L36.338 26.2049L36.3542 26.204L36.3591 26.2037L36.3608 26.2037L36.3614 26.2036C36.3617 26.2036 36.3619 26.2036 36.2782 24.7059Z" fill="#FFF4D9" stroke="black" stroke-width="3" stroke-linejoin="round"/>
<path d="M27.2534 33.0204C26.4362 33.1566 25.8842 33.9294 26.0204 34.7466C26.1566 35.5638 26.9294 36.1158 27.7466 35.9796L27.2534 33.0204ZM35.5228 25.7393C35.1199 28.0224 32.5537 32.137 27.2534 33.0204L27.7466 35.9796C34.4463 34.863 37.8801 29.6443 38.4772 26.2607L35.5228 25.7393Z" fill="black"/>
<path d="M49.2466 33.0204C50.0638 33.1566 50.6158 33.9294 50.4796 34.7466C50.3434 35.5638 49.5706 36.1158 48.7534 35.9796L49.2466 33.0204ZM40.9772 25.7393C41.3801 28.0224 43.9463 32.137 49.2466 33.0204L48.7534 35.9796C42.0537 34.863 38.6199 29.6443 38.0228 26.2607L40.9772 25.7393Z" fill="black"/>
</svg>
