<svg width="64" height="64" viewBox="0 0 64 64" fill="none" xmlns="http://www.w3.org/2000/svg">
<path d="M50.5 24C50.5 23.1716 49.8284 22.5 49 22.5H14C13.1716 22.5 12.5 23.1716 12.5 24V48C12.5 52.1421 15.8579 55.5 20 55.5H43C47.1421 55.5 50.5 52.1421 50.5 48V24Z" fill="#FFF4D9" stroke="black" stroke-width="3" stroke-linejoin="round"/>
<path d="M22.4709 10.2942L22.8297 8.5H21H17.0311C15.191 8.5 13.5363 9.62028 12.853 11.3287L9.82185 18.9065C9.60924 19.438 9.5 20.0053 9.5 20.5777V24C9.5 27.0376 11.9624 29.5 15 29.5C18.0376 29.5 20.5 27.0376 20.5 24V20.1485L22.4709 10.2942Z" fill="#0FA958" stroke="black" stroke-width="3"/>
<path d="M40.5291 10.2942L40.1703 8.5H42H45.9689C47.809 8.5 49.4637 9.62028 50.147 11.3287L53.1781 18.9065C53.3908 19.438 53.5 20.0053 53.5 20.5777V24C53.5 27.0376 51.0376 29.5 48 29.5C44.9624 29.5 42.5 27.0376 42.5 24V20.1485L40.5291 10.2942Z" fill="#0FA958" stroke="black" stroke-width="3"/>
<path d="M24 8.5H22.7703L22.5291 9.70583L20.5291 19.7058L20.5 19.8515V20V24C20.5 27.0376 22.9624 29.5 26 29.5C29.0376 29.5 31.5 27.0376 31.5 24V20V10V8.5H30H24Z" fill="#0FA958" stroke="black" stroke-width="3"/>
<path d="M39 8.5H40.2297L40.4709 9.70583L42.4709 19.7058L42.5 19.8515V20V24C42.5 27.0376 40.0376 29.5 37 29.5C33.9624 29.5 31.5 27.0376 31.5 24V20V10V8.5H33H39Z" fill="#0FA958" stroke="black" stroke-width="3"/>
<path d="M10 20.5H53.5" stroke="black" stroke-width="3"/>
<path d="M36 55.5H37.5V54V41C37.5 38.5147 35.4853 36.5 33 36.5H30C27.5147 36.5 25.5 38.5147 25.5 41V54V55.5H27H36Z" fill="#0FA958" stroke="black" stroke-width="3"/>
</svg>
