<svg width="240" height="240" viewBox="0 0 240 240" fill="none" xmlns="http://www.w3.org/2000/svg">
<path d="M214.333 76.1247C215.625 77.5414 215.792 79.6247 214.792 81.2914C213.875 82.8331 213.083 84.1664 212.167 85.4164C202.667 98.5831 197.458 105.458 188.083 118.708C185.708 122.041 179.958 132.25 177.75 135.75C177.708 135.791 177.708 135.833 177.667 135.875C175.667 138.875 170.75 138.666 169.167 135.375C169.167 135.375 169.167 135.333 169.125 135.333C166.792 130.208 164.917 124.916 162.75 119.708C156.792 105.333 148.5 92.8747 134.708 84.7081C129.708 81.7497 129.625 79.5831 133.5 75.2914C134.958 73.7081 136.417 72.0831 138 70.6664C153.292 57.0414 163.833 40.2081 171.708 21.4581C172.208 20.2914 173.208 19.3747 174.292 18.4581C175.708 17.2914 177.75 17.4581 179 18.7914C180.042 19.8747 181 21.0414 181.583 22.3331C182.875 25.3331 183.208 28.7081 184 31.9164C188.25 49.3747 197.708 63.2914 212.083 73.9997C212.875 74.5831 213.583 75.3331 214.333 76.1247ZM176.042 34.2914C171.083 42.5414 166.917 51.0414 161.25 58.4581C155.458 65.9997 148.208 72.4164 141.583 79.3747C158.417 89.4581 168.167 105.416 174.042 125C182.667 107.166 194.583 92.9997 207.667 79.7497C187 63.9997 182.083 56.8747 176.042 34.2914Z" fill="black"/>
<path d="M57.2083 219.916C53.4167 209.166 50.125 198.208 45.9583 187.624C41.875 177.374 35.7917 168.249 27.0417 161.208C23.8333 158.624 23.9167 156.291 26.5417 153.374C41.2917 137.333 52.625 119.166 60.75 98.9578C61.625 96.7911 63.9583 93.3328 65.5833 93.3328C70 92.2911 71.5833 100.916 71.75 101.708C75.4583 122.041 88.0417 136.833 102.167 150.666C106.75 155.166 107.125 156.541 102.625 160.874C85.6667 177.124 74.4167 197.124 64.75 218.166C61.7083 225.499 57.6667 221.208 57.2083 219.916ZM32.125 156.249C41.125 161.958 47.0833 169.583 51.4167 178.208C55.625 186.666 58.7083 195.624 62.2083 204.208C70.2917 186.124 81.2083 169.416 97.7917 156.708C81.75 144.083 69.0833 129.666 65.2083 108.999C58.25 127.583 47.2083 143.041 32.125 156.249Z" fill="black"/>
<path d="M171.083 175.084C161.875 187.459 156.25 201.584 151.083 215.959C150.75 216.875 149.667 222.084 145.708 222.042C144.583 222.042 142.708 220.25 142 218.834C138.875 212.459 136.917 205.334 132.958 199.584C128.292 192.75 121.875 187.125 116.458 180.834C115.667 179.917 115.375 177.834 115.875 176.709C116.833 174.625 118.542 172.959 119.875 171.042C126.667 161.042 133.333 150.959 140.333 141.125C141.792 139.084 144.667 136.625 146.375 136.625C150.625 136.584 151.458 139.917 152.208 142.292C155.625 153.209 161.5 162.334 170.042 169.875C173.083 172.709 171.458 174.584 171.083 175.084ZM124.292 177.959C134.208 185 140.958 195.167 145.042 206.542C151.083 195.459 157.25 184.167 163.583 172.5C155.083 166.625 149.167 155.667 146.458 147.584C139.042 157.75 131.708 167.792 124.292 177.959Z" fill="black"/>
</svg>
