<svg width="64" height="64" viewBox="0 0 64 64" fill="none" xmlns="http://www.w3.org/2000/svg">
<path fill-rule="evenodd" clip-rule="evenodd" d="M14.5 22.5C17.7545 22.5 20.5 25.1863 20.5 28.5V37.5C20.5 39.1569 21.8431 40.5 23.5 40.5H49.2692C54.3672 40.5 58.5 44.6328 58.5 49.7308V49.7308C58.5 51.2602 57.2602 52.5 55.7308 52.5H19.5C12.9909 52.5 8.5 47.1274 8.5 40.5V28.5C8.5 25.1863 11.2455 22.5 14.5 22.5Z" fill="#FFF4D9" stroke="black" stroke-width="3"/>
<path d="M20.5 27.5C20.5 18.6634 27.6634 11.5 36.5 11.5V11.5C45.3366 11.5 52.5 18.6634 52.5 27.5V28.5C52.5 35.1274 47.1274 40.5 40.5 40.5H23.5C21.8431 40.5 20.5 39.1569 20.5 37.5V27.5Z" fill="#0FA958" stroke="black" stroke-width="3"/>
<path d="M37 27.5C37 26.6716 36.3284 26 35.5 26C34.6716 26 34 26.6716 34 27.5H37ZM44.5 39H40.5V42H44.5V39ZM30 28.5V27.5H27V28.5H30ZM43 27.5V28H46V27.5H43ZM37 28V27.5H34V28H37ZM40 31C38.3431 31 37 29.6569 37 28H34C34 31.3137 36.6863 34 40 34V31ZM43 28C43 29.6569 41.6569 31 40 31V34C43.3137 34 46 31.3137 46 28H43ZM36.5 21C40.0899 21 43 23.9101 43 27.5H46C46 22.2533 41.7467 18 36.5 18V21ZM30 27.5C30 23.9101 32.9101 21 36.5 21V18C31.2533 18 27 22.2533 27 27.5H30ZM40.5 39C34.701 39 30 34.299 30 28.5H27C27 35.9558 33.0442 42 40.5 42V39Z" fill="black"/>
<path d="M5.5 14C4.67157 14 4 14.6716 4 15.5C4 16.3284 4.67157 17 5.5 17V14ZM9.0681 17.7724L7.61288 18.1362L9.0681 17.7724ZM11.9552 23.1362L10.5233 17.4086L7.61288 18.1362L9.04479 23.8638L11.9552 23.1362ZM6.15767 14H5.5V17H6.15767V14ZM10.5233 17.4086C10.0225 15.4053 8.22257 14 6.15767 14V17C6.84597 17 7.44595 17.4684 7.61288 18.1362L10.5233 17.4086Z" fill="black"/>
<path d="M14.5 14C13.6716 14 13 14.6716 13 15.5C13 16.3284 13.6716 17 14.5 17V14ZM18.0681 17.7724L16.6129 18.1362L18.0681 17.7724ZM20.9552 23.1362L19.5233 17.4086L16.6129 18.1362L18.0448 23.8638L20.9552 23.1362ZM15.1577 14H14.5V17H15.1577V14ZM19.5233 17.4086C19.0225 15.4053 17.2226 14 15.1577 14V17C15.846 17 16.4459 17.4684 16.6129 18.1362L19.5233 17.4086Z" fill="black"/>
<path d="M16 30.5C16 29.6716 15.3284 29 14.5 29C13.6716 29 13 29.6716 13 30.5H16ZM8.5 36H11.5V33H8.5V36ZM16 31.5V30.5H13V31.5H16ZM11.5 36C13.9853 36 16 33.9853 16 31.5H13C13 32.3284 12.3284 33 11.5 33V36Z" fill="black"/>
</svg>
