<svg width="240" height="240" viewBox="0 0 240 240" fill="none" xmlns="http://www.w3.org/2000/svg">
<path d="M205.542 142.499C196.292 140.124 180.708 137.582 174.958 133.666C172.583 132.041 172.875 130.249 173.292 128.999C173.708 127.832 176.083 126.624 177.542 126.707C180.833 126.832 184.125 127.541 187.292 128.416C194.333 130.332 201.333 132.332 208.25 134.624C211.917 135.832 213.083 138.624 210.958 140.416C209.708 141.457 208.542 142.499 205.542 142.499Z" fill="black"/>
<path d="M59.7083 206.874C60.125 204.665 60.9583 203.499 62.1666 201.79C66.875 195.207 71.7916 188.749 76.625 182.29C76.9166 181.915 77.25 181.499 77.625 181.207C79.2916 179.79 81.1666 178.124 83.3333 179.665C85.5 181.249 84.75 183.582 83.5833 185.457C78.75 193.332 73.8333 201.165 68.8333 208.957C68.0833 210.165 66.7916 211.207 65.5 211.832C62.2916 213.374 59.4583 211.249 59.7083 206.874Z" fill="black"/>
<path d="M163.833 205.417C163.833 207.292 162.375 208.625 161.292 208.834C159.833 209.125 158.583 208.875 156.5 207.459C155.792 207 155.375 205.875 154.958 205C151.917 198.417 148.833 191.875 145.875 185.25C145.125 183.625 144.375 181.75 144.5 180.042C144.625 178.5 145.583 176.292 146.833 175.75C148.042 175.209 149.667 175.042 151.583 176.917C152.292 177.584 152.958 178.709 153.417 179.75C156.417 186.709 159.417 193.667 162.333 200.667C162.875 202 163.208 203.459 163.833 205.417Z" fill="black"/>
<path d="M31.5833 148C29.6666 147.459 28.4166 146.542 28.1249 145.292C27.7499 143.709 28.5416 141.584 29.4583 140.084C30.1666 138.959 31.7916 138.25 33.1666 137.792C40.0416 135.5 46.9583 133.25 53.9166 131.125C55.0833 130.75 56.5833 130.625 57.7083 131C59.5416 131.625 60.3333 133.084 58.8333 134.834C57.9999 135.834 57.0416 136.875 55.9166 137.417C49.4166 140.667 42.8749 143.792 36.2916 146.875C35.0833 147.417 33.4583 148.584 31.5833 148Z" fill="black"/>
<path d="M172.75 76.5C171.833 76.125 171.042 74.625 171 73.625C170.958 72.25 171.375 70.5833 172.208 69.4583C176.083 64.125 180.167 58.875 184.208 53.6667C184.792 52.875 185.583 52.25 186.375 51.625C188.167 50.25 190.5 49.0417 192.083 51.125C193 52.3333 193.292 55.4167 192.417 56.4583C187.083 62.9583 181.333 69.1667 175.625 75.375C175.167 75.9167 174.25 76.7917 172.75 76.5Z" fill="black"/>
<path d="M39.1666 67.4582C41.5 68.1665 43.2916 68.5832 45 69.2082C49.9583 70.9998 54.9166 72.8332 59.8333 74.7082C61.2083 75.2498 62.6666 75.7915 63.7916 76.6665C64.5833 77.2915 65.4583 78.8748 65.1666 79.4582C64.6666 80.4165 63.9166 81.6248 62.2083 81.4998C61.5 81.4582 60.5833 81.4165 59.7916 81.2082C54.2083 79.7082 48.625 78.2915 43.0833 76.6248C41.2083 76.0832 39.25 75.2915 37.75 74.0832C36.6666 73.2082 35.6666 71.2498 35.9583 70.0832C36.2083 68.9998 37.125 67.4582 39.1666 67.4582Z" fill="black"/>
<path d="M115.417 50.2079C115.375 50.7079 115.333 51.2079 115.167 51.6662C114.458 53.7079 114 55.9996 111.125 55.7912C108.083 55.5829 107.958 53.0829 108 51.0412C108.125 46.1246 108.583 41.2079 108.958 36.2496C109.125 34.4579 109.333 32.6246 109.833 30.9162C110.333 29.1662 111.042 27.3746 113.458 27.6662C115.708 27.9579 116.458 29.4579 116.5 31.4579C116.5 33.6246 115.833 46.1246 115.417 50.2079Z" fill="black"/>
</svg>
