<svg width="128" height="172" viewBox="0 0 128 172" fill="none" xmlns="http://www.w3.org/2000/svg">
<g clip-path="url(#clip0)">
<path d="M63.8924 8.06723C33.1025 8.06723 8.06723 33.1025 8.06723 63.8924C8.06723 72.6319 14.4672 79.8655 22.8303 81.1563L22.0235 82.5546L20.921 84.4639L19.6571 86.642C18.6891 88.3361 19.8992 90.4336 21.8353 90.4336H29.2303C31.1664 90.4336 32.4034 88.3361 31.4084 86.642L30.1445 84.4639L28.2353 81.1563C36.5983 79.8387 42.9983 72.605 42.9983 63.8924C42.9983 52.3832 52.3563 43.0252 63.8655 43.0252C75.3748 43.0252 84.7328 52.3832 84.7328 63.8924C84.7328 73.0353 80.6723 76.5042 70.642 84.195C65.1832 88.3899 58.9983 93.1227 53.9429 99.7378C47.5429 108.101 44.2891 117.889 44.2891 128.78C44.2891 137.035 50.0168 143.973 57.7345 145.775L51.5227 156.558C49.8286 159.489 51.9529 163.173 55.3412 163.173H68.2218C71.6101 163.173 73.7345 159.489 72.0403 156.558L69.8622 152.793L65.8286 145.802C73.5462 143.973 79.2739 137.062 79.2739 128.807C79.2739 122.38 81.8286 119.718 91.9664 111.973C97.7479 107.536 104.309 102.508 109.687 95.274C116.356 86.3193 119.745 75.7782 119.745 63.9193C119.718 33.1025 94.6824 8.06723 63.8924 8.06723Z" fill="white" stroke="white" stroke-width="16.1345" stroke-miterlimit="10" stroke-linecap="round" stroke-linejoin="round"/>
<path d="M57.9496 145.425L51.5227 156.558C49.8286 159.489 51.9529 163.173 55.3412 163.173H68.2218C71.6101 163.173 73.7345 159.489 72.0403 156.558L65.6134 145.425C63.8924 142.467 59.6437 142.467 57.9496 145.425Z" fill="#FF4205"/>
<path d="M61.7681 138.81L53.7008 152.793H69.8353L61.7681 138.81Z" fill="url(#paint0_linear)"/>
<path d="M23.3681 80.242L19.684 86.642C18.716 88.3362 19.9261 90.4336 21.8622 90.4336H29.2571C31.1933 90.4336 32.4303 88.3362 31.4353 86.642L27.7513 80.242C26.7563 78.5479 24.3361 78.5479 23.3681 80.242Z" fill="#FF4205"/>
<path d="M25.5462 76.4504L20.921 84.4639H30.1714L25.5462 76.4504Z" fill="url(#paint1_linear)"/>
<path d="M61.7681 146.259C52.1143 146.259 44.2891 138.434 44.2891 128.78C44.2891 117.889 47.5429 108.101 53.9429 99.7378C58.9983 93.1227 65.1832 88.3899 70.642 84.195C80.6723 76.5042 84.7328 73.0084 84.7328 63.8924C84.7328 52.3832 75.3748 43.0252 63.8655 43.0252C52.3563 43.0252 43.0252 52.3832 43.0252 63.8924C43.0252 73.5462 35.2 81.3714 25.5462 81.3714C15.8924 81.3714 8.06723 73.5462 8.06723 63.8924C8.06723 33.1025 33.1025 8.06723 63.8924 8.06723C94.6824 8.06723 119.718 33.1025 119.718 63.8924C119.718 75.7513 116.329 86.2924 109.66 95.2471C104.255 102.481 97.721 107.509 91.9395 111.946C81.8286 119.691 79.2471 122.38 79.2471 128.78C79.2471 138.434 71.4218 146.259 61.7681 146.259Z" fill="#FF4205"/>
<path d="M35.0386 68.2486C36.301 68.2486 37.3243 67.2253 37.3243 65.9629C37.3243 64.7006 36.301 63.6772 35.0386 63.6772C33.7762 63.6772 32.7529 64.7006 32.7529 65.9629C32.7529 67.2253 33.7762 68.2486 35.0386 68.2486Z" fill="#292929"/>
<path d="M16.0538 68.2487C17.3161 68.2487 18.3395 67.2253 18.3395 65.963C18.3395 64.7006 17.3161 63.6773 16.0538 63.6773C14.7914 63.6773 13.768 64.7006 13.768 65.963C13.768 67.2253 14.7914 68.2487 16.0538 68.2487Z" fill="#292929"/>
<path fill-rule="evenodd" clip-rule="evenodd" d="M25.5462 64.2151C24.9155 64.2151 24.3569 64.5068 23.9933 64.9604C23.5289 65.5398 22.9543 66.205 22.2117 66.205V66.205C21.4692 66.205 20.848 65.5907 21.0584 64.8785C21.6281 62.9504 23.4083 61.526 25.5462 61.526C27.6557 61.526 29.4613 62.9298 30.0351 64.8783C30.2449 65.5906 29.6232 66.205 28.8806 66.205V66.205C28.1381 66.205 27.5643 65.5394 27.0994 64.9604C26.7337 64.505 26.1721 64.2151 25.5462 64.2151Z" fill="#292929"/>
<path d="M79.8655 20.3832C97.5597 26.9177 110.225 43.9395 110.225 63.8925" stroke="#FA7573" stroke-width="4.57143" stroke-miterlimit="10" stroke-linecap="round" stroke-linejoin="round"/>
<path d="M63.8924 17.5597C65.2101 17.5597 66.5277 17.6135 67.8454 17.721" stroke="#FA7573" stroke-width="4.57143" stroke-miterlimit="10" stroke-linecap="round" stroke-linejoin="round"/>
</g>
<defs>
<linearGradient id="paint0_linear" x1="61.7681" y1="138.81" x2="61.7681" y2="152.793" gradientUnits="userSpaceOnUse">
<stop offset="0.286458" stop-color="#C93404" stop-opacity="0"/>
<stop offset="1" stop-color="#C93404"/>
</linearGradient>
<linearGradient id="paint1_linear" x1="25.5462" y1="76.4504" x2="25.5462" y2="84.4639" gradientUnits="userSpaceOnUse">
<stop stop-color="#C93404" stop-opacity="0"/>
<stop offset="0.958333" stop-color="#C93404"/>
</linearGradient>
<clipPath id="clip0">
<rect width="128" height="171.294" fill="white"/>
</clipPath>
</defs>
</svg>
