<svg width="240" height="240" viewBox="0 0 240 240" fill="none" xmlns="http://www.w3.org/2000/svg">
<path d="M35.0416 212.958C23.8333 212.916 23.2083 212.374 22.0416 201.291C21.2083 193.208 20.5416 185.083 20.3333 176.958C19.125 132.999 18.4166 89.0411 17.0833 45.1245C16.6666 30.9995 16.6666 30.9995 29.0416 29.7495C42.375 28.4161 56.9583 28.7911 70.375 28.4578C118.125 27.3328 165.917 26.3745 213.667 25.3745C215.5 25.3328 217.458 25.4578 219.042 25.6245C222.5 25.9995 222.875 28.6245 222.958 30.2911C223.25 36.4995 222.667 42.7495 222.667 48.9995C222.583 94.6245 222.583 140.249 222.542 185.874C222.542 191.333 222.417 196.833 222.375 202.291C222.292 211.583 219.292 214.666 209.75 214.624C191.833 214.583 173.917 214.416 156 214.333C144.375 214.291 63.75 213.041 35.0416 212.958ZM212.333 34.9161L26.0416 37.4995C25.4583 37.4995 25 37.9995 25.0416 38.5411C26.8333 93.8328 28.5833 148.499 30.375 203.833C30.375 204.374 30.8333 204.833 31.375 204.833H212.5C213.208 204.833 213.75 204.249 213.75 203.583V36.3328C213.75 35.5411 213.125 34.9161 212.333 34.9161Z" fill="black"/>
<path d="M120.083 158.124C102.792 157.666 86.6667 153.291 72.9583 142.291C70.6667 140.457 67.5833 136.166 68.3333 134.749C70.5 130.707 74.125 134.666 76.7917 136.041C106.583 151.499 136.167 151.666 165.667 135.374C167.542 134.332 169.542 133.499 171.583 132.957C172.458 132.749 173.625 132.624 174.5 133.999C175.083 134.874 174.75 136.291 174.25 137.082C173.375 138.416 172.083 139.582 170.792 140.582C156 152.416 139.167 158.499 120.083 158.124Z" fill="black"/>
<path d="M110.667 80.9583C104.542 92.8749 98.3749 104.75 92.2083 116.625C91.7499 117.5 88.7916 121.542 85.5833 119.917C84.4166 119.333 83.3749 118.208 83.3749 115.542C83.3749 114.208 83.9583 112.625 84.5833 111.333C90.2499 100.125 95.9583 88.9166 101.75 77.7916C102.583 76.2083 103.667 74.5416 105.083 73.5416C106.25 72.7083 108.333 72.2916 109.583 72.7499C114.042 74.3333 111.333 79.6666 110.667 80.9583Z" fill="black"/>
<path d="M170.625 76.3742C174.458 75.7909 175.75 79.0826 174.792 81.9576C174 84.4576 172.917 86.9159 171.667 89.2076C167 97.5826 162.25 105.916 157.417 114.166C156 116.624 154.083 119.291 150.708 117.666C146.917 115.833 148.333 112.499 149.708 109.958C154.917 100.208 160.25 90.4992 165.792 80.9159C166.917 78.9576 168.667 76.3742 170.625 76.3742Z" fill="black"/>
</svg>
