<svg width="64" height="64" viewBox="0 0 64 64" fill="none" xmlns="http://www.w3.org/2000/svg">
<g clip-path="url(#clip0)">
<mask id="path-1-outside-1" maskUnits="userSpaceOnUse" x="8" y="46" width="49" height="15" fill="black">
<rect fill="white" x="8" y="46" width="49" height="15"/>
<path fill-rule="evenodd" clip-rule="evenodd" d="M11 53.5477C11 51.0477 13.1029 49.0477 16.2573 49.0477C17.8438 49.0477 19.2292 49.8066 20.6066 50.5609C21.9677 51.3065 23.321 52.0477 24.8524 52.0477C26.3103 52.0477 27.5476 51.2656 28.7686 50.4938C29.1535 50.2505 29.5368 50.0082 29.9249 49.7918C30.2999 49.5507 30.733 49.3492 31.2301 49.2048C31.6393 49.0742 32.0605 48.9975 32.5001 49.0001C32.9397 48.9976 33.3607 49.0743 33.7698 49.2048C34.2669 49.3492 34.7001 49.5507 35.0751 49.7918C35.4632 50.0082 35.8465 50.2505 36.2314 50.4938C37.4524 51.2656 38.6897 52.0477 40.1476 52.0477C41.679 52.0477 43.0323 51.3065 44.3934 50.5609C45.7708 49.8066 47.1562 49.0477 48.7427 49.0477C51.8971 49.0477 54 51.0477 54 53.5477V54.0485C54 55.7053 52.6569 57.0477 51 57.0477H27.8234L14 57.0477C12.3431 57.0477 11 55.7053 11 54.0485V53.5477Z"/>
</mask>
<path fill-rule="evenodd" clip-rule="evenodd" d="M11 53.5477C11 51.0477 13.1029 49.0477 16.2573 49.0477C17.8438 49.0477 19.2292 49.8066 20.6066 50.5609C21.9677 51.3065 23.321 52.0477 24.8524 52.0477C26.3103 52.0477 27.5476 51.2656 28.7686 50.4938C29.1535 50.2505 29.5368 50.0082 29.9249 49.7918C30.2999 49.5507 30.733 49.3492 31.2301 49.2048C31.6393 49.0742 32.0605 48.9975 32.5001 49.0001C32.9397 48.9976 33.3607 49.0743 33.7698 49.2048C34.2669 49.3492 34.7001 49.5507 35.0751 49.7918C35.4632 50.0082 35.8465 50.2505 36.2314 50.4938C37.4524 51.2656 38.6897 52.0477 40.1476 52.0477C41.679 52.0477 43.0323 51.3065 44.3934 50.5609C45.7708 49.8066 47.1562 49.0477 48.7427 49.0477C51.8971 49.0477 54 51.0477 54 53.5477V54.0485C54 55.7053 52.6569 57.0477 51 57.0477H27.8234L14 57.0477C12.3431 57.0477 11 55.7053 11 54.0485V53.5477Z" fill="#D27C2C"/>
<path d="M20.6066 50.5609L22.0477 47.9298L22.0477 47.9298L20.6066 50.5609ZM28.7686 50.4938L27.1657 47.9579L27.1657 47.9579L28.7686 50.4938ZM29.9249 49.7918L31.3861 52.4119L31.4681 52.3661L31.5471 52.3153L29.9249 49.7918ZM31.2301 49.2048L32.0668 52.0858L32.1046 52.0748L32.1421 52.0628L31.2301 49.2048ZM32.5001 49.0001L32.4829 52L32.5 52.0001L32.5171 52L32.5001 49.0001ZM33.7698 49.2048L32.8578 52.0628L32.8953 52.0748L32.9331 52.0858L33.7698 49.2048ZM35.0751 49.7918L33.4529 52.3154L33.5319 52.3661L33.6139 52.4119L35.0751 49.7918ZM36.2314 50.4938L37.8343 47.9579L37.8343 47.9579L36.2314 50.4938ZM44.3934 50.5609L45.8346 53.1921L45.8346 53.1921L44.3934 50.5609ZM27.8234 57.0477L27.8234 60.0477H27.8234V57.0477ZM14 57.0477L14 54.0477H14V57.0477ZM16.2573 46.0477C11.8074 46.0477 8 49.0513 8 53.5477H14C14 53.1803 14.1395 52.8668 14.4316 52.6089C14.7355 52.3405 15.3155 52.0477 16.2573 52.0477V46.0477ZM22.0477 47.9298C20.7995 47.2461 18.7399 46.0477 16.2573 46.0477V52.0477C16.9477 52.0477 17.659 52.367 19.1654 53.1921L22.0477 47.9298ZM24.8524 49.0477C24.2201 49.0477 23.546 48.7504 22.0477 47.9298L19.1654 53.1921C20.3895 53.8626 22.4218 55.0477 24.8524 55.0477V49.0477ZM27.1657 47.9579C25.7947 48.8245 25.2946 49.0477 24.8524 49.0477V55.0477C27.3259 55.0477 29.3005 53.7067 30.3716 53.0297L27.1657 47.9579ZM28.4636 47.1717C27.9912 47.4352 27.5379 47.7227 27.1657 47.9579L30.3716 53.0297C30.7692 52.7783 31.0825 52.5812 31.3861 52.4119L28.4636 47.1717ZM31.5471 52.3153C31.6751 52.2331 31.843 52.1508 32.0668 52.0858L30.3934 46.3238C29.6231 46.5476 28.9248 46.8683 28.3027 47.2682L31.5471 52.3153ZM32.5173 46.0001C31.7107 45.9955 30.974 46.1375 30.3181 46.3468L32.1421 52.0628C32.3046 52.011 32.4102 51.9996 32.4829 52L32.5173 46.0001ZM32.5171 52C32.5898 51.9996 32.6954 52.011 32.8578 52.0628L34.6817 46.3468C34.026 46.1375 33.2896 45.9955 32.4831 46.0001L32.5171 52ZM36.6974 47.2683C36.0752 46.8683 35.3769 46.5475 34.6064 46.3238L32.9331 52.0858C33.157 52.1508 33.3249 52.2331 33.4529 52.3154L36.6974 47.2683ZM33.6139 52.4119C33.9176 52.5812 34.2308 52.7783 34.6284 53.0297L37.8343 47.9579C37.4622 47.7227 37.0088 47.4352 36.5364 47.1718L33.6139 52.4119ZM34.6284 53.0297C35.6995 53.7067 37.6741 55.0477 40.1476 55.0477V49.0477C39.7054 49.0477 39.2053 48.8245 37.8343 47.9579L34.6284 53.0297ZM40.1476 55.0477C42.5782 55.0477 44.6105 53.8626 45.8346 53.1921L42.9523 47.9298C41.454 48.7504 40.7799 49.0477 40.1476 49.0477V55.0477ZM45.8346 53.1921C47.341 52.367 48.0523 52.0477 48.7427 52.0477V46.0477C46.2601 46.0477 44.2005 47.2461 42.9523 47.9298L45.8346 53.1921ZM48.7427 52.0477C49.6845 52.0477 50.2645 52.3405 50.5684 52.6089C50.8605 52.8668 51 53.1803 51 53.5477H57C57 49.0513 53.1926 46.0477 48.7427 46.0477V52.0477ZM51 53.5477V54.0485H57V53.5477H51ZM51 54.0485V54.0477V60.0477C54.3127 60.0477 57 57.3632 57 54.0485H51ZM51 54.0477H27.8234V60.0477H51V54.0477ZM14 60.0477L27.8234 60.0477L27.8234 54.0477L14 54.0477L14 60.0477ZM8 54.0485C8 57.3632 10.6873 60.0477 14 60.0477V54.0477L14 54.0485H8ZM8 53.5477V54.0485H14V53.5477H8Z" fill="black" mask="url(#path-1-outside-1)"/>
<path fill-rule="evenodd" clip-rule="evenodd" d="M46 8.5C46 6.84315 44.6568 5.5 43 5.5H22C20.3431 5.5 19 6.84315 19 8.5C19 10.1569 20.3431 11.5 22 11.5H26.5C28.1569 11.5 29.5 12.8431 29.5 14.5V33.5C29.5 35.1569 30.8431 36.5 32.5 36.5C34.1569 36.5 35.5 35.1569 35.5 33.5V14.5C35.5 12.8431 36.8431 11.5 38.5 11.5H43C44.6568 11.5 46 10.1569 46 8.5Z" fill="#D27C2C"/>
<path d="M43 7C43.8284 7 44.5 7.67157 44.5 8.5H47.5C47.5 6.01472 45.4853 4 43 4V7ZM22 7H43V4H22V7ZM20.5 8.5C20.5 7.67157 21.1716 7 22 7V4C19.5147 4 17.5 6.01472 17.5 8.5H20.5ZM22 10C21.1716 10 20.5 9.32843 20.5 8.5H17.5C17.5 10.9853 19.5147 13 22 13V10ZM26.5 10H22V13H26.5V10ZM31 33.5V14.5H28V33.5H31ZM32.5 35C31.6716 35 31 34.3284 31 33.5H28C28 35.9853 30.0147 38 32.5 38V35ZM34 33.5C34 34.3284 33.3284 35 32.5 35V38C34.9853 38 37 35.9853 37 33.5H34ZM34 14.5V33.5H37V14.5H34ZM43 10H38.5V13H43V10ZM44.5 8.5C44.5 9.32843 43.8284 10 43 10V13C45.4853 13 47.5 10.9853 47.5 8.5H44.5ZM37 14.5C37 13.6716 37.6716 13 38.5 13V10C36.0147 10 34 12.0147 34 14.5H37ZM26.5 13C27.3284 13 28 13.6716 28 14.5H31C31 12.0147 28.9853 10 26.5 10V13Z" fill="black"/>
<path d="M19 29.5H46C46.8284 29.5 47.5 30.1716 47.5 31V40.8966C47.5 46.1974 45.2262 51.2436 41.2553 54.7551L40.7806 55.1749C36.0521 59.3564 28.9479 59.3564 24.2194 55.1749L23.7447 54.7551C19.7738 51.2436 17.5 46.1974 17.5 40.8966V31C17.5 30.1716 18.1716 29.5 19 29.5Z" fill="#FFF4D9" stroke="black" stroke-width="3"/>
<path d="M37 29.5C37 28.6716 36.3284 28 35.5 28C34.6716 28 34 28.6716 34 29.5H37ZM31 40.5V29.5H28V40.5H31ZM34 29.5V40.5H37V29.5H34ZM32.5 42C31.6716 42 31 41.3284 31 40.5H28C28 42.9853 30.0147 45 32.5 45V42ZM32.5 45C34.9853 45 37 42.9853 37 40.5H34C34 41.3284 33.3284 42 32.5 42V45Z" fill="black"/>
</g>
<defs>
<clipPath id="clip0">
<rect width="64" height="64" fill="white"/>
</clipPath>
</defs>
</svg>
