<svg width="240" height="240" viewBox="0 0 240 240" fill="none" xmlns="http://www.w3.org/2000/svg">
<path d="M59.6667 62.2508C61.375 62.8758 63.0417 63.5008 64.75 64.0841C78.125 68.5841 85.125 78.2508 84.2083 91.0841C83.4167 102.459 74.6667 111.167 60.7917 112.917C51.7917 114.084 46.9583 113.834 37.8333 114.084C36.7083 114.126 31.7917 114.334 30.1667 113.209C27.5 111.376 25.7917 104.709 26.4167 96.3341C26.75 91.7091 29.7917 90.5841 33.9167 90.7091C39.375 90.8758 44.8333 91.6674 50.2917 91.9174C53.5833 92.0841 58 91.8341 61.125 91.0008C63.0833 90.4591 65.7083 89.8758 65.8333 86.5008C65.9583 82.8341 64.25 81.6258 61.125 80.6258C58.9583 79.9174 55 80.0008 50.375 80.0008C43 80.2091 38.9583 79.1258 36.0833 76.2091C32.625 72.6674 32.0417 66.7924 34.75 59.2508C39.7083 45.5424 57.4167 38.9174 70.75 42.0008C74.625 42.9174 75.125 46.0424 74.9167 49.4591C74.625 53.9591 75.2917 55.7091 69.6667 56.7924C64.9167 57.7091 63.5417 58.0841 59.9167 59.7091C58.2083 60.5424 58.25 61.8758 59.6667 62.2508ZM33.2917 106.209C33.3333 106.709 33.75 107.042 34.2083 107.084C44.625 107.542 54.9583 108.001 65 105.001C73.5 102.459 77.875 96.9174 78 89.4174C78.1667 80.8341 73.2083 73.3341 65.375 70.5008C62.7917 69.5424 60.0417 69.0424 57.5 68.0424C52.7083 66.1258 51.9167 59.6674 56.25 56.7924C58.75 55.0841 60.5833 54.2924 65.375 53.3341C66.7083 53.0841 70.25 52.9174 70.0833 50.9174C70.125 49.5424 71 47.9591 65.2917 48.0008C60.375 48.0424 55.75 48.9174 51.9583 51.0008C47.2917 53.5841 43.9167 57.8758 42.2917 61.9591C39.3333 69.3341 41.2917 73.1674 49.0417 73.2508C55.125 73.2924 61.6667 72.8341 66.5417 76.9591C71.2083 80.9591 72.4167 86.1258 70.9167 91.7924C69.5417 97.0424 65.375 99.5424 60.2917 100.251C56.875 100.751 53.375 100.792 49.9167 100.542C44.4167 100.126 38.9167 99.3341 33 98.6258C32.75 98.5841 32.5 98.8341 32.5417 99.0841L33.2917 106.209Z" fill="black"/>
<path d="M111.167 61.1671C113.708 61.4587 118.708 61.7504 120.083 58.7087C120.917 56.8754 123.167 44.6254 124.375 41.3754C125.625 38.0421 125.75 33.3337 131.208 34.2087C137.458 35.2504 141 38.0421 140.708 43.0004C140.292 49.7504 139.375 56.5004 138.542 63.2087C137 75.5004 135.333 87.7921 133.792 100.084C132.75 108.334 130.25 110 122.917 110.209C117.25 110.375 115.375 107.459 115.542 103C115.833 95.0837 119 79.3337 116.958 78.9587C114.958 78.5837 112.708 78.6254 111.583 79.7921C110.625 80.7504 110.333 82.9587 110.083 84.6254C109.083 91.3337 108.417 98.0837 107.208 104.709C105.958 111.667 103.917 113.042 97.5418 112.209C91.2918 111.375 88.7084 108.625 89.2918 102.167C90.9584 84.3754 93.2084 66.6254 94.6667 48.8337C94.8751 46.2087 95.1668 43.7921 95.8751 41.2504C96.7501 38.2087 99.9167 37.2504 104.042 36.2504C109.083 35.0421 110.542 36.0004 110.583 41.4587C110.583 47.8337 110.583 54.1671 110.583 60.5421C110.5 60.9171 110.833 61.1254 111.167 61.1671ZM104.875 42.0837C100.667 42.3337 100.75 43.2921 100.667 47.0837C100.542 51.4171 100.292 55.2504 99.9584 58.8337C98.6251 73.1671 97.5834 86.6254 96.5834 101C96.3334 104.25 95.5001 106.167 98.7084 106.125C101.708 106.167 101.125 104.792 101.792 101.542C102.958 95.7087 103.875 89.8337 104.917 84.0004C106.25 76.7087 107.292 75.5004 114.417 74.0837C119.667 73.0421 122.958 73.9587 122.958 79.3754C123 86.1671 122.375 92.9171 122.208 99.7087C122.125 103.709 121.833 104.459 124 104.5C127.417 104.792 127.292 101.834 127.625 100.25C129.167 92.5004 130.417 84.6671 131.417 76.7921C132.75 66.2921 133.875 55.7921 134.75 45.2504C134.917 43.3754 136.167 39.4587 132.75 39.4587C131.625 39.4171 131.125 38.9171 130.25 42.0837C129.208 46.5837 129.042 48.9171 128.083 53.4171C126.917 58.7921 126.375 61.3754 124.208 63.6671C121.917 66.0837 119.292 66.7504 114.917 67.0837C110.917 67.4171 110.208 67.4587 107.083 67.0004C105.167 66.7087 105.083 64.2087 104.917 60.6671C104.708 54.6671 106.458 41.7087 104.875 42.0837Z" fill="black"/>
<path d="M152.667 152.959C151.708 162.293 150.875 171.168 149.792 179.959C149 186.543 148.125 193.084 146.792 199.584C145.625 205.209 143.208 206.584 137.5 206.001C136 205.834 134.542 205.709 133.083 205.376C127.125 204.084 125.333 202.168 125.875 196.126C126.75 186.418 128.208 176.751 129.292 167.043C129.917 161.501 130.375 155.918 130.917 150.084C128.75 149.751 127 149.501 125.25 149.251C119.208 148.376 118.167 144.668 118.292 139.793C118.5 132.543 120.042 130.251 126 130.001C137.25 129.501 148.542 129.376 159.792 129.043C163.667 128.918 165.125 131.459 165.542 134.626C166 138.251 166.042 141.918 166 145.543C165.917 150.751 164.042 152.584 158.792 152.876C156.833 153.043 154.833 152.959 152.667 152.959ZM139.917 199.793C140.417 199.918 140.917 199.584 141 199.043C141.833 193.834 144.958 170.334 146.5 158.751C147.167 153.709 147.333 149.543 148.667 147.959C150.125 146.251 151.125 146.918 156.625 146.709C159.292 146.626 159.292 146.626 159.667 145.293C160.333 142.418 160.333 134.626 158.75 135.168C148.292 135.168 138.167 135.168 128.083 135.168C126.958 135.168 125.875 135.168 124.792 135.168C123.708 142.668 124.167 143.251 131.042 143.626C134.958 143.834 138.583 144.959 137.958 151.084C137.167 158.751 137.167 166.459 136.417 174.126C135.667 181.793 134.5 189.418 133.458 197.209C133.375 197.834 133.792 198.459 134.417 198.584C136.208 199.043 138.167 199.376 139.917 199.793Z" fill="black"/>
<path d="M213.667 53.0419C213.25 60.8336 207.917 67.3336 199.75 71.8336C195.458 74.1669 195.25 75.3753 194.708 79.3753C193.833 85.7503 192.292 92.0003 190.75 98.2503C189.583 102.917 186.333 104.459 181.625 103.334C176.417 102.084 174.208 100 174.667 94.8336C175.917 80.9586 177.542 67.1669 179.042 53.3336C179.5 49.2086 180.125 45.1253 180.667 41.0003C181.333 36.0003 182.292 33.4169 187.083 32.6253C201.458 30.2086 213.667 38.2919 213.667 53.0419ZM187.5 38.5419C186.583 48.1669 185.792 56.7086 184.833 65.5836C183.833 74.9586 182.583 84.2919 181.708 93.6669C181.583 95.0003 181.042 98.1253 183.292 97.8336C185.667 97.8336 185.792 95.7086 186.042 94.4586C187.125 89.2919 188.208 83.2919 189.25 78.1253C190.708 71.1253 190.5 68.4169 197 65.7919C204.583 62.7503 208.125 54.5003 206.25 47.9169C204.458 41.5419 200.167 37.6669 190.125 38.3336C189.292 38.4586 188.458 38.5003 187.5 38.5419Z" fill="black"/>
<path d="M78.375 197.792C80.9583 179.959 83.4167 162.125 86.2083 144.292C87.25 137.709 94.4167 135.625 103.25 138C105.75 138.667 105.958 142.459 105.708 144.542C103.333 162.584 100.708 180.584 97.8333 198.542C96.6667 205.709 93.9583 207.917 88.4167 207.792C80.6667 207.625 77.625 206.542 78.375 197.792ZM84.1667 201.959C88.0417 202.959 90.125 202.917 90.6667 201.667C91.8333 198.917 95.25 173.375 96.875 162.25C97.75 156.042 98.5 149.834 99.2917 143.5C99.3333 143.334 99.1667 143.167 99 143.167H93.4167C93.125 143.167 92.875 143.375 92.7917 143.667C90.8333 154.334 88.5 167.667 86.75 178.875C84.7083 191.792 82.4583 201.459 84.1667 201.959Z" fill="black"/>
<path d="M159.417 95.0003C158.792 98.2919 157.333 103.25 153.667 103.917C146.667 105.167 141.125 101.917 142 94.7086C143.917 78.6669 146.292 62.6253 148.708 46.6253C149.458 41.5836 151.875 40.5419 158.417 41.3753C163.25 42.0003 165.583 44.6669 165.292 49.3336C165.167 51.1669 161.875 81.7086 159.417 95.0003ZM155.292 46.9586C153.167 46.3753 151.625 64.4586 150.542 72.9586C149.542 80.5003 148.458 87.8753 148.417 95.4586C148.417 97.8336 148.292 99.3753 150.042 99.3753C151.875 99.4586 152.292 99.0836 153.167 96.1669C153.417 95.2503 153.708 94.2919 153.833 93.2919C155.583 79.2086 157.208 65.0836 159.125 51.0003C159.583 47.3753 159.167 47.2919 155.292 46.9586Z" fill="black"/>
<path d="M169.583 187.375C169.75 178.834 175.375 176.167 180.042 176.209C188.458 176.209 192.167 181 192.125 188.417C192.125 194.876 187.25 199.876 180.958 199.876C174.708 199.834 169.458 194.126 169.583 187.375ZM179.917 182.584C179.333 182.667 178.375 182.459 177.375 183.334C176.375 184.209 175.958 186.834 176.042 187.875C176.333 191.625 177.875 192.459 180.333 192.459C183.167 192.459 184.792 189.584 184.792 188C184.792 184.125 183.667 182.584 179.917 182.584Z" fill="black"/>
<path d="M191.208 55.2925C191.292 54.0425 191.792 50.1675 191.875 49.5841C192.333 46.6258 192.875 45.8758 193.917 45.4591C194.708 45.1675 195.875 45.0008 196.375 46.0008C197.542 48.2925 196.667 55.4175 195.75 57.6258C195.208 58.8758 194.542 59.1675 193.417 59.2508C190.667 59.5425 191.125 56.5425 191.208 55.2925Z" fill="black"/>
</svg>
