<svg width="128" height="123" viewBox="0 0 128 123" fill="none" xmlns="http://www.w3.org/2000/svg">
<g clip-path="url(#clip0)">
<path d="M108.731 91.8711H19.3288C12.9883 91.8711 7.84821 97.0111 7.84821 103.352C7.84821 109.692 12.9883 114.832 19.3288 114.832H108.731C115.071 114.832 120.211 109.692 120.211 103.352C120.211 97.0111 115.071 91.8711 108.731 91.8711Z" fill="white" stroke="white" stroke-width="15.5466" stroke-linecap="round" stroke-linejoin="round"/>
<path d="M120.211 56.8304H120.207C120.207 56.7846 120.211 56.7392 120.211 56.6934C120.203 54.2033 119.445 51.7735 118.034 49.7216C116.624 47.6696 114.627 46.0909 112.305 45.1918C114.627 44.2928 116.624 42.7141 118.034 40.6622C119.445 38.6102 120.203 36.1804 120.211 33.6904H120.204C120.206 33.599 120.211 33.5091 120.211 33.4163C120.201 30.0763 118.87 26.876 116.508 24.5143C114.147 22.1526 110.946 20.8214 107.606 20.8117H78.2668V10.7377C78.2668 9.98929 77.9694 9.27152 77.4401 8.7423C76.9109 8.21309 76.1931 7.91579 75.4446 7.91579H50.0957C49.3472 7.91579 48.6295 8.2131 48.1002 8.74232C47.571 9.27154 47.2737 9.98932 47.2737 10.7377V20.8117H20.4525C17.1126 20.8214 13.9122 22.1526 11.5505 24.5143C9.1888 26.876 7.85768 30.0763 7.8479 33.4163V33.4163C7.8479 33.5083 7.85308 33.599 7.85516 33.6904H7.8479C7.85555 36.1804 8.6142 38.6101 10.0247 40.662C11.4352 42.714 13.4319 44.2927 15.7538 45.1918C13.4319 46.0909 11.4353 47.6696 10.0248 49.7216C8.6143 51.7735 7.85563 54.2032 7.8479 56.6931V56.6931C7.8479 56.739 7.85101 56.7843 7.85153 56.8302H7.8479C7.85551 59.3521 8.63332 61.8116 10.0772 63.8793C11.5211 65.9471 13.5622 67.5244 15.9272 68.4002C13.5621 69.2759 11.521 70.8532 10.0771 72.921C8.63322 74.9887 7.85544 77.4482 7.8479 79.9702V79.9702C7.84881 80.7281 7.92002 81.4843 8.06063 82.2291C8.09172 82.3953 8.12627 82.5601 8.16427 82.7235C8.34109 83.4921 8.59196 84.2417 8.91336 84.9619C9.43994 86.1406 10.1472 87.2298 11.0096 88.1904C11.0331 88.2164 11.0562 88.2423 11.08 88.2697C12.2812 89.5861 13.7514 90.6288 15.3908 91.3272C16.905 91.9704 18.5335 92.3014 20.1787 92.3002H107.88C108.092 92.3002 108.303 92.2948 108.512 92.2841C110.787 92.1599 112.983 91.4106 114.859 90.1187C116.735 88.8268 118.218 87.0424 119.145 84.9619C119.467 84.2416 119.719 83.4917 119.896 82.7227C119.934 82.5591 119.968 82.3943 120 82.2283C120.141 81.4836 120.212 80.7273 120.212 79.9694V79.9694C120.205 77.4475 119.427 74.988 117.983 72.9202C116.54 70.8525 114.498 69.2752 112.133 68.3994C114.498 67.5234 116.539 65.9461 117.982 63.8786C119.426 61.8111 120.203 59.352 120.211 56.8304Z" fill="white" stroke="white" stroke-width="15.5466" stroke-linecap="round" stroke-linejoin="round"/>
<path d="M107.881 44.2714H20.1786C13.3687 44.2714 7.84814 49.792 7.84814 56.6019C7.84814 63.4119 13.3687 68.9324 20.1786 68.9324H107.881C114.691 68.9324 120.211 63.4119 120.211 56.6019C120.211 49.792 114.691 44.2714 107.881 44.2714Z" fill="#F7AC00"/>
<path d="M107.881 67.5482H20.1786C13.3687 67.5482 7.84814 73.0688 7.84814 79.8787C7.84814 86.6887 13.3687 92.2092 20.1786 92.2092H107.881C114.691 92.2092 120.211 86.6887 120.211 79.8787C120.211 73.0688 114.691 67.5482 107.881 67.5482Z" fill="#F7AC00"/>
<path d="M7.8479 79.879C7.85754 83.1463 9.15977 86.2771 11.4702 88.5874C13.7805 90.8978 16.9113 92.1999 20.1787 92.2095H107.88C111.148 92.1999 114.278 90.8977 116.589 88.5874C118.899 86.2771 120.201 83.1463 120.211 79.879H7.8479Z" fill="#F79A0D"/>
<path d="M7.8479 56.739C7.85754 60.0063 9.15977 63.1371 11.4702 65.4474C13.7805 67.7577 16.9113 69.0599 20.1787 69.0695H107.88C111.148 69.0599 114.278 67.7577 116.589 65.4474C118.899 63.137 120.201 60.0063 120.211 56.739H7.8479Z" fill="#F79A0D"/>
<path d="M107.607 20.7202H20.4535C13.4922 20.7202 7.84888 26.3635 7.84888 33.3248C7.84888 40.2862 13.4922 45.9295 20.4535 45.9295H107.607C114.569 45.9295 120.212 40.2862 120.212 33.3248C120.212 26.3635 114.569 20.7202 107.607 20.7202Z" fill="#F7AC00"/>
<path d="M7.8479 33.599C7.85754 36.8663 9.15977 39.9971 11.4702 42.3074C13.7805 44.6177 16.9113 45.9199 20.1787 45.9295H107.88C111.148 45.9199 114.278 44.6177 116.589 42.3074C118.899 39.997 120.201 36.8663 120.211 33.599H7.8479Z" fill="#F79A0D"/>
<path d="M50.0957 7.8251H75.4446C76.1931 7.8251 76.9108 8.12242 77.44 8.65164C77.9693 9.18086 78.2666 9.89863 78.2666 10.6471V20.7202H47.2737V10.6463C47.2739 9.89799 47.5713 9.18041 48.1005 8.65136C48.6297 8.12231 49.3474 7.8251 50.0957 7.8251V7.8251Z" fill="#F6CC00"/>
<path d="M55.9238 20.7202H27.4197V56.2601C27.4197 58.3331 28.2432 60.3211 29.709 61.7869C31.1748 63.2527 33.1628 64.0762 35.2358 64.0762C37.1801 64.079 39.0552 63.3544 40.4923 62.0448V73.2349C40.4923 74.2613 40.6945 75.2777 41.0873 76.226C41.4801 77.1743 42.0558 78.0359 42.7816 78.7617C43.5074 79.4875 44.369 80.0632 45.3173 80.456C46.2656 80.8488 47.2819 81.051 48.3084 81.051C49.3348 81.051 50.3511 80.8488 51.2994 80.456C52.2477 80.0632 53.1093 79.4875 53.8351 78.7617C54.5609 78.0359 55.1366 77.1743 55.5294 76.226C55.9222 75.2777 56.1244 74.2613 56.1244 73.2349V58.9184C56.7735 59.6175 57.5601 60.175 58.4347 60.5559C59.3094 60.9368 60.2533 61.1329 61.2073 61.1319V61.1319C62.1197 61.1319 63.0231 60.9522 63.8659 60.6031C64.7088 60.254 65.4747 59.7422 66.1198 59.0971C66.7649 58.452 67.2766 57.6862 67.6258 56.8433C67.9749 56.0004 68.1546 55.097 68.1546 54.1847V20.7202H55.9238Z" fill="#9C0900"/>
<path d="M81.1512 58.7561C83.9487 61.5536 87.7429 63.1252 91.6991 63.1252C95.6553 63.1252 99.4494 61.5536 102.247 58.7561" stroke="#292929" stroke-width="2.59109" stroke-miterlimit="10" stroke-linecap="round"/>
<path d="M86.1901 55.246C87.617 55.246 88.7737 54.0893 88.7737 52.6624C88.7737 51.2355 87.617 50.0788 86.1901 50.0788C84.7632 50.0788 83.6065 51.2355 83.6065 52.6624C83.6065 54.0893 84.7632 55.246 86.1901 55.246Z" fill="#292929"/>
<path d="M97.1439 55.246C98.5708 55.246 99.7275 54.0893 99.7275 52.6624C99.7275 51.2355 98.5708 50.0788 97.1439 50.0788C95.717 50.0788 94.5603 51.2355 94.5603 52.6624C94.5603 54.0893 95.717 55.246 97.1439 55.246Z" fill="#292929"/>
<path d="M31.4781 47.4652V29.9017" stroke="#FAE4D4" stroke-width="2.59109" stroke-linecap="round" stroke-linejoin="round"/>
<path d="M44.1263 73.0916C44.1263 75.5532 45.774 77.3117 47.7875 77.3117" stroke="#FAE4D4" stroke-width="2.59109" stroke-linecap="round" stroke-linejoin="round"/>
<path d="M31.4781 53.2192V54.9213" stroke="#FAE4D4" stroke-width="2.59109" stroke-linecap="round" stroke-linejoin="round"/>
<path d="M64.584 20.7202V55.3064C64.584 58.1871 61.3732 60.5893 58.5186 60.5893C59.3696 60.948 60.2838 61.1325 61.2073 61.1319V61.1319C62.1197 61.1319 63.023 60.9522 63.8659 60.6031C64.7088 60.254 65.4747 59.7422 66.1198 59.0971C66.7649 58.452 67.2766 57.6862 67.6257 56.8433C67.9749 56.0004 68.1546 55.097 68.1546 54.1847V20.7202H64.584Z" fill="#824B00"/>
<path d="M104.904 37.6478C107.291 37.6478 109.226 35.7123 109.226 33.3248C109.226 30.9373 107.291 29.0018 104.904 29.0018C102.516 29.0018 100.581 30.9373 100.581 33.3248C100.581 35.7123 102.516 37.6478 104.904 37.6478Z" stroke="#F79A0D" stroke-width="2.59109" stroke-miterlimit="10"/>
<path d="M17.2725 77.3117C17.7911 77.3117 18.2115 76.8913 18.2115 76.3727C18.2115 75.8541 17.7911 75.4337 17.2725 75.4337C16.7539 75.4337 16.3335 75.8541 16.3335 76.3727C16.3335 76.8913 16.7539 77.3117 17.2725 77.3117Z" stroke="#F79A0D" stroke-width="2.59109" stroke-miterlimit="10"/>
<path d="M18.2115 29.0018C18.7056 29.0018 19.1062 28.6013 19.1062 28.1071C19.1062 27.613 18.7056 27.2124 18.2115 27.2124C17.7173 27.2124 17.3168 27.613 17.3168 28.1071C17.3168 28.6013 17.7173 29.0018 18.2115 29.0018Z" stroke="#F79A0D" stroke-width="2.59109" stroke-miterlimit="10"/>
<path d="M70.3303 72.9351C72.6855 72.9351 74.5947 71.0259 74.5947 68.6707C74.5947 66.3155 72.6855 64.4063 70.3303 64.4063C67.9751 64.4063 66.0659 66.3155 66.0659 68.6707C66.0659 71.0259 67.9751 72.9351 70.3303 72.9351Z" stroke="#F79A0D" stroke-width="2.59109" stroke-miterlimit="10"/>
<path d="M107.881 44.2714H20.1786C13.3687 44.2714 7.84814 49.792 7.84814 56.6019C7.84814 63.4119 13.3687 68.9324 20.1786 68.9324H107.881C114.691 68.9324 120.211 63.4119 120.211 56.6019C120.211 49.792 114.691 44.2714 107.881 44.2714Z" fill="#F7AC00"/>
<path d="M107.881 67.5482H20.1786C13.3687 67.5482 7.84814 73.0688 7.84814 79.8787C7.84814 86.6887 13.3687 92.2092 20.1786 92.2092H107.881C114.691 92.2092 120.211 86.6887 120.211 79.8787C120.211 73.0688 114.691 67.5482 107.881 67.5482Z" fill="#F7AC00"/>
<path d="M7.8479 79.879C7.85754 83.1463 9.15977 86.2771 11.4702 88.5874C13.7805 90.8978 16.9113 92.1999 20.1787 92.2095H107.88C111.148 92.1999 114.278 90.8977 116.589 88.5874C118.899 86.2771 120.201 83.1463 120.211 79.879H7.8479Z" fill="url(#paint0_linear)"/>
<path d="M7.8479 56.739C7.85754 60.0063 9.15977 63.1371 11.4702 65.4474C13.7805 67.7577 16.9113 69.0599 20.1787 69.0695H107.88C111.148 69.0599 114.278 67.7577 116.589 65.4474C118.899 63.137 120.201 60.0063 120.211 56.739H7.8479Z" fill="url(#paint1_linear)"/>
<path d="M107.607 20.7202H20.4535C13.4922 20.7202 7.84888 26.3635 7.84888 33.3248C7.84888 40.2862 13.4922 45.9295 20.4535 45.9295H107.607C114.569 45.9295 120.212 40.2862 120.212 33.3248C120.212 26.3635 114.569 20.7202 107.607 20.7202Z" fill="#F7AC00"/>
<path d="M7.8479 33.599C7.85754 36.8663 9.15977 39.9971 11.4702 42.3074C13.7805 44.6177 16.9113 45.9199 20.1787 45.9295H107.88C111.148 45.9199 114.278 44.6177 116.589 42.3074C118.899 39.997 120.201 36.8663 120.211 33.599H7.8479Z" fill="url(#paint2_linear)"/>
<path d="M50.0957 7.8251H75.4446C76.1931 7.8251 76.9108 8.12242 77.44 8.65164C77.9693 9.18086 78.2666 9.89863 78.2666 10.6471V20.7202H47.2737V10.6463C47.2739 9.89799 47.5713 9.18041 48.1005 8.65136C48.6297 8.12231 49.3474 7.8251 50.0957 7.8251V7.8251Z" fill="#F6CC00"/>
<path d="M55.9238 20.7202H31.5655C29.2759 20.7202 27.4197 22.5763 27.4197 24.8659V56.2601C27.4197 58.3331 28.2432 60.3211 29.709 61.7869C31.1748 63.2527 33.1628 64.0762 35.2358 64.0762C37.1801 64.079 39.0552 63.3544 40.4923 62.0448V73.2349C40.4923 74.2613 40.6945 75.2777 41.0873 76.226C41.4801 77.1743 42.0558 78.0359 42.7816 78.7617C43.5074 79.4875 44.369 80.0632 45.3173 80.456C46.2656 80.8488 47.2819 81.051 48.3084 81.051C49.3348 81.051 50.3511 80.8488 51.2994 80.456C52.2477 80.0632 53.1093 79.4875 53.8351 78.7617C54.5609 78.0359 55.1366 77.1743 55.5294 76.226C55.9222 75.2777 56.1244 74.2613 56.1244 73.2349V58.9184C56.7735 59.6175 57.5601 60.175 58.4347 60.5559C59.3094 60.9368 60.2533 61.1329 61.2073 61.1319C62.1197 61.1319 63.0231 60.9522 63.8659 60.6031C64.7088 60.254 65.4747 59.7422 66.1198 59.0971C66.7649 58.452 67.2766 57.6862 67.6258 56.8433C67.9749 56.0004 68.1546 55.097 68.1546 54.1847V20.7202H55.9238Z" fill="#942637"/>
<path d="M81.1512 58.7561C83.9487 61.5536 87.7429 63.1252 91.6991 63.1252C95.6553 63.1252 99.4494 61.5536 102.247 58.7561" stroke="#292929" stroke-width="2.59109" stroke-miterlimit="10" stroke-linecap="round"/>
<path d="M86.1901 55.246C87.617 55.246 88.7737 54.0893 88.7737 52.6624C88.7737 51.2355 87.617 50.0788 86.1901 50.0788C84.7632 50.0788 83.6065 51.2355 83.6065 52.6624C83.6065 54.0893 84.7632 55.246 86.1901 55.246Z" fill="#292929"/>
<path d="M97.1439 55.246C98.5708 55.246 99.7275 54.0893 99.7275 52.6624C99.7275 51.2355 98.5708 50.0788 97.1439 50.0788C95.717 50.0788 94.5603 51.2355 94.5603 52.6624C94.5603 54.0893 95.717 55.246 97.1439 55.246Z" fill="#292929"/>
<path d="M31.4781 47.4652V29.9017" stroke="#FAE4D4" stroke-width="2.59109" stroke-linecap="round" stroke-linejoin="round"/>
<path d="M44.1263 73.0916C44.1263 75.5532 45.774 77.3117 47.7875 77.3117" stroke="#FAE4D4" stroke-width="2.59109" stroke-linecap="round" stroke-linejoin="round"/>
<path d="M31.4781 53.2192V54.9213" stroke="#FAE4D4" stroke-width="2.59109" stroke-linecap="round" stroke-linejoin="round"/>
<path d="M64.584 20.7202V55.3064C64.584 58.1871 61.3732 60.5893 58.5186 60.5893C59.3696 60.948 60.2838 61.1325 61.2073 61.1319V61.1319C62.1197 61.1319 63.023 60.9522 63.8659 60.6031C64.7088 60.254 65.4747 59.7422 66.1198 59.0971C66.7649 58.452 67.2766 57.6862 67.6257 56.8433C67.9749 56.0004 68.1546 55.097 68.1546 54.1847V20.7202H64.584Z" fill="url(#paint3_linear)"/>
<path d="M109.226 33.5839C109.226 31.1964 107.291 29.261 104.904 29.261C102.516 29.261 100.581 31.1964 100.581 33.5839" stroke="#F79A0D" stroke-width="2.59109" stroke-miterlimit="10"/>
<path d="M17.2725 77.3117C17.7911 77.3117 18.2115 76.8913 18.2115 76.3727C18.2115 75.8541 17.7911 75.4337 17.2725 75.4337C16.7539 75.4337 16.3335 75.8541 16.3335 76.3727C16.3335 76.8913 16.7539 77.3117 17.2725 77.3117Z" stroke="#F79A0D" stroke-width="2.59109" stroke-miterlimit="10"/>
<path d="M18.2115 29.0018C18.7056 29.0018 19.1062 28.6013 19.1062 28.1071C19.1062 27.613 18.7056 27.2124 18.2115 27.2124C17.7173 27.2124 17.3168 27.613 17.3168 28.1071C17.3168 28.6013 17.7173 29.0018 18.2115 29.0018Z" stroke="#F79A0D" stroke-width="2.59109" stroke-miterlimit="10"/>
<path d="M70.3303 72.9351C72.6855 72.9351 74.5947 71.0259 74.5947 68.6707C74.5947 66.3155 72.6855 64.4063 70.3303 64.4063C67.9751 64.4063 66.0659 66.3155 66.0659 68.6707C66.0659 71.0259 67.9751 72.9351 70.3303 72.9351Z" stroke="#F79A0D" stroke-width="2.59109" stroke-miterlimit="10"/>
<path d="M13.4046 101.382C13.4046 98.9223 15.7695 95.8704 20.3592 95.8704C21.8733 95.8704 23.5776 96.5337 23.9316 96.5337C24.2619 96.5337 24.5949 96.2034 25.0916 96.2034C25.8949 96.2034 27.6943 98.0239 27.6943 100.011C27.6943 100.814 27.1738 101.62 26.2992 101.62C24.7138 101.62 23.7916 98.9223 21.3316 98.9223C20.597 98.9223 19.8176 99.2526 19.8176 100.106C19.8176 101.974 23.057 101.477 25.8024 103.301C27.2689 104.27 28.0035 105.454 28.0035 107.227C28.0035 109.994 25.7337 113.117 20.2218 113.117C18.6602 113.117 15.9888 112.715 14.6386 111.981C13.4998 111.341 12.9554 108.834 12.9554 107.626C12.9554 106.987 13.2382 106.35 13.949 106.35C15.6295 106.35 15.3441 110.11 19.696 110.11C20.2165 110.11 21.5166 109.851 21.5166 108.95C21.5166 107.246 18.2771 107.674 15.6506 105.568C14.3506 104.529 13.4046 103.084 13.4046 101.382Z" fill="#F6CC00"/>
<path d="M36.1603 107.674C36.1603 109.259 36.8235 109.637 37.4603 109.637C38.1923 109.637 38.6203 109.093 39.0457 109.093C39.5187 109.093 39.849 109.756 39.849 110.181C39.849 111.743 37.1512 113.114 34.7625 113.114C33.555 113.114 30.5295 112.594 30.5295 108.834V103.961C30.5295 103.536 30.5295 103.369 30.4106 103.298C30.2917 103.227 30.0328 103.274 29.4885 103.274C28.8728 103.274 28.5663 103.298 28.4474 103.179C28.2809 103.013 28.3285 102.777 28.3285 102.233C28.3285 101.903 28.2571 101.641 28.5425 101.454L33.9381 98.0239C34.4825 97.6936 34.4587 97.7623 35.1668 97.7623C36.1128 97.7623 36.1603 97.6672 36.1603 98.7558C36.1603 99.4878 36.1128 100.222 36.2317 100.505C36.303 100.695 36.4668 100.695 37.0825 100.695H38.7392C39.7565 100.695 39.7565 100.767 39.7565 101.831C39.7565 103.179 39.5901 103.274 38.6679 103.274H37.0349C36.2079 103.274 36.1603 103.298 36.1603 104.149V107.674Z" fill="#F6CC00"/>
<path d="M52.363 107.129C52.363 111.294 53.782 109.021 53.782 110.3C53.782 111.648 51.9376 113.114 50.2096 113.114C48.3414 113.114 48.2939 111.907 47.702 111.907C47.4193 111.907 47.1101 112.213 46.5896 112.499C46.069 112.805 45.3582 113.114 44.2723 113.114C42.309 113.114 40.3458 112.073 40.3458 109.732C40.3458 108.052 41.9549 105.972 46.1166 105.972C46.8512 105.972 47.1814 106.02 47.1814 105.169C47.1814 104.387 47.1577 102.756 46.069 102.756C44.6501 102.756 44.5074 105.311 42.4015 105.311C41.6431 105.311 41.0777 104.767 41.0777 104.011C41.0777 102.001 45.0755 100.701 47.3215 100.701C48.6691 100.701 52.3604 101.221 52.3604 104.77V107.129H52.363ZM45.2684 109.212C45.2684 109.827 45.5987 110.488 46.2857 110.488C47.1841 110.488 47.2554 109.518 47.2554 108.807C47.2554 108.287 47.2792 107.695 46.616 107.695C45.8101 107.697 45.2684 108.456 45.2684 109.212Z" fill="#F6CC00"/>
<path d="M61.4474 100.695C64.996 100.695 66.8642 102.659 66.8642 104.315C66.8642 105.639 65.8706 106.656 64.5468 106.656C61.9917 106.656 63.1755 103.723 61.3074 103.723C60.2663 103.723 59.6982 104.788 59.6982 105.734C59.6982 107.483 60.9982 109.259 62.869 109.259C64.3592 109.259 64.856 108.643 65.3527 108.643C65.9922 108.643 66.4176 109.354 66.4176 109.92C66.4176 111.315 64.2879 113.112 60.9771 113.112C57.4046 113.112 54.5192 110.485 54.5192 106.868C54.5166 103.464 57.4733 100.695 61.4474 100.695Z" fill="#F6CC00"/>
<path d="M75.8982 109.188C75.8031 109.045 75.235 108.242 74.9998 108.242C74.7382 108.242 74.762 108.762 74.762 108.905C74.6907 111.011 75.7317 110.3 75.7317 111.413C75.7317 112.076 75.5653 113.046 71.8766 113.046C69.9371 113.046 67.7361 113.117 67.7361 111.555C67.7361 110.419 68.9912 111.249 69.0599 109.262C69.1312 107.605 69.2501 105.359 69.2501 104.318V100.936C69.2501 99.0201 67.4296 100.296 67.4296 98.9488C67.4296 97.3634 72.775 96.206 74.0301 96.206C74.6695 96.206 74.7171 96.5839 74.6933 97.1044L74.5744 102.12C74.5268 103.634 74.5268 104.225 75.0949 104.225C75.4728 104.225 76.9868 103.422 76.9868 103.065C76.9868 102.735 76.5139 102.545 76.5139 102.072C76.5139 100.841 78.9263 100.772 79.7534 100.772C80.7231 100.772 83.302 100.796 83.302 102.262C83.302 103.327 82.4274 102.83 81.0085 103.705C80.7733 103.824 79.8485 104.297 79.8485 104.58C79.8485 105.171 82.615 108.577 83.0668 109.122C84.1317 110.445 85.4317 110.422 85.4317 111.415C85.4317 112.15 84.8874 112.787 83.0668 112.787H79.7322C78.7863 112.787 78.6674 112.739 78.0993 112.007L75.8982 109.188Z" fill="#F6CC00"/>
<path d="M91.6756 107.343C91.4166 107.343 91.0361 107.272 91.0361 107.674C91.0361 108.857 92.5739 109.851 93.6864 109.851C95.4594 109.851 96.3366 108.786 96.8334 108.786C97.3301 108.786 97.7555 109.521 97.7555 109.97C97.7555 111.79 94.4209 113.117 92.2912 113.117C88.0344 113.117 85.8334 110.041 85.8334 106.989C85.8334 103.346 88.9328 100.698 92.4815 100.698C96.5031 100.698 98.2761 103.797 98.2761 105.57C98.2761 107.132 97.5653 107.343 96.8096 107.343H91.6756ZM93.7339 104.363C93.7339 103.512 93.2134 102.849 92.3388 102.849C91.5593 102.849 90.9198 103.652 90.9198 104.41C90.9198 105.261 91.7231 105.074 92.3388 105.074C92.9782 105.071 93.7339 105.214 93.7339 104.363Z" fill="#F6CC00"/>
<path d="M113.274 108.786C113.274 110.443 114.526 109.899 114.526 111.127C114.526 112.924 109.345 113.043 109.086 113.043C107.878 113.043 108.732 111.743 107.95 111.743C107.736 111.743 107.381 112.073 106.837 112.43C106.293 112.76 105.561 113.117 104.52 113.117C101.42 113.117 99.008 109.83 99.008 106.918C99.008 103.771 101.563 100.698 104.826 100.698C106.459 100.698 107.381 101.409 107.64 101.409C107.994 101.409 108.018 100.629 108.018 100.368C108.018 98.9012 106.29 99.6807 106.29 98.4044C106.29 96.6552 112.323 96.2034 112.394 96.2034C113.105 96.2034 113.269 96.7001 113.269 97.4796V108.786H113.274ZM106.673 103.274C105.088 103.274 104.805 105.993 104.805 107.106C104.805 108.218 105.088 110.157 106.554 110.157C108.14 110.157 108.045 107.248 108.045 106.207C108.045 105.285 108.045 103.274 106.673 103.274Z" fill="#F6CC00"/>
</g>
<defs>
<linearGradient id="paint0_linear" x1="64.0294" y1="79.879" x2="64.0294" y2="92.2095" gradientUnits="userSpaceOnUse">
<stop stop-color="#F79A0D"/>
<stop offset="1" stop-color="#F79A0D" stop-opacity="0"/>
</linearGradient>
<linearGradient id="paint1_linear" x1="64.0294" y1="56.739" x2="64.0294" y2="69.0695" gradientUnits="userSpaceOnUse">
<stop stop-color="#F79A0D"/>
<stop offset="1" stop-color="#F79A0D" stop-opacity="0"/>
</linearGradient>
<linearGradient id="paint2_linear" x1="64.0294" y1="33.599" x2="64.0294" y2="45.9295" gradientUnits="userSpaceOnUse">
<stop stop-color="#F79A0D"/>
<stop offset="1" stop-color="#F79A0D" stop-opacity="0"/>
</linearGradient>
<linearGradient id="paint3_linear" x1="63.3366" y1="20.7202" x2="63.3366" y2="61.1319" gradientUnits="userSpaceOnUse">
<stop stop-color="#942637"/>
<stop offset="1" stop-color="#611802"/>
</linearGradient>
<clipPath id="clip0">
<rect width="128" height="122.818" fill="white"/>
</clipPath>
</defs>
</svg>
