<svg width="128" height="149" viewBox="0 0 128 149" fill="none" xmlns="http://www.w3.org/2000/svg">
<path d="M82.1088 148.498C75.1992 148.498 69.3837 143.892 67.5412 137.616H45.5456C20.4408 137.616 0 117.175 0 92.0702L0 19.865C0 8.92488 8.92487 0 19.865 0L47.5609 0C58.5011 0 67.426 8.92488 67.426 19.865V70.1898H67.7139C69.7292 64.2015 75.4296 59.883 82.1088 59.883C85.9667 59.883 89.6518 61.3801 92.5308 64.0288L123.278 93.1642C126.273 96.0432 128 100.016 128 104.162C128 108.308 126.273 112.338 123.278 115.16L92.5308 144.295C89.6518 147.001 85.9667 148.498 82.1088 148.498Z" fill="white"/>
<path d="M117.06 99.6707L86.3122 70.5353C82.3392 66.735 75.775 69.5565 75.775 75.0841V79.1147H58.5011V19.865C58.5011 13.8192 53.6068 8.92487 47.5609 8.92487H19.865C13.8192 8.92487 8.92487 13.8192 8.92487 19.865V92.0702C8.92487 112.281 25.3351 128.691 45.5456 128.691H58.5011H75.775V133.297C75.775 138.767 82.3392 141.589 86.3122 137.846L117.06 108.711C119.651 106.292 119.651 102.147 117.06 99.6707Z" fill="#4BC17E"/>
<path d="M111.244 101.341L86.1394 75.7175C84.2393 73.7598 80.8997 75.1417 80.8997 77.848V84.4697L52.6855 85.1606V22.6289C52.6855 18.6559 49.4611 15.4314 45.4881 15.4314H22.2258C18.2528 15.4314 15.0283 18.6559 15.0283 22.6289V91.7823C15.0283 108.826 28.9627 122.53 45.9487 122.3L66.6199 122.012H80.8421V129.036C80.8421 131.8 84.1817 133.125 86.0818 131.167L111.187 105.544C112.453 104.392 112.453 102.492 111.244 101.341Z" fill="#010101"/>
<path d="M33.5691 41.0544C40.2472 41.0544 45.6608 35.6408 45.6608 28.9627C45.6608 22.2846 40.2472 16.8709 33.5691 16.8709C26.891 16.8709 21.4773 22.2846 21.4773 28.9627C21.4773 35.6408 26.891 41.0544 33.5691 41.0544Z" fill="#FF77E6"/>
<path d="M33.5691 57.8102C40.2472 57.8102 45.6608 52.3965 45.6608 45.7184C45.6608 39.0403 40.2472 33.6267 33.5691 33.6267C26.891 33.6267 21.4773 39.0403 21.4773 45.7184C21.4773 52.3965 26.891 57.8102 33.5691 57.8102Z" fill="#FF77E6"/>
<path d="M33.5691 76.9267C40.2472 76.9267 45.6608 71.513 45.6608 64.8349C45.6608 58.1568 40.2472 52.7431 33.5691 52.7431C26.891 52.7431 21.4773 58.1568 21.4773 64.8349C21.4773 71.513 26.891 76.9267 33.5691 76.9267Z" fill="#FF77E6"/>
<path d="M33.5691 94.5461C40.2472 94.5461 45.6608 89.1324 45.6608 82.4543C45.6608 75.7762 40.2472 70.3625 33.5691 70.3625C26.891 70.3625 21.4773 75.7762 21.4773 82.4543C21.4773 89.1324 26.891 94.5461 33.5691 94.5461Z" fill="#FF77E6"/>
<path d="M33.5691 110.956C40.2472 110.956 45.6608 105.543 45.6608 98.8646C45.6608 92.1865 40.2472 86.7728 33.5691 86.7728C26.891 86.7728 21.4773 92.1865 21.4773 98.8646C21.4773 105.543 26.891 110.956 33.5691 110.956Z" fill="#FF77E6"/>
<path d="M38.6726 28.8424C38.7427 29.0386 38.7917 29.2628 38.8197 29.515C38.8617 29.7531 38.8828 29.9983 38.8828 30.2505C38.8828 30.5027 38.8617 30.7549 38.8197 31.0071C38.7917 31.2453 38.7497 31.4554 38.6936 31.6375C38.4695 32.4221 38.0211 33.0806 37.3486 33.613C36.6761 34.1314 35.9055 34.5097 35.0369 34.7479C34.1822 34.9861 33.2926 35.0701 32.3679 35.0001C31.4572 34.93 30.6446 34.6988 29.93 34.3065C29.4817 34.0544 29.0964 33.7461 28.7742 33.3819C28.4519 33.0176 28.1787 32.6113 27.9546 32.1629C27.8705 32.0088 27.8145 31.8337 27.7864 31.6375C27.7724 31.4274 27.7934 31.2312 27.8495 31.0491C27.9055 30.853 27.9966 30.6848 28.1227 30.5447C28.2488 30.3906 28.4239 30.2855 28.6481 30.2295C28.7882 30.2015 28.9423 30.1875 29.1104 30.1875C29.2926 30.1875 29.4677 30.2155 29.6358 30.2715C29.8039 30.3136 29.9581 30.3906 30.0982 30.5027C30.2383 30.6008 30.3504 30.7409 30.4344 30.923C30.5885 31.2172 30.8057 31.4904 31.0859 31.7426C31.3801 31.9808 31.6884 32.177 32.0106 32.3311C32.4729 32.4852 32.9353 32.5482 33.3976 32.5202C33.874 32.4922 34.3013 32.3871 34.6796 32.205C35.0719 32.0228 35.3871 31.7777 35.6253 31.4694C35.8635 31.1472 35.9826 30.7829 35.9826 30.3766C35.9826 30.0403 35.9335 29.7671 35.8355 29.557C35.7374 29.3328 35.5973 29.1507 35.4152 29.0106C35.247 28.8565 35.0369 28.7304 34.7847 28.6323C34.5465 28.5342 34.2803 28.4502 33.9861 28.3801C33.6498 28.31 33.3066 28.261 32.9563 28.233C32.6201 28.205 32.2768 28.1699 31.9265 28.1279C31.5763 28.0859 31.233 28.0298 30.8968 27.9598C30.5605 27.8897 30.2313 27.7847 29.909 27.6445C29.2645 27.3783 28.7742 26.972 28.4379 26.4256C28.1017 25.8792 27.8985 25.2908 27.8285 24.6603C27.7724 24.0298 27.8495 23.4064 28.0596 22.7899C28.2698 22.1594 28.606 21.62 29.0684 21.1717C29.5167 20.7654 30.0491 20.4782 30.6656 20.31C31.2961 20.1279 31.9896 20.0228 32.7462 19.9948C33.1665 19.9808 33.5868 19.9948 34.0071 20.0368C34.4414 20.0789 34.8547 20.1489 35.247 20.247C35.6533 20.3451 36.0246 20.4712 36.3609 20.6253C36.7111 20.7794 37.0124 20.9615 37.2645 21.1717C37.4467 21.3118 37.6288 21.5009 37.811 21.7391C37.9931 21.9633 38.1332 22.2085 38.2313 22.4747C38.3293 22.7269 38.3574 22.972 38.3153 23.2102C38.2873 23.4484 38.1402 23.6516 37.874 23.8197C37.6498 23.9598 37.4327 24.0228 37.2225 24.0088C37.0264 23.9808 36.8372 23.9178 36.6551 23.8197C36.473 23.7076 36.2978 23.5815 36.1297 23.4414C35.9616 23.3013 35.8075 23.1752 35.6673 23.0631C35.2891 22.7829 34.8197 22.5938 34.2593 22.4957C33.6989 22.3976 33.1735 22.3766 32.6831 22.4326C32.3749 22.4747 32.0877 22.5447 31.8215 22.6428C31.5553 22.7409 31.3241 22.874 31.1279 23.0421C30.9458 23.2102 30.7987 23.4204 30.6866 23.6726C30.5885 23.9107 30.5535 24.1839 30.5815 24.4922C30.5955 24.7163 30.6586 24.9055 30.7707 25.0596C30.8968 25.2137 31.0439 25.3398 31.212 25.4379C31.3941 25.536 31.5903 25.613 31.8004 25.6691C32.0106 25.7251 32.2208 25.7671 32.4309 25.7952C33.0614 25.8792 33.6919 25.9423 34.3223 25.9843C34.9528 26.0263 35.5693 26.1664 36.1717 26.4046C36.7882 26.6428 37.3136 26.965 37.7479 27.3713C38.1822 27.7776 38.4905 28.268 38.6726 28.8424Z" fill="white"/>
<path d="M38.7401 38.1196C38.8942 38.3017 38.9713 38.4909 38.9713 38.687C38.9713 38.7711 38.9642 38.8621 38.9502 38.9602C38.9502 39.0443 38.9432 39.1213 38.9292 39.1914C38.8872 39.3455 38.7961 39.4926 38.656 39.6327C38.5439 39.7168 38.3898 39.7798 38.1937 39.8219C38.0956 39.8499 37.9975 39.8709 37.8994 39.8849C37.8014 39.8989 37.6963 39.9199 37.5842 39.948C37.4861 39.962 37.3881 39.969 37.29 39.969C37.1919 39.969 37.0868 39.969 36.9748 39.969H35.9029C35.6508 39.983 35.3986 39.99 35.1464 39.99C34.9082 39.99 34.67 39.99 34.4318 39.99C34.4459 40.4243 34.4529 40.8937 34.4529 41.398C34.4529 41.8884 34.4459 42.4628 34.4318 43.1213C34.4318 43.7798 34.4248 44.5434 34.4108 45.4121C34.4108 46.2807 34.4108 47.2895 34.4108 48.4383V50.0355C34.4108 50.1756 34.4178 50.2807 34.4318 50.3508C34.4318 50.4068 34.4318 50.4628 34.4318 50.5189C34.4318 50.5609 34.4248 50.617 34.4108 50.687C34.3828 50.8131 34.3618 50.9602 34.3478 51.1283C34.3478 51.1984 34.3408 51.2684 34.3268 51.3385C34.3128 51.3945 34.2917 51.4576 34.2637 51.5276C34.2077 51.5837 34.1797 51.6257 34.1797 51.6537L34.1166 51.7798C34.0466 51.9199 33.9135 52.053 33.7173 52.1791C33.4091 52.3332 33.0658 52.3683 32.6875 52.2842C32.4494 52.2562 32.2672 52.1931 32.1411 52.0951C32.015 51.969 31.924 51.8429 31.8679 51.7168C31.7839 51.5627 31.7348 51.4156 31.7208 51.2755C31.6788 51.1494 31.6578 51.0163 31.6578 50.8762V40.074C31.5737 40.074 31.3986 40.074 31.1324 40.074C30.8662 40.074 30.579 40.074 30.2707 40.074C29.9765 40.06 29.6963 40.046 29.4301 40.032C29.1639 40.018 28.9818 40.004 28.8837 39.99C28.7996 39.976 28.6665 39.955 28.4844 39.9269C28.3163 39.8989 28.1761 39.8709 28.0641 39.8429C27.7698 39.7588 27.5387 39.6257 27.3705 39.4436C27.2164 39.2614 27.1394 39.0583 27.1394 38.8341C27.1394 38.7501 27.1394 38.666 27.1394 38.5819C27.1394 38.4979 27.1534 38.4208 27.1814 38.3508C27.2234 38.1826 27.3355 38.0425 27.5177 37.9304C27.5737 37.8884 27.6578 37.8394 27.7698 37.7833C27.8959 37.7133 28.015 37.6642 28.1271 37.6362C28.2952 37.5802 28.5054 37.5381 28.7576 37.5101C28.8697 37.4961 28.9818 37.4891 29.0938 37.4891C29.2059 37.4891 29.325 37.4891 29.4511 37.4891C29.9415 37.4891 30.4038 37.4891 30.8381 37.4891C31.2865 37.4891 31.7558 37.4821 32.2462 37.4681C33.0588 37.4541 33.8644 37.4541 34.663 37.4681C35.4756 37.4681 36.2812 37.4821 37.0798 37.5101C37.262 37.5241 37.4371 37.5451 37.6052 37.5732C37.7734 37.6012 37.9415 37.6502 38.1096 37.7203C38.2357 37.7623 38.3548 37.8184 38.4669 37.8884C38.579 37.9444 38.67 38.0215 38.7401 38.1196Z" fill="white"/>
<path d="M39.5109 68.3068C39.5249 68.3909 39.5319 68.475 39.5319 68.559C39.5459 68.6291 39.553 68.7131 39.553 68.8112C39.553 68.9793 39.5039 69.1335 39.4058 69.2736C39.3638 69.3436 39.3078 69.4137 39.2377 69.4837C39.1677 69.5398 39.0836 69.5888 38.9855 69.6308C38.6353 69.827 38.264 69.897 37.8717 69.841C37.6755 69.785 37.5004 69.6939 37.3463 69.5678C37.3183 69.5398 37.2973 69.5258 37.2832 69.5258C37.2692 69.5117 37.2552 69.4907 37.2412 69.4627C37.2272 69.4487 37.2132 69.4347 37.1992 69.4207C37.1852 69.3927 37.1642 69.3716 37.1361 69.3576C37.0661 69.2876 37.01 69.2245 36.968 69.1685C36.926 69.0984 36.884 69.0284 36.8419 68.9583C36.8139 68.8883 36.7789 68.8252 36.7368 68.7692C36.7088 68.6991 36.6738 68.6291 36.6318 68.559C36.6037 68.503 36.5757 68.454 36.5477 68.4119C36.5197 68.3559 36.4987 68.2998 36.4847 68.2438C36.4286 68.1177 36.3936 68.0056 36.3796 67.9075L35.9382 66.8778C34.9715 66.8778 34.0048 66.8848 33.0381 66.8988C32.0853 66.8988 31.1256 66.8918 30.1589 66.8778L29.7176 67.9075C29.6895 67.9636 29.6685 68.0196 29.6545 68.0757C29.6545 68.1317 29.6405 68.1878 29.6125 68.2438C29.5845 68.2998 29.5564 68.3559 29.5284 68.4119C29.5144 68.454 29.4934 68.503 29.4654 68.559C29.4233 68.6291 29.3813 68.6991 29.3393 68.7692C29.3113 68.8252 29.2762 68.8883 29.2342 68.9583C29.2062 69.0284 29.1712 69.0984 29.1291 69.1685C29.0871 69.2245 29.0311 69.2876 28.961 69.3576C28.933 69.3716 28.912 69.3927 28.898 69.4207C28.8839 69.4347 28.8699 69.4487 28.8559 69.4627C28.8419 69.4907 28.8279 69.5117 28.8139 69.5258C28.7999 69.5258 28.7789 69.5398 28.7508 69.5678C28.5967 69.6939 28.4216 69.785 28.2255 69.841C27.8332 69.897 27.4619 69.827 27.1116 69.6308C27.0135 69.5888 26.9295 69.5398 26.8594 69.4837C26.7894 69.4137 26.7333 69.3436 26.6913 69.2736C26.5932 69.1335 26.5442 68.9793 26.5442 68.8112C26.5442 68.7131 26.5442 68.6291 26.5442 68.559C26.5582 68.475 26.5722 68.3909 26.5862 68.3068C26.6142 68.1807 26.6493 68.0547 26.6913 67.9286C26.7333 67.8025 26.7543 67.7394 26.7543 67.7394L31.1256 56.9793L31.2517 56.6431C31.2797 56.559 31.3148 56.482 31.3568 56.4119C31.3988 56.3419 31.4339 56.2578 31.4619 56.1597C31.5319 55.9776 31.609 55.8165 31.6931 55.6764C31.7351 55.5923 31.7841 55.5152 31.8402 55.4452C31.8962 55.3751 31.9522 55.3051 32.0083 55.235C32.0924 55.1229 32.2114 55.0319 32.3656 54.9618C32.5617 54.8918 32.7859 54.8567 33.0381 54.8567C33.3043 54.8567 33.5354 54.8918 33.7316 54.9618C33.8857 55.0319 34.0048 55.1229 34.0889 55.235C34.1869 55.3611 34.292 55.5082 34.4041 55.6764C34.4882 55.8165 34.5652 55.9776 34.6353 56.1597C34.6633 56.2578 34.6983 56.3419 34.7403 56.4119C34.7824 56.482 34.8174 56.559 34.8454 56.6431L34.9715 56.9793L39.3428 67.7394C39.3428 67.7394 39.3638 67.8025 39.4058 67.9286C39.4479 68.0547 39.4829 68.1807 39.5109 68.3068ZM34.5302 63.158C34.348 62.7517 34.1589 62.3314 33.9628 61.897C33.7806 61.4627 33.5845 61.0214 33.3743 60.573C33.3183 60.4469 33.2622 60.3208 33.2062 60.1948C33.1501 60.0546 33.0941 59.9215 33.0381 59.7955C32.996 59.9215 32.947 60.0546 32.891 60.1948C32.8349 60.3208 32.7789 60.4469 32.7228 60.573C32.5127 61.0214 32.3095 61.4627 32.1134 61.897C31.9312 62.3314 31.7491 62.7517 31.567 63.158L31.1887 64.0827H34.9085L34.5302 63.158Z" fill="white"/>
<path d="M38.4658 86.1999C38.4798 86.34 38.4658 86.4731 38.4238 86.5992C38.3958 86.6832 38.3537 86.7533 38.2977 86.8093C38.2557 86.8654 38.1996 86.9214 38.1296 86.9775C38.0035 87.0615 37.8493 87.1386 37.6672 87.2086C37.5551 87.2367 37.443 87.2577 37.331 87.2717C37.2329 87.2997 37.1278 87.2997 37.0157 87.2717C36.7916 87.2577 36.5954 87.1736 36.4273 87.0195C36.1891 86.8233 35.993 86.6062 35.8388 86.368C35.7688 86.2559 35.6917 86.1298 35.6077 85.9897C35.5236 85.8496 35.4465 85.7025 35.3765 85.5484L33.0437 81.1141C32.9317 81.1141 32.8196 81.1211 32.7075 81.1351C32.5954 81.1351 32.4833 81.1421 32.3712 81.1561C32.077 81.1841 31.7968 81.1911 31.5306 81.1771C31.2784 81.1631 31.0122 81.1631 30.732 81.1771H30.3327V84.981C30.3327 85.093 30.3257 85.1981 30.3117 85.2962C30.3117 85.3943 30.3117 85.4994 30.3117 85.6114C30.3117 85.6815 30.3047 85.7726 30.2907 85.8846C30.2907 85.9967 30.2837 86.1018 30.2697 86.1999C30.2416 86.354 30.1786 86.5151 30.0805 86.6832C29.9824 86.8374 29.8493 86.9705 29.6812 87.0825C29.387 87.2647 29.0297 87.3137 28.6094 87.2297C28.4273 87.1876 28.2521 87.1176 28.084 87.0195C28.028 86.9775 27.9789 86.9284 27.9369 86.8724C27.8949 86.8023 27.8599 86.7323 27.8318 86.6622C27.8038 86.5922 27.7758 86.5221 27.7478 86.4521C27.7338 86.368 27.7127 86.2909 27.6847 86.2209C27.6427 86.0808 27.6217 85.9477 27.6217 85.8216V73.8846C27.6217 73.8006 27.6217 73.7165 27.6217 73.6324C27.6357 73.5344 27.6497 73.4503 27.6637 73.3803C27.6777 73.2261 27.7268 73.072 27.8108 72.9179C27.8528 72.7498 27.9229 72.6307 28.021 72.5606C28.105 72.4766 28.2311 72.4065 28.3993 72.3505C28.5814 72.2804 28.8406 72.2524 29.1768 72.2664C29.8073 72.2804 30.4308 72.2874 31.0472 72.2874C31.6637 72.2874 32.2802 72.3014 32.8966 72.3295C33.3029 72.3575 33.7303 72.4065 34.1786 72.4766C34.6409 72.5326 35.0683 72.6377 35.4606 72.7918C35.7127 72.8899 35.9439 72.988 36.1541 73.086C36.4203 73.2401 36.6304 73.3873 36.7846 73.5274C37.2749 73.9757 37.6462 74.5151 37.8984 75.1456C38.1506 75.7761 38.2767 76.4135 38.2767 77.058C38.2767 77.8146 38.0945 78.5081 37.7303 79.1386C37.38 79.7691 36.8126 80.2384 36.028 80.5466C36 80.5747 35.9579 80.5957 35.9019 80.6097C35.8599 80.6097 35.8248 80.6167 35.7968 80.6307L37.7303 84.5186L37.9194 84.8549C37.9474 84.9109 37.9824 84.974 38.0245 85.044C38.0665 85.1141 38.1015 85.1841 38.1296 85.2542C38.1716 85.3242 38.2066 85.4013 38.2346 85.4853C38.2767 85.5694 38.3187 85.6465 38.3607 85.7165C38.4028 85.9127 38.4378 86.0738 38.4658 86.1999ZM33.2119 78.7183C33.4641 78.7183 33.7022 78.6762 33.9264 78.5922C34.1646 78.4941 34.3747 78.368 34.5569 78.2139C34.753 78.0598 34.9141 77.8846 35.0402 77.6885C35.1663 77.4783 35.2364 77.2542 35.2504 77.016C35.3064 76.3155 35.1243 75.7971 34.704 75.4608C34.2837 75.1106 33.7303 74.9214 33.0437 74.8934C32.6374 74.8654 32.1891 74.8514 31.6987 74.8514C31.2224 74.8514 30.767 74.8514 30.3327 74.8514C30.3467 75.4258 30.3467 76.0142 30.3327 76.6167C30.3327 77.2051 30.3327 77.9057 30.3327 78.7183H33.2119Z" fill="white"/>
<path d="M38.7401 90.2844C38.8942 90.4666 38.9713 90.6557 38.9713 90.8519C38.9713 90.9359 38.9642 91.027 38.9502 91.1251C38.9502 91.2091 38.9432 91.2862 38.9292 91.3562C38.8872 91.5104 38.7961 91.6575 38.656 91.7976C38.5439 91.8816 38.3898 91.9447 38.1937 91.9867C38.0956 92.0147 37.9975 92.0357 37.8994 92.0498C37.8014 92.0638 37.6963 92.0848 37.5842 92.1128C37.4861 92.1268 37.3881 92.1338 37.29 92.1338C37.1919 92.1338 37.0868 92.1338 36.9748 92.1338H35.9029C35.6508 92.1478 35.3986 92.1548 35.1464 92.1548C34.9082 92.1548 34.67 92.1548 34.4318 92.1548C34.4459 92.5892 34.4529 93.0585 34.4529 93.5629C34.4529 94.0533 34.4459 94.6277 34.4318 95.2862C34.4318 95.9447 34.4248 96.7083 34.4108 97.5769C34.4108 98.4456 34.4108 99.4543 34.4108 100.603V102.2C34.4108 102.34 34.4178 102.446 34.4318 102.516C34.4318 102.572 34.4318 102.628 34.4318 102.684C34.4318 102.726 34.4248 102.782 34.4108 102.852C34.3828 102.978 34.3618 103.125 34.3478 103.293C34.3478 103.363 34.3408 103.433 34.3268 103.503C34.3128 103.559 34.2917 103.622 34.2637 103.693C34.2077 103.749 34.1797 103.791 34.1797 103.819L34.1166 103.945C34.0466 104.085 33.9135 104.218 33.7173 104.344C33.4091 104.498 33.0658 104.533 32.6875 104.449C32.4494 104.421 32.2672 104.358 32.1411 104.26C32.015 104.134 31.924 104.008 31.8679 103.882C31.7839 103.728 31.7348 103.58 31.7208 103.44C31.6788 103.314 31.6578 103.181 31.6578 103.041V92.2389C31.5737 92.2389 31.3986 92.2389 31.1324 92.2389C30.8662 92.2389 30.579 92.2389 30.2707 92.2389C29.9765 92.2249 29.6963 92.2109 29.4301 92.1969C29.1639 92.1829 28.9818 92.1688 28.8837 92.1548C28.7996 92.1408 28.6665 92.1198 28.4844 92.0918C28.3163 92.0638 28.1761 92.0357 28.0641 92.0077C27.7698 91.9237 27.5387 91.7906 27.3705 91.6084C27.2164 91.4263 27.1394 91.2231 27.1394 90.999C27.1394 90.9149 27.1394 90.8308 27.1394 90.7468C27.1394 90.6627 27.1534 90.5857 27.1814 90.5156C27.2234 90.3475 27.3355 90.2074 27.5177 90.0953C27.5737 90.0533 27.6578 90.0042 27.7698 89.9482C27.8959 89.8781 28.015 89.8291 28.1271 89.8011C28.2952 89.745 28.5054 89.703 28.7576 89.675C28.8697 89.661 28.9818 89.654 29.0938 89.654C29.2059 89.654 29.325 89.654 29.4511 89.654C29.9415 89.654 30.4038 89.654 30.8381 89.654C31.2865 89.654 31.7558 89.647 32.2462 89.6329C33.0588 89.6189 33.8644 89.6189 34.663 89.6329C35.4756 89.6329 36.2812 89.647 37.0798 89.675C37.262 89.689 37.4371 89.71 37.6052 89.738C37.7734 89.766 37.9415 89.8151 38.1096 89.8851C38.2357 89.9272 38.3548 89.9832 38.4669 90.0533C38.579 90.1093 38.67 90.1864 38.7401 90.2844Z" fill="white"/>
<path d="M85.6788 96.0432H52.2249V109.978H85.6788V96.0432Z" fill="#FFCA49"/>
<path d="M98.6918 103.01L85.1606 88.3851V117.636L98.6918 103.01Z" fill="#FFCA49"/>
</svg>
