<svg width="64" height="64" viewBox="0 0 64 64" fill="none" xmlns="http://www.w3.org/2000/svg">
<circle cx="32" cy="32" r="26.5" fill="#0FA958" stroke="black" stroke-width="3"/>
<circle cx="32" cy="32" r="19.5" fill="#FFF4D9" stroke="black" stroke-width="3"/>
<path d="M31.5 44.4882C25.3619 44.1991 19.8009 38.6381 19.5118 32.5" stroke="black" stroke-width="3" stroke-linecap="round"/>
<path d="M30.5 21.5V30.5C30.5 32.1569 31.8431 33.5 33.5 33.5H41" stroke="black" stroke-width="3" stroke-linejoin="round"/>
<path d="M25.4393 23.4393C24.8536 24.0251 24.8536 24.9749 25.4393 25.5607C26.0251 26.1464 26.9749 26.1464 27.5607 25.5607L25.4393 23.4393ZM33.4393 25.5607C34.0251 26.1464 34.9749 26.1464 35.5607 25.5607C36.1464 24.9749 36.1464 24.0251 35.5607 23.4393L33.4393 25.5607ZM27.5607 25.5607C28.5866 24.5347 29.2677 23.8568 29.812 23.4213C30.075 23.2109 30.2536 23.1009 30.3731 23.0447C30.4291 23.0184 30.4642 23.0077 30.4816 23.0034C30.4903 23.0013 30.4954 23.0005 30.4976 23.0002C30.4988 23.0001 30.4994 23 30.4997 23C30.4998 23 30.4999 23 30.5 23C30.5 23 30.5 23 30.5 23C30.5 23 30.5 23 30.5 23C30.5005 23 30.4995 23 30.5 23C30.5005 23 30.4995 23 30.5 23V20C29.4743 20 28.6349 20.5212 27.938 21.0787C27.2323 21.6432 26.4134 22.4653 25.4393 23.4393L27.5607 25.5607ZM30.5 23C30.5005 23 30.4995 23 30.5 23C30.5005 23 30.4995 23 30.5 23C30.5 23 30.5 23 30.5 23C30.5 23 30.5 23 30.5 23C30.5001 23 30.5002 23 30.5003 23C30.5006 23 30.5012 23.0001 30.5024 23.0002C30.5046 23.0005 30.5097 23.0013 30.5184 23.0034C30.5358 23.0077 30.5709 23.0184 30.6269 23.0447C30.7464 23.1009 30.925 23.2109 31.188 23.4213C31.7323 23.8568 32.4134 24.5347 33.4393 25.5607L35.5607 23.4393C34.5866 22.4653 33.7677 21.6432 33.062 21.0787C32.3651 20.5212 31.5257 20 30.5 20V23Z" fill="black"/>
<path d="M40.5607 28.4393C39.9749 27.8536 39.0251 27.8536 38.4393 28.4393C37.8536 29.0251 37.8536 29.9749 38.4393 30.5607L40.5607 28.4393ZM38.4393 36.4393C37.8536 37.0251 37.8536 37.9749 38.4393 38.5607C39.0251 39.1464 39.9749 39.1464 40.5607 38.5607L38.4393 36.4393ZM38.4393 30.5607C39.4653 31.5866 40.1432 32.2677 40.5787 32.812C40.7891 33.075 40.8991 33.2536 40.9553 33.3731C40.9816 33.4291 40.9923 33.4642 40.9966 33.4816C40.9987 33.4903 40.9995 33.4954 40.9998 33.4976C40.9999 33.4988 41 33.4994 41 33.4997C41 33.4998 41 33.4999 41 33.5C41 33.5 41 33.5 41 33.5C41 33.5 41 33.5 41 33.5C41 33.5005 41 33.4995 41 33.5C41 33.5005 41 33.4995 41 33.5L44 33.5C44 32.4743 43.4788 31.6349 42.9213 30.938C42.3568 30.2323 41.5347 29.4134 40.5607 28.4393L38.4393 30.5607ZM41 33.5C41 33.5005 41 33.4995 41 33.5C41 33.5005 41 33.4995 41 33.5C41 33.5 41 33.5 41 33.5C41 33.5 41 33.5 41 33.5C41 33.5001 41 33.5002 41 33.5003C41 33.5006 40.9999 33.5012 40.9998 33.5024C40.9995 33.5046 40.9987 33.5097 40.9966 33.5184C40.9923 33.5358 40.9816 33.5709 40.9553 33.6269C40.8991 33.7464 40.7891 33.925 40.5787 34.188C40.1432 34.7323 39.4653 35.4134 38.4393 36.4393L40.5607 38.5607C41.5347 37.5866 42.3568 36.7677 42.9213 36.062C43.4788 35.3651 44 34.5257 44 33.5L41 33.5Z" fill="black"/>
</svg>
