<svg width="180" height="178" viewBox="0 0 180 178" fill="none" xmlns="http://www.w3.org/2000/svg">
<g clip-path="url(#clip0)">
<path d="M180 92.34C180.008 94.1686 179.583 95.9732 178.761 97.6067C177.939 99.2401 176.743 100.656 175.27 101.74L158.57 114.09C157.303 115.019 156.315 116.277 155.712 117.728C155.109 119.179 154.915 120.767 155.15 122.32L158.23 142.87C158.496 144.671 158.338 146.509 157.768 148.239C157.198 149.968 156.232 151.54 154.947 152.83C153.662 154.12 152.094 155.091 150.367 155.668C148.64 156.244 146.802 156.409 145 156.15L124.45 153.07C122.899 152.836 121.314 153.03 119.865 153.631C118.417 154.232 117.16 155.217 116.23 156.48L103.86 173.18C102.773 174.646 101.357 175.838 99.7263 176.659C98.0957 177.479 96.2956 177.907 94.47 177.907C92.6444 177.907 90.8443 177.479 89.2137 176.659C87.5831 175.838 86.1674 174.646 85.08 173.18L72.73 156.48C71.798 155.217 70.5392 154.232 69.089 153.631C67.6388 153.03 66.0522 152.836 64.5 153.07L43.9 156.15C42.0945 156.416 40.2519 156.256 38.5193 155.682C36.7868 155.109 35.2124 154.138 33.922 152.848C32.6315 151.558 31.6609 149.983 31.0875 148.251C30.5142 146.518 30.3541 144.675 30.62 142.87L33.7 122.32C33.9361 120.768 33.7432 119.18 33.1421 117.73C32.5411 116.279 31.5548 115.02 30.29 114.09L13.59 101.74C12.1236 100.653 10.9323 99.2369 10.1114 97.6063C9.29059 95.9757 8.86304 94.1756 8.86304 92.35C8.86304 90.5244 9.29059 88.7243 10.1114 87.0937C10.9323 85.4631 12.1236 84.0474 13.59 82.96L30.29 70.59C31.5548 69.6619 32.5413 68.4051 33.1425 66.956C33.7436 65.5069 33.9364 63.9209 33.7 62.37L30.62 41.82C30.3519 40.0141 30.5105 38.1706 31.083 36.437C31.6556 34.7035 32.6262 33.1281 33.9172 31.8372C35.2081 30.5462 36.7835 29.5756 38.517 29.003C40.2506 28.4305 42.0941 28.2719 43.9 28.54L64.45 31.62C66.0033 31.855 67.5912 31.6605 69.0419 31.0577C70.4926 30.4549 71.7507 29.4666 72.68 28.2L85 11.51C86.0848 10.04 87.4997 8.84514 89.1306 8.02176C90.7615 7.19837 92.563 6.76942 94.39 6.76942C96.217 6.76942 98.0185 7.19837 99.6494 8.02176C101.28 8.84514 102.695 10.04 103.78 11.51L116.18 28.2C117.108 29.4658 118.364 30.4536 119.813 31.0565C121.262 31.6593 122.848 31.8542 124.4 31.62L145 28.54C146.806 28.2719 148.649 28.4305 150.383 29.003C152.117 29.5756 153.692 30.5462 154.983 31.8372C156.274 33.1281 157.244 34.7035 157.817 36.437C158.39 38.1706 158.548 40.0141 158.28 41.82L155.2 62.37C154.966 63.9218 155.161 65.5081 155.764 66.957C156.366 68.4059 157.354 69.6623 158.62 70.59L175.27 83C176.737 84.0754 177.93 85.4816 178.752 87.1044C179.574 88.7272 180.001 90.5209 180 92.34Z" fill="black"/>
<path d="M93.74 5.64L106.1 22.34C107.198 23.8204 108.678 24.9746 110.381 25.6792C112.084 26.3837 113.947 26.6121 115.77 26.34L136.32 23.26C137.892 23.0249 139.497 23.1618 141.006 23.6597C142.516 24.1577 143.887 25.0028 145.01 26.1271C146.134 27.2514 146.978 28.6236 147.474 30.1334C147.971 31.6431 148.106 33.2483 147.87 34.82L144.8 55.38C144.525 57.2032 144.751 59.067 145.456 60.7709C146.161 62.4747 147.317 63.9542 148.8 65.05L165.5 77.4C166.778 78.3447 167.816 79.576 168.532 80.9949C169.248 82.4138 169.62 83.9808 169.62 85.57C169.62 87.1592 169.248 88.7262 168.532 90.1451C167.816 91.564 166.778 92.7953 165.5 93.74L148.8 106.1C147.317 107.196 146.161 108.675 145.456 110.379C144.751 112.083 144.525 113.947 144.8 115.77L147.87 136.32C148.106 137.892 147.971 139.497 147.474 141.007C146.978 142.516 146.134 143.889 145.01 145.013C143.887 146.137 142.516 146.982 141.006 147.48C139.497 147.978 137.892 148.115 136.32 147.88L115.77 144.8C113.947 144.523 112.083 144.75 110.378 145.455C108.674 146.16 107.195 147.316 106.1 148.8L93.74 165.5C92.7953 166.778 91.564 167.816 90.1451 168.532C88.7262 169.248 87.1592 169.62 85.57 169.62C83.9808 169.62 82.4138 169.248 80.9949 168.532C79.576 167.816 78.3447 166.778 77.4 165.5L65.05 148.8C63.9526 147.316 62.4714 146.16 60.7658 145.455C59.0602 144.75 57.1947 144.524 55.37 144.8L34.83 147.88C33.2578 148.115 31.6525 147.978 30.1428 147.48C28.6332 146.982 27.2613 146.137 26.1373 145.013C25.0132 143.889 24.1683 142.517 23.6704 141.007C23.1725 139.498 23.0353 137.892 23.27 136.32L26.35 115.77C26.621 113.947 26.3921 112.085 25.6877 110.382C24.9832 108.679 23.8296 107.199 22.35 106.1L5.64 93.74C4.36025 92.7966 3.32002 91.5658 2.60313 90.1467C1.88625 88.7276 1.51276 87.1599 1.51276 85.57C1.51276 83.9801 1.88625 82.4124 2.60313 80.9933C3.32002 79.5742 4.36025 78.3434 5.64 77.4L22.34 65.05C23.8188 63.9505 24.9717 62.4705 25.6761 60.7677C26.3805 59.0649 26.6099 57.2029 26.34 55.38L23.27 34.83C23.0353 33.2578 23.1725 31.6525 23.6704 30.1428C24.1683 28.6332 25.0132 27.2613 26.1373 26.1373C27.2613 25.0132 28.6332 24.1683 30.1428 23.6704C31.6525 23.1725 33.2578 23.0353 34.83 23.27L55.37 26.35C57.1945 26.6218 59.0585 26.3933 60.7633 25.6889C62.468 24.9844 63.9496 23.8304 65.05 22.35L77.4 5.64C78.3434 4.36025 79.5742 3.32002 80.9933 2.60313C82.4124 1.88625 83.9801 1.51276 85.57 1.51276C87.1599 1.51276 88.7276 1.88625 90.1467 2.60313C91.5658 3.32002 92.7966 4.36025 93.74 5.64V5.64Z" fill="#F24E1E"/>
<path d="M134.08 125.08C134.264 126.304 134.159 127.555 133.772 128.731C133.385 129.907 132.727 130.976 131.851 131.851C130.976 132.727 129.907 133.385 128.731 133.772C127.555 134.159 126.304 134.264 125.08 134.08L109.08 131.69C107.659 131.475 106.207 131.65 104.878 132.198C103.55 132.746 102.396 133.646 101.54 134.8L91.92 147.8C91.1856 148.795 90.2279 149.603 89.1242 150.16C88.0204 150.717 86.8013 151.007 85.565 151.007C84.3287 151.007 83.1096 150.717 82.0058 150.16C80.9021 149.603 79.9444 148.795 79.21 147.8L69.59 134.8C68.7335 133.646 67.5793 132.748 66.2511 132.2C64.9229 131.652 63.4707 131.476 62.05 131.69L46.05 134.08C44.8256 134.264 43.5751 134.159 42.399 133.772C41.2229 133.385 40.1541 132.727 39.2785 131.851C38.403 130.976 37.7453 129.907 37.3582 128.731C36.9711 127.555 36.8656 126.304 37.05 125.08L39.44 109.08C39.5263 108.558 39.5531 108.028 39.52 107.5C40.389 107.609 41.2641 107.662 42.14 107.66H52.35L51.5 113.32C51.3716 114.178 51.4463 115.055 51.718 115.879C51.9897 116.703 52.4509 117.452 53.0645 118.066C53.6781 118.679 54.4271 119.14 55.2512 119.412C56.0754 119.684 56.9518 119.758 57.81 119.63L69.05 118C70.0475 117.851 71.0667 117.976 71.9986 118.362C72.9304 118.748 73.7398 119.38 74.34 120.19L81.1 129.33C81.6183 130.027 82.2924 130.593 83.0686 130.983C83.8447 131.374 84.7013 131.577 85.57 131.577C86.4387 131.577 87.2953 131.374 88.0714 130.983C88.8476 130.593 89.5217 130.027 90.04 129.33L96.8 120.19C97.4002 119.38 98.2096 118.748 99.1414 118.362C100.073 117.976 101.093 117.851 102.09 118L113.32 119.68C114.179 119.81 115.057 119.737 115.882 119.466C116.707 119.195 117.458 118.734 118.073 118.12C118.687 117.506 119.15 116.757 119.422 115.932C119.694 115.107 119.769 114.229 119.64 113.37L118.79 107.71H129C129.879 107.712 130.758 107.659 131.63 107.55C131.598 108.078 131.622 108.607 131.7 109.13L134.08 125.08Z" fill="#C7B9FF"/>
<path d="M37.07 46.06C36.8834 44.8352 36.9874 43.5838 37.3737 42.4066C37.7599 41.2295 38.4177 40.1597 39.2937 39.2837C40.1697 38.4077 41.2395 37.7499 42.4166 37.3637C43.5938 36.9774 44.8452 36.8734 46.07 37.06L62.07 39.45C63.4916 39.6621 64.944 39.4838 66.2721 38.9342C67.6002 38.3847 68.7539 37.4845 69.61 36.33L79.23 23.33C79.9644 22.3355 80.9221 21.5272 82.0258 20.9702C83.1296 20.4131 84.3487 20.123 85.585 20.123C86.8213 20.123 88.0404 20.4131 89.1442 20.9702C90.2479 21.5272 91.2056 22.3355 91.94 23.33L101.56 36.33C102.415 37.4862 103.568 38.3876 104.897 38.9373C106.225 39.4871 107.678 39.6643 109.1 39.45L125.1 37.06C126.325 36.8734 127.576 36.9774 128.753 37.3637C129.93 37.7499 131 38.4077 131.876 39.2837C132.752 40.1597 133.41 41.2295 133.796 42.4066C134.183 43.5838 134.287 44.8352 134.1 46.06L131.7 62.06C131.622 62.5795 131.599 63.1057 131.63 63.63C130.758 63.521 129.879 63.4676 129 63.47H118.8L119.64 57.83C119.77 56.9697 119.696 56.0909 119.425 55.2642C119.154 54.4376 118.692 53.6862 118.077 53.0704C117.462 52.4547 116.712 51.9918 115.885 51.7191C115.059 51.4463 114.181 51.3713 113.32 51.5L102.09 53.18C101.093 53.3335 100.074 53.2116 99.1411 52.8273C98.2087 52.4431 97.3992 51.8112 96.8 51L90 41.87C89.4843 41.1692 88.811 40.5995 88.0345 40.2068C87.258 39.8142 86.4001 39.6096 85.53 39.6096C84.6599 39.6096 83.802 39.8142 83.0255 40.2068C82.249 40.5995 81.5757 41.1692 81.06 41.87L74.34 51C73.7408 51.8112 72.9312 52.4431 71.9988 52.8273C71.0664 53.2116 70.0467 53.3335 69.05 53.18L57.81 51.5C56.9502 51.373 56.0727 51.4494 55.2478 51.7229C54.4229 51.9965 53.6736 52.4596 53.06 53.0751C52.4465 53.6906 51.9857 54.4413 51.7148 55.2671C51.4439 56.0929 51.3703 56.9707 51.5 57.83L52.34 63.47H42.16C41.2841 63.4676 40.409 63.521 39.54 63.63C39.5724 63.1053 39.5455 62.5787 39.46 62.06L37.07 46.06Z" fill="#C7B9FF"/>
<path d="M151.09 85.57C151.087 91.4305 148.758 97.0502 144.614 101.194C140.47 105.338 134.85 107.667 128.99 107.67H118.79L119.64 113.33C119.771 114.189 119.697 115.066 119.427 115.891C119.156 116.716 118.694 117.466 118.08 118.08C117.466 118.694 116.716 119.156 115.891 119.427C115.066 119.697 114.189 119.771 113.33 119.64L102.09 118C101.093 117.852 100.074 117.978 99.1421 118.363C98.2104 118.749 97.401 119.38 96.8 120.19L90 129.29C89.4817 129.987 88.8076 130.553 88.0314 130.943C87.2553 131.334 86.3987 131.537 85.53 131.537C84.6613 131.537 83.8047 131.334 83.0286 130.943C82.2524 130.553 81.5783 129.987 81.06 129.29L74.31 120.15C73.7078 119.354 72.9028 118.735 71.9792 118.357C71.0557 117.978 70.0474 117.855 69.06 118L57.82 119.68C56.9614 119.811 56.084 119.737 55.2589 119.467C54.4337 119.196 53.6838 118.734 53.0696 118.12C52.4555 117.506 51.9944 116.756 51.7235 115.931C51.4525 115.106 51.3794 114.229 51.51 113.37L52.36 107.71H42.16C36.2987 107.71 30.6775 105.382 26.5329 101.237C22.3884 97.0925 20.06 91.4713 20.06 85.61C20.06 79.7487 22.3884 74.1275 26.5329 69.9829C30.6775 65.8384 36.2987 63.51 42.16 63.51H52.35L51.51 57.87C51.3781 57.0103 51.4501 56.1315 51.7203 55.3048C51.9904 54.478 52.4511 53.7263 53.0652 53.1102C53.6792 52.4942 54.4295 52.0312 55.2554 51.7584C56.0814 51.4856 56.9598 51.4108 57.82 51.54L69.06 53.22C70.0604 53.368 71.0822 53.2394 72.0147 52.8481C72.9472 52.4567 73.7548 51.8176 74.35 51L81.1 41.87C81.6157 41.1692 82.289 40.5995 83.0655 40.2068C83.842 39.8142 84.6999 39.6096 85.57 39.6096C86.4401 39.6096 87.298 39.8142 88.0745 40.2068C88.851 40.5995 89.5243 41.1692 90.04 41.87L96.8 51C97.3999 51.8103 98.2096 52.4416 99.1418 52.8258C100.074 53.2099 101.093 53.3324 102.09 53.18L113.33 51.5C114.19 51.3708 115.069 51.4456 115.895 51.7184C116.72 51.9912 117.471 52.4542 118.085 53.0702C118.699 53.6863 119.16 54.438 119.43 55.2648C119.7 56.0915 119.772 56.9703 119.64 57.83L118.8 63.47H129C134.859 63.4753 140.476 65.8057 144.618 69.9494C148.759 74.0931 151.087 79.7113 151.09 85.57V85.57Z" fill="white"/>
<path d="M166.41 76.18L149.71 63.83C148.447 62.898 147.462 61.6392 146.861 60.189C146.26 58.7388 146.066 57.1522 146.3 55.6L149.38 35.05C149.648 33.2441 149.49 31.4006 148.917 29.667C148.344 27.9335 147.374 26.3581 146.083 25.0672C144.792 23.7762 143.217 22.8056 141.483 22.233C139.749 21.6605 137.906 21.5019 136.1 21.77L115.55 24.85C113.998 25.0816 112.412 24.8866 110.962 24.2859C109.512 23.6852 108.253 22.7015 107.32 21.44L95 4.73C93.9126 3.26362 92.4969 2.07229 90.8663 1.25144C89.2357 0.430594 87.4356 0.00304413 85.61 0.00304413C83.7844 0.00304413 81.9843 0.430594 80.3537 1.25144C78.7231 2.07229 77.3074 3.26362 76.22 4.73L63.83 21.44C62.8958 22.7006 61.6367 23.6838 60.1871 24.2844C58.7375 24.885 57.152 25.0805 55.6 24.85L35.05 21.77C33.2437 21.4997 31.3992 21.6567 29.6647 22.2285C27.9301 22.8003 26.3538 23.7709 25.0624 25.0624C23.7709 26.3538 22.8003 27.9301 22.2285 29.6647C21.6567 31.3992 21.4997 33.2437 21.77 35.05L24.85 55.6C25.0805 57.152 24.885 58.7375 24.2844 60.1871C23.6838 61.6367 22.7006 62.8958 21.44 63.83L4.73 76.18C3.25592 77.2665 2.05772 78.6842 1.23196 80.3186C0.406205 81.9531 -0.0240097 83.7588 -0.0240097 85.59C-0.0240097 87.4212 0.406205 89.2269 1.23196 90.8614C2.05772 92.4958 3.25592 93.9135 4.73 95L21.44 107.36C22.7015 108.293 23.6852 109.552 24.2859 111.002C24.8866 112.452 25.0816 114.038 24.85 115.59L21.77 136.1C21.4997 137.906 21.6567 139.751 22.2285 141.485C22.8003 143.22 23.7709 144.796 25.0624 146.088C26.3538 147.379 27.9301 148.35 29.6647 148.921C31.3992 149.493 33.2437 149.65 35.05 149.38L55.6 146.3C57.1522 146.066 58.7388 146.26 60.189 146.861C61.6392 147.462 62.898 148.447 63.83 149.71L76.18 166.41C77.2648 167.88 78.6797 169.075 80.3106 169.898C81.9415 170.722 83.743 171.151 85.57 171.151C87.397 171.151 89.1985 170.722 90.8294 169.898C92.4603 169.075 93.8752 167.88 94.96 166.41L107.32 149.71C108.251 148.446 109.51 147.46 110.96 146.859C112.411 146.258 113.998 146.065 115.55 146.3L136.1 149.38C137.905 149.646 139.748 149.486 141.481 148.912C143.213 148.339 144.788 147.368 146.078 146.078C147.368 144.788 148.339 143.213 148.912 141.481C149.486 139.748 149.646 137.905 149.38 136.1L146.3 115.55C146.066 113.998 146.26 112.411 146.861 110.961C147.462 109.511 148.447 108.252 149.71 107.32L166.41 95C167.88 93.9152 169.075 92.5003 169.898 90.8694C170.722 89.2385 171.151 87.437 171.151 85.61C171.151 83.783 170.722 81.9815 169.898 80.3506C169.075 78.7197 167.88 77.3048 166.41 76.22V76.18ZM164.61 92.52L147.9 104.88C146.194 106.139 144.864 107.84 144.053 109.8C143.242 111.76 142.982 113.903 143.3 116L146.37 136.55C146.571 137.886 146.456 139.25 146.034 140.534C145.612 141.817 144.894 142.983 143.939 143.939C142.983 144.894 141.817 145.612 140.534 146.034C139.25 146.456 137.886 146.571 136.55 146.37L116 143.3C113.903 142.983 111.76 143.244 109.801 144.055C107.841 144.865 106.14 146.195 104.88 147.9L92.52 164.61C91.7155 165.696 90.6678 166.578 89.4608 167.186C88.2539 167.794 86.9213 168.11 85.57 168.11C84.2186 168.11 82.8861 167.794 81.6792 167.186C80.4722 166.578 79.4245 165.696 78.62 164.61L66.27 147.9C65.1845 146.434 63.7707 145.242 62.1418 144.421C60.5129 143.6 58.7143 143.171 56.89 143.17C56.3075 143.168 55.7258 143.212 55.15 143.3L34.6 146.37C33.2637 146.571 31.8989 146.456 30.6153 146.033C29.3317 145.611 28.165 144.894 27.209 143.939C26.2529 142.984 25.5343 141.818 25.1107 140.534C24.6871 139.251 24.5704 137.886 24.77 136.55L27.85 116C28.1657 113.902 27.9033 111.759 27.091 109.799C26.2786 107.84 24.9472 106.139 23.24 104.88L6.54 92.52C5.45239 91.7167 4.56849 90.6695 3.95937 89.4624C3.35026 88.2553 3.03294 86.9221 3.03294 85.57C3.03294 84.2179 3.35026 82.8847 3.95937 81.6776C4.56849 80.4705 5.45239 79.4233 6.54 78.62L23.24 66.27C24.9464 65.0104 26.2772 63.3095 27.0894 61.3503C27.9017 59.391 28.1646 57.2475 27.85 55.15L24.77 34.6C24.5709 33.2632 24.6878 31.8982 25.1114 30.6147C25.5349 29.3312 26.2534 28.1649 27.2091 27.2091C28.1649 26.2534 29.3312 25.5349 30.6147 25.1114C31.8982 24.6878 33.2631 24.5709 34.6 24.77L55.15 27.85C57.2475 28.1646 59.391 27.9017 61.3503 27.0894C63.3095 26.2772 65.0104 24.9464 66.27 23.24L78.62 6.54C79.4233 5.4524 80.4705 4.56849 81.6776 3.95937C82.8847 3.35026 84.2179 3.03294 85.57 3.03294C86.9221 3.03294 88.2553 3.35026 89.4624 3.95937C90.6695 4.56849 91.7167 5.4524 92.52 6.54L104.88 23.24C106.139 24.9472 107.84 26.2786 109.799 27.091C111.759 27.9033 113.902 28.1657 116 27.85L136.55 24.77C137.886 24.5704 139.251 24.6871 140.534 25.1107C141.818 25.5343 142.984 26.2529 143.939 27.209C144.894 28.165 145.611 29.3317 146.033 30.6153C146.456 31.8989 146.571 33.2637 146.37 34.6L143.3 55.15C142.984 57.2465 143.246 59.3895 144.056 61.3486C144.867 63.3078 146.195 65.0092 147.9 66.27L164.61 78.62C165.696 79.4245 166.578 80.4722 167.186 81.6792C167.794 82.8861 168.11 84.2186 168.11 85.57C168.11 86.9213 167.794 88.2539 167.186 89.4608C166.578 90.6678 165.696 91.7155 164.61 92.52V92.52Z" fill="black"/>
<path d="M133.18 62.33L135.58 46.33C135.798 44.872 135.671 43.3832 135.209 41.9832C134.747 40.5831 133.964 39.3109 132.922 38.2684C131.879 37.226 130.607 36.4425 129.207 35.9809C127.807 35.5192 126.318 35.3921 124.86 35.61L108.86 38C107.712 38.1752 106.537 38.033 105.464 37.5888C104.39 37.1447 103.459 36.4154 102.77 35.48L93.15 22.48C92.2741 21.2951 91.1325 20.3323 89.8169 19.6688C88.5013 19.0053 87.0484 18.6596 85.575 18.6596C84.1016 18.6596 82.6487 19.0053 81.3331 19.6688C80.0175 20.3323 78.8759 21.2951 78 22.48L68.38 35.48C67.6874 36.4113 66.7554 37.1374 65.683 37.5811C64.6107 38.0249 63.4381 38.1696 62.29 38L46.29 35.61C44.8354 35.3915 43.3499 35.5167 41.9524 35.9755C40.5548 36.4343 39.2842 37.214 38.2422 38.2521C37.2001 39.2902 36.4157 40.558 35.9517 41.9538C35.4876 43.3496 35.3569 44.8346 35.57 46.29L37.97 62.29C32.5171 63.2669 27.5814 66.1301 24.0264 70.3786C20.4714 74.6271 18.5235 79.9903 18.5235 85.53C18.5235 91.0697 20.4714 96.4329 24.0264 100.681C27.5814 104.93 32.5171 107.793 37.97 108.77L35.58 124.77C35.3599 126.228 35.4854 127.718 35.9463 129.119C36.4072 130.52 37.1907 131.793 38.2336 132.836C39.2765 133.879 40.5498 134.663 41.9508 135.124C43.3519 135.585 44.8416 135.71 46.3 135.49L62.3 133.1C63.4473 132.926 64.6204 133.068 65.6933 133.51C66.7662 133.952 67.6985 134.678 68.39 135.61L78.01 148.61C78.8846 149.797 80.0258 150.761 81.3415 151.426C82.6573 152.091 84.1108 152.437 85.585 152.437C87.0592 152.437 88.5127 152.091 89.8285 151.426C91.1442 150.761 92.2854 149.797 93.16 148.61L102.78 135.61C103.47 134.676 104.402 133.949 105.475 133.507C106.549 133.064 107.723 132.924 108.87 133.1L124.87 135.49C126.328 135.71 127.818 135.585 129.219 135.124C130.62 134.663 131.893 133.879 132.936 132.836C133.979 131.793 134.763 130.52 135.224 129.119C135.685 127.718 135.81 126.228 135.59 124.77L133.19 108.77C138.627 107.781 143.545 104.919 147.091 100.681C150.637 96.4425 152.586 91.096 152.6 85.57C152.593 80.0363 150.646 74.6801 147.098 70.4337C143.55 66.1874 138.625 63.3198 133.18 62.33V62.33ZM41 61.84L38.6 45.84C38.4511 44.851 38.5365 43.8409 38.8492 42.8909C39.1619 41.9409 39.6932 41.0776 40.4004 40.3704C41.1076 39.6632 41.9709 39.1319 42.9209 38.8192C43.8709 38.5065 44.881 38.4211 45.87 38.57L61.87 40.96C63.5668 41.2209 65.3027 41.0121 66.8893 40.3564C68.4759 39.7006 69.8526 38.6228 70.87 37.24L80.49 24.24C81.0817 23.4339 81.8549 22.7784 82.747 22.3266C83.6391 21.8749 84.625 21.6394 85.625 21.6394C86.625 21.6394 87.6109 21.8749 88.503 22.3266C89.3951 22.7784 90.1683 23.4339 90.76 24.24L100.38 37.24C101.397 38.6236 102.773 39.702 104.36 40.3579C105.947 41.0138 107.683 41.222 109.38 40.96L125.38 38.57C126.369 38.4211 127.379 38.5065 128.329 38.8192C129.279 39.1319 130.142 39.6632 130.85 40.3704C131.557 41.0776 132.088 41.9409 132.401 42.8909C132.714 43.8409 132.799 44.851 132.65 45.84L130.25 61.84C130.25 61.89 130.25 61.94 130.25 61.99C129.86 61.99 129.46 61.99 129.07 61.99H120.64L121.22 58.09C121.375 57.0032 121.276 55.8952 120.929 54.8537C120.582 53.8122 119.997 52.8658 119.221 52.0895C118.444 51.3132 117.498 50.7284 116.456 50.3813C115.415 50.0343 114.307 49.9345 113.22 50.09L101.99 51.77C101.235 51.9034 100.457 51.8169 99.7498 51.5208C99.0424 51.2247 98.435 50.7315 98 50.1L91.26 41C90.6016 40.1107 89.7439 39.3882 88.7557 38.8903C87.7676 38.3924 86.6765 38.1331 85.57 38.1331C84.4635 38.1331 83.3724 38.3924 82.3843 38.8903C81.3961 39.3882 80.5384 40.1107 79.88 41L73.12 50.1C72.6858 50.6896 72.0982 51.1487 71.4211 51.4273C70.744 51.7059 70.0034 51.7933 69.28 51.68L58 50C56.9128 49.8424 55.8039 49.9406 54.7614 50.2869C53.7189 50.6332 52.7715 51.218 51.9948 51.9948C51.218 52.7715 50.6332 53.7189 50.2869 54.7614C49.9406 55.8039 49.8424 56.9128 50 58L50.58 61.9H42.16C41.76 61.9 41.37 61.9 40.98 61.9C40.9856 61.8797 40.9923 61.8596 41 61.84V61.84ZM130.21 109.31L132.61 125.31C132.759 126.299 132.674 127.309 132.361 128.259C132.048 129.209 131.517 130.072 130.81 130.78C130.102 131.487 129.239 132.018 128.289 132.331C127.339 132.644 126.329 132.729 125.34 132.58L109.34 130.19C107.644 129.927 105.908 130.134 104.322 130.788C102.735 131.442 101.358 132.518 100.34 133.9L90.72 146.9C90.1257 147.702 89.3516 148.354 88.4599 148.804C87.5681 149.253 86.5835 149.487 85.585 149.487C84.5865 149.487 83.6019 149.253 82.7101 148.804C81.8183 148.354 81.0443 147.702 80.45 146.9L70.82 133.9C69.7979 132.523 68.4199 131.451 66.8341 130.799C65.2483 130.148 63.5148 129.94 61.82 130.2L45.82 132.59C44.831 132.739 43.8209 132.654 42.8709 132.341C41.9209 132.028 41.0576 131.497 40.3504 130.79C39.6432 130.082 39.1119 129.219 38.7992 128.269C38.4865 127.319 38.4011 126.309 38.55 125.32L40.94 109.32C40.94 109.32 40.94 109.21 40.94 109.16C41.33 109.16 41.72 109.16 42.12 109.16H50.55L50 113.1C49.8424 114.187 49.9406 115.296 50.2869 116.339C50.6332 117.381 51.218 118.328 51.9948 119.105C52.7715 119.882 53.7189 120.467 54.7614 120.813C55.8039 121.159 56.9128 121.258 58 121.1L69.24 119.42C69.9668 119.307 70.7107 119.396 71.3899 119.679C72.0692 119.961 72.6574 120.425 73.09 121.02L79.84 130.15C80.4984 131.039 81.3561 131.762 82.3443 132.26C83.3324 132.758 84.4235 133.017 85.53 133.017C86.6365 133.017 87.7276 132.758 88.7157 132.26C89.7039 131.762 90.5616 131.039 91.22 130.15L98 121.06C98.4326 120.465 99.0208 120.001 99.7001 119.719C100.379 119.436 101.123 119.347 101.85 119.46L113.08 121.14C114.167 121.298 115.276 121.199 116.319 120.853C117.361 120.507 118.308 119.922 119.085 119.145C119.862 118.368 120.447 117.421 120.793 116.379C121.139 115.336 121.238 114.227 121.08 113.14L120.49 109.23H129C129.39 109.23 129.79 109.23 130.18 109.23C130.179 109.257 130.179 109.283 130.18 109.31H130.21ZM143.57 100.13C141.663 102.043 139.394 103.559 136.897 104.589C134.399 105.619 131.722 106.143 129.02 106.13H117L118.11 113.52C118.212 114.146 118.163 114.787 117.969 115.39C117.774 115.994 117.439 116.542 116.99 116.99C116.542 117.439 115.994 117.774 115.39 117.969C114.787 118.163 114.146 118.212 113.52 118.11L102.28 116.43C101.011 116.24 99.7136 116.4 98.528 116.891C97.3423 117.383 96.3129 118.188 95.55 119.22L88.8 128.36C88.4209 128.865 87.9294 129.275 87.3644 129.557C86.7995 129.84 86.1766 129.987 85.545 129.987C84.9134 129.987 84.2905 129.84 83.7256 129.557C83.1606 129.275 82.6691 128.865 82.29 128.36L75.54 119.23C74.8884 118.335 74.0339 117.607 73.0465 117.107C72.0591 116.606 70.967 116.347 69.86 116.35C69.5052 116.352 69.1511 116.379 68.8 116.43L57.56 118.11C56.9393 118.205 56.305 118.153 55.7083 117.957C55.1116 117.762 54.5694 117.429 54.1254 116.985C53.6814 116.541 53.3481 115.998 53.1526 115.402C52.9571 114.805 52.9048 114.171 53 113.55L54.11 106.16H42.11C36.7291 106.041 31.6085 103.821 27.8449 99.973C24.0812 96.1255 21.9737 90.9572 21.9737 85.575C21.9737 80.1928 24.0812 75.0245 27.8449 71.177C31.6085 67.3295 36.7291 65.1086 42.11 64.99H54.1L53 57.6C52.8965 56.9735 52.9436 56.3313 53.1375 55.7266C53.3314 55.1219 53.6664 54.5721 54.115 54.1226C54.5635 53.673 55.1126 53.3368 55.7169 53.1416C56.3212 52.9464 56.9632 52.8978 57.59 53L68.83 54.67C70.1004 54.8705 71.4015 54.7172 72.5905 54.2268C73.7795 53.7364 74.8104 52.9278 75.57 51.89L82.32 42.76C82.6903 42.2438 83.1783 41.8233 83.7434 41.5332C84.3086 41.2432 84.9347 41.0918 85.57 41.0918C86.2053 41.0918 86.8314 41.2432 87.3966 41.5332C87.9617 41.8233 88.4497 42.2438 88.82 42.76L95.58 51.89C96.3388 52.9262 97.368 53.7336 98.5551 54.2239C99.7421 54.7143 101.041 54.8686 102.31 54.67L113.55 53C114.176 52.8983 114.817 52.9467 115.42 53.1414C116.023 53.3361 116.572 53.6714 117.02 54.1197C117.469 54.568 117.804 55.1165 117.999 55.7199C118.193 56.3232 118.242 56.9642 118.14 57.59L117 65H129C133.072 64.9989 137.052 66.2057 140.438 68.4676C143.824 70.7295 146.462 73.9449 148.02 77.7069C149.578 81.4689 149.984 85.6084 149.189 89.6017C148.393 93.5949 146.431 97.2624 143.55 100.14L143.57 100.13Z" fill="black"/>
<path d="M41.45 99.1L32 76.48L38.85 75.48L41.29 82.11C42.4356 85.8962 43.2126 89.7843 43.61 93.72L45.76 93.42C45.1843 90.0357 44.9864 86.598 45.17 83.17L46.09 74.45L53.64 73.39L57 81.51C58.1386 84.7473 58.9134 88.1013 59.31 91.51L61.42 91.22C60.7578 87.3652 60.4233 83.4613 60.42 79.55L61 72.4L67.47 71.49L64.83 95.8L57.45 96.8L53.82 87.8C52.7253 84.7606 52.0165 81.5959 51.71 78.38L49.56 78.68C50.1343 81.8591 50.3157 85.0967 50.1 88.32L49 98L41.45 99.1Z" fill="black"/>
<path d="M72.55 85.77C72.55 76.92 74.65 63.77 85.55 63.77C96.45 63.77 98.55 77.77 98.55 85.77C98.55 93.77 95.55 107.4 85.55 107.4C75.55 107.4 72.55 94.62 72.55 85.77ZM91.82 85.7C91.82 77.52 89.62 68.91 85.59 68.91C81.56 68.91 79.32 77.52 79.32 85.7C79.32 93.88 81.56 102.24 85.59 102.24C89.62 102.24 91.82 93.82 91.82 85.7Z" fill="black"/>
<path d="M106.52 96.27L103.72 71.93L110.57 72.93L111.08 79.93C111.132 83.8865 110.797 87.8386 110.08 91.73L112.22 92.03C112.607 88.6234 113.368 85.2698 114.49 82.03L117.79 73.91L125.36 75L126.36 83.69C126.552 87.1383 126.35 90.5972 125.76 94L127.88 94.3C128.3 90.4112 129.06 86.5665 130.15 82.81L132.64 76L139.11 76.91L129.9 99.57L122.52 98.57L121.52 88.92C121.31 85.6955 121.501 82.4573 122.09 79.28L119.94 78.98C119.617 82.1938 118.895 85.3548 117.79 88.39L114.06 97.39L106.52 96.27Z" fill="black"/>
</g>
<defs>
<clipPath id="clip0">
<rect width="180" height="177.91" fill="white"/>
</clipPath>
</defs>
</svg>
