<svg width="128" height="199" viewBox="0 0 128 199" fill="none" xmlns="http://www.w3.org/2000/svg">
<path d="M30.4853 198.616C28.6828 198.616 26.8802 198.483 25.0109 198.149C19.937 197.281 15.6642 194.544 13.1273 190.472C11.9923 188.936 11.1244 187.133 10.3901 185.064C7.25225 175.851 12.927 161.964 12.927 161.964C12.927 161.964 1.17692 151.75 0.0419691 128.984C-0.425364 119.904 3.04623 111.292 8.65422 104.349C3.04623 97.4055 0.0419691 88.7932 0.0419691 79.7136C0.0419691 69.1652 4.11445 59.2845 11.525 51.8739C15.464 47.935 20.1373 44.9307 25.2112 42.9946V24.0343C25.2112 10.7487 35.9598 0 49.2455 0L91.9063 0C105.192 0 115.941 10.7487 115.941 24.0343V51.3398C116.141 51.4734 116.274 51.6737 116.475 51.8072C130.828 66.161 131.763 88.86 119.345 104.282C131.763 119.704 130.828 142.47 116.475 156.757C111.668 161.564 105.793 164.968 99.3836 166.771C96.446 174.916 92.5071 181.459 87.7002 186.265C83.0269 190.939 77.686 193.876 71.7442 195.078C70.3422 195.545 68.8067 195.812 67.2711 195.879C66.8706 195.879 66.4032 195.879 66.0027 195.879C62.9316 195.879 60.0608 195.345 57.5239 194.344L57.1901 194.21L56.9898 194.143C55.0537 193.276 52.717 191.873 50.6474 189.604C50.0466 190.271 49.3789 190.872 48.7113 191.473C43.5707 196.213 37.4286 198.616 30.4853 198.616Z" fill="#FDFDFD"/>
<path d="M20.5377 179.189C17.7337 183.795 21.1385 188.602 26.4795 189.537C37.6955 191.473 46.1742 185.732 52.5834 169.442C64.467 138.998 41.6344 150.147 33.8901 159.694C29.417 165.169 24.2096 173.247 20.5377 179.189Z" fill="#4BC17E"/>
<path d="M60.7283 186.199C60.7283 186.199 82.4927 193.943 92.6405 159.294C99.9175 134.592 83.0268 131.788 67.0039 150.615C51.0479 169.442 53.8518 180.724 60.7283 186.199Z" fill="#4BC17E"/>
<path d="M110.332 107.353C108.663 105.684 108.663 103.014 110.332 101.345C122.216 89.461 122.216 69.9665 110.332 58.0161C98.4488 46.1325 78.9544 46.1325 67.004 58.0161C65.3349 59.6852 62.6645 59.6852 60.9954 58.0161C49.1118 46.1325 29.6173 46.1325 17.667 58.0161C5.78337 69.8997 5.78337 89.3942 17.667 101.345C19.336 103.014 19.336 105.684 17.667 107.353C5.78337 119.237 5.78337 138.731 17.667 150.682C29.5506 162.565 49.0451 162.565 60.9954 150.682C62.6645 149.012 65.3349 149.012 67.004 150.682C78.8876 162.565 98.3821 162.565 110.332 150.682C122.283 138.731 122.283 119.237 110.332 107.353Z" fill="#FF77E6"/>
<path d="M84.4287 126.647L93.4416 135.259" stroke="#030401" stroke-width="2.00286" stroke-miterlimit="10" stroke-linecap="round" stroke-linejoin="round"/>
<path d="M34.0236 72.3031L42.9697 80.9822" stroke="#030401" stroke-width="2.00286" stroke-miterlimit="10" stroke-linecap="round" stroke-linejoin="round"/>
<path d="M38.6301 123.509L30.0178 132.455" stroke="#030401" stroke-width="2.00286" stroke-miterlimit="10" stroke-linecap="round" stroke-linejoin="round"/>
<path d="M92.9743 73.0375L84.2952 81.9836" stroke="#030401" stroke-width="2.00286" stroke-miterlimit="10" stroke-linecap="round" stroke-linejoin="round"/>
<path d="M64.0664 136.394C81.7647 136.394 96.112 122.047 96.112 104.349C96.112 86.6505 81.7647 72.3031 64.0664 72.3031C46.368 72.3031 32.0207 86.6505 32.0207 104.349C32.0207 122.047 46.368 136.394 64.0664 136.394Z" fill="#FFCA49"/>
<path d="M56.7894 89.6612C56.7894 95.1357 53.0507 99.5419 48.3774 99.5419C43.704 99.5419 39.9654 95.1357 39.9654 89.6612" stroke="#030401" stroke-width="2.00286" stroke-miterlimit="10" stroke-linecap="round" stroke-linejoin="round"/>
<path d="M88.1007 89.6612C88.1007 95.1357 84.362 99.542 79.6887 99.542C75.0154 99.542 71.2767 95.1357 71.2767 89.6612" stroke="#030401" stroke-width="2.00286" stroke-miterlimit="10" stroke-linecap="round" stroke-linejoin="round"/>
<path d="M69.5409 100.21C69.5409 103.748 67.0707 106.686 64.0664 106.686C61.0621 106.686 58.592 103.815 58.592 100.21" stroke="#030401" stroke-width="2.00286" stroke-miterlimit="10" stroke-linecap="round" stroke-linejoin="round"/>
<path d="M9.98932 134.659C9.98932 134.659 21.3388 138.865 18.6016 151.616C18.6016 151.616 32.2878 148.612 35.7594 159.761C35.7594 159.761 47.1757 147.944 53.9854 157.424C53.9854 157.424 52.2496 136.328 67.0707 138.664C67.0707 138.664 57.5238 124.244 64.1332 116.099C64.1332 116.099 47.7098 118.703 48.2439 104.015C48.2439 104.015 36.0264 115.231 27.6145 104.749C27.6145 104.749 23.8758 117.701 15.0632 116.766C15.13 116.766 21.8729 133.257 9.98932 134.659Z" fill="#FDFDFD"/>
<path d="M36.0264 126.113C31.954 120.171 29.6173 113.562 29.0164 111.626C28.6826 111.425 28.4156 111.292 28.0818 111.292C26.8133 111.492 26.346 112.56 26.1457 113.829C26.6798 115.498 29.0165 122.775 33.9568 128.383L36.0264 126.113Z" fill="#4BC17E"/>
<path d="M26.9469 128.25C27.481 129.117 29.15 131.321 30.4185 132.456L32.6216 129.919C27.6813 124.444 25.2111 117.634 24.41 115.031C24.1429 114.83 23.8759 114.764 23.6088 114.83C21.6059 115.364 21.7395 119.971 25.6117 127.916C26.079 127.649 26.6798 127.782 26.9469 128.25Z" fill="#4BC17E"/>
<path d="M50.5805 125.779C47.9768 118.369 46.241 116.9 44.9725 118.569C43.8376 119.971 45.6401 128.85 45.6401 128.85C45.6401 128.85 37.9625 119.904 35.6926 114.096C34.0236 109.89 31.4866 108.421 31.2863 112.026C32.1542 114.563 34.2239 119.771 37.4284 124.511L38.0293 123.843C38.3631 123.443 39.0307 123.376 39.4313 123.776C39.8319 124.11 39.8986 124.778 39.498 125.178L31.2196 134.592C39.231 137.863 43.1699 142.27 43.3035 142.47C43.6373 142.87 43.6373 143.538 43.2367 143.872C43.0364 144.005 42.8362 144.139 42.5691 144.139C42.3021 144.139 42.035 144.005 41.8347 143.805C41.7679 143.738 37.6287 139.065 29.2167 135.994C28.8829 135.86 28.6826 135.593 28.6159 135.326C28.5491 135.059 28.6159 134.659 28.8161 134.392L29.15 133.991C27.4141 132.456 25.4113 129.518 25.3445 129.384C25.0107 128.917 25.1443 128.316 25.6116 127.982C24.2764 125.646 22.2735 122.909 21.6059 125.512C20.8047 128.45 26.4795 141.802 35.6259 148.211C35.8929 147.811 36.3602 147.61 36.8276 147.811L40.633 149.28C41.1671 149.48 41.4342 150.081 41.2339 150.548C41.1003 150.949 40.6998 151.216 40.2992 151.216C40.1657 151.216 40.0321 151.216 39.9654 151.149L36.1599 149.68C35.9597 149.613 35.7594 149.48 35.6926 149.28C31.8204 152.217 13.7947 166.905 18.8019 182.393C24.4099 199.685 48.3774 165.636 52.4499 153.886C56.4556 142.203 53.0507 132.723 50.5805 125.779Z" fill="#4BC17E"/>
<path d="M25.2778 129.384C25.3446 129.518 27.3474 132.455 29.0832 133.991L30.4185 132.522C29.15 131.387 27.5477 129.117 26.9469 128.316C26.613 127.849 26.0122 127.715 25.5449 128.049C25.6116 128.249 25.7451 128.45 25.8119 128.65C26.4127 129.718 26.8133 130.586 26.8133 130.586C26.4795 129.919 26.1457 129.251 25.8119 128.65C25.6784 128.45 25.6116 128.249 25.4781 128.116C25.1443 128.316 25.0108 128.917 25.2778 129.384Z" fill="#030401"/>
<path d="M25.8787 128.583C26.2125 129.184 26.5463 129.852 26.8801 130.519C26.8801 130.519 26.4795 129.652 25.8787 128.583Z" fill="#030401"/>
<path d="M33.9568 128.45C29.0164 122.842 26.613 115.565 26.1456 113.896C25.8786 116.166 26.6797 119.17 26.6797 119.17C26.6797 119.17 25.6783 115.965 24.4099 115.097C25.211 117.701 27.7479 124.511 32.6215 129.985L33.9568 128.45Z" fill="#030401"/>
<path d="M37.4284 124.578C34.2239 119.838 32.1542 114.63 31.2863 112.093C31.2196 113.161 31.3531 114.697 31.7537 116.7C31.7537 116.7 30.5519 112.828 29.0164 111.693C29.6173 113.629 31.9539 120.238 36.0264 126.18L37.4284 124.578Z" fill="#030401"/>
<path d="M37.8957 126.981C37.6954 127.115 37.4951 127.181 37.2949 127.181C36.9611 127.181 36.694 127.048 36.4937 126.781C36.3602 126.58 36.2267 126.38 36.0264 126.18L33.9568 128.517C34.1571 128.784 34.4241 129.051 34.6911 129.318C35.0917 129.718 35.0917 130.319 34.6911 130.72C34.4908 130.92 34.2238 130.987 34.0235 130.987C33.7565 130.987 33.4894 130.853 33.2892 130.653C33.0889 130.453 32.8886 130.252 32.6883 129.985L30.4851 132.522C30.6187 132.656 30.6854 132.723 30.819 132.789C31.2863 133.123 31.353 133.724 31.0192 134.191C30.8189 134.458 30.5519 134.592 30.2181 134.592C30.0178 134.592 29.8175 134.525 29.6172 134.392C29.4837 134.258 29.2834 134.125 29.1499 133.991L28.8161 134.392C28.6158 134.659 28.4823 134.992 28.6158 135.326C28.7493 135.66 28.9496 135.927 29.2167 135.994C37.6287 139.065 41.8347 143.738 41.8347 143.805C42.0349 144.005 42.302 144.139 42.5691 144.139C42.7693 144.139 43.0364 144.072 43.2367 143.872C43.6373 143.538 43.704 142.87 43.3034 142.47C43.1031 142.269 39.231 137.863 31.2195 134.592L39.498 125.178C39.8318 124.778 39.8318 124.11 39.4312 123.776C39.0307 123.443 38.363 123.443 38.0292 123.843L37.4284 124.511C37.6287 124.845 37.8957 125.178 38.1628 125.512C38.4298 126.046 38.3631 126.647 37.8957 126.981Z" fill="#030401"/>
<path d="M30.1514 134.592C30.4852 134.592 30.7522 134.458 30.9525 134.191C31.2863 133.724 31.2196 133.123 30.7522 132.789C30.6187 132.723 30.552 132.589 30.4184 132.522L29.0832 133.991C29.2167 134.125 29.417 134.258 29.5505 134.392C29.7508 134.525 29.9511 134.592 30.1514 134.592Z" fill="#030401"/>
<path d="M33.9568 130.92C34.2238 130.92 34.4241 130.853 34.6244 130.653C35.025 130.252 35.025 129.652 34.6244 129.251C34.3574 128.984 34.1571 128.717 33.89 128.45L32.5548 129.985C32.7551 130.186 32.9554 130.386 33.1556 130.653C33.4227 130.853 33.6897 130.92 33.9568 130.92Z" fill="#030401"/>
<path d="M36.4938 126.714C36.6941 126.981 37.0279 127.115 37.2949 127.115C37.4952 127.115 37.6955 127.048 37.8958 126.914C38.3631 126.58 38.4299 125.98 38.0961 125.512C37.829 125.178 37.6287 124.845 37.3617 124.511L36.0264 126.046C36.2267 126.313 36.3602 126.514 36.4938 126.714Z" fill="#030401"/>
<path d="M36.0265 149.68L39.8319 151.149C39.9654 151.216 40.0989 151.216 40.1657 151.216C40.5663 151.216 40.9669 150.949 41.1004 150.548C41.3007 150.014 41.0336 149.48 40.4995 149.28L36.6941 147.811C36.2267 147.61 35.6927 147.811 35.4924 148.211C35.7594 148.412 35.9597 148.545 36.2268 148.745C36.2268 148.745 35.9597 148.946 35.4924 149.28C35.6927 149.413 35.8262 149.547 36.0265 149.68Z" fill="#030401"/>
<path d="M67.1374 130.853C63.5323 125.112 62.6644 127.382 62.6644 129.785C63.6658 130.786 65.1346 132.656 66.6701 135.66C66.9371 136.127 66.7368 136.728 66.2027 136.995C66.0692 137.062 65.9357 137.129 65.7354 137.129C65.3348 137.129 65.001 136.929 64.8675 136.595C62.5976 132.055 60.3944 130.453 60.3944 130.453C60.1274 130.252 59.9271 129.919 59.9939 129.585C56.5223 126.247 51.0478 121.44 48.3106 121.44C46.6415 121.44 46.3077 122.174 46.508 122.975C48.2438 124.244 54.1188 128.65 56.7225 131.187C57.1231 131.588 57.1231 132.188 56.7225 132.589C56.5223 132.789 56.2552 132.856 55.9882 132.856C55.7211 132.856 55.4541 132.789 55.2538 132.589C52.3163 129.718 44.839 124.244 44.7722 124.177C44.6387 124.11 44.5719 123.977 44.5051 123.843C43.8375 123.776 43.2367 123.843 42.7694 124.311C42.1017 124.911 42.2352 125.846 42.6358 126.781C42.6358 126.781 42.7026 126.781 42.7026 126.847C43.0364 127.048 50.3802 132.456 53.3845 135.46C53.785 135.86 53.785 136.461 53.3845 136.862C53.1842 137.062 52.9171 137.129 52.6501 137.129C52.383 137.129 52.116 137.062 51.9157 136.862C49.312 134.325 43.1031 129.652 41.7011 128.65C40.9 128.85 40.4995 129.718 41.2338 131.254C41.3674 131.321 41.4341 131.321 41.5009 131.387C41.8347 131.654 49.6458 137.93 51.4484 140.667C51.7822 141.135 51.6487 141.735 51.1813 142.069C50.981 142.203 50.8475 142.203 50.6472 142.203C50.3134 142.203 49.9796 142.069 49.7793 141.735C48.5776 139.933 43.9043 135.86 41.2338 133.724C40.7665 133.791 40.3659 134.058 40.2324 134.859C39.7651 137.93 53.518 150.081 53.3177 157.558C53.1174 165.035 49.1785 187.868 66.8036 187.133C84.5623 186.399 72.3448 139.198 67.1374 130.853Z" fill="#4BC17E"/>
<path d="M49.846 141.802C50.0463 142.069 50.3801 142.269 50.7139 142.269C50.9142 142.269 51.1145 142.203 51.2481 142.136C51.7154 141.802 51.8489 141.201 51.5151 140.734C49.7125 137.93 41.9014 131.721 41.5676 131.454C41.5008 131.387 41.3673 131.32 41.3005 131.32C41.7011 132.255 42.569 133.457 43.971 134.859C43.971 134.859 42.3687 133.724 41.3005 133.857C43.971 135.927 48.6443 140 49.846 141.802Z" fill="#030401"/>
<path d="M52.7168 137.196C52.9839 137.196 53.2509 137.129 53.4512 136.929C53.8518 136.528 53.8518 135.927 53.4512 135.527C50.4469 132.522 43.0364 127.181 42.7693 126.914C42.7693 126.914 42.7025 126.914 42.7025 126.847C43.3702 128.383 44.9057 129.985 44.9057 129.985C43.9043 128.917 42.7026 128.517 41.9014 128.717C43.3034 129.718 49.5123 134.325 52.116 136.929C52.1827 137.062 52.4498 137.196 52.7168 137.196Z" fill="#030401"/>
<path d="M44.8389 124.244C44.9057 124.311 52.383 129.785 55.3205 132.656C55.5208 132.856 55.7879 132.923 56.0549 132.923C56.3219 132.923 56.589 132.856 56.7893 132.656C57.1899 132.255 57.1899 131.654 56.7893 131.254C54.1856 128.65 48.3106 124.311 46.5748 123.042C46.8418 124.311 48.2438 125.846 48.2438 125.846C48.2438 125.846 46.3077 124.177 44.5719 123.91C44.5719 124.043 44.7054 124.177 44.8389 124.244Z" fill="#030401"/>
<path d="M60.3944 130.453C60.3944 130.453 62.5976 132.055 64.8675 136.595C65.0678 136.929 65.4016 137.129 65.7354 137.129C65.8689 137.129 66.0692 137.129 66.2027 136.995C66.67 136.728 66.8703 136.127 66.67 135.66C65.2013 132.656 63.6658 130.786 62.6643 129.785C62.6643 130.92 62.8646 132.122 63.0649 132.589C63.0649 132.589 61.7964 131.254 59.9939 129.518C59.9271 129.919 60.0606 130.252 60.3944 130.453Z" fill="#030401"/>
<path d="M48.3106 121.44C44.2382 121.44 48.1771 125.846 48.1771 125.846C48.1771 125.846 44.5052 122.708 42.7694 124.377C41.0336 126.046 44.839 129.985 44.839 129.985C42.2353 127.248 38.0293 128.85 44.0379 134.859C44.0379 134.859 40.7665 132.522 40.366 134.992C39.9654 137.529 49.6459 146.609 52.5834 153.886" stroke="#030401" stroke-width="2.00286" stroke-miterlimit="10" stroke-linecap="round" stroke-linejoin="round"/>
<path d="M74.815 155.956C74.815 155.956 76.2838 163.7 76.1502 174.849" stroke="#030401" stroke-width="2.00286" stroke-miterlimit="10" stroke-linecap="round" stroke-linejoin="round"/>
<path d="M50.9144 157.358C50.9144 157.358 40.5663 173.848 33.5563 181.659" stroke="#030401" stroke-width="2.00286" stroke-miterlimit="10" stroke-linecap="round" stroke-linejoin="round"/>
<path d="M53.4513 157.625L52.5834 169.442" stroke="#030401" stroke-width="2.00286" stroke-miterlimit="10" stroke-linecap="round" stroke-linejoin="round"/>
<path d="M91.9729 68.4309H49.3121C40.8333 68.4309 34.0236 61.5544 34.0236 53.1424V24.0343C34.0236 15.5555 40.9001 8.74583 49.3121 8.74583H91.9729C100.452 8.74583 107.261 15.6223 107.261 24.0343V53.1424C107.261 61.5544 100.452 68.4309 91.9729 68.4309Z" fill="#010101"/>
<path d="M59.7936 63.0232L67.271 82.1171C68.0721 84.1867 70.9429 84.2535 71.8108 82.1839L80.156 63.0232H59.7936Z" fill="#010101"/>
<path d="M73.1461 24.0343C73.8138 26.2374 72.8123 28.2403 69.6078 28.307C67.6049 28.3738 65.5353 27.1721 65.5353 27.1721L65.4685 31.5116C65.4685 31.5116 66.5367 29.5755 68.5396 29.0414C73.2797 27.7729 75.9501 32.4463 72.345 35.2503C68.4728 38.3213 61.4628 36.6523 61.4628 32.4463C61.4628 29.709 61.9969 27.8397 61.9969 25.7033C61.9969 22.8993 61.3293 21.03 61.5296 18.6266C61.8634 14.7544 69.2739 12.4845 72.5453 16.0229C73.8138 17.3581 73.747 19.7615 72.1447 20.8965C68.4728 23.4334 65.6021 19.9618 65.6021 19.9618L65.4685 23.9675C67.5382 21.5641 72.4785 22.0314 73.1461 24.0343Z" fill="#FFCA49"/>
<path d="M79.7556 30.9775C79.7556 30.9775 80.9573 29.7757 83.0937 29.3084C87.4999 28.307 89.6363 35.2502 84.2954 36.4519C79.1547 37.5869 75.6831 36.3184 75.6831 31.9789C75.6831 29.1749 76.284 27.2388 76.284 25.0357C76.284 22.1649 75.6831 20.2288 75.8166 17.7586C76.0837 12.885 81.4914 13.4859 81.0908 18.4262C80.5567 23.3666 79.7556 30.9775 79.7556 30.9775Z" fill="#FFCA49"/>
<path d="M92.7741 30.9775C92.7741 30.9775 93.9759 29.7757 96.0455 29.3084C100.452 28.307 102.588 35.2502 97.2472 36.4519C92.1066 37.5869 88.6349 36.3184 88.6349 31.9789C88.6349 29.1749 89.2358 27.2388 89.2358 25.0357C89.2358 22.1649 88.6349 20.2288 88.7684 17.7586C89.0355 12.885 94.4432 13.4859 94.0426 18.4262C93.5753 23.3666 92.7741 30.9775 92.7741 30.9775Z" fill="#FFCA49"/>
<path d="M58.5253 15.155C56.8563 14.02 54.9202 14.4873 53.9188 16.3567C52.7839 18.4263 53.4515 24.1678 53.7853 26.2374C53.852 26.638 53.5182 26.9718 53.1177 26.905C52.7171 26.905 52.45 26.5712 52.5168 26.1707C52.7171 25.1692 53.0509 23.3667 52.9841 21.8979C52.9841 20.8297 52.6503 20.2956 52.0494 19.895C50.8477 19.0939 48.1773 19.361 48.244 21.8979C48.3108 23.3667 48.5111 25.236 48.7113 26.1707C48.7781 26.5712 48.5111 26.905 48.1105 26.905C47.7099 26.905 47.4429 26.5712 47.5096 26.1707C47.8435 24.101 48.5111 18.3595 47.4429 16.2899C46.3747 14.3538 44.4386 13.8865 42.8363 15.0214C40.4996 16.6237 40.9002 19.7615 41.3008 21.5641C43.3037 29.7758 42.102 32.8469 43.4372 34.9165C44.3051 36.2517 45.9741 36.9193 47.7099 36.5187C49.7128 36.0514 50.3804 31.1778 50.5807 28.7076H50.6475C50.8477 31.1778 51.5154 36.0514 53.5182 36.5187C55.1873 36.9193 56.8563 36.3185 57.791 34.9165C59.193 32.8469 57.9913 29.7758 59.9941 21.5641C60.4614 19.9618 60.862 16.824 58.5253 15.155Z" fill="#FFCA49"/>
<path d="M42.8361 40.7915C41.9682 40.9918 41.3673 41.7929 41.3673 42.6608C41.3673 44.5301 41.3006 47.8682 41.2338 51.5401C41.1671 54.945 41.1003 57.9493 41.1003 59.6851C41.1003 60.6865 41.9014 61.5544 42.9029 61.5544C46.2409 61.6879 53.0507 60.9535 54.2524 53.2092C55.7879 43.6622 50.0463 38.9222 42.8361 40.7915ZM45.8404 54.0771C46.2409 50.4052 45.9739 47.8682 45.9739 47.8682C47.0421 47.6679 48.6443 49.0032 48.7111 50.4052C48.8446 53.543 45.8404 54.0771 45.8404 54.0771Z" fill="#FFCA49"/>
<path d="M76.217 54.8115C76.217 54.8115 80.7568 59.8854 76.7511 61.4209C74.815 62.1553 72.9457 60.7533 72.3449 59.0842C71.5437 56.8811 71.9443 54.1439 71.8108 51.8072C71.6105 48.8697 69.8079 41.1921 74.1474 40.3242C76.217 39.9236 78.487 41.1921 78.8208 44.2632C79.4216 49.6041 81.4912 49.8711 81.4912 49.8711C81.4912 49.8711 80.3563 47.1339 80.2227 46.4663C79.0878 42.2603 80.9571 40.2574 82.96 40.1239C87.7001 39.8569 87.2995 43.7958 87.2327 48.2689C87.166 51.3399 87.9003 58.8172 85.4302 60.553C84.0282 61.5544 81.2242 61.5544 79.9557 59.5516C79.1546 58.2831 78.8208 57.2149 78.2867 56.4806C77.0182 54.8115 76.217 54.8115 76.217 54.8115Z" fill="#FFCA49"/>
<path d="M99.4501 49.337C100.118 51.4066 99.1163 53.4095 96.0453 53.4762C94.1092 53.543 92.173 52.408 92.173 52.408L92.1063 56.5473C92.1063 56.5473 93.1077 54.6779 95.0438 54.1438C99.5836 52.9421 102.121 57.4152 98.7157 60.1524C94.9771 63.0899 88.3009 61.4876 88.3009 57.4819C88.3009 54.8782 88.8349 53.0089 88.8349 51.006C88.8349 48.3356 88.1674 46.533 88.3676 44.2631C88.7015 40.5244 95.7782 38.3881 98.9161 41.7929C100.118 43.1281 100.051 45.398 98.5154 46.4662C94.977 48.8697 92.2399 45.5316 92.2399 45.5316L92.1063 49.337C94.1092 46.9336 98.8492 47.4009 99.4501 49.337Z" fill="#FFCA49"/>
<path d="M70.342 50.3384C70.342 45.7986 69.8079 39.79 62.7979 40.3241C60.528 40.5244 56.322 40.7915 55.9882 46.4662C55.6544 52.141 55.5208 57.6822 57.3902 59.685C59.2595 61.6879 64.6005 62.5558 67.538 60.0189C70.5423 57.4819 70.342 53.7432 70.342 50.3384ZM64.2667 51.0728C63.9996 53.2091 64.6005 55.0117 62.5976 54.8114C61.2624 54.6779 61.5962 52.9421 61.8632 50.8057C62.1303 48.6694 61.6629 46.8668 63.5323 47.067C64.734 47.2006 64.5337 48.9364 64.2667 51.0728Z" fill="#FFCA49"/>
</svg>
