<svg width="128" height="230" viewBox="0 0 128 230" fill="none" xmlns="http://www.w3.org/2000/svg">
<path d="M50.952 103.86C49.6695 111.006 46.7532 131.419 45.4554 140.733C34.4623 138.443 33.0881 147.604 30.3398 164.094C27.5915 180.583 31.7139 189.973 36.7525 197.76C40.7833 203.99 48.9671 208.448 52.5552 209.898V223.411L55.0744 227.762L106.834 225.701C106.758 222.342 106.376 214.479 105.46 209.898C104.315 204.173 108.666 186.08 110.498 175.545C112.331 165.01 112.102 151.039 110.498 146.459C109.216 142.794 103.704 140.351 101.108 139.588C100.345 138.596 98.5891 136.244 97.673 134.778C96.5279 132.946 92.4054 130.885 85.0766 132.488C83.9315 126.763 80.7252 125.388 77.7479 124.472C74.7705 123.556 70.6481 124.014 63.5483 129.282C61.7161 125.159 63.3193 120.121 63.5483 114.166C63.7774 108.212 67.8998 99.0506 67.8998 92.867C67.8998 86.6833 63.7774 85.7672 59.8839 85.5382C55.9905 85.3092 52.5552 94.9282 50.952 103.86Z" fill="#DA9267" stroke="black" stroke-width="0.229024"/>
<ellipse cx="62.1742" cy="43.3978" rx="40.0793" ry="41.4534" fill="#FC5353"/>
<path fill-rule="evenodd" clip-rule="evenodd" d="M60.6854 0.0603544C60.1815 0.094708 58.9448 0.271745 57.9371 0.453361C56.9294 0.634978 55.6599 0.836754 55.1162 0.901339C53.9731 1.03738 52.5101 1.41732 51.5244 1.83438C51.1465 1.99424 50.4766 2.19922 50.0357 2.29014C49.5948 2.38106 48.9765 2.58901 48.6616 2.75254C47.1438 3.54084 45.9382 4.08752 44.7785 4.51305C44.0799 4.76956 43.2687 5.19829 42.9758 5.46579C42.4797 5.91881 41.4402 6.56946 39.5006 7.64061C39.0597 7.88406 38.4491 8.35105 38.1439 8.67832C37.8383 9.00537 37.5152 9.2731 37.4254 9.2731C36.9896 9.2731 31.4137 14.7236 30.9385 15.6143C30.7496 15.9686 29.8172 17.1859 28.8667 18.3196C27.9163 19.4532 27.1374 20.5613 27.136 20.7816C27.1344 21.0019 27.0323 21.1824 26.9086 21.1824C26.7852 21.1824 26.6173 21.4659 26.5357 21.8122C26.4544 22.1585 26.0582 22.9573 25.6554 23.5871C24.9768 24.648 24.3156 26.0379 24.3538 26.3224C24.363 26.389 24.022 27.2572 23.5964 28.2514C22.8001 30.1118 21.7633 33.8582 21.5043 35.8113C21.3602 36.8971 21.3728 36.9262 22.2035 37.4394C22.9526 37.9025 23.1482 37.9325 23.9187 37.7017C24.9081 37.4053 25.0361 37.1575 25.6517 34.3513C25.8727 33.3436 26.1798 32.2099 26.3344 31.832C26.4888 31.4541 26.899 30.3204 27.2457 29.3127C27.5925 28.305 28.0102 27.3259 28.1739 27.137C28.3377 26.9481 28.5475 26.4896 28.6402 26.1181C28.733 25.7468 29.1503 24.9959 29.5673 24.4494C29.9844 23.903 30.5345 23.0217 30.7899 22.491C31.3943 21.2346 32.5928 19.3199 32.9649 19.0163C33.1259 18.885 33.7512 18.1592 34.3542 17.4035C34.9574 16.6477 35.639 15.8958 35.8689 15.7325C36.0989 15.5694 36.9843 14.72 37.8365 13.8449C38.6887 12.9698 39.4827 12.2529 39.6009 12.252C39.7191 12.2511 40.389 11.8111 41.0896 11.2741C41.7901 10.7372 42.7981 10.0625 43.3292 9.77511C43.8605 9.48746 44.7995 8.91261 45.4163 8.49762C46.0328 8.08286 47.0852 7.56412 47.7549 7.34517C48.4243 7.12599 49.3917 6.75543 49.9047 6.52136C52.273 5.44083 53.7473 4.92163 54.4467 4.92163C54.8649 4.92163 55.7698 4.77735 56.4576 4.60077C58.0809 4.18417 63.4423 3.77078 65.4949 3.90385C66.3766 3.96087 68.1802 4.21601 69.5028 4.47068C70.8254 4.72513 72.3713 4.99263 72.9382 5.06477C73.505 5.13714 74.0668 5.28899 74.1863 5.40235C74.3059 5.51595 74.5391 5.6087 74.7042 5.6087C74.8693 5.6087 75.4709 5.82811 76.0412 6.09607C76.6117 6.36425 77.1421 6.51976 77.22 6.44166C77.2981 6.36357 77.5113 6.42357 77.6939 6.57519C78.0949 6.90796 78.8074 7.32936 79.5799 7.6903C81.9212 8.78458 83.0597 9.38921 83.198 9.61159C83.2864 9.75382 83.7389 10.047 84.2036 10.2629C84.6683 10.4789 85.5959 11.1534 86.2649 11.7617C86.9338 12.37 87.7132 12.9902 87.9965 13.1397C88.2798 13.2893 88.5118 13.4975 88.5118 13.6023C88.5118 13.707 89.2151 14.5088 90.0749 15.3839C90.9344 16.259 91.9795 17.4839 92.397 18.1054C92.8145 18.727 93.2732 19.3387 93.4166 19.4647C93.8041 19.8055 95.1535 21.9125 95.1535 22.177C95.1535 22.303 95.3008 22.5687 95.4808 22.7674C95.9448 23.2805 98.1309 27.7542 98.1309 28.1914C98.1309 28.3914 98.274 28.8286 98.449 29.163C98.7321 29.7041 99.2817 31.7141 99.398 32.6336C99.4219 32.8225 99.4947 33.1317 99.56 33.3207C100.208 35.2003 100.853 43.1007 100.508 44.9478L100.369 45.6962L95.3047 45.5593C92.5195 45.4837 90.1755 45.3818 90.0958 45.3325C90.0161 45.2833 88.4161 45.1809 86.5404 45.1049C84.6644 45.0291 82.2022 44.9253 81.0685 44.8747C79.9349 44.8241 75.2456 44.735 70.6479 44.6768C66.0503 44.6184 60.4334 44.4959 58.1661 44.4045C55.8987 44.3129 53.6829 44.2543 53.2421 44.2742C52.8012 44.2939 51.9696 44.2021 51.3943 44.0702C50.819 43.938 49.6853 43.7885 48.875 43.7376C48.0647 43.6868 46.4744 43.5487 45.3407 43.4305C42.6559 43.1509 39.0954 42.9484 34.6911 42.8252C29.4982 42.6798 26.593 42.4865 24.2705 42.1324C23.1368 41.9592 21.2954 41.8191 20.1787 41.8207C18.4109 41.823 16.6059 41.569 15.453 41.1556C15.0124 40.9978 15.033 41.0028 14.0216 40.8006C13.5494 40.706 13.1628 40.531 13.1628 40.412C13.1628 40.2926 12.7837 40.0139 12.3204 39.7924C11.8571 39.571 11.4451 39.2868 11.4048 39.1608C11.315 38.8805 13.1795 37.6721 13.7021 37.6721C13.9094 37.6721 14.0789 37.5791 14.0789 37.4655C14.0789 37.2132 15.3335 36.756 16.0263 36.756C16.8059 36.756 17.7433 35.7554 17.7433 34.9234C17.7433 33.9899 17.1904 32.9512 16.6133 32.8003C15.9812 32.635 14.3535 33.0261 13.5132 33.5456C13.1314 33.7812 12.3039 34.1468 11.6741 34.3577C11.0443 34.5684 10.3229 34.9238 10.0709 35.1474C9.81901 35.3709 9.39212 35.6672 9.12233 35.806C8.49297 36.1299 7.51824 37.7908 7.35701 38.8138C7.19028 39.8717 7.83658 41.2928 8.95903 42.336C9.44456 42.7872 9.92024 43.1591 10.0162 43.1625C10.1119 43.166 10.6272 43.3638 11.1613 43.6023C12.0529 44.0005 15.7924 45.2194 16.5981 45.3745C16.7871 45.4109 17.7446 45.4704 18.7262 45.5071C20.6226 45.5776 20.7565 45.6754 20.7002 46.9476C20.642 48.2618 21.3351 52.692 21.8966 54.5943C22.1341 55.3989 22.3821 56.3628 22.4481 56.7364C22.5138 57.1099 22.7703 57.8132 23.0184 58.299C23.2662 58.7848 23.4689 59.4606 23.4689 59.8009C23.4689 60.1413 23.7142 60.8412 24.0137 61.356C24.3135 61.8709 24.7968 62.8591 25.0878 63.5519C25.3787 64.2447 25.8091 65.0692 26.0438 65.3841C26.787 66.3808 27.5913 67.6872 27.5913 67.8972C27.5913 68.0085 27.7273 68.2359 27.8936 68.4024C28.0597 68.5687 28.6533 69.3233 29.2128 70.0791C30.5556 71.8934 31.012 72.4126 33.3181 74.748C35.7954 77.2572 37.159 78.417 37.8294 78.5851C38.1212 78.6584 38.4123 78.8033 38.4766 78.9073C38.9241 79.6315 44.1642 82.593 45.9195 83.1138C46.6088 83.3183 47.9974 83.8359 49.0051 84.2639C50.0128 84.6918 51.198 85.0951 51.6389 85.1599C52.0798 85.2249 52.8012 85.385 53.2421 85.516C53.6829 85.647 54.5443 85.8025 55.1563 85.8616C55.768 85.9209 56.3142 86.0148 56.3698 86.0703C56.4255 86.1259 56.057 86.6497 55.5513 87.2342C55.0454 87.8184 54.5088 88.7066 54.3586 89.2077C54.2085 89.7088 53.999 90.1187 53.893 90.1187C53.7869 90.1187 53.7001 90.3638 53.7001 90.6633C53.7001 90.9627 53.5455 91.336 53.3566 91.4929C53.1676 91.6498 53.013 91.8625 53.013 91.9658C53.013 92.0693 52.781 92.5459 52.4977 93.0253C52.0335 93.8101 50.3948 98.2528 50.1484 99.3942C49.8188 100.92 49.284 102.885 49.1079 103.218C48.9948 103.431 48.8478 104.27 48.7809 105.082C48.7142 105.893 48.5168 106.904 48.3423 107.327C48.1678 107.751 47.9495 108.767 47.857 109.586C47.7645 110.405 47.5911 111.332 47.4715 111.647C47.3522 111.962 47.1555 112.735 47.0346 113.365C46.6565 115.333 45.4786 124.094 45.4951 124.816C45.5099 125.466 45.0881 129.088 44.4949 133.404C44.3479 134.475 44.2309 136.193 44.2348 137.223L44.2421 139.094L42.272 139.248C41.1887 139.333 39.7511 139.557 39.0776 139.747C36.8938 140.362 34.5257 142.289 33.3639 144.398C31.9446 146.973 31.034 148.903 31.0306 149.342C31.0285 149.606 30.8742 150.327 30.6877 150.946C30.5015 151.564 30.1403 153.77 29.8857 155.849C29.6308 157.927 29.3651 159.937 29.2955 160.315C29.2256 160.693 29.1702 161.259 29.1723 161.574C29.1743 161.889 29.0834 162.405 28.9705 162.719C28.8576 163.034 28.7051 164.089 28.6318 165.064C28.5585 166.038 28.3989 167.098 28.277 167.418C27.8485 168.545 27.3786 174.979 27.497 178.098C27.709 183.691 27.8554 184.588 29.1917 188.485C29.71 189.996 30.1937 191.491 30.2668 191.806C30.3398 192.121 30.5276 192.533 30.6841 192.722C31.1217 193.25 32.3997 195.776 32.4004 196.114C32.4013 196.657 35.3007 200.823 36.6701 202.25C37.9783 203.612 39.7475 205.089 40.0713 205.089C40.1602 205.089 40.8473 205.707 41.5985 206.463C42.3494 207.219 43.0147 207.837 43.0766 207.837C43.1386 207.837 43.5685 208.095 44.0318 208.41C44.4954 208.725 45.1971 208.982 45.5915 208.982C46.0958 208.982 46.7767 209.33 47.8859 210.153C48.7534 210.797 49.7936 211.484 50.1974 211.68L50.9317 212.035L50.9353 214.688C50.9374 216.148 50.9981 219.601 51.07 222.362C51.2195 228.109 51.2821 228.324 53.0668 229.257C54.1593 229.829 55.0161 229.847 55.694 229.314C55.8461 229.195 56.0655 229.156 56.1821 229.228C56.2986 229.3 57.3079 229.42 58.4251 229.495C59.5423 229.569 60.817 229.721 61.2579 229.832C62.1332 230.052 65.087 229.92 66.1819 229.611C66.5598 229.505 69.9249 229.405 73.66 229.39C77.3952 229.375 81.0023 229.254 81.6759 229.122C83.2342 228.816 88.0803 228.648 88.3911 228.89C88.5205 228.99 89.2962 229.004 90.115 228.921C91.5615 228.774 94.6041 228.789 102.74 228.984C106.592 229.077 106.695 229.067 107.159 228.565C108.786 226.808 109.217 225.991 109.024 225.032C108.959 224.707 108.842 222.793 108.764 220.777C108.686 218.762 108.563 217.017 108.49 216.899C108.417 216.781 108.341 216.163 108.322 215.525C108.302 214.887 108.191 212.973 108.075 211.273C107.959 209.572 107.874 207.15 107.886 205.891C107.898 204.631 107.92 202.464 107.935 201.076C107.953 199.378 108.071 198.328 108.296 197.869C108.48 197.495 108.691 196.363 108.766 195.355C109 192.218 109.185 191.126 110.154 187.151C110.486 185.787 110.795 184.224 110.839 183.677C110.884 183.129 111.029 182.479 111.162 182.231C111.294 181.982 111.461 181.047 111.533 180.153C111.604 179.258 111.813 178.1 111.996 177.579C112.18 177.059 112.33 176.329 112.33 175.959C112.33 175.589 112.434 175.092 112.561 174.856C112.687 174.619 112.839 173.827 112.898 173.096C112.957 172.364 113.062 171.457 113.132 171.079C113.261 170.385 113.455 168.85 113.494 168.216C113.506 168.027 113.66 166.533 113.837 164.895C114.248 161.087 114.291 156.215 113.932 154.017C113.778 153.072 113.663 152.059 113.677 151.766C113.691 151.473 113.599 151.041 113.473 150.805C113.346 150.569 113.198 149.928 113.142 149.38C113.087 148.833 112.83 147.892 112.572 147.289C112.313 146.685 112.098 146.02 112.094 145.81C112.09 145.6 111.936 145.228 111.75 144.984C111.566 144.739 111.411 144.378 111.408 144.182C111.4 143.765 110.471 142.709 109.344 141.838C108.908 141.5 108.252 140.959 107.886 140.635C107.52 140.311 107.116 140.046 106.988 140.046C106.86 140.046 106.593 139.9 106.394 139.722C106.195 139.544 105.378 139.179 104.578 138.91C102.697 138.279 101.915 137.684 101.604 136.645C101.264 135.512 99.9294 134.132 97.9405 132.857C97.035 132.276 96.229 131.801 96.1498 131.801C96.0705 131.801 95.5204 131.503 94.9273 131.137C94.3341 130.773 93.2405 130.345 92.4971 130.187C91.0501 129.88 88.321 129.824 87.3422 130.082C86.8184 130.22 86.7291 130.159 86.6144 129.589C86.4973 129.007 84.9746 126.758 84.5751 126.576C84.4883 126.537 83.973 126.152 83.43 125.72C82.887 125.288 82.3298 124.934 82.1919 124.933C82.054 124.931 81.7565 124.726 81.5309 124.477C81.1031 124.005 78.9423 123.098 78.2428 123.098C78.0209 123.098 77.7101 122.97 77.5525 122.812C77.2601 122.52 77.0881 122.497 74.0833 122.339C72.6741 122.265 72.1219 122.345 71.0093 122.788C70.2632 123.085 69.4625 123.327 69.2298 123.327C68.8098 123.327 67.6239 124.023 66.5255 124.914C66.2106 125.169 65.8283 125.381 65.6758 125.383C65.5235 125.386 65.1262 125.672 64.7929 126.018L64.1869 126.648L64.3532 125.159C64.4448 124.341 64.5488 123.207 64.5843 122.64C64.62 122.073 64.7054 121.197 64.7744 120.694C64.8431 120.19 65.0134 118.852 65.1529 117.721C65.2922 116.59 65.594 114.941 65.8238 114.056C66.0532 113.172 66.4197 111.418 66.6381 110.158C66.8564 108.899 67.1782 107.543 67.353 107.146C67.5277 106.75 67.6706 106.202 67.6706 105.929C67.6706 105.656 67.7711 105.245 67.8941 105.016C68.0169 104.786 68.1378 104.252 68.1628 103.828C68.1877 103.405 68.3006 102.871 68.4136 102.642C68.5267 102.414 68.7085 101.744 68.818 101.154C68.9275 100.564 69.1648 99.3599 69.3455 98.4781C69.8241 96.1439 69.8553 90.8871 69.3986 89.542C68.9314 88.1658 68.4763 87.296 68.0293 86.925C67.246 86.2748 67.6383 85.8827 69.2738 85.6805C70.4258 85.5382 71.3609 85.2895 72.0525 84.9416C72.3842 84.7747 72.9782 84.5814 73.3728 84.5118C74.4135 84.3283 76.0719 83.739 76.9763 83.2311C77.4083 82.9885 77.9389 82.7883 78.1553 82.7863C78.372 82.7842 78.9615 82.5321 79.4654 82.2261C79.9692 81.9203 80.7422 81.5042 81.183 81.3018C81.6239 81.0993 82.72 80.4752 83.6189 79.915C84.5179 79.3548 85.3451 78.8965 85.4573 78.8965C85.5695 78.8965 85.982 78.613 86.3736 78.2667C88.5327 76.3576 89.7662 75.3109 90.2004 75.0198C90.4684 74.8401 91.3575 73.9418 92.1762 73.0237C92.995 72.1055 93.9482 71.0763 94.2947 70.7362C94.6412 70.3961 94.9245 69.9989 94.9245 69.8535C94.9245 69.7081 95.1822 69.365 95.4971 69.0913C95.812 68.8174 96.0696 68.4542 96.0696 68.284C96.0696 68.1136 96.2758 67.7877 96.5277 67.5598C96.7796 67.3319 96.9857 67.0145 96.9857 66.8549C96.9857 66.695 97.2177 66.2729 97.501 65.917C98.208 65.0289 98.8179 63.8963 98.8179 63.472C98.8179 63.2782 98.5706 62.8316 98.268 62.4801C97.8159 61.9547 97.5439 61.8454 96.7398 61.8665C96.0637 61.8841 95.6684 62.0248 95.4606 62.3211C95.2951 62.5572 94.938 63.0071 94.6669 63.3208C94.3957 63.6346 93.991 64.3182 93.7673 64.8399C93.5435 65.3619 93.161 65.9296 92.9169 66.1016C92.673 66.2738 92.3065 66.7388 92.1025 67.1347C91.739 67.8401 89.299 70.5882 87.9393 71.8233C87.5614 72.1667 86.8915 72.7736 86.4506 73.1721C85.0485 74.4397 81.3695 76.9409 80.0425 77.5286C79.7303 77.6669 79.4212 77.851 79.3554 77.9376C79.2425 78.0872 77.8356 78.7793 76.2018 79.4893C74.3487 80.2943 73.9088 80.4768 72.9954 80.8187C72.46 81.0191 72.0221 81.1197 72.0221 81.0423C72.0221 80.9651 71.8743 81.0242 71.6941 81.1739C71.5136 81.3237 70.7663 81.5395 70.0337 81.6533C69.3008 81.7671 68.5466 81.8984 68.3577 81.9448C67.0596 82.2643 65.9614 82.3543 62.5175 82.4242C60.3762 82.4677 58.0058 82.4024 57.25 82.2792C56.4942 82.156 55.6196 82.0566 55.3065 82.0582C54.9934 82.0598 54.5361 81.9535 54.2903 81.8221C54.0448 81.6906 53.4763 81.539 53.0275 81.4854C52.1308 81.378 50.0543 80.7651 49.6922 80.5011C49.5662 80.409 49.154 80.2608 48.7761 80.1717C48.3982 80.0826 47.3795 79.6562 46.5124 79.224C45.6451 78.7921 44.7576 78.4385 44.5398 78.4385C44.3223 78.4385 43.7435 78.1195 43.2538 77.7294C42.7639 77.3394 41.6935 76.6264 40.8747 76.145C37.5005 74.161 32.4851 68.9246 30.6783 65.4986C30.3463 64.8688 29.9281 64.1909 29.749 63.9919C29.5699 63.7931 29.4235 63.5224 29.4235 63.3902C29.4235 63.2581 29.279 63.0299 29.1022 62.8834C27.6953 61.7156 25.0246 52.7481 24.5089 47.4588L24.3799 46.1378L27.3025 46.2642C28.91 46.3338 31.2042 46.4362 32.4008 46.4919C33.5975 46.5473 35.9603 46.6522 37.6517 46.7246C39.343 46.7969 40.8175 46.9121 40.9281 46.9806C41.0387 47.0491 42.0643 47.0949 43.2074 47.0827C44.3502 47.0704 45.6586 47.1565 46.1146 47.274C48.2257 47.8179 53.7647 48.1369 64.1207 48.311C75.0301 48.4945 83.5926 48.7068 84.6184 48.819C86.6352 49.04 92.384 49.3247 96.47 49.4064L99.5043 49.4669L99.5046 50.4483C99.5052 52.157 100.435 52.9838 101.92 52.597C102.738 52.3842 103.398 51.2228 103.398 49.9957C103.398 49.5308 103.501 49.0867 103.627 49.0088C103.753 48.931 103.861 48.2292 103.867 47.4494C103.872 46.6696 104.021 45.6262 104.197 45.1305C104.374 44.6349 104.471 44.1526 104.413 44.0585C104.122 43.5881 104.963 43.6691 106.774 44.2864C111.927 46.0425 115.155 47.5273 115.715 48.3994C115.93 48.7347 116.545 49.4463 117.081 49.9808C117.617 50.5156 118.056 51.1097 118.056 51.3011C118.056 51.7171 116.863 52.4838 115.889 52.6932C115.506 52.7756 114.917 52.9838 114.58 53.1562C113.189 53.8665 104.844 54.2391 100.994 53.7629C99.9285 53.6312 99.0536 53.6209 98.904 53.7387C98.7623 53.85 97.5771 53.8894 96.2703 53.8259C94.9632 53.7625 92.2449 53.6493 90.2295 53.5742C88.2141 53.4991 86.0498 53.4006 85.42 53.3553C84.7902 53.3097 81.4407 53.2169 77.9767 53.1491C74.5127 53.0811 70.0296 52.9041 68.0141 52.7555C62.8176 52.3725 61.8932 52.6167 61.8529 54.3829C61.8225 55.7161 62.4912 56.2172 64.4812 56.3521C67.1285 56.5314 67.5531 56.579 67.7851 56.7231C67.9111 56.8012 70.2815 56.8903 73.0527 56.9212C80.0388 56.9986 83.1405 57.0694 86.3361 57.2242C87.8477 57.2975 90.3727 57.4198 91.9472 57.496C99.3882 57.8563 109.152 57.8987 111.529 57.581C113.496 57.3183 116.879 56.5206 117.254 56.2314C117.38 56.1343 117.999 55.8849 118.629 55.6771C119.908 55.2553 121.241 54.0265 121.715 52.8315C121.955 52.2278 121.961 51.8281 121.746 50.8685C121.467 49.6183 120.178 47.4229 119.407 46.8828C119.164 46.7122 119.022 46.4804 119.091 46.3675C119.296 46.0359 114.66 43.1916 113.132 42.7116C112.628 42.5533 112.061 42.2936 111.872 42.1347C111.683 41.9757 111.168 41.7701 110.727 41.6775C110.286 41.5852 109.05 41.1471 107.979 40.7042C106.178 39.9592 105.779 39.8433 104.74 39.7627C104.515 39.7453 104.357 39.5247 104.348 39.218C104.274 36.6337 103.684 33.5909 102.446 29.4018C102.088 28.1912 101.795 27.0752 101.795 26.9217C101.795 26.768 101.331 25.7093 100.765 24.5685C100.198 23.4277 99.734 22.3944 99.734 22.2721C99.734 22.1498 99.4432 21.6743 99.0877 21.2154C98.7325 20.7564 98.3001 20.0201 98.1272 19.5792C97.9541 19.1383 97.6508 18.623 97.4532 18.4341C97.2555 18.2451 96.8089 17.6783 96.4606 17.1744C94.9241 14.952 94.3806 14.3018 92.3461 12.2504C90.0802 9.96544 87.6065 7.84742 86.5857 7.31769C86.2532 7.14523 85.535 6.6384 84.9899 6.1918C84.4446 5.7452 83.8528 5.37968 83.6746 5.37968C83.4964 5.37968 82.9715 5.12203 82.508 4.80712C82.0446 4.49221 81.5312 4.23273 81.3669 4.23066C81.2027 4.2286 80.3471 3.8601 79.4654 3.4119C77.9245 2.62864 75.9063 1.92416 73.9688 1.49336C73.4649 1.38137 72.3553 1.13265 71.5031 0.941184C70.6509 0.749491 69.3125 0.52688 68.5287 0.446721C67.745 0.366563 66.9995 0.235335 66.872 0.154947C66.6388 0.0081425 62.3959 -0.0566771 60.6854 0.0603544ZM3.08569 33.0919C1.37648 33.3907 0.450301 34.6353 0.242346 36.912C0.194251 37.4388 0.0912128 37.9726 0.0135735 38.0983C-0.0642948 38.2243 0.200915 39.2879 0.602853 40.4616C1.85837 44.1283 3.57008 45.6076 5.32349 44.5413C6.44617 43.8585 6.41433 42.6213 5.23898 41.2483C4.81047 40.7477 4.45984 40.1566 4.45984 39.9347C4.45984 39.7127 4.34349 39.4594 4.20149 39.3717C3.80024 39.1237 4.14538 36.5375 4.65588 35.9682C5.24768 35.3079 5.39609 34.7775 5.16134 34.1603C4.85605 33.3573 4.0224 32.9281 3.08569 33.0919ZM30.9122 36.0083C29.7345 36.2909 29.2527 37.3575 29.7906 38.4909C30.0801 39.1012 30.3673 39.3245 31.1091 39.516C31.6306 39.6504 32.2371 39.8128 32.4567 39.8765C32.6766 39.9402 34.2225 40.0423 35.8921 40.1032C41.063 40.2917 43.9111 40.4202 45.3407 40.5292C46.0965 40.5869 48.2092 40.6843 50.0357 40.7454C56.6868 40.968 59.8153 41.1192 62.0274 41.3248C65.0606 41.607 65.9625 41.2445 66.2232 39.6381C66.326 39.0041 66.2406 38.7405 65.7841 38.2841C65.1444 37.6444 64.2616 37.5253 58.6241 37.3183C54.7761 37.1767 50.6967 36.9883 48.6616 36.8575C47.8428 36.805 45.627 36.7121 43.7375 36.6511C41.8481 36.5902 39.4777 36.4897 38.47 36.4278C37.4623 36.366 35.6072 36.2584 34.3475 36.1883C33.0879 36.1182 31.9027 36.0245 31.7138 35.9796C31.5248 35.935 31.1641 35.9478 30.9122 36.0083ZM123.722 45.3108C122.878 46.0249 122.81 46.9142 123.495 48.2769C124.176 49.6334 124.295 51.7542 123.794 53.6235C123.417 55.0301 123.702 56.009 124.61 56.4224C125.824 56.9759 126.575 56.5405 127.412 54.7965C128.172 53.213 128.2 49.5839 127.469 47.6347C126.927 46.1928 126.495 45.579 125.733 45.1711C124.955 44.7547 124.327 44.7982 123.722 45.3108ZM64.2027 88.2336C65.7931 89.7745 66.0459 90.5106 65.9664 93.3681C65.9302 94.6669 65.7225 96.5543 65.5047 97.562C65.2869 98.5697 65.1119 99.6519 65.1158 99.9668C65.1229 100.51 64.9763 101.091 64.1629 103.746C63.97 104.376 63.6402 105.767 63.4302 106.838C63.22 107.908 62.9545 108.963 62.84 109.182C62.7257 109.401 62.6321 109.782 62.6321 110.03C62.6321 110.278 62.5386 110.717 62.4243 111.006C62.3101 111.296 62.0405 112.924 61.8252 114.624C61.6099 116.325 61.3401 117.833 61.2256 117.975C61.1111 118.118 61.025 118.53 61.0344 118.892C61.0594 119.866 60.8319 122.638 60.6519 123.556C60.4268 124.705 60.5532 128.798 60.8422 129.717C61.0555 130.395 61.0273 130.543 60.6244 130.862C60.3698 131.064 60.0922 131.461 60.0072 131.744C59.9222 132.027 59.758 132.259 59.6421 132.259C59.3772 132.259 58.4027 133.787 58.1814 134.549C58.0898 134.864 57.8581 135.469 57.6659 135.894C57.4738 136.319 57.1815 137.401 57.0166 138.299C56.5292 140.95 56.1285 142.336 55.8495 142.336C55.3997 142.336 53.9749 141.672 53.892 141.424C53.8487 141.293 53.5558 141.138 53.2414 141.078C51.8102 140.807 51.2791 140.668 51.0663 140.509C50.9404 140.415 50.5281 140.267 50.1502 140.179C48.9052 139.891 48.1875 139.481 48.0617 138.984C47.9271 138.452 48.0656 135.244 48.2633 134.32C48.5219 133.112 48.9423 129.559 48.998 128.113C49.0298 127.282 49.1354 126.2 49.2328 125.709C49.3301 125.218 49.4325 124.198 49.4604 123.442C49.5133 122.011 49.7595 120.027 49.9576 119.434C50.0208 119.245 50.1115 118.503 50.1591 117.786C50.2068 117.068 50.3479 116.295 50.4727 116.068C50.7219 115.615 51.0837 113.733 51.4994 110.731C51.6476 109.66 51.8528 108.649 51.9554 108.484C52.058 108.318 52.4336 106.772 52.7902 105.048C53.6156 101.056 54.1142 99.2591 54.5216 98.8036C54.6996 98.6048 54.8452 98.1138 54.8452 97.7127C54.8452 97.3115 54.9483 96.8042 55.0743 96.5855C55.2 96.3668 55.4059 95.9302 55.5316 95.6153C55.6573 95.3004 55.8554 94.8882 55.9716 94.6992C56.3609 94.0664 58.0516 90.3952 58.0516 90.1824C58.0516 89.8826 59.174 88.6656 60.209 87.8432C60.8871 87.3043 61.3218 87.1414 62.0838 87.1414C62.9573 87.1414 63.2099 87.2717 64.2027 88.2336ZM76.7784 126.549C79.1907 127.194 81.3083 128.447 82.3813 129.863C82.8547 130.488 83.2394 131.103 83.2362 131.229C83.2333 131.355 82.6307 131.801 81.8976 132.221C80.1261 133.234 75.7414 137.19 74.9089 138.525C74.5443 139.11 74.1648 139.588 74.0654 139.588C73.9663 139.588 73.8233 139.783 73.7478 140.021C73.6724 140.258 73.3541 140.73 73.0408 141.068C72.7272 141.406 72.2172 142.183 71.9073 142.795C71.5972 143.407 71.2477 143.967 71.1302 144.039C71.0127 144.111 70.8472 144.583 70.7622 145.086C70.5845 146.138 70.4693 146.167 68.622 145.612C67.9097 145.399 67.2373 145.248 67.1276 145.278C67.0179 145.308 66.451 145.18 65.868 144.995C65.2849 144.81 64.344 144.587 63.7772 144.501C63.2103 144.415 62.5569 144.245 62.3252 144.123C62.0932 144.001 61.5407 143.868 61.0974 143.826C59.8414 143.71 59.761 143.499 60.2021 141.487C61.3433 136.279 61.3722 136.211 63.7781 132.99C64.2194 132.399 64.7265 131.632 64.9047 131.286C65.0828 130.939 65.302 130.656 65.3913 130.656C65.4809 130.656 65.9616 130.27 66.4595 129.797C66.9577 129.325 67.603 128.784 67.8939 128.595C68.185 128.406 68.681 128.019 68.9964 127.736C69.3118 127.453 69.6933 127.221 69.8445 127.221C69.9959 127.221 70.4255 127.068 70.7998 126.881C71.4403 126.562 73.3339 126.162 74.4882 126.102C74.774 126.088 75.8046 126.289 76.7784 126.549ZM92.6134 134.197C93.7444 134.618 94.5242 135.002 94.6955 135.225C94.7585 135.306 95.282 135.646 95.8589 135.979C96.4358 136.312 97.0396 136.743 97.2006 136.937C97.4495 137.237 97.395 137.328 96.8389 137.538C95.5044 138.043 93.1631 139.261 91.7182 140.201C90.0697 141.274 86.6796 144.479 86.6796 144.964C86.6796 145.061 86.2944 145.771 85.8238 146.543C84.7063 148.376 84.2987 149.213 83.5784 151.154C82.1511 154.999 81.8179 156.3 81.408 159.628C81.2683 160.761 81.0573 161.787 80.9394 161.906C80.8214 162.026 80.725 162.38 80.725 162.693C80.725 163.264 79.9294 164.323 79.5006 164.323C79.3751 164.323 79.1097 164.464 78.9109 164.636C78.4467 165.037 77.2896 165.317 77.2896 165.028C77.2896 164.907 77.3861 164.748 77.5038 164.675C78.2829 164.194 79.778 159.391 79.6909 157.649C79.5899 155.622 79.0992 154.467 77.7067 152.979C76.9592 152.18 76.1354 151.494 75.8756 151.454C75.2767 151.364 73.8678 148.902 73.8682 147.947C73.8687 146.964 74.9529 144.838 76.3786 143.023C76.824 142.457 77.3517 141.735 77.5512 141.42C78.3363 140.181 81.7877 136.783 82.5899 136.459C83.0489 136.274 83.6895 135.825 84.0133 135.461C84.3521 135.082 85.0194 134.693 85.5837 134.548C86.1236 134.409 86.9616 134.169 87.4462 134.014C88.6291 133.637 91.368 133.733 92.6134 134.197ZM101.741 141.878C102.229 142.114 102.93 142.382 103.299 142.475C104.233 142.709 106.086 143.932 107.209 145.056C107.983 145.83 108.281 146.403 108.868 148.243C110.01 151.823 110.716 159.365 110.211 162.605C110.093 163.361 109.962 164.939 109.919 166.112C109.877 167.286 109.688 168.883 109.5 169.662C109.311 170.441 109.09 171.749 109.008 172.568C108.926 173.386 108.771 174.417 108.665 174.858C108.468 175.669 108.432 175.873 107.921 179.021C107.764 179.988 107.558 180.855 107.464 180.948C107.369 181.041 107.292 181.442 107.292 181.838C107.292 182.234 107.073 183.377 106.806 184.377C106.538 185.376 106.176 186.916 106.002 187.798C105.827 188.679 105.626 189.658 105.556 189.973C105.486 190.288 105.353 191.422 105.259 192.493C105.166 193.563 104.978 194.639 104.841 194.883C104.663 195.2 104.662 195.48 104.839 195.868C105.031 196.288 105.005 196.549 104.724 197.028C104.502 197.408 104.261 198.749 104.098 200.509C103.805 203.682 103.807 205.432 104.104 209.67C104.215 211.244 104.463 214.8 104.656 217.571C104.849 220.342 105.043 223.102 105.086 223.704C105.132 224.339 105.058 224.867 104.911 224.961C104.772 225.051 99.5565 225.145 93.3213 225.171C87.0861 225.197 81.5209 225.272 80.954 225.339C80.3872 225.405 77.553 225.514 74.6558 225.58C68.8011 225.714 65.2123 225.859 63.321 226.039C62.6291 226.104 61.7531 226.058 61.3743 225.937C60.9952 225.815 59.4486 225.651 57.9371 225.572C56.4255 225.494 55.1372 225.379 55.0743 225.317C55.0113 225.256 54.9355 223.848 54.9057 222.19C54.8757 220.531 54.8136 217.593 54.7676 215.661C54.7009 212.862 54.7467 212.124 54.9936 212.03C55.1729 211.961 55.3033 211.57 55.3033 211.103C55.3033 210.161 54.4969 209.268 53.4599 209.06C53.101 208.989 52.6315 208.736 52.4167 208.498C52.2018 208.261 51.9016 208.066 51.7495 208.066C51.5972 208.066 51.0723 207.745 50.5826 207.352C49.0129 206.092 47.9928 205.541 46.975 205.401C46.154 205.289 45.7072 205.007 44.4015 203.775C43.5323 202.956 42.4092 202.029 41.9053 201.716C39.9687 200.511 37.2516 197.124 35.6053 193.863C34.5729 191.818 33.3169 188.801 33.3169 188.366C33.3169 188.167 33.2283 187.906 33.12 187.786C33.0116 187.667 32.7414 187.002 32.5197 186.309C32.298 185.616 32.0291 184.876 31.9224 184.663C31.5521 183.927 31.1991 177.977 31.3542 175.087C31.5548 171.345 31.7941 168.845 31.979 168.56C32.1212 168.34 32.7265 163.985 32.9816 161.345C33.0485 160.653 33.2049 159.706 33.3293 159.242C33.5304 158.491 33.8299 155.302 33.807 154.154C33.8022 153.915 33.9422 153.441 34.1178 153.102C34.2937 152.762 34.3826 152.273 34.3152 152.016C34.2481 151.759 34.3052 151.48 34.4421 151.395C34.5791 151.31 34.6911 150.902 34.6911 150.487C34.6911 148.43 38.1427 143.869 40.0853 143.358C41.7542 142.92 47.83 143.176 48.5471 143.715C48.673 143.81 49.2083 143.959 49.7362 144.046C50.2643 144.133 50.818 144.351 50.9667 144.53C51.1153 144.709 51.4243 144.856 51.6533 144.856C51.8826 144.856 52.1336 144.959 52.2114 145.085C52.2893 145.211 52.55 145.314 52.7907 145.314C53.0311 145.314 53.5732 145.507 53.9949 145.744C54.4167 145.981 55.0896 146.247 55.4906 146.335C56.1156 146.472 56.2194 146.595 56.2194 147.195C56.2194 148.637 56.7278 149.673 57.9847 150.794C58.6576 151.393 59.4374 151.989 59.7177 152.117C61.3587 152.867 62.0813 153.088 64.445 153.565C66.7366 154.027 67.2215 154.059 68.3684 153.822C69.088 153.673 69.8356 153.613 70.0296 153.687C70.2233 153.761 70.6353 153.656 70.9452 153.453C71.4587 153.117 71.5212 153.116 71.6483 153.448C71.8327 153.928 70.6184 156.246 69.7403 157.089C69.3576 157.457 69.0447 157.843 69.0447 157.948C69.0447 158.053 68.8473 158.139 68.6057 158.139C68.3643 158.139 68.1325 158.216 68.0904 158.311C67.8366 158.882 66.0292 159.762 64.9028 159.863C61.838 160.138 60.1327 160.134 58.8532 159.849C58.0974 159.68 56.9827 159.536 56.376 159.528C55.7696 159.52 55.0793 159.409 54.8423 159.283C54.6055 159.156 54.1227 159.034 53.7695 159.013C53.4163 158.992 52.9214 158.812 52.6695 158.614C52.4176 158.416 51.9538 158.105 51.6389 157.923C51.324 157.741 50.5054 157.251 49.8202 156.835C49.1347 156.419 48.2654 156.078 47.8882 156.078C46.512 156.078 45.712 157.594 46.405 158.889C46.7797 159.589 48.6593 161.345 49.0337 161.345C49.2069 161.345 49.3486 161.436 49.3486 161.546C49.3486 161.656 49.6434 161.805 50.0036 161.877C50.3641 161.949 50.9589 162.261 51.3258 162.569C51.6927 162.878 52.4134 163.35 52.9276 163.618C53.8272 164.087 56.1578 166.034 56.8945 166.932C57.0899 167.17 57.5143 167.686 57.8372 168.077C58.7432 169.175 59.2794 170.013 60.2853 171.904C60.7946 172.861 61.3177 173.84 61.4473 174.079C62.1658 175.403 63.3191 178.001 63.3194 178.295C63.3194 178.483 63.5175 179.158 63.7595 179.795C64.0016 180.432 64.4553 182.163 64.7675 183.643C65.2711 186.029 65.3272 186.78 65.2617 190.272C65.221 192.438 65.1213 194.996 65.0403 195.956C64.904 197.571 64.9331 197.747 65.4337 198.329C66.4213 199.477 67.7148 199.225 68.4857 197.734C68.8329 197.063 69.0823 193.472 69.0997 188.889C69.1121 185.674 68.6242 182.664 67.5492 179.324C67.2654 178.442 66.8999 177.154 66.7373 176.461C66.5745 175.768 66.2754 174.995 66.0722 174.743C65.8691 174.491 65.5881 174.028 65.4479 173.713C65.3075 173.398 64.9612 172.625 64.6786 171.995C64.3958 171.365 63.8198 170.36 63.3984 169.762C62.977 169.163 62.6321 168.6 62.6321 168.512C62.6321 168.21 60.7339 165.586 59.7917 164.585L58.8532 163.588L59.6547 163.763C60.5479 163.957 64.262 163.934 65.1513 163.729C65.4662 163.656 66.0846 163.515 66.5255 163.416C66.9663 163.316 67.5087 163.159 67.7304 163.066C68.0192 162.946 68.1 162.986 68.0153 163.209C67.8197 163.723 69.8651 166.235 71.3611 167.319C72.1293 167.875 72.8241 168.335 72.9052 168.341C73.4997 168.383 74.9288 168.752 75.126 168.914C75.2628 169.027 76.227 169.025 77.3526 168.908C78.9853 168.74 79.5778 168.563 80.6879 167.912L82.0378 167.121L82.9454 168.642C83.809 170.089 85.2203 171.429 86.7371 172.242C88.3941 173.13 91.8604 173.313 93.2829 172.587C93.762 172.343 94.8954 171.43 95.8014 170.559C97.1181 169.294 97.4997 169.038 97.7033 169.283C97.8432 169.452 98.1032 169.59 98.2806 169.59C98.4581 169.59 98.6613 169.741 98.7323 169.926C98.8953 170.352 100.791 171.422 101.381 171.422C101.895 171.422 102.75 171.01 102.994 170.644C103.087 170.505 103.164 170.061 103.166 169.657C103.168 169.097 102.964 168.734 102.311 168.136C101.195 167.115 100.407 166.448 99.8916 166.087C99.5011 165.814 99.5313 165.703 100.397 164.222C100.927 163.313 101.471 161.969 101.681 161.045C101.882 160.164 102.139 159.269 102.253 159.056C102.461 158.667 102.827 154.381 102.824 152.368C102.823 151.555 102.7 151.177 102.319 150.822C101.577 150.131 100.418 150.202 99.6916 150.982C99.0808 151.638 99.1125 151.455 98.6791 156.854C98.6196 157.596 98.4838 158.369 98.3775 158.572C98.271 158.775 98.1148 159.353 98.0303 159.857C97.9458 160.361 97.5233 161.391 97.0913 162.147C96.6594 162.903 96.1122 163.933 95.8756 164.437C95.4927 165.253 93.9917 167.063 92.4265 168.596C91.8618 169.15 91.5228 169.172 91.8618 168.632C92.9556 166.892 93.2142 162.54 92.3814 159.887C91.6396 157.524 89.6666 155.89 87.4127 155.772L86.3361 155.715L86.3601 154.809C86.3732 154.31 86.6567 153.316 86.99 152.6C87.3232 151.884 87.5957 151.223 87.5957 151.133C87.5957 151.042 87.8378 150.649 88.1335 150.259C88.4294 149.869 88.7896 149.19 88.9341 148.749C89.0787 148.308 89.5065 147.655 89.8851 147.298C90.2634 146.941 90.573 146.498 90.573 146.313C90.573 145.464 95.4307 142.076 97.2257 141.672C97.7431 141.556 98.2357 141.392 98.3205 141.307C98.5763 141.051 100.796 141.422 101.741 141.878ZM64.2872 148.611C64.8394 148.676 65.4401 148.782 65.622 148.847C65.8041 148.911 66.4077 149.015 66.9638 149.077C67.5199 149.14 68.0815 149.297 68.212 149.428C68.3426 149.558 68.6604 149.675 68.9188 149.688C69.1771 149.701 68.976 149.811 68.4722 149.934C67.6482 150.134 66.8466 150.105 64.5343 149.79C64.1319 149.735 63.493 149.53 63.1144 149.334C62.7356 149.138 62.3153 148.978 62.1804 148.978C61.8497 148.978 60.1128 147.817 60.1128 147.596C60.1128 147.499 60.8262 147.662 61.6981 147.957C62.57 148.252 63.7351 148.546 64.2872 148.611ZM75.8564 157.543C75.9949 158.774 75.2941 161.062 74.245 162.804L73.4454 164.131L72.7213 163.483C72.2522 163.062 71.9188 162.482 71.7738 161.835C71.5599 160.88 71.5872 160.791 72.408 159.774C72.8795 159.19 73.3754 158.642 73.5098 158.557C73.6442 158.471 74.0521 157.778 74.4163 157.016C75.0525 155.685 75.0914 155.649 75.4135 156.109C75.5978 156.372 75.7971 157.017 75.8564 157.543ZM88.3735 160.372C88.679 160.844 88.9937 161.643 89.0727 162.147C89.3139 163.683 88.6779 167.037 87.9317 168.164C87.7533 168.434 86.9563 167.697 86.1604 166.527C85.2384 165.171 85.2043 165.054 85.1193 162.996C85.0075 160.285 85.1271 159.8 85.9357 159.677C87.5923 159.426 87.8002 159.485 88.3735 160.372Z" fill="black"/>
</svg>
