<svg width="128" height="62" viewBox="0 0 128 62" fill="none" xmlns="http://www.w3.org/2000/svg">
<path d="M102.776 61.7647C101.429 61.7647 100.036 61.6299 98.7336 61.3604L35.262 49.5914C34.5882 49.4567 33.9593 49.3219 33.3305 49.1422C29.7818 51.6128 25.6043 52.9155 21.247 52.9155C9.52298 52.9155 0 43.3925 0 31.6684C0 20.4834 8.66951 11.2749 19.6748 10.4663C20.5283 9.11872 21.5615 7.90588 22.6845 6.73796C27.0417 2.38075 32.7914 0 38.9454 0L103.495 0C109.469 0 115.129 2.29092 119.442 6.42353C123.484 10.2866 125.91 15.4075 126.404 20.8877C127.752 24.2567 128.246 27.8952 127.887 31.5337C127.617 34.0492 126.988 36.4748 125.955 38.7657C125.955 40.1583 125.82 41.5058 125.551 42.8984C124.428 48.9176 121.014 54.1732 115.938 57.632C112.075 60.2823 107.583 61.6748 102.911 61.6748C102.866 61.7647 102.776 61.7647 102.776 61.7647Z" fill="white"/>
<path d="M105.561 21.786L42.0449 10.0171C37.4182 9.16359 32.8813 10.2866 29.2428 12.7572C25.6492 15.2278 22.954 19.0909 22.1005 23.7176C20.3936 32.9711 26.5476 41.9101 35.801 43.662L99.2726 55.4309C103.899 56.2844 108.436 55.1614 112.075 52.6908C115.668 50.2202 118.364 46.3571 119.217 41.7304C120.969 32.4769 114.77 23.493 105.561 21.786ZM31.1294 29.5572C28.8834 29.1529 27.4011 26.9967 27.8053 24.7507C28.2096 22.5048 30.3658 21.0224 32.6117 21.4267C34.8577 21.831 36.3401 23.9871 35.9358 26.2331C35.5315 28.4791 33.3754 30.0064 31.1294 29.5572Z" fill="#FF77E6"/>
<path d="M30.0963 43.662L29.2428 42.5839C32.7016 39.9336 34.6781 35.8908 34.6781 31.5336C34.6781 28.5689 33.7348 25.6941 31.9829 23.3133L33.1059 22.5048C35.0374 25.155 36.0706 28.2545 36.0706 31.5336C36.0257 36.2951 33.8695 40.6973 30.0963 43.662Z" fill="#FFCA49"/>
<path d="M32.6116 21.4266C33.7795 21.6512 34.7228 22.325 35.3068 23.2234C35.3068 23.0887 35.3068 22.9988 35.3068 22.8641C35.3068 20.5732 33.4651 18.7314 31.1742 18.7314C28.8833 18.7314 27.0416 20.5732 27.0416 22.8641C27.0416 23.7175 27.3111 24.4812 27.7154 25.1101C27.7154 24.9753 27.7603 24.8405 27.7603 24.7058C28.2095 22.5047 30.3656 21.0224 32.6116 21.4266Z" fill="#030401"/>
<path d="M115.039 34.9475C111.94 38.047 107.672 39.9785 102.956 39.9785H39.3495L102.776 46.2224C107.448 46.6715 111.895 45.1892 115.264 42.4042C116.926 41.0117 118.363 39.3047 119.441 37.3732C119.307 35.217 118.723 33.1507 117.824 31.2641C117.106 32.6117 116.162 33.8694 115.039 34.9475Z" fill="#030401"/>
<path d="M102.956 5.79462H38.4063C33.6897 5.79462 29.4224 7.72616 26.3229 10.8256C23.2235 13.9251 21.2919 18.1925 21.2919 22.909C21.2919 32.2973 28.9732 40.0235 38.4063 40.0235H39.3946H103.001C107.717 40.0235 111.985 38.0919 115.084 34.9925C116.162 33.9144 117.106 32.6566 117.914 31.309C119.307 28.8384 120.115 25.9636 120.115 22.954C120.07 13.4759 112.389 5.79462 102.956 5.79462ZM31.2192 18.7315C33.5101 18.7315 35.3518 20.5732 35.3518 22.8641C35.3518 22.9989 35.3518 23.0887 35.3518 23.2235C35.1721 25.3347 33.4202 26.9967 31.2192 26.9967C29.7817 26.9967 28.4791 26.2331 27.7603 25.1101C27.3111 24.4812 27.0865 23.6727 27.0865 22.8641C27.0865 20.6181 28.9283 18.7315 31.2192 18.7315Z" fill="#4BC17E"/>
<path d="M101.833 34.6331C108.407 34.6331 113.737 29.3036 113.737 22.7294C113.737 16.1551 108.407 10.8256 101.833 10.8256C95.2588 10.8256 89.9293 16.1551 89.9293 22.7294C89.9293 29.3036 95.2588 34.6331 101.833 34.6331Z" fill="white"/>
<path d="M101.611 14.9354C101.702 14.9094 101.786 14.89 101.864 14.877C101.942 14.851 102.02 14.8316 102.098 14.8186C102.188 14.7926 102.299 14.7796 102.429 14.7796C102.571 14.7667 102.701 14.7731 102.818 14.7991C102.948 14.8121 103.065 14.851 103.169 14.9159C103.285 14.9679 103.37 15.0522 103.422 15.1691C103.474 15.2989 103.506 15.4546 103.519 15.6364C103.545 15.8051 103.558 15.9803 103.558 16.1621C103.558 16.3438 103.551 16.5255 103.538 16.7073C103.538 16.876 103.538 17.0318 103.538 17.1746V27.1243C103.538 27.267 103.538 27.4163 103.538 27.5721C103.551 27.7149 103.551 27.8642 103.538 28.0199C103.526 28.1757 103.487 28.325 103.422 28.4678C103.357 28.5976 103.259 28.7079 103.13 28.7988C102.948 28.9415 102.701 29.0129 102.39 29.0129C102.091 29.0259 101.832 28.9935 101.611 28.9156C101.377 28.8377 101.234 28.6884 101.182 28.4678C101.144 28.2471 101.124 28.0264 101.124 27.8057C101.033 26.0923 100.988 24.4178 100.988 22.7822C101.001 21.1337 101.007 19.4397 101.007 17.7003C100.981 17.7652 100.89 17.8236 100.735 17.8755C100.592 17.9274 100.423 17.9729 100.228 18.0118C100.047 18.0508 99.8714 18.0832 99.7027 18.1092C99.5339 18.1351 99.4236 18.1481 99.3717 18.1481C99.0342 18.1871 98.7227 18.1546 98.4371 18.0508C98.1645 17.9339 98.0087 17.6743 97.9698 17.2719C97.9179 16.8565 98.0087 16.532 98.2424 16.2984C98.489 16.0647 98.8005 15.8895 99.177 15.7727C99.5924 15.6299 99.9948 15.4871 100.384 15.3443C100.787 15.1885 101.195 15.0522 101.611 14.9354Z" fill="#030401"/>
<path d="M20.708 46.8512C12.2631 46.8512 5.39036 39.9785 5.39036 31.5336C5.39036 23.0887 12.2631 16.216 20.708 16.216C25.5593 16.216 30.1861 18.5518 33.1058 22.5047L31.9828 23.3133C29.3775 19.7197 25.155 17.6085 20.708 17.6085C13.0267 17.6085 6.73795 23.8523 6.73795 31.5785C6.73795 39.3047 12.9818 45.5486 20.708 45.5486C23.8524 45.5486 26.7722 44.5603 29.2427 42.6288L30.0962 43.7069C27.401 45.7283 24.1219 46.8512 20.708 46.8512Z" fill="#FFCA49"/>
<path d="M55.5209 19.6748C55.5209 19.6748 54.3081 22.7294 52.0621 21.9208C49.8161 21.1123 49.7712 16.7101 51.9273 15.4973C54.0385 14.2845 55.4311 15.7668 59.4289 14.9583C63.4268 14.1497 65.1786 17.1144 64.6845 19.4952C64.3252 21.3369 62.7979 22.0107 61.5401 21.3369C60.2824 20.6631 59.8332 19.7198 59.8332 19.7198C59.8332 19.7198 59.2492 21.3369 60.1926 26.1433C60.7765 29.1529 60.5968 32.3422 57.722 32.2973C55.9252 32.2524 54.0386 30.9946 54.892 26.2331C55.6107 22.0556 55.5209 19.6748 55.5209 19.6748Z" fill="#030401"/>
<path d="M44.3358 28.2545C44.3358 28.2545 44.8749 25.6042 42.0898 25.5144C40.5626 25.4245 38.9455 26.0534 38.9455 28.4342C38.9005 30.8149 41.1465 32.7015 45.3241 32.2973C47.5251 32.0727 50.4 30.2759 50.0856 26.278C49.861 23.6277 48.2888 21.2021 45.6834 20.8427C44.9198 20.7529 44.246 20.7529 43.8417 20.124C43.123 19.001 44.6053 18.462 44.6053 18.462C44.6053 18.462 43.7968 20.3935 46.8513 20.708C49.1872 20.9775 50.6246 18.2374 49.3219 16.2609C48.0192 14.2844 44.3808 13.6556 41.5059 15.632C39.6193 16.9347 38.8556 19.0909 39.4845 22.1005C40.1134 25.1101 44.2011 24.7507 44.8299 25.9187C45.4588 27.0866 44.3358 28.2545 44.3358 28.2545Z" fill="#030401"/>
<path d="M87.1443 15.5871C84.6288 14.1946 79.5978 14.0599 78.0705 16.8C78.0705 16.8 78.0705 16.7999 78.0705 16.8449C77.8909 17.1593 77.7561 17.4738 77.7112 17.878C77.3967 20.3935 77.8459 20.6181 77.9807 23.9422C78.1155 27.2663 76.4534 31.8032 79.7775 32.2523C84.5839 32.8363 83.5507 27.0866 82.6074 24.8406C82.6074 24.8406 86.201 26.4577 88.3122 23.3582C89.5251 21.5614 89.8395 17.0695 87.1443 15.5871ZM83.7753 20.3935C83.5507 21.5165 84.2695 22.7743 82.3828 22.6395C80.7657 22.5497 81.3946 21.6064 81.4395 20.3486C81.4844 19.1358 80.9454 18.0577 82.6973 18.1026C84.0449 18.1475 83.9999 19.1358 83.7753 20.3935Z" fill="#030401"/>
<path d="M75.1508 22.5048C75.6 24.2117 74.7016 25.7839 72.1861 25.6941C70.6139 25.6492 69.0867 24.616 69.0867 24.616L68.8621 27.985C68.8621 27.985 69.7605 26.5026 71.3326 26.1882C75.061 25.4246 76.9476 29.1978 74.0278 31.2192C70.8385 33.4203 65.4931 31.8032 65.6728 28.524C65.8075 26.4128 66.3016 24.9305 66.4364 23.2684C66.5712 21.0674 66.122 19.585 66.3915 17.7433C66.8407 14.7337 72.7252 13.2962 75.1059 16.2609C76.0043 17.3839 75.8695 19.2256 74.5669 20.0342C71.6022 21.831 69.4909 19.001 69.4909 19.001L69.1765 22.1005C70.9284 20.3037 74.7466 20.9326 75.1508 22.5048Z" fill="#030401"/>
<path d="M54.3529 18.3721C54.3529 18.3721 53.1401 21.4267 50.8941 20.6181C48.6481 19.8096 48.6032 15.4074 50.7593 14.1946C52.8706 12.9818 54.2631 14.4641 58.2609 13.6556C62.2588 12.847 64.0107 15.8117 63.5165 18.1924C63.1572 20.0342 61.6299 20.708 60.3722 20.0342C59.1144 19.3604 58.6652 18.417 58.6652 18.417C58.6652 18.417 58.0813 20.0342 59.0246 24.8406C59.6085 27.8502 59.4289 31.0395 56.554 30.9946C54.7572 30.9497 52.8706 29.6919 53.724 24.9304C54.4428 20.7529 54.3529 18.3721 54.3529 18.3721Z" fill="white"/>
<path d="M43.1679 26.9518C43.1679 26.9518 43.7069 24.3016 40.9219 24.2117C39.3946 24.1219 37.7775 24.7508 37.7775 27.1315C37.7775 29.5123 39.9786 31.3989 44.1561 30.9946C46.3572 30.77 49.2321 28.9732 48.9176 24.9754C48.693 22.3251 47.1208 19.8994 44.5155 19.5401C43.7519 19.4502 43.0781 19.4502 42.6738 18.8214C41.9551 17.6984 43.4374 17.1593 43.4374 17.1593C43.4374 17.1593 42.6289 19.0909 45.6834 19.4053C48.0192 19.6748 49.4567 16.9347 48.154 14.9583C46.8513 12.9818 43.2128 12.3529 40.338 14.3294C38.4513 15.6321 37.6877 17.7882 38.3166 20.7978C38.9455 23.8075 43.0332 23.4481 43.662 24.616C44.2909 25.7839 43.1679 26.9518 43.1679 26.9518Z" fill="white"/>
<path d="M85.9763 14.2395C83.4608 12.847 78.4298 12.7122 76.9026 15.4523C76.9026 15.4523 76.9026 15.4523 76.9026 15.4972C76.7229 15.8117 76.5881 16.1261 76.5432 16.5304C76.2288 19.0459 76.6779 19.2705 76.8127 22.5946C76.9475 25.9186 75.2854 30.4555 78.6095 30.9047C83.4159 31.4887 82.3828 25.739 81.4394 23.493C81.4394 23.493 85.033 25.1101 87.1442 22.0106C88.3571 20.2138 88.6715 15.7218 85.9763 14.2395ZM82.6074 19.0459C82.3828 20.1689 83.1015 21.4267 81.2148 21.2919C79.5977 21.2021 80.2266 20.2587 80.2715 19.001C80.3165 17.7882 79.7774 16.7101 81.5293 16.755C82.8769 16.7999 82.832 17.8331 82.6074 19.0459Z" fill="white"/>
<path d="M73.9829 21.1572C74.432 22.8641 73.5337 24.4363 71.0181 24.3465C69.446 24.3015 67.9187 23.2684 67.9187 23.2684L67.6941 26.6374C67.6941 26.6374 68.5925 25.155 70.1647 24.8406C73.893 24.0769 75.7796 27.8502 72.8599 29.8716C69.6706 32.0726 64.3251 30.4555 64.5048 27.1764C64.6395 25.0652 65.1337 23.5828 65.2684 21.9208C65.4032 19.7197 64.954 18.2374 65.2235 16.3957C65.6727 13.386 71.5572 11.9486 73.9379 14.9133C74.8363 16.0363 74.7016 17.878 73.3989 18.6866C70.4342 20.4834 68.323 17.6534 68.323 17.6534L68.0085 20.7529C69.7604 19.001 73.5786 19.585 73.9829 21.1572Z" fill="white"/>
</svg>
