<svg width="64" height="64" viewBox="0 0 64 64" fill="none" xmlns="http://www.w3.org/2000/svg">
<path d="M29.5312 42L28.924 43.3716L29.5312 43.6404L30.1385 43.3716L29.5312 42ZM29.5312 42C30.1385 43.3716 30.1389 43.3714 30.1394 43.3712L30.1407 43.3706L30.1444 43.369L30.1561 43.3637L30.1964 43.3456C30.2306 43.33 30.2795 43.3077 30.3421 43.2785C30.4673 43.2203 30.6473 43.1351 30.8746 43.0235C31.3289 42.8006 31.9732 42.472 32.7458 42.0436C34.288 41.1886 36.3581 39.9272 38.4566 38.3045C42.5732 35.1212 47.1654 30.264 47.5287 24.0881C47.7986 19.4985 46.4527 14.8514 43.417 11.3327C40.358 7.78699 35.6792 5.5 29.5313 5.5C23.3833 5.5 18.7045 7.78699 15.6455 11.3327C12.6098 14.8514 11.2639 19.4985 11.5338 24.0881C11.8971 30.264 16.4893 35.1212 20.6059 38.3045C22.7044 39.9272 24.7745 41.1886 26.3167 42.0436C27.0893 42.472 27.7336 42.8006 28.1879 43.0235C28.4152 43.1351 28.5952 43.2203 28.7204 43.2785C28.783 43.3077 28.8319 43.33 28.8661 43.3456L28.9064 43.3637L28.9181 43.369L28.9218 43.3706L28.9231 43.3712C28.9236 43.3714 28.924 43.3716 29.5312 42Z" fill="#FF7051" stroke="black" stroke-width="3"/>
<mask id="path-2-outside-1" maskUnits="userSpaceOnUse" x="20" y="42" width="19" height="11" fill="black">
<rect fill="white" x="20" y="42" width="19" height="11"/>
<path d="M24.1783 48.1373L29.5312 45L34.8477 48.1389C35.7243 48.6564 35.3573 50 34.3393 50H24.6839C23.6643 50 23.2986 48.6528 24.1783 48.1373Z"/>
</mask>
<path d="M24.1783 48.1373L29.5312 45L34.8477 48.1389C35.7243 48.6564 35.3573 50 34.3393 50H24.6839C23.6643 50 23.2986 48.6528 24.1783 48.1373Z" fill="#FF7051"/>
<path d="M29.5312 45L31.0565 42.4167C30.1185 41.8629 28.9541 41.861 28.0143 42.4118L29.5312 45ZM24.1783 48.1373L25.6952 50.7255L25.6952 50.7255L24.1783 48.1373ZM34.8477 48.1389L36.373 45.5555L36.373 45.5555L34.8477 48.1389ZM28.0143 42.4118L22.6614 45.549L25.6952 50.7255L31.0482 47.5882L28.0143 42.4118ZM24.6839 53H34.3393V47H24.6839V53ZM36.373 45.5555L31.0565 42.4167L28.006 47.5833L33.3225 50.7222L36.373 45.5555ZM34.3393 53C38.4111 53 39.8793 47.6257 36.373 45.5555L33.3225 50.7222C31.5694 49.6872 32.3034 47 34.3393 47V53ZM22.6614 45.549C19.1426 47.6113 20.6053 53 24.6839 53V47C26.7232 47 27.4546 49.6943 25.6952 50.7255L22.6614 45.549Z" fill="black" mask="url(#path-2-outside-1)"/>
<path d="M29.5312 51.5V51.9537C29.5312 55.5691 32.4621 58.5 36.0775 58.5V58.5C39.223 58.5 41.9238 56.2628 42.5094 53.1723L43.9409 45.616C44.2834 43.8084 45.863 42.5 47.7026 42.5V42.5C49.8171 42.5 51.5312 44.2141 51.5312 46.3286V47.5" stroke="black" stroke-width="3" stroke-linecap="round" stroke-linejoin="round"/>
<path d="M27.1023 21.0711C27.1222 21.0512 27.143 21.0305 27.1645 21.009C27.6236 20.5514 28.4416 19.7361 28.832 18.7148C29.0554 18.1304 29.1588 17.4407 28.9844 16.6951C28.8122 15.9585 28.3993 15.297 27.8094 14.7071C27.2196 14.1173 26.558 13.7044 25.8214 13.5321C25.0759 13.3577 24.3862 13.4611 23.8017 13.6845C22.7804 14.0749 21.9651 14.8929 21.5075 15.352C21.486 15.3736 21.4653 15.3943 21.4455 15.4142C21.4256 15.4341 21.4048 15.4548 21.3833 15.4763C20.9242 15.9338 20.1062 16.7492 19.7158 17.7705C19.4923 18.3549 19.389 19.0446 19.5633 19.7902C19.7356 20.5268 20.1485 21.1884 20.7384 21.7782C21.3282 22.368 21.9898 22.7809 22.7263 22.9532C23.4719 23.1276 24.1616 23.0242 24.7461 22.8008C25.7674 22.4104 26.5827 21.5924 27.0403 21.1333C27.0617 21.1117 27.0824 21.091 27.1023 21.0711Z" fill="#FFF4D9" stroke="black" stroke-width="3"/>
</svg>
