<svg width="180" height="154" viewBox="0 0 180 154" fill="none" xmlns="http://www.w3.org/2000/svg">
<g clip-path="url(#clip0)">
<path d="M180 62.83V138.62C179.989 142.444 178.466 146.108 175.762 148.812C173.058 151.516 169.394 153.039 165.57 153.05H89.76C87.8633 153.051 85.985 152.679 84.2325 151.953C82.48 151.228 80.8876 150.165 79.5464 148.824C78.2053 147.482 77.1417 145.89 76.4165 144.137C75.6913 142.385 75.3187 140.507 75.32 138.61V113.61H25C20.7614 113.594 16.7009 111.903 13.7038 108.906C10.7066 105.909 9.01581 101.849 9 97.61V25.05C9.00261 20.8027 10.6876 16.7294 13.6862 13.7215C16.6847 10.7135 20.7528 9.01587 25 9H124.33C128.588 9.01319 132.668 10.7105 135.679 13.7214C138.689 16.7322 140.387 20.812 140.4 25.07V48.38H165.52C167.42 48.3761 169.302 48.7469 171.059 49.4713C172.816 50.1957 174.412 51.2595 175.757 52.6017C177.102 53.9439 178.169 55.5382 178.897 57.2933C179.625 59.0484 180 60.9299 180 62.83V62.83Z" fill="black"/>
<path d="M169.62 53.84V129.63C169.62 133.078 168.25 136.384 165.812 138.822C163.374 141.26 160.068 142.63 156.62 142.63H80.78C79.0728 142.63 77.3823 142.294 75.8051 141.64C74.2279 140.987 72.7948 140.03 71.5876 138.822C70.3804 137.615 69.4229 136.182 68.7696 134.605C68.1163 133.028 67.78 131.337 67.78 129.63V103.28H115.42C117.345 103.281 119.251 102.903 121.029 102.168C122.808 101.432 124.424 100.353 125.786 98.9927C127.147 97.6321 128.227 96.0167 128.964 94.2386C129.701 92.4606 130.08 90.5547 130.08 88.63V40.79H156.61C160.064 40.8006 163.373 42.1802 165.812 44.6264C168.251 47.0726 169.62 50.3858 169.62 53.84V53.84Z" fill="#A259FF"/>
<path d="M142 131.19V127.87L154.08 113.75H142.55V111.11H157.47V114.11L145.1 128.55H158V131.19H142Z" fill="black"/>
<path d="M48.76 35.48H140.43V97.59C140.43 101.849 138.738 105.934 135.726 108.946C132.714 111.958 128.629 113.65 124.37 113.65H48.76V35.48Z" fill="black"/>
<path d="M115.39 1.4H16.06C7.96351 1.4 1.4 7.96351 1.4 16.06V88.62C1.4 96.7165 7.96351 103.28 16.06 103.28H115.39C123.486 103.28 130.05 96.7165 130.05 88.62V16.06C130.05 7.96351 123.486 1.4 115.39 1.4Z" fill="#C7B9FF"/>
<path d="M11.87 82.9C11.8264 82.0955 11.9509 81.2908 12.2356 80.5371C12.5202 79.7834 12.9587 79.0973 13.5232 78.5225C14.0877 77.9476 14.7657 77.4967 15.5141 77.1984C16.2625 76.9001 17.0649 76.761 17.87 76.79C18.993 76.7328 20.1049 77.0357 21.0438 77.6544C21.9827 78.2732 22.6996 79.1755 23.09 80.23L20.47 81.23C20.3181 80.6301 19.9697 80.0983 19.4803 79.7195C18.991 79.3407 18.3888 79.1367 17.77 79.14C16.12 79.14 14.77 80.39 14.77 82.95C14.77 85.51 16.14 86.81 17.77 86.81C18.4423 86.8154 19.0953 86.5853 19.6159 86.1598C20.1364 85.7342 20.4916 85.14 20.62 84.48L23.3 85.41C22.8944 86.5284 22.1442 87.4893 21.1576 88.1542C20.1711 88.8191 18.9989 89.1538 17.81 89.11C14.33 89.06 11.87 86.64 11.87 82.9Z" fill="black"/>
<path d="M24.72 82.92C24.6687 82.1254 24.7828 81.3288 25.0549 80.5805C25.327 79.8322 25.7513 79.1485 26.3011 78.5724C26.8508 77.9964 27.514 77.5406 28.2487 77.2338C28.9835 76.927 29.7739 76.7759 30.57 76.79C33.96 76.79 36.4 79.3 36.4 82.92C36.4 86.54 33.94 89.06 30.57 89.06C29.7759 89.0638 28.9894 88.9054 28.2587 88.5945C27.5281 88.2835 26.8686 87.8265 26.3208 87.2516C25.7731 86.6767 25.3485 85.9959 25.0733 85.2511C24.798 84.5062 24.6778 83.713 24.72 82.92V82.92ZM33.45 82.92C33.45 80.34 32.26 79.04 30.57 79.04C28.88 79.04 27.67 80.34 27.67 82.92C27.67 85.5 28.85 86.71 30.57 86.71C32.29 86.71 33.45 85.53 33.45 83V82.92Z" fill="black"/>
<path d="M39.05 88.71V77.14H41.79V78.83C42.1317 78.208 42.6382 77.6923 43.2539 77.3395C43.8696 76.9866 44.5706 76.8104 45.28 76.83C45.9989 76.8156 46.7061 77.0138 47.3128 77.3999C47.9195 77.786 48.3986 78.3426 48.69 79C49.0797 78.3202 49.6462 77.7586 50.3293 77.3748C51.0124 76.991 51.7867 76.7993 52.57 76.82C54.92 76.82 56.47 78.12 56.47 81.03V88.74H53.64V81.65C53.64 79.86 52.83 79.18 51.57 79.18C49.2 79.18 49.16 81.65 49.16 82.99V88.71H46.37V81.65C46.37 79.86 45.53 79.18 44.28 79.18C41.93 79.18 41.86 81.65 41.86 82.99V88.71H39.05Z" fill="black"/>
<path d="M59.82 88.71V77.14H62.57V78.83C62.91 78.2088 63.4148 77.6935 64.0287 77.3406C64.6427 76.9878 65.3421 76.8111 66.05 76.83C66.7692 76.8143 67.477 77.012 68.0839 77.3982C68.6908 77.7844 69.1697 78.3418 69.46 79C69.8497 78.3202 70.4162 77.7586 71.0993 77.3748C71.7824 76.991 72.5567 76.7993 73.34 76.82C75.69 76.82 77.25 78.12 77.25 81.03V88.74H74.41V81.65C74.41 79.86 73.6 79.18 72.35 79.18C69.98 79.18 69.93 81.65 69.93 82.99V88.71H67.14V81.65C67.14 79.86 66.31 79.18 65.05 79.18C62.7 79.18 62.64 81.65 62.64 82.99V88.71H59.82Z" fill="black"/>
<path d="M79.88 85.73C79.88 82.51 83.36 81.51 87.15 81.16V80.76C87.15 79.62 86.52 78.93 85.03 78.93C84.4156 78.8737 83.8013 79.0395 83.2986 79.3972C82.7959 79.755 82.4381 80.281 82.29 80.88L79.72 80.21C79.97 78.49 81.78 76.79 85.03 76.79C88.28 76.79 90 78.28 90 81.11V85.78C90 86.34 90.09 86.48 90.7 86.48H91.76V88.71H89.56C89.3067 88.7528 89.0472 88.7412 88.7987 88.6759C88.5502 88.6107 88.3184 88.4932 88.1188 88.3315C87.9192 88.1697 87.7564 87.9673 87.6411 87.7378C87.5257 87.5082 87.4606 87.2567 87.45 87C87.0409 87.6543 86.4673 88.1899 85.7864 88.5531C85.1056 88.9164 84.3413 89.0946 83.57 89.07C81.41 89.06 79.88 87.78 79.88 85.73ZM87.15 84V83C84.78 83.25 82.76 83.79 82.76 85.46C82.76 86.34 83.34 86.9 84.5 86.9C84.8705 86.9032 85.2376 86.8284 85.5773 86.6804C85.917 86.5324 86.2218 86.3145 86.4717 86.041C86.7217 85.7674 86.9113 85.4443 87.0281 85.0927C87.145 84.7411 87.1865 84.3687 87.15 84V84Z" fill="black"/>
<path d="M93.63 88.71V77.14H96.37V79C96.735 78.3299 97.2765 77.7724 97.9358 77.3881C98.5951 77.0038 99.347 76.8074 100.11 76.82C102.88 76.82 104.02 78.52 104.02 81.05V88.74H101.18V81.65C101.18 79.9 100.37 79.16 99.09 79.16C96.49 79.16 96.44 82.04 96.44 83.43V88.71H93.63Z" fill="black"/>
<path d="M106.55 82.92C106.55 79.21 108.55 76.79 111.48 76.79C112.218 76.7759 112.948 76.9526 113.598 77.303C114.247 77.6534 114.796 78.1655 115.19 78.79V72.45H118V88.71H115.23V87.08C114.822 87.7073 114.261 88.2202 113.599 88.5701C112.938 88.9201 112.198 89.0956 111.45 89.08C108.55 89.06 106.55 86.64 106.55 82.92ZM115.33 82.92C115.33 80.3 114.13 79.02 112.41 79.02C110.69 79.02 109.5 80.02 109.5 82.92C109.5 85.82 110.78 86.83 112.41 86.83C114.04 86.83 115.33 85.55 115.33 82.92Z" fill="black"/>
<path d="M113.52 31.29H109.52V24.23H113.52C116.52 24.23 118.74 21.7 118.74 18.4C118.72 16.8803 118.109 15.428 117.039 14.3496C115.968 13.2711 114.52 12.651 113 12.62C109.74 12.62 107.21 14.87 107.21 17.9V21.9H100.15V17.9C100.13 17.796 100.097 17.6951 100.05 17.6C99.8347 16.2409 99.139 15.0041 98.0895 14.1142C97.0399 13.2242 95.706 12.7402 94.33 12.75C92.8096 12.7732 91.358 13.3875 90.2827 14.4627C89.2075 15.538 88.5932 16.9896 88.57 18.51C88.559 20.0146 89.1381 21.4636 90.1832 22.546C91.2282 23.6285 92.656 24.2582 94.16 24.3H97.79V31.36H93.79C90.87 31.36 88.64 33.95 88.64 37.29C88.6688 38.7985 89.2884 40.2355 90.3655 41.292C91.4426 42.3485 92.8912 42.9403 94.4 42.94C97.66 42.94 100.22 40.72 100.22 37.69V33.69H107.29V37.69C107.29 40.69 109.81 42.91 113.11 42.91C114.634 42.8895 116.09 42.277 117.171 41.202C118.252 40.1271 118.872 38.6739 118.9 37.15C118.77 33.82 116.55 31.29 113.52 31.29ZM109.52 17.9C109.536 17.4501 109.643 17.0081 109.835 16.6007C110.027 16.1933 110.299 15.8291 110.636 15.53C110.972 15.2309 111.366 15.0031 111.793 14.8605C112.22 14.7178 112.671 14.6632 113.12 14.7C114.07 14.7079 114.978 15.0907 115.646 15.765C116.315 16.4392 116.69 17.3504 116.69 18.3C116.69 20.12 115.58 21.9 113.52 21.9H109.52V17.9ZM97.77 37.62C97.7498 38.0686 97.6399 38.5085 97.4468 38.9139C97.2537 39.3193 96.9813 39.6818 96.6457 39.9801C96.3101 40.2784 95.9181 40.5065 95.4929 40.6507C95.0677 40.795 94.6178 40.8525 94.17 40.82C93.7067 40.8306 93.2459 40.7489 92.8145 40.5795C92.3831 40.4101 91.9898 40.1565 91.6575 39.8335C91.3251 39.5105 91.0605 39.1245 90.8789 38.6981C90.6973 38.2717 90.6025 37.8134 90.6 37.35C90.6 35.53 91.71 33.65 93.7 33.65H97.7V37.65L97.77 37.62ZM97.77 21.87H94.14C93.2219 21.8144 92.3602 21.4086 91.7326 20.7362C91.105 20.0638 90.7594 19.1762 90.7671 18.2565C90.7748 17.3368 91.1352 16.4551 91.774 15.7934C92.4127 15.1316 93.2811 14.7402 94.2 14.7C94.667 14.6921 95.1311 14.7764 95.5654 14.9481C95.9998 15.1198 96.3961 15.3756 96.7314 15.7007C97.0668 16.0259 97.3347 16.414 97.5198 16.8429C97.7049 17.2718 97.8035 17.7329 97.81 18.2V21.87H97.77ZM107.19 31.29H100.13V24.23H107.19V31.29ZM113.19 40.75C111.37 40.75 109.59 39.67 109.59 37.62V33.62H113.59C114.039 33.6351 114.48 33.7403 114.888 33.9294C115.295 34.1184 115.66 34.3875 115.962 34.7206C116.263 35.0536 116.494 35.4438 116.642 35.8681C116.789 36.2923 116.85 36.7419 116.82 37.19C116.816 37.6657 116.718 38.1359 116.531 38.5733C116.343 39.0107 116.071 39.4065 115.73 39.7377C115.388 40.069 114.984 40.329 114.541 40.5028C114.099 40.6766 113.626 40.7606 113.15 40.75H113.19Z" fill="black"/>
<path d="M156.58 39.39H131.46V16.06C131.452 11.8013 129.756 7.7195 126.744 4.7091C123.732 1.6987 119.649 0.00528617 115.39 0L16.06 0C11.8031 0.00792975 7.72274 1.70251 4.71262 4.71262C1.70251 7.72274 0.00792975 11.8031 0 16.06L0 88.63C0.00793706 92.886 1.70284 96.9653 4.71324 99.9738C7.72364 102.982 11.804 104.675 16.06 104.68H66.35V129.63C66.35 133.458 67.87 137.129 70.5758 139.837C73.2817 142.545 76.952 144.067 80.78 144.07H156.58C160.405 144.062 164.072 142.538 166.775 139.831C169.478 137.124 170.997 133.455 171 129.63V53.84C170.997 50.0136 169.478 46.3443 166.775 43.6358C164.073 40.9273 160.406 39.4006 156.58 39.39V39.39ZM16.06 101.88C12.5458 101.877 9.17609 100.481 6.69022 97.9968C4.20435 95.5129 2.8053 92.1442 2.8 88.63V16.06C2.80529 12.5449 4.20402 9.17519 6.68961 6.68961C9.17519 4.20402 12.5449 2.80529 16.06 2.8H115.39C118.906 2.80265 122.277 4.20053 124.763 6.68669C127.249 9.17285 128.647 12.544 128.65 16.06V88.63C128.645 92.1442 127.246 95.5129 124.76 97.9968C122.274 100.481 118.904 101.877 115.39 101.88H16.06ZM168.22 129.63C168.217 132.716 166.99 135.675 164.808 137.858C162.625 140.04 159.666 141.267 156.58 141.27H80.78C77.6946 141.267 74.7365 140.04 72.5557 137.857C70.375 135.675 69.15 132.715 69.15 129.63V104.68H115.39C119.648 104.677 123.731 102.986 126.743 99.9774C129.756 96.9685 131.452 92.8877 131.46 88.63V42.2H156.58C159.666 42.2026 162.625 43.4299 164.808 45.6122C166.99 47.7946 168.217 50.7537 168.22 53.84V129.63Z" fill="black"/>
</g>
<defs>
<clipPath id="clip0">
<rect width="180" height="153.05" fill="white"/>
</clipPath>
</defs>
</svg>
