<svg width="64" height="64" viewBox="0 0 64 64" fill="none" xmlns="http://www.w3.org/2000/svg">
<path d="M32 8.5C28.6256 8.5 26.3181 9.39019 24.7817 11.017C23.3059 12.5796 22.7649 14.6074 22.4023 16.3131C22.3195 16.7031 22.2456 17.0732 22.1754 17.425C21.9106 18.7526 21.6976 19.8201 21.2457 20.7137C20.9878 21.2236 20.6787 21.6048 20.2805 21.886C19.8817 22.1676 19.3091 22.4086 18.4356 22.51C14.6522 22.9495 12.1143 24.1556 10.5515 26.1609C9.02626 28.1179 8.65467 30.565 8.54578 32.9306C8.42746 35.5012 10.5499 37.5 13 37.5H27.2174H36.7826H51C53.4496 37.5 55.5736 35.5014 55.4538 32.9297C55.344 30.5757 54.9701 28.1548 53.4434 26.2076C51.8847 24.2197 49.357 23.0055 45.5857 22.5126C44.7111 22.3984 44.1343 22.1485 43.7303 21.8579C43.3267 21.5674 43.0147 21.178 42.7555 20.6632C42.3033 19.7654 42.0902 18.7004 41.8261 17.3811C41.7553 17.0279 41.681 16.6563 41.5974 16.2649C41.2345 14.5658 40.6927 12.5483 39.2142 10.9951C37.6767 9.38002 35.3703 8.5 32 8.5Z" fill="#FF7051" stroke="black" stroke-width="3"/>
<path d="M24 55L27 36H37L40 55H24Z" fill="#FFF4D9"/>
<path d="M13 37.5H25.4255L23.154 50.2082C22.6609 52.9666 24.7817 55.5 27.5838 55.5H36.0131C38.766 55.5 40.8736 53.0503 40.4627 50.3283L38.5261 37.5H51C53.4496 37.5 55.5736 35.5014 55.4538 32.9297C55.344 30.5757 54.9701 28.1548 53.4434 26.2076C51.8847 24.2197 49.357 23.0055 45.5857 22.5126C44.7111 22.3984 44.1343 22.1485 43.7303 21.8579C43.3267 21.5674 43.0147 21.178 42.7555 20.6632C42.3033 19.7654 42.0902 18.7004 41.8261 17.3811C41.7553 17.0279 41.681 16.6563 41.5974 16.2649C41.2345 14.5658 40.6927 12.5483 39.2142 10.9951C37.6767 9.38002 35.3703 8.5 32 8.5C28.6256 8.5 26.3181 9.39019 24.7817 11.017C23.3059 12.5796 22.7649 14.6074 22.4023 16.3131C22.3195 16.7031 22.2456 17.0732 22.1754 17.425C21.9106 18.7526 21.6976 19.8201 21.2457 20.7137C20.9878 21.2236 20.6787 21.6048 20.2805 21.886C19.8817 22.1676 19.3091 22.4086 18.4356 22.51C14.6522 22.9495 12.1143 24.1556 10.5515 26.1609C9.02626 28.1179 8.65467 30.565 8.54578 32.9306C8.42746 35.5012 10.5499 37.5 13 37.5Z" stroke="black" stroke-width="3"/>
<path d="M24 55L27 36H37L40 55H24Z" fill="#FFF4D9"/>
<path d="M13 37.5H25.4255L23.154 50.2082C22.6609 52.9666 24.7817 55.5 27.5838 55.5H36.0131C38.766 55.5 40.8736 53.0503 40.4627 50.3283L38.5261 37.5H51C53.4496 37.5 55.5736 35.5014 55.4538 32.9297C55.344 30.5757 54.9701 28.1548 53.4434 26.2076C51.8847 24.2197 49.357 23.0055 45.5857 22.5126C44.7111 22.3984 44.1343 22.1485 43.7303 21.8579C43.3267 21.5674 43.0147 21.178 42.7555 20.6632C42.3033 19.7654 42.0902 18.7004 41.8261 17.3811C41.7553 17.0279 41.681 16.6563 41.5974 16.2649C41.2345 14.5658 40.6927 12.5483 39.2142 10.9951C37.6767 9.38002 35.3703 8.5 32 8.5C28.6256 8.5 26.3181 9.39019 24.7817 11.017C23.3059 12.5796 22.7649 14.6074 22.4023 16.3131C22.3195 16.7031 22.2456 17.0732 22.1754 17.425C21.9106 18.7526 21.6976 19.8201 21.2457 20.7137C20.9878 21.2236 20.6787 21.6048 20.2805 21.886C19.8817 22.1676 19.3091 22.4086 18.4356 22.51C14.6522 22.9495 12.1143 24.1556 10.5515 26.1609C9.02626 28.1179 8.65467 30.565 8.54578 32.9306C8.42746 35.5012 10.5499 37.5 13 37.5Z" stroke="black" stroke-width="3"/>
<path d="M22 37.5H42.5" stroke="black" stroke-width="3"/>
<mask id="path-7-outside-1" maskUnits="userSpaceOnUse" x="35" y="16.1549" width="17" height="14" fill="black">
<rect fill="white" x="35" y="16.1549" width="17" height="14"/>
<path fill-rule="evenodd" clip-rule="evenodd" d="M40.9431 20.1549C41.5609 22.0968 42.6542 23.6423 45.3913 24C46.7296 24.1749 47.8598 24.4404 48.8143 24.7867C48.0894 27 45.3962 27 43.5 27H43.5H43.5C41.2908 27 38 27 38 23.5C38 21.2381 39.3745 20.4379 40.9431 20.1549Z"/>
</mask>
<path fill-rule="evenodd" clip-rule="evenodd" d="M40.9431 20.1549C41.5609 22.0968 42.6542 23.6423 45.3913 24C46.7296 24.1749 47.8598 24.4404 48.8143 24.7867C48.0894 27 45.3962 27 43.5 27H43.5H43.5C41.2908 27 38 27 38 23.5C38 21.2381 39.3745 20.4379 40.9431 20.1549Z" fill="#FFF4D9"/>
<path d="M40.9431 20.1549L43.802 19.2455C43.3451 17.8093 41.8936 16.935 40.4105 17.2026L40.9431 20.1549ZM45.3913 24L45.0026 26.9747L45.0026 26.9747L45.3913 24ZM48.8143 24.7867L51.6653 25.7205C52.1696 24.1809 51.3604 22.519 49.8374 21.9665L48.8143 24.7867ZM38.0843 21.0644C38.4708 22.2791 39.0958 23.6693 40.2806 24.8219C41.5094 26.0172 43.0998 26.7261 45.0026 26.9747L45.78 21.0253C44.9457 20.9163 44.6209 20.6735 44.4643 20.5211C44.2638 20.3261 44.0333 19.9726 43.802 19.2455L38.0843 21.0644ZM45.0026 26.9747C46.1744 27.1278 47.0844 27.3504 47.7912 27.6068L49.8374 21.9665C48.6352 21.5304 47.2848 21.2219 45.78 21.0253L45.0026 26.9747ZM45.9634 23.8529C45.9596 23.8644 45.9651 23.8441 45.9894 23.809C46.0136 23.7742 46.0395 23.7489 46.0559 23.7355C46.0816 23.7147 46.0273 23.7681 45.7971 23.8318C45.5658 23.8957 45.2503 23.9446 44.8332 23.9718C44.4153 23.999 43.987 24 43.5 24V30C44.3646 30 45.933 30.0192 47.3956 29.6149C48.985 29.1756 50.8844 28.1045 51.6653 25.7205L45.9634 23.8529ZM43.5 24H43.5V30H43.5V24ZM43.5 24H43.5V30H43.5V24ZM43.5 24C42.9295 24 42.4394 23.9982 41.9726 23.9569C41.5022 23.9154 41.2039 23.844 41.0313 23.7753C40.8843 23.7168 40.9386 23.7058 41.0099 23.8081C41.0859 23.9172 41 23.893 41 23.5H35C35 24.857 35.3254 26.1454 36.0875 27.2388C36.8449 28.3255 37.86 28.9707 38.8118 29.3497C40.5454 30.0399 42.5365 30 43.5 30V24ZM41 23.5C41 23.3688 41.01 23.2782 41.0196 23.2216C41.0244 23.1934 41.0291 23.1736 41.0325 23.1611C41.0359 23.1486 41.0381 23.1429 41.0382 23.1427C41.0382 23.1427 41.0365 23.1471 41.0323 23.1552C41.0281 23.1633 41.0222 23.1736 41.0144 23.1853C40.9979 23.2101 40.9789 23.2322 40.961 23.2495C40.9246 23.2843 40.9226 23.271 41.0058 23.2352C41.0941 23.1973 41.2438 23.1491 41.4758 23.1072L40.4105 17.2026C39.3452 17.3948 37.9484 17.8242 36.8056 18.9213C35.5724 20.1053 35 21.709 35 23.5H41Z" fill="black" mask="url(#path-7-outside-1)"/>
<mask id="path-9-outside-2" maskUnits="userSpaceOnUse" x="21.2831" y="7.04765" width="13" height="11" fill="black">
<rect fill="white" x="21.2831" y="7.04765" width="13" height="11"/>
<path fill-rule="evenodd" clip-rule="evenodd" d="M25.5 15C27.7092 15 31 15 31 11.5C31 10.9273 30.9119 10.4483 30.7548 10.0477C26.5264 10.3872 25.0462 12.4976 24.2831 14.9821C24.7059 15 25.119 15 25.5 15H25.5H25.5Z"/>
</mask>
<path fill-rule="evenodd" clip-rule="evenodd" d="M25.5 15C27.7092 15 31 15 31 11.5C31 10.9273 30.9119 10.4483 30.7548 10.0477C26.5264 10.3872 25.0462 12.4976 24.2831 14.9821C24.7059 15 25.119 15 25.5 15H25.5H25.5Z" fill="#FFF4D9"/>
<path d="M30.7548 10.0477L33.5478 8.95258C33.0651 7.72132 31.833 6.95143 30.5147 7.05728L30.7548 10.0477ZM24.2831 14.9821L21.4153 14.1012C21.1424 14.9896 21.2967 15.9543 21.8331 16.7134C22.3695 17.4724 23.2273 17.94 24.1559 17.9794L24.2831 14.9821ZM28 11.5C28 11.893 27.9141 11.9172 27.9901 11.8081C28.0614 11.7058 28.1157 11.7168 27.9687 11.7753C27.7961 11.844 27.4978 11.9154 27.0274 11.9569C26.5606 11.9982 26.0705 12 25.5 12V18C26.4635 18 28.4546 18.0399 30.1882 17.3497C31.14 16.9707 32.1551 16.3255 32.9125 15.2388C33.6746 14.1454 34 12.857 34 11.5H28ZM27.9618 11.1427C27.9594 11.1366 28 11.2344 28 11.5H34C34 10.6201 33.8643 9.75994 33.5478 8.95258L27.9618 11.1427ZM27.1509 15.863C27.4481 14.8953 27.7883 14.3286 28.2089 13.956C28.6028 13.607 29.3604 13.1693 30.9949 13.038L30.5147 7.05728C27.9209 7.26554 25.8241 8.05281 24.2301 9.465C22.6627 10.8537 21.8812 12.5844 21.4153 14.1012L27.1509 15.863ZM25.5 12C25.1108 12 24.7598 11.9996 24.4103 11.9848L24.1559 17.9794C24.6521 18.0004 25.1272 18 25.5 18V12ZM25.5 12H25.5V18H25.5V12ZM25.5 12H25.5V18H25.5V12Z" fill="black" mask="url(#path-9-outside-2)"/>
<mask id="path-11-outside-3" maskUnits="userSpaceOnUse" x="15" y="28" width="17" height="11" fill="black">
<rect fill="white" x="15" y="28" width="17" height="11"/>
<path fill-rule="evenodd" clip-rule="evenodd" d="M28.9758 36H18.0242C18.0083 35.8418 18 35.6753 18 35.5C18 32 21.2909 32 23.5 32C25.7091 32 29 32 29 35.5C29 35.6753 28.9917 35.8418 28.9758 36Z"/>
</mask>
<path fill-rule="evenodd" clip-rule="evenodd" d="M28.9758 36H18.0242C18.0083 35.8418 18 35.6753 18 35.5C18 32 21.2909 32 23.5 32C25.7091 32 29 32 29 35.5C29 35.6753 28.9917 35.8418 28.9758 36Z" fill="#FFF4D9"/>
<path d="M28.9758 36V39C30.516 39 31.806 37.8336 31.9606 36.3012L28.9758 36ZM18.0242 36L15.0394 36.3012C15.194 37.8336 16.484 39 18.0242 39V36ZM28.9758 33H18.0242V39H28.9758V33ZM21.0091 35.6988C21.0038 35.647 21 35.5812 21 35.5H15C15 35.7694 15.0127 36.0366 15.0394 36.3012L21.0091 35.6988ZM21 35.5C21 35.107 21.0859 35.0829 21.0099 35.1919C20.9386 35.2943 20.8843 35.2832 21.0313 35.2247C21.204 35.156 21.5023 35.0846 21.9726 35.0431C22.4394 35.0018 22.9295 35 23.5 35V29C22.5365 29 20.5454 28.9601 18.8119 29.6503C17.86 30.0293 16.8449 30.6745 16.0875 31.7612C15.3254 32.8547 15 34.143 15 35.5H21ZM23.5 35C24.0705 35 24.5606 35.0018 25.0274 35.0431C25.4977 35.0846 25.796 35.156 25.9687 35.2247C26.1157 35.2832 26.0614 35.2943 25.9901 35.1919C25.9141 35.0829 26 35.107 26 35.5H32C32 34.143 31.6746 32.8547 30.9125 31.7612C30.1551 30.6745 29.14 30.0293 28.1881 29.6503C26.4546 28.9601 24.4635 29 23.5 29V35ZM26 35.5C26 35.5812 25.9962 35.647 25.9909 35.6988L31.9606 36.3012C31.9873 36.0366 32 35.7694 32 35.5H26Z" fill="black" mask="url(#path-11-outside-3)"/>
</svg>
