<svg width="138" height="138" viewBox="0 0 138 138" fill="none" xmlns="http://www.w3.org/2000/svg">
<circle cx="69.5" cy="69.5" r="65.5" fill="#E5E5E5" stroke="black" stroke-width="2"/>
<path d="M69.6685 10.0412L71.3575 10.188L71.7246 13.0519C71.9449 14.8877 72.0184 15.2549 72.0918 15.6221L72.7527 13.7862L73.9276 10.4083L75.9837 10.5552L76.5712 14.08C76.7915 15.1815 76.8649 15.6221 76.8649 15.9892C77.0118 15.6221 77.0852 15.3283 77.5992 13.5659L78.4804 10.7755L80.096 10.9224L77.5992 17.8985L75.8369 17.7516L75.176 14.08C74.9557 12.7582 74.8822 12.3176 74.8088 12.0239C74.7354 12.3176 74.5885 12.7582 74.0745 14.0065L72.7527 17.5313L70.9903 17.3844L69.6685 10.0412Z" fill="black"/>
<path d="M82.0052 11.4364L87.2923 12.7582L86.9986 14.0065L83.2535 13.0519L82.8864 14.594L85.7502 15.3283L85.4565 16.5767L82.5926 15.8424L82.152 17.5313L85.8971 18.4859L85.6034 19.7343L80.3162 18.4125L82.0052 11.4364Z" fill="black"/>
<path d="M89.9358 17.4579C90.817 15.5486 93.0199 14.6674 95.0026 15.6221C96.765 16.4298 97.279 17.825 97.1322 19.0734L95.5901 18.9265C95.6635 18.1188 95.4432 17.311 94.4152 16.797C93.2402 16.283 92.0653 16.7235 91.4044 18.1188C90.7435 19.514 91.2576 20.7623 92.3591 21.2029C93.4605 21.717 94.2683 21.2764 94.562 20.8358L92.4325 19.8811L92.9465 18.7062L96.4713 20.3217L94.9292 23.6996L93.6808 23.1122L94.1214 22.1576C93.6808 22.4513 92.7997 22.8185 91.4779 22.231C89.7889 21.5701 88.9077 19.6609 89.9358 17.4579Z" fill="black"/>
<path d="M97.5731 21.0561C98.748 19.2937 100.878 18.7062 102.86 20.028C104.843 21.3498 105.137 23.4793 103.962 25.3152C102.787 27.0775 100.731 27.665 98.6745 26.3432C96.6184 25.0214 96.3247 22.8919 97.5731 21.0561ZM102.566 24.434C103.374 23.2591 103.301 21.9373 102.126 21.1295C100.951 20.3217 99.7026 20.7623 98.8948 21.9373C98.0871 23.1122 98.2339 24.434 99.4089 25.2417C100.584 25.9761 101.832 25.6089 102.566 24.434Z" fill="black"/>
<path d="M107.78 25.5355L105.944 23.9199L106.825 22.9653L111.672 27.2244L110.791 28.179L108.955 26.5635L105.063 30.9695L103.888 29.9414L107.78 25.5355Z" fill="black"/>
<path d="M114.169 31.9975L112.627 30.0883L113.655 29.2805L117.84 34.274L116.812 35.0817L115.27 33.1725L110.717 36.9175L109.689 35.7426L114.169 31.9975Z" fill="black"/>
<path d="M118.721 35.5957L119.529 36.9175L117.106 38.4596L118.721 41.1032L121.145 39.5611L121.953 40.8829L115.858 44.7014L115.05 43.3796L117.62 41.7641L116.004 39.1205L113.434 40.736L112.627 39.4142L118.721 35.5957Z" fill="black"/>
<path d="M123.054 42.939L123.715 44.3342L117.253 47.4918L116.592 46.0966L123.054 42.939Z" fill="black"/>
<path d="M119.676 47.6387L120.631 48.8136C120.043 49.1808 119.529 49.9885 119.896 51.0166C120.264 51.9712 120.778 52.1915 121.292 52.0446C121.732 51.8978 121.879 51.4572 121.732 50.6494L121.512 49.7682C121.218 48.373 121.512 47.3449 122.76 46.9044C123.862 46.4638 125.184 47.0512 125.844 48.8136C126.505 50.5026 125.918 51.6775 125.11 52.3384L124.156 51.1634C124.67 50.7228 125.037 50.1354 124.67 49.2542C124.376 48.373 123.788 48.2996 123.421 48.4464C123.054 48.5933 122.907 49.0339 123.054 49.5479L123.274 50.4291C123.642 51.8978 123.348 53.0727 122.099 53.5867C120.925 54.0273 119.676 53.5133 118.868 51.5306C118.061 49.6948 118.648 48.373 119.676 47.6387Z" fill="black"/>
<path d="M124.816 59.1676C125.991 59.0208 127.093 59.8285 127.24 60.93C127.386 62.1049 126.579 63.2064 125.404 63.3533C124.229 63.5001 123.127 62.6924 122.981 61.5175C122.907 60.4894 123.715 59.3879 124.816 59.1676Z" fill="black"/>
<path d="M129.663 69.6685L129.516 71.3574L126.652 71.7246C124.816 71.9449 124.449 72.0183 124.082 72.0917L125.918 72.7526L129.296 73.9276L129.149 75.9837L125.624 76.5711C124.523 76.7914 124.082 76.8649 123.715 76.8649C124.082 77.0117 124.376 77.0852 126.138 77.5992L128.929 78.4804L128.782 80.0959L121.806 77.5258L121.952 75.7634L125.624 75.1025C126.946 74.8822 127.387 74.8087 127.68 74.7353C127.387 74.6619 126.946 74.515 125.698 74.001L122.173 72.6792L122.32 70.9168L129.663 69.6685Z" fill="black"/>
<path d="M128.268 82.0052L126.946 87.2923L125.698 86.9986L126.652 83.2535L125.11 82.8863L124.376 85.7502L123.127 85.4565L123.862 82.5926L122.173 82.152L121.218 85.8971L119.97 85.6034L121.292 80.3162L128.268 82.0052Z" fill="black"/>
<path d="M122.246 89.8625C124.156 90.7436 125.037 92.9466 124.082 94.9293C123.274 96.6917 121.879 97.2057 120.631 97.0589L120.778 95.5168C121.585 95.5902 122.467 95.3699 122.907 94.3419C123.421 93.1669 122.981 91.992 121.585 91.3311C120.19 90.6702 118.942 91.1842 118.501 92.2857C117.987 93.3872 118.428 94.195 118.868 94.4887L119.823 92.3592L120.998 92.8732L119.383 96.398L116.005 94.8559L116.592 93.6075L117.547 94.0481C117.253 93.6075 116.886 92.7263 117.473 91.4045C118.208 89.789 120.043 88.9078 122.246 89.8625Z" fill="black"/>
<path d="M118.648 97.5729C120.41 98.7478 120.998 100.877 119.676 102.86C118.354 104.843 116.225 105.136 114.389 103.962C112.627 102.787 112.039 100.73 113.361 98.6744C114.756 96.6917 116.812 96.3245 118.648 97.5729ZM115.27 102.566C116.445 103.374 117.767 103.301 118.575 102.126C119.382 100.951 118.942 99.7024 117.767 98.8947C116.592 98.0869 115.27 98.2338 114.462 99.4087C113.728 100.584 114.095 101.832 115.27 102.566Z" fill="black"/>
<path d="M114.169 107.78L115.784 105.944L116.739 106.825L112.48 111.672L111.525 110.791L113.14 108.955L108.735 105.063L109.763 103.888L114.169 107.78Z" fill="black"/>
<path d="M107.707 114.169L109.616 112.553L110.424 113.581L105.43 117.767L104.623 116.739L106.532 115.197L102.787 110.644L103.962 109.616L107.707 114.169Z" fill="black"/>
<path d="M104.035 118.721L102.713 119.529L101.171 117.106L98.5275 118.721L100.07 121.145L98.7478 121.953L94.9293 115.858L96.2511 115.05L97.8666 117.62L100.51 116.004L98.8947 113.434L100.216 112.627L104.035 118.721Z" fill="black"/>
<path d="M96.765 123.054L95.3698 123.715L92.2122 117.253L93.6074 116.592L96.765 123.054Z" fill="black"/>
<path d="M92.0655 119.676L90.8906 120.631C90.5234 120.043 89.7157 119.529 88.6876 119.896C87.733 120.264 87.5127 120.778 87.6595 121.292C87.8064 121.732 88.247 121.879 89.0548 121.732L89.936 121.512C91.3312 121.218 92.3592 121.512 92.7998 122.76C93.2404 123.862 92.653 125.184 90.8906 125.844C89.2016 126.505 88.0267 125.918 87.3658 125.11L88.5407 124.155C88.9813 124.67 89.5688 125.037 90.45 124.67C91.3312 124.376 91.4046 123.788 91.2577 123.421C91.1109 123.054 90.6703 122.907 90.1563 123.054L89.2751 123.274C87.8064 123.641 86.6315 123.348 86.1175 122.099C85.6769 120.924 86.1909 119.676 88.1736 118.868C90.0828 118.061 91.3312 118.648 92.0655 119.676Z" fill="black"/>
<path d="M80.5365 124.816C80.6834 125.991 79.8756 127.093 78.7741 127.24C77.6727 127.387 76.4977 126.579 76.3509 125.404C76.204 124.229 77.0118 123.127 78.1867 122.981C79.2147 122.907 80.3162 123.715 80.5365 124.816Z" fill="black"/>
<path d="M70.0356 129.663L68.3467 129.516L67.9795 126.652C67.7592 124.816 67.6858 124.449 67.6123 124.082L66.9514 125.918L65.7765 129.296L63.7204 129.149L63.1329 125.624C62.9126 124.523 62.8392 124.082 62.8392 123.715C62.6923 124.082 62.6189 124.376 62.1049 126.138L61.2237 128.929L59.6082 128.782L62.1783 121.806L63.9407 121.953L64.6016 125.624C64.8219 126.946 64.8953 127.387 64.9688 127.68C65.0422 127.387 65.1891 126.946 65.7031 125.698L67.0249 122.173L68.7873 122.32L70.0356 129.663Z" fill="black"/>
<path d="M57.699 128.268L52.4119 126.946L52.7056 125.698L56.4507 126.652L56.8178 125.11L53.9539 124.376L54.2477 123.127L57.1116 123.862L57.5521 122.173L53.8071 121.218L54.1008 119.97L59.388 121.292L57.699 128.268Z" fill="black"/>
<path d="M49.8416 122.246C48.9605 124.156 46.7575 125.037 44.7748 124.082C43.0124 123.274 42.4984 121.879 42.6452 120.631L44.1873 120.778C44.1139 121.585 44.3342 122.393 45.3623 122.907C46.5372 123.421 47.7121 122.981 48.373 121.585C49.0339 120.19 48.5199 118.942 47.4184 118.501C46.3169 117.987 45.5091 118.428 45.2154 118.868L47.3449 119.823L46.8309 120.998L43.3061 119.382L44.8482 116.004L46.0966 116.592L45.656 117.547C46.0966 117.253 46.9778 116.886 48.2996 117.473C49.9151 118.207 50.7963 120.043 49.8416 122.246Z" fill="black"/>
<path d="M42.1313 118.648C40.9564 120.41 38.8268 120.998 36.8442 119.676C34.8615 118.354 34.5677 116.225 35.7427 114.389C36.9176 112.627 38.9737 112.039 41.0298 113.361C43.0125 114.756 43.3062 116.812 42.1313 118.648ZM37.0644 115.27C36.2567 116.445 36.3301 117.767 37.505 118.575C38.68 119.382 39.9283 118.942 40.7361 117.767C41.5438 116.592 41.397 115.27 40.2221 114.462C39.1206 113.728 37.8722 114.095 37.0644 115.27Z" fill="black"/>
<path d="M31.924 114.169L33.7599 115.784L32.8787 116.739L28.0321 112.48L28.9133 111.525L30.7491 113.141L34.641 108.735L35.816 109.763L31.924 114.169Z" fill="black"/>
<path d="M25.5356 107.707L27.0777 109.616L26.0497 110.424L21.864 105.43L22.8921 104.622L24.4342 106.532L28.987 102.787L30.015 103.962L25.5356 107.707Z" fill="black"/>
<path d="M20.9827 104.035L20.175 102.713L22.5983 101.171L20.9827 98.5275L18.5595 100.07L17.7517 98.7478L23.8466 94.9293L24.6544 96.2511L22.0842 97.8666L23.6998 100.51L26.2699 98.8947L27.0777 100.216L20.9827 104.035Z" fill="black"/>
<path d="M16.6503 96.7651L15.9894 95.3699L22.4515 92.2123L23.1124 93.6075L16.6503 96.7651Z" fill="black"/>
<path d="M20.028 92.0654L19.0734 90.8905C19.6609 90.5233 20.1749 89.7156 19.8077 88.6875C19.4406 87.7329 18.9265 87.5126 18.4125 87.6595C17.9719 87.8063 17.825 88.2469 17.9719 89.0547L18.1922 89.9359C18.4859 91.3311 18.1922 92.3592 16.9438 92.7997C15.8424 93.2403 14.5206 92.6529 13.8597 90.8905C13.1988 89.2016 13.7862 88.0266 14.594 87.3657L15.5486 88.5407C15.0346 88.9813 14.6674 89.5687 15.0346 90.4499C15.3283 91.3311 15.9158 91.4045 16.283 91.2577C16.6501 91.1108 16.797 90.6702 16.6501 90.1562L16.4298 89.275C16.0627 87.8063 16.3564 86.6314 17.6047 86.1174C18.7797 85.6768 20.028 86.1908 20.8358 88.1735C21.6435 90.0827 21.0561 91.3311 20.028 92.0654Z" fill="black"/>
<path d="M14.8878 80.5365C13.7128 80.6834 12.6114 79.8756 12.4645 78.7741C12.2442 77.5992 13.0519 76.4977 14.2269 76.2774C15.3284 76.1306 16.4298 76.9383 16.6501 78.1132C16.797 79.2881 15.9893 80.3896 14.8878 80.5365Z" fill="black"/>
<path d="M10.0412 70.0356L10.1881 68.3467L13.0519 67.9795C14.8878 67.7592 15.2549 67.6858 15.6221 67.6124L13.7863 66.9515L10.4084 65.7765L10.5552 63.7204L14.08 63.133C15.1815 62.9127 15.6221 62.8392 15.9892 62.8392C15.6221 62.6924 15.3283 62.6189 13.566 62.1049L10.7755 61.2237L10.9224 59.6082L17.8985 62.1783L17.7516 63.9407L14.08 64.6016C12.7582 64.8219 12.3176 64.8954 12.0239 64.9688C12.3176 65.0422 12.7582 65.1891 14.0066 65.7031L17.5313 67.0249L17.3845 68.7139L10.0412 70.0356Z" fill="black"/>
<path d="M11.4365 57.699L12.7583 52.4118L14.0066 52.7055L13.052 56.4506L14.5941 56.8178L15.3284 53.9539L16.5767 54.2476L15.8424 57.1115L17.5314 57.5521L18.486 53.807L19.7344 54.1008L18.4126 59.3879L11.4365 57.699Z" fill="black"/>
<path d="M17.4577 49.8417C15.475 48.9605 14.6673 46.7575 15.6219 44.7748C16.4297 43.0124 17.8249 42.4984 19.0732 42.6453L18.9264 44.1873C18.1186 44.1139 17.3109 44.3342 16.7968 45.3623C16.2828 46.5372 16.7234 47.7121 18.1186 48.373C19.5138 49.0339 20.7622 48.5199 21.2028 47.4184C21.7168 46.3169 21.2762 45.5091 20.8356 45.2154L19.881 47.3449L18.7061 46.7575L20.3216 43.2327L23.6995 44.7748L23.112 46.0232L22.1574 45.5826C22.4511 46.0232 22.8183 46.9044 22.2309 48.2261C21.4965 49.9151 19.6607 50.8697 17.4577 49.8417Z" fill="black"/>
<path d="M21.0561 42.1312C19.2937 40.9563 18.7063 38.8268 20.0281 36.8441C21.3499 34.8614 23.4794 34.5677 25.3152 35.7426C27.0776 36.9175 27.6651 38.9736 26.3433 41.0297C24.9481 43.0124 22.8919 43.3062 21.0561 42.1312ZM24.434 37.0644C23.2591 36.2566 21.9373 36.3301 21.1296 37.505C20.3218 38.6799 20.7624 39.9283 21.9373 40.736C23.1122 41.5438 24.434 41.3969 25.2418 40.222C25.9761 39.1205 25.6089 37.8721 24.434 37.0644Z" fill="black"/>
<path d="M25.5355 31.9241L23.92 33.7599L22.9654 32.8787L27.2245 28.0322L28.1791 28.9134L26.5636 30.7492L30.9695 34.6411L29.9415 35.816L25.5355 31.9241Z" fill="black"/>
<path d="M31.9974 25.5355L30.0882 27.0775L29.2804 26.0495L34.2738 21.8638L35.0816 22.8919L33.1724 24.434L36.9174 28.9868L35.7425 30.0883L31.9974 25.5355Z" fill="black"/>
<path d="M35.5959 20.9826L36.9177 20.1749L38.4598 22.5982L41.1033 20.9826L39.5613 18.5594L40.883 17.7516L44.7015 23.8465L43.3797 24.6543L41.7642 22.0841L39.1207 23.6996L40.7362 26.2698L39.4144 27.0775L35.5959 20.9826Z" fill="black"/>
<path d="M42.9391 16.6501L44.3343 15.9892L47.4919 22.4513L46.0967 23.1122L42.9391 16.6501Z" fill="black"/>
<path d="M47.6386 20.028L48.8136 19.0734C49.1807 19.6609 49.9885 20.1749 51.0165 19.8077C51.9712 19.4406 52.1915 18.9265 52.0446 18.4125C51.8977 17.9719 51.4571 17.825 50.6494 17.9719L49.7682 18.1922C48.373 18.4859 47.3449 18.1922 46.9043 16.9438C46.4637 15.8424 47.0512 14.5206 48.8136 13.8597C50.5025 13.1988 51.6774 13.7862 52.3383 14.594L51.1634 15.6221C50.7228 15.108 50.1353 14.7409 49.2542 15.108C48.373 15.4018 48.2261 15.9158 48.373 16.3564C48.5198 16.7235 48.9604 16.8704 49.4744 16.7235L50.4291 16.5767C51.8977 16.2095 53.0726 16.5032 53.5867 17.7516C54.0273 18.9265 53.5132 20.1749 51.5306 20.9826C49.6213 21.6435 48.2995 21.0561 47.6386 20.028Z" fill="black"/>
<path d="M59.1677 14.8877C59.0208 13.7128 59.8285 12.6113 60.93 12.4645C62.105 12.3176 63.2064 13.1253 63.3533 14.3003C63.5002 15.4752 62.6924 16.5767 61.5175 16.7235C60.416 16.797 59.3145 15.9892 59.1677 14.8877Z" fill="black"/>
<path d="M54.3214 78.3036C50.0293 79.1385 46.7673 82.8943 46.7168 87.438C46.7054 88.4686 46.86 89.4623 47.1558 90.3938L42.737 94.7155L48.7198 100.833L53.1699 96.4804C54.0683 96.7776 55.0271 96.9431 56.0238 96.9542C60.4033 97.0029 64.1175 94.0525 65.2129 90.0131L69.9702 74.0052L54.3214 78.3036Z" fill="#B58B1F"/>
<path d="M69.9702 74.0052L65.2129 90.0131C64.1175 94.0525 60.4033 97.0029 56.0238 96.9542C55.0271 96.9431 54.0683 96.7776 53.1699 96.4804L48.7198 100.833L42.737 94.7155L47.1558 90.3938C46.86 89.4623 46.7054 88.4686 46.7168 87.438C46.7673 82.8943 50.0293 79.1385 54.3214 78.3036L69.9702 74.0052ZM69.9702 74.0052L56.1693 87.5027" stroke="black" stroke-width="2"/>
<path d="M54.2397 89.1582C53.2485 88.1446 53.2665 86.5194 54.2801 85.5282C55.2936 84.5369 56.9188 84.555 57.9101 85.5685C58.9014 86.5821 58.8833 88.2073 57.8697 89.1986C56.8562 90.1898 55.231 90.1717 54.2397 89.1582Z" fill="black"/>
<path d="M66.9196 33.7088L75.0717 33.7088C76.1093 33.7088 76.955 34.5545 76.955 35.5921L76.955 63.9632L70.9957 72.0063L65.0363 63.9632L65.0363 35.592C65.0407 34.5501 65.8821 33.7088 66.9196 33.7088Z" fill="#00B6FF" stroke="black" stroke-width="2" stroke-miterlimit="10"/>
<path d="M76.9624 41.5763L65.0437 41.5762" stroke="black" stroke-width="2" stroke-miterlimit="10"/>
<path d="M88.5695 87.3489L88.6464 86.7537L89.2078 86.5416L100.28 82.358L72.683 74.3033L87.061 99.0315L88.5695 87.3489Z" fill="#FCEC4F" stroke="black" stroke-width="2"/>
</svg>
