<svg width="64" height="64" viewBox="0 0 64 64" fill="none" xmlns="http://www.w3.org/2000/svg">
<mask id="path-1-outside-1" maskUnits="userSpaceOnUse" x="5.22631" y="4" width="53" height="56" fill="black">
<rect fill="white" x="5.22631" y="4" width="53" height="56"/>
<path fill-rule="evenodd" clip-rule="evenodd" d="M27.5958 9.52603C27.8287 8.07065 29.0842 7 30.5581 7H33.4418C34.9157 7 36.1713 8.07065 36.4041 9.52603L37.4212 15.8827C39.5903 16.612 41.5639 17.7669 43.2427 19.2482L49.2609 16.9489C50.6377 16.4229 52.1927 16.9749 52.9297 18.2513L54.3715 20.7487C55.1085 22.0251 54.809 23.6478 53.6651 24.5771L48.6674 28.6372C48.8856 29.7242 49 30.8488 49 32C49 33.1512 48.8856 34.2758 48.6674 35.3628L53.6651 39.4229C54.8091 40.3522 55.1085 41.9749 54.3715 43.2513L52.9297 45.7487C52.1927 47.0251 50.6377 47.5771 49.2609 47.0511L43.2427 44.7518C41.5639 46.2331 39.5903 47.388 37.4212 48.1173L36.4041 54.474C36.1713 55.9294 34.9157 57 33.4418 57H30.5581C29.0842 57 27.8287 55.9293 27.5958 54.474L26.5787 48.1173C24.4096 47.388 22.4361 46.2331 20.7573 44.7518L14.739 47.0511C13.3622 47.5771 11.8072 47.0251 11.0703 45.7487L9.62841 43.2513C8.89147 41.9749 9.19089 40.3522 10.3349 39.4229L15.3325 35.3628C15.1144 34.2757 15 33.1512 15 32C15 30.8488 15.1144 29.7243 15.3325 28.6372L10.3349 24.5771C9.1909 23.6478 8.89147 22.0251 9.62842 20.7487L11.0703 18.2513C11.8072 16.9749 13.3622 16.4229 14.739 16.9489L20.7573 19.2482C22.4361 17.7669 24.4097 16.612 26.5787 15.8827L27.5958 9.52603ZM32 43C38.0751 43 43 38.0751 43 32C43 25.9249 38.0751 21 32 21C25.9249 21 21 25.9249 21 32C21 38.0751 25.9249 43 32 43Z"/>
</mask>
<path fill-rule="evenodd" clip-rule="evenodd" d="M27.5958 9.52603C27.8287 8.07065 29.0842 7 30.5581 7H33.4418C34.9157 7 36.1713 8.07065 36.4041 9.52603L37.4212 15.8827C39.5903 16.612 41.5639 17.7669 43.2427 19.2482L49.2609 16.9489C50.6377 16.4229 52.1927 16.9749 52.9297 18.2513L54.3715 20.7487C55.1085 22.0251 54.809 23.6478 53.6651 24.5771L48.6674 28.6372C48.8856 29.7242 49 30.8488 49 32C49 33.1512 48.8856 34.2758 48.6674 35.3628L53.6651 39.4229C54.8091 40.3522 55.1085 41.9749 54.3715 43.2513L52.9297 45.7487C52.1927 47.0251 50.6377 47.5771 49.2609 47.0511L43.2427 44.7518C41.5639 46.2331 39.5903 47.388 37.4212 48.1173L36.4041 54.474C36.1713 55.9294 34.9157 57 33.4418 57H30.5581C29.0842 57 27.8287 55.9293 27.5958 54.474L26.5787 48.1173C24.4096 47.388 22.4361 46.2331 20.7573 44.7518L14.739 47.0511C13.3622 47.5771 11.8072 47.0251 11.0703 45.7487L9.62841 43.2513C8.89147 41.9749 9.19089 40.3522 10.3349 39.4229L15.3325 35.3628C15.1144 34.2757 15 33.1512 15 32C15 30.8488 15.1144 29.7243 15.3325 28.6372L10.3349 24.5771C9.1909 23.6478 8.89147 22.0251 9.62842 20.7487L11.0703 18.2513C11.8072 16.9749 13.3622 16.4229 14.739 16.9489L20.7573 19.2482C22.4361 17.7669 24.4097 16.612 26.5787 15.8827L27.5958 9.52603ZM32 43C38.0751 43 43 38.0751 43 32C43 25.9249 38.0751 21 32 21C25.9249 21 21 25.9249 21 32C21 38.0751 25.9249 43 32 43Z" fill="#699BF7"/>
<path d="M27.5958 9.52603L24.6335 9.05206L24.6335 9.05206L27.5958 9.52603ZM36.4041 9.52603L39.3665 9.05206L39.3665 9.05206L36.4041 9.52603ZM37.4212 15.8827L34.4589 16.3567L34.7455 18.1481L36.4651 18.7263L37.4212 15.8827ZM43.2427 19.2482L41.2579 21.4977L42.6184 22.6982L44.3134 22.0506L43.2427 19.2482ZM49.2609 16.9489L50.3316 19.7513L50.3316 19.7513L49.2609 16.9489ZM52.9297 18.2513L55.5278 16.7513L55.5278 16.7513L52.9297 18.2513ZM54.3715 20.7487L51.7734 22.2487L51.7735 22.2487L54.3715 20.7487ZM53.6651 24.5771L55.5567 26.9056L55.5567 26.9056L53.6651 24.5771ZM48.6674 28.6372L46.7758 26.3087L45.3696 27.4511L45.7261 29.2274L48.6674 28.6372ZM48.6674 35.3628L45.7261 34.7726L45.3697 36.5489L46.7758 37.6912L48.6674 35.3628ZM53.6651 39.4229L55.5567 37.0944L55.5567 37.0944L53.6651 39.4229ZM54.3715 43.2513L56.9696 44.7513L56.9696 44.7513L54.3715 43.2513ZM52.9297 45.7487L50.3316 44.2487L50.3316 44.2487L52.9297 45.7487ZM49.2609 47.0511L50.3316 44.2487L50.3316 44.2487L49.2609 47.0511ZM43.2427 44.7518L44.3134 41.9494L42.6184 41.3018L41.2579 42.5023L43.2427 44.7518ZM37.4212 48.1173L36.4651 45.2737L34.7455 45.8519L34.4589 47.6433L37.4212 48.1173ZM36.4041 54.474L33.4418 54L33.4418 54L36.4041 54.474ZM27.5958 54.474L24.6335 54.9479L24.6335 54.9479L27.5958 54.474ZM26.5787 48.1173L29.5411 47.6433L29.2544 45.8519L27.5348 45.2737L26.5787 48.1173ZM20.7573 44.7518L22.7421 42.5023L21.3815 41.3018L19.6866 41.9494L20.7573 44.7518ZM14.739 47.0511L15.8097 49.8535L15.8097 49.8535L14.739 47.0511ZM11.0703 45.7487L8.47218 47.2487L8.47218 47.2487L11.0703 45.7487ZM9.62841 43.2513L12.2265 41.7513L12.2265 41.7513L9.62841 43.2513ZM10.3349 39.4229L8.44322 37.0944L8.44322 37.0944L10.3349 39.4229ZM15.3325 35.3628L17.2242 37.6912L18.6303 36.5489L18.2739 34.7726L15.3325 35.3628ZM15.3325 28.6372L18.2739 29.2274L18.6303 27.4511L17.2242 26.3088L15.3325 28.6372ZM10.3349 24.5771L8.44323 26.9056L8.44323 26.9056L10.3349 24.5771ZM9.62842 20.7487L12.2265 22.2487L12.2265 22.2487L9.62842 20.7487ZM11.0703 18.2513L8.47219 16.7513L8.47219 16.7513L11.0703 18.2513ZM14.739 16.9489L15.8097 14.1465L15.8097 14.1464L14.739 16.9489ZM20.7573 19.2482L19.6866 22.0506L21.3816 22.6982L22.7421 21.4977L20.7573 19.2482ZM26.5787 15.8827L27.5348 18.7263L29.2544 18.1481L29.5411 16.3567L26.5787 15.8827ZM30.5581 4C27.6104 4 25.0992 6.1413 24.6335 9.05206L30.5581 10L30.5581 10V4ZM33.4418 4H30.5581V10H33.4418V4ZM39.3665 9.05206C38.9007 6.1413 36.3896 4 33.4418 4V10L33.4418 10L39.3665 9.05206ZM40.3835 15.4087L39.3665 9.05206L33.4418 10L34.4589 16.3567L40.3835 15.4087ZM45.2275 16.9987C43.2545 15.2578 40.9326 13.8983 38.3773 13.0391L36.4651 18.7263C38.248 19.3257 39.8733 20.276 41.2579 21.4977L45.2275 16.9987ZM48.1902 14.1465L42.172 16.4458L44.3134 22.0506L50.3316 19.7513L48.1902 14.1465ZM55.5278 16.7513C54.0539 14.1985 50.9439 13.0944 48.1902 14.1465L50.3316 19.7513L50.3316 19.7513L55.5278 16.7513ZM56.9696 19.2487L55.5278 16.7513L50.3316 19.7513L51.7734 22.2487L56.9696 19.2487ZM55.5567 26.9056C57.8446 25.0469 58.4435 21.8015 56.9696 19.2487L51.7735 22.2487L51.7734 22.2487L55.5567 26.9056ZM50.5591 30.9657L55.5567 26.9056L51.7735 22.2487L46.7758 26.3087L50.5591 30.9657ZM52 32C52 30.6495 51.8657 29.3273 51.6088 28.047L45.7261 29.2274C45.9054 30.1212 46 31.048 46 32H52ZM51.6088 35.953C51.8657 34.6727 52 33.3505 52 32H46C46 32.952 45.9054 33.8788 45.7261 34.7726L51.6088 35.953ZM55.5567 37.0944L50.5591 33.0343L46.7758 37.6912L51.7735 41.7513L55.5567 37.0944ZM56.9696 44.7513C58.4435 42.1985 57.8447 38.9531 55.5567 37.0944L51.7735 41.7513L51.7735 41.7513L56.9696 44.7513ZM55.5278 47.2487L56.9696 44.7513L51.7735 41.7513L50.3316 44.2487L55.5278 47.2487ZM48.1902 49.8535C50.9439 50.9056 54.0539 49.8015 55.5278 47.2487L50.3316 44.2487L50.3316 44.2487L48.1902 49.8535ZM42.172 47.5542L48.1902 49.8535L50.3316 44.2487L44.3134 41.9494L42.172 47.5542ZM38.3773 50.9609C40.9326 50.1017 43.2546 48.7422 45.2276 47.0013L41.2579 42.5023C39.8733 43.724 38.248 44.6743 36.4651 45.2737L38.3773 50.9609ZM39.3665 54.9479L40.3835 48.5913L34.4589 47.6433L33.4418 54L39.3665 54.9479ZM33.4418 60C36.3896 60 38.9007 57.8587 39.3665 54.9479L33.4418 54L33.4418 54V60ZM30.5581 60H33.4418V54H30.5581V60ZM24.6335 54.9479C25.0992 57.8587 27.6104 60 30.5581 60V54L30.5581 54L24.6335 54.9479ZM23.6164 48.5913L24.6335 54.9479L30.5581 54L29.5411 47.6433L23.6164 48.5913ZM18.7724 47.0013C20.7454 48.7422 23.0673 50.1017 25.6226 50.9609L27.5348 45.2737C25.752 44.6743 24.1267 43.7239 22.7421 42.5023L18.7724 47.0013ZM15.8097 49.8535L21.8279 47.5542L19.6866 41.9494L13.6683 44.2487L15.8097 49.8535ZM8.47218 47.2487C9.94606 49.8015 13.0561 50.9056 15.8097 49.8535L13.6683 44.2487L13.6683 44.2487L8.47218 47.2487ZM7.03033 44.7513L8.47218 47.2487L13.6683 44.2487L12.2265 41.7513L7.03033 44.7513ZM8.44322 37.0944C6.1553 38.9531 5.55645 42.1985 7.03033 44.7513L12.2265 41.7513L12.2265 41.7513L8.44322 37.0944ZM13.4409 33.0343L8.44322 37.0944L12.2265 41.7513L17.2242 37.6912L13.4409 33.0343ZM12 32C12 33.3505 12.1343 34.6727 12.3912 35.953L18.2739 34.7726C18.0946 33.8788 18 32.952 18 32H12ZM12.3912 28.047C12.1343 29.3273 12 30.6495 12 32H18C18 31.048 18.0946 30.1212 18.2739 29.2274L12.3912 28.047ZM8.44323 26.9056L13.4409 30.9657L17.2242 26.3088L12.2265 22.2487L8.44323 26.9056ZM7.03034 19.2487C5.55646 21.8015 6.1553 25.0469 8.44323 26.9056L12.2265 22.2487L12.2265 22.2487L7.03034 19.2487ZM8.47219 16.7513L7.03034 19.2487L12.2265 22.2487L13.6683 19.7513L8.47219 16.7513ZM15.8097 14.1464C13.0561 13.0944 9.94607 14.1985 8.47219 16.7513L13.6683 19.7513L13.6683 19.7513L15.8097 14.1464ZM21.828 16.4458L15.8097 14.1465L13.6683 19.7513L19.6866 22.0506L21.828 16.4458ZM25.6226 13.0391C23.0673 13.8983 20.7454 15.2578 18.7724 16.9987L22.7421 21.4977C24.1267 20.2761 25.752 19.3257 27.5348 18.7263L25.6226 13.0391ZM24.6335 9.05206L23.6164 15.4087L29.5411 16.3567L30.5581 10L24.6335 9.05206ZM40 32C40 36.4183 36.4183 40 32 40V46C39.732 46 46 39.732 46 32H40ZM32 24C36.4183 24 40 27.5817 40 32H46C46 24.268 39.732 18 32 18V24ZM24 32C24 27.5817 27.5817 24 32 24V18C24.268 18 18 24.268 18 32H24ZM32 40C27.5817 40 24 36.4183 24 32H18C18 39.732 24.268 46 32 46V40Z" fill="black" mask="url(#path-1-outside-1)"/>
</svg>
