<svg width="64" height="64" viewBox="0 0 64 64" fill="none" xmlns="http://www.w3.org/2000/svg">
<circle cx="32" cy="50" r="5" fill="#FFF4D9"/>
<path d="M31.9881 8.5C27.371 8.5 24.2804 9.90127 22.3092 12.3241C20.4105 14.658 19.7543 17.7073 19.4252 20.5495C19.2869 21.7438 19.2016 22.9597 19.1207 24.1118C19.1044 24.3443 19.0883 24.5741 19.0719 24.8007C18.9728 26.1741 18.8656 27.4319 18.6695 28.5542C18.2662 30.8629 17.571 32.1025 16.3886 32.6303C13.1178 34.0902 11.0737 35.7092 9.89622 37.7085C8.72677 39.6943 8.54797 41.8385 8.52561 43.9837C8.49934 46.5031 10.5752 48.5 13.0382 48.5H50.9693C53.413 48.5 55.4849 46.5313 55.4753 44.0249C55.467 41.8671 55.2933 39.7147 54.1208 37.7213C52.9412 35.716 50.8891 34.0933 47.6114 32.6303C46.4283 32.1022 45.732 30.8618 45.3266 28.5528C45.1294 27.4305 45.021 26.1727 44.9204 24.7992C44.9039 24.5732 44.8876 24.3439 44.8711 24.1121C44.789 22.9594 44.7024 21.7428 44.5627 20.5479C44.2306 17.7055 43.571 14.6567 41.6701 12.3234C39.6969 9.90128 36.6053 8.5 31.9881 8.5Z" fill="#FFC700" stroke="black" stroke-width="3"/>
<path d="M31.5 17C32.3284 17 33 16.3284 33 15.5C33 14.6716 32.3284 14 31.5 14V17ZM24 25.5C24 26.3284 24.6716 27 25.5 27C26.3284 27 27 26.3284 27 25.5L24 25.5ZM31.5 14C29.1388 14 27.0846 14.7727 25.7366 16.8789C24.4943 18.82 24 21.688 24 25.5L27 25.5C27 21.812 27.5057 19.68 28.2634 18.4961C28.9154 17.4773 29.8612 17 31.5 17V14Z" fill="black"/>
<path fill-rule="evenodd" clip-rule="evenodd" d="M24 49C24 53.4183 27.5817 57 32 57C36.4183 57 40 53.4183 40 49H37C37 51.7614 34.7614 54 32 54C29.2386 54 27 51.7614 27 49H24Z" fill="black"/>
</svg>
