<svg width="64" height="64" viewBox="0 0 64 64" fill="none" xmlns="http://www.w3.org/2000/svg">
<path d="M5.5 31.5C5.5 17.1406 17.1406 5.5 31.5 5.5C45.8594 5.5 57.5 17.1406 57.5 31.5C57.5 45.8594 45.8594 57.5 31.5 57.5C17.1406 57.5 5.5 45.8594 5.5 31.5Z" fill="#FFC700" stroke="black" stroke-width="3"/>
<path d="M12.5 31.5C12.5 21.0066 21.0066 12.5 31.5 12.5C41.9934 12.5 50.5 21.0066 50.5 31.5C50.5 41.9934 41.9934 50.5 31.5 50.5C21.0066 50.5 12.5 41.9934 12.5 31.5Z" fill="#FFC700" stroke="black" stroke-width="3"/>
<path d="M30 12.5C30 13.3284 30.6716 14 31.5 14C32.3284 14 33 13.3284 33 12.5H30ZM30 5.5V12.5H33V5.5H30Z" fill="black"/>
<path d="M33 50.5C33 49.6716 32.3284 49 31.5 49C30.6716 49 30 49.6716 30 50.5L33 50.5ZM33 57.5L33 50.5L30 50.5L30 57.5H33Z" fill="black"/>
<path d="M50.5 30C49.6716 30 49 30.6716 49 31.5C49 32.3284 49.6716 33 50.5 33L50.5 30ZM57.5 30L50.5 30L50.5 33L57.5 33L57.5 30Z" fill="black"/>
<path d="M12.5 33C13.3284 33 14 32.3284 14 31.5C14 30.6716 13.3284 30 12.5 30L12.5 33ZM5.5 33L12.5 33L12.5 30L5.5 30L5.5 33Z" fill="black"/>
<path d="M48.8241 12.0546L43.8817 16.997L46.003 19.1183L50.9454 14.1759L48.8241 12.0546Z" fill="black"/>
<path d="M19.1256 45.9957C19.7114 45.4099 19.7114 44.4602 19.1256 43.8744C18.5398 43.2886 17.5901 43.2886 17.0043 43.8744L19.1256 45.9957ZM14.1759 50.9454L19.1256 45.9957L17.0043 43.8744L12.0546 48.8241L14.1759 50.9454Z" fill="black"/>
<path d="M45.9957 43.8744C45.4099 43.2886 44.4602 43.2886 43.8744 43.8744C43.2886 44.4602 43.2886 45.4099 43.8744 45.9957L45.9957 43.8744ZM50.9454 48.8241L45.9957 43.8744L43.8744 45.9957L48.8241 50.9454L50.9454 48.8241Z" fill="black"/>
<path d="M17.0043 19.1256C17.5901 19.7114 18.5398 19.7114 19.1256 19.1256C19.7114 18.5398 19.7114 17.5901 19.1256 17.0043L17.0043 19.1256ZM12.0546 14.1759L17.0043 19.1256L19.1256 17.0043L14.1759 12.0546L12.0546 14.1759Z" fill="black"/>
<path d="M37.3405 13.3578C37.0253 14.124 37.391 15.0005 38.1571 15.3157C38.9233 15.6308 39.7998 15.2652 40.1149 14.499L37.3405 13.3578ZM40.0033 6.88408L37.3405 13.3578L40.1149 14.499L42.7778 8.0253L40.0033 6.88408Z" fill="black"/>
<path d="M25.6595 49.6422C25.9747 48.876 25.609 47.9995 24.8429 47.6843C24.0767 47.3692 23.2002 47.7348 22.8851 48.501L25.6595 49.6422ZM22.9967 56.1159L25.6595 49.6422L22.8851 48.501L20.2222 54.9747L22.9967 56.1159Z" fill="black"/>
<path d="M49.6422 37.3405C48.876 37.0253 47.9995 37.391 47.6843 38.1571C47.3692 38.9233 47.7348 39.7998 48.501 40.1149L49.6422 37.3405ZM56.1159 40.0033L49.6422 37.3405L48.501 40.1149L54.9747 42.7778L56.1159 40.0033Z" fill="black"/>
<path d="M13.3578 25.6595C14.124 25.9747 15.0005 25.609 15.3157 24.8429C15.6308 24.0767 15.2652 23.2002 14.499 22.8851L13.3578 25.6595ZM6.88408 22.9967L13.3578 25.6595L14.499 22.8851L8.0253 20.2222L6.88408 22.9967Z" fill="black"/>
<path d="M54.9189 20.1067L48.4679 22.7974L49.6228 25.5662L56.0737 22.8755L54.9189 20.1067Z" fill="black"/>
<path d="M14.5417 40.1986C15.3063 39.8797 15.6676 39.0013 15.3487 38.2368C15.0297 37.4722 14.1514 37.1109 13.3868 37.4298L14.5417 40.1986ZM8.08116 42.8933L14.5417 40.1986L13.3868 37.4298L6.92628 40.1245L8.08116 42.8933Z" fill="black"/>
<path d="M40.1986 48.4583C39.8797 47.6937 39.0014 47.3324 38.2368 47.6513C37.4722 47.9702 37.1109 48.8486 37.4298 49.6132L40.1986 48.4583ZM42.8933 54.9188L40.1986 48.4583L37.4298 49.6132L40.1245 56.0737L42.8933 54.9188Z" fill="black"/>
<path d="M22.8014 14.5417C23.1203 15.3063 23.9986 15.6676 24.7632 15.3487C25.5278 15.0297 25.8891 14.1514 25.5702 13.3868L22.8014 14.5417ZM20.1067 8.08115L22.8014 14.5417L25.5702 13.3868L22.8755 6.92628L20.1067 8.08115Z" fill="black"/>
<path d="M32.8846 22.4231C32.6517 21.8641 32.1056 21.5 31.5 21.5C30.8944 21.5 30.3483 21.8641 30.1154 22.4231L28 27.5H23C22.3772 27.5 21.8192 27.8848 21.5979 28.4669C21.3766 29.049 21.538 29.7074 22.0035 30.1211L25.8244 33.5176L24.5448 38.6362C24.3918 39.2483 24.6381 39.8907 25.1611 40.2435C25.6841 40.5963 26.372 40.5842 26.8823 40.2131L31.5 36.8547L36.1177 40.2131C36.628 40.5842 37.3159 40.5963 37.8389 40.2435C38.3619 39.8907 38.6082 39.2483 38.4552 38.6362L37.1756 33.5176L40.9965 30.1211C41.462 29.7074 41.6234 29.049 41.4021 28.4669C41.1808 27.8848 40.6228 27.5 40 27.5H35L32.8846 22.4231Z" fill="#FFF4D9" stroke="black" stroke-width="3" stroke-linejoin="round"/>
</svg>
