<svg width="64" height="64" viewBox="0 0 64 64" fill="none" xmlns="http://www.w3.org/2000/svg">
<path d="M16.5 22.5C12.9255 22.5 11.5 26.6 11.5 30.5C11.5 31.6046 12.3954 32.5 13.5 32.5H35.5C37.1569 32.5 38.5 31.1826 38.5 29.5257V29C38.5 25.1 37.266 18.5 32.5 18.5C27.1383 18.5 26.2766 26.5 23 26.5C19.7234 26.5 20.0745 22.5 16.5 22.5Z" fill="#FFF4D9" stroke="black" stroke-width="3"/>
<mask id="path-2-outside-1" maskUnits="userSpaceOnUse" x="7.65049" y="6" width="51" height="52" fill="black">
<rect fill="white" x="7.65049" y="6" width="51" height="52"/>
<path fill-rule="evenodd" clip-rule="evenodd" d="M32 55C44.7025 55 55 44.7025 55 32C55 19.2975 44.7025 9 32 9C29.4341 9 26.9664 9.42017 24.6618 10.1954C33.3407 11.4819 40 18.9633 40 28C40 37.9411 31.9411 46 22 46C18.1477 46 14.5781 44.7898 11.6505 42.729C15.506 50.0266 23.1722 55 32 55Z"/>
</mask>
<path fill-rule="evenodd" clip-rule="evenodd" d="M32 55C44.7025 55 55 44.7025 55 32C55 19.2975 44.7025 9 32 9C29.4341 9 26.9664 9.42017 24.6618 10.1954C33.3407 11.4819 40 18.9633 40 28C40 37.9411 31.9411 46 22 46C18.1477 46 14.5781 44.7898 11.6505 42.729C15.506 50.0266 23.1722 55 32 55Z" fill="#699BF7"/>
<path d="M24.6618 10.1954L23.7052 7.35204C22.3908 7.79423 21.5508 9.07976 21.6736 10.4611C21.7964 11.8425 22.8501 12.9597 24.2219 13.163L24.6618 10.1954ZM11.6505 42.729L13.3774 40.2758C12.2432 39.4774 10.7096 39.5606 9.66843 40.477C8.62725 41.3933 8.35001 42.904 8.99794 44.1304L11.6505 42.729ZM52 32C52 43.0457 43.0457 52 32 52V58C46.3594 58 58 46.3594 58 32H52ZM32 12C43.0457 12 52 20.9543 52 32H58C58 17.6406 46.3594 6 32 6V12ZM25.6184 13.0389C27.6187 12.3659 29.7635 12 32 12V6C29.1047 6 26.3141 6.47439 23.7052 7.35204L25.6184 13.0389ZM24.2219 13.163C31.4517 14.2347 37 20.4721 37 28H43C43 17.4545 35.2298 8.72913 25.1017 7.22787L24.2219 13.163ZM37 28C37 36.2843 30.2843 43 22 43V49C33.598 49 43 39.598 43 28H37ZM22 43C18.7858 43 15.8159 41.9925 13.3774 40.2758L9.92359 45.1821C13.3402 47.5872 17.5096 49 22 49V43ZM32 52C24.3279 52 17.6597 47.6809 14.303 41.3275L8.99794 44.1304C13.3524 52.3723 22.0166 58 32 58V52Z" fill="black" mask="url(#path-2-outside-1)"/>
<path d="M47.9849 33.7121C48.1021 32.892 47.5322 32.1322 46.7121 32.0151C45.892 31.8979 45.1322 32.4678 45.0151 33.2879L47.9849 33.7121ZM45.0151 33.2879C44.8266 34.6075 44.1572 35.5407 43.2223 36.0755C42.2683 36.6211 40.8911 36.8312 39.1972 36.3773L38.4208 39.2751C40.7269 39.893 42.9451 39.69 44.7117 38.6796C46.4973 37.6583 47.6735 35.8925 47.9849 33.7121L45.0151 33.2879ZM39.1972 36.3773C38.362 36.1535 37.6078 35.8168 36.9966 35.3813L35.2556 37.8244C36.2115 38.5056 37.3083 38.977 38.4208 39.2751L39.1972 36.3773Z" fill="black"/>
<circle cx="45" cy="26" r="2" fill="black"/>
<circle cx="45" cy="26" r="2" fill="black"/>
<circle cx="45" cy="26" r="2" fill="black"/>
<circle cx="45" cy="26" r="2" fill="black"/>
</svg>
