<svg width="128" height="74" viewBox="0 0 128 74" fill="none" xmlns="http://www.w3.org/2000/svg">
<path d="M13.0349 39.3987C12.7409 39.3987 12.4469 39.3987 12.1529 39.3987C7.25255 39.2517 3.4303 35.2824 3.4303 30.4311C3.4303 28.1279 3.43029 24.5507 3.5773 20.3364C3.67531 15.9261 3.72431 11.7608 3.72431 9.70268C3.72431 5.5864 6.51749 1.96015 10.4868 0.931079C12.2999 0.441046 14.162 0.19603 15.9261 0.19603C21.0715 0.19603 25.6288 2.20517 28.765 5.92942C32.4892 10.2417 33.9103 16.5631 32.7833 23.6686C31.6072 31.1661 27.2949 34.9884 23.9137 36.8995C20.0424 38.9576 15.8771 39.3987 13.0349 39.3987Z" fill="white"/>
<path d="M36.3605 39.2026C31.8522 39.2026 27.5889 37.5855 25.0408 34.8413C20.9735 30.529 21.0715 23.2765 21.6105 14.2109C22.0026 7.64449 25.2858 4.36126 28.03 2.74415C30.9702 0.980031 34.1064 0.735003 35.8215 0.587993H35.8705C36.4095 0.53899 36.8996 0.539001 37.3896 0.539001C43.221 0.539001 47.8763 3.43019 50.1795 8.52653C51.7476 12.0548 51.9926 15.877 51.9926 19.1603V19.7483C51.9926 24.1586 52.0416 30.823 46.3572 35.7234C43.711 37.9775 40.1338 39.2026 36.3605 39.2026Z" fill="white"/>
<path d="M61.5972 39.0066C61.4992 39.0066 61.4012 39.0066 61.2542 39.0066C57.9709 38.9086 55.0307 37.5365 53.0706 35.0373C50.7675 32.1952 49.9834 28.3239 50.6204 23.5216C47.0922 22.0025 44.691 18.4252 44.348 14.0639C43.956 9.16358 46.1611 4.55728 49.9344 2.40114C51.7965 1.32306 53.8057 0.784033 56.0108 0.784033C56.9419 0.784033 57.7749 0.882052 58.559 0.980058C59.245 1.07806 59.8821 1.12706 60.5191 1.12706C61.2052 1.12706 61.8912 1.02906 62.6752 0.882046C63.7533 0.686033 64.7824 0.539017 65.8115 0.539017C69.7317 0.539017 73.2109 2.10711 75.5631 4.9983C77.8663 7.8405 78.8463 11.6628 78.1113 15.289C77.3762 18.9642 74.9261 21.8555 71.7899 23.0315C72.6229 28.3239 71.8389 32.4892 69.4867 35.3314C67.5266 37.7325 64.7334 39.0066 61.5972 39.0066Z" fill="white"/>
<path d="M77.3762 39.3986C76.8862 39.3986 76.3471 39.3496 75.8571 39.3006C71.2998 38.8596 67.9186 35.8704 66.8405 31.4111C66.2524 28.8629 66.3995 26.2658 66.5955 23.7666C66.6935 22.5415 66.7915 21.2184 66.7425 20.3364C66.6445 18.5722 66.4975 17.5432 66.3015 16.5631C66.0074 14.799 65.7624 13.0838 66.1054 9.89864C66.7425 4.21425 71.4958 0.0979767 77.4252 0.0979767C81.7865 0.0979767 85.6578 2.45013 87.4709 6.22339C88.1569 7.69349 88.5489 9.4086 88.5489 11.3687L90.5091 11.2708L94.4784 27.2948L88.647 27.4908C88.647 30.235 87.9609 32.5872 86.6868 34.5473C84.7267 37.6835 81.3945 39.3986 77.3762 39.3986Z" fill="white"/>
<path d="M86.9809 39.3006C83.0606 39.3006 79.7774 37.6345 77.7193 34.5963C76.4452 32.6852 75.7591 30.333 75.6611 27.6378L69.8297 27.5398L73.554 11.4668L75.7101 11.5158C75.7101 9.50664 76.0531 7.84051 76.7392 6.32141C78.5033 2.40114 82.3746 0 86.7849 0C92.5183 0 97.2226 4.01826 97.9086 9.60463C98.3006 12.7898 98.1046 14.505 97.8596 16.2691C97.7126 17.2491 97.5656 18.3272 97.5166 20.0914C97.4676 21.0224 97.6146 22.2965 97.7126 23.5216C97.9576 26.0207 98.1536 28.5689 97.6146 31.1661C96.6345 35.6744 93.3023 38.7126 88.745 39.2516C88.157 39.3006 87.5689 39.3006 86.9809 39.3006Z" fill="white"/>
<path d="M97.1736 39.2517C91.8322 39.2517 87.5199 35.7724 86.6869 30.8231C86.0988 27.3439 86.5399 25.0407 86.8829 23.2276C87.0789 22.0515 87.2749 21.2185 87.1769 19.7484C87.1279 19.2093 87.1769 18.7193 87.1769 18.1803C87.5689 12.8879 92.0282 8.91862 97.5656 8.91862C102.907 8.91862 107.268 12.6429 107.856 17.7392C108.003 18.9153 108.003 20.1404 107.807 21.3655C107.758 21.7085 107.856 22.3945 107.954 23.1786C108.248 25.2367 108.738 28.3729 107.366 32.2932C105.945 36.5075 101.927 39.2517 97.1736 39.2517Z" fill="white"/>
<path d="M97.3696 21.2675C97.1736 21.2675 96.9776 21.2675 96.7816 21.2675C90.9992 20.9734 86.5399 15.9751 86.8339 10.0947C87.1279 4.45934 91.7342 0.0490417 97.3206 0.0490417C97.5166 0.0490417 97.7126 0.0490417 97.9086 0.0490417C103.691 0.343062 108.15 5.34139 107.856 11.2218C107.562 16.8082 102.956 21.2675 97.3696 21.2675Z" fill="white"/>
<path d="M110.845 39.1046C105.161 39.1046 101.78 36.8994 99.9178 35.0373C97.7126 32.7832 96.5365 29.843 96.5855 26.7068C96.6345 24.5996 97.1246 22.6885 98.0556 21.0714C97.8106 20.4833 97.6146 19.8463 97.4676 19.1113C96.0955 12.2998 98.2026 6.41939 103.201 2.98916C105.945 1.12703 109.081 0.146973 112.365 0.146973C117.167 0.146973 121.43 2.2541 123.733 5.83134C125.939 9.21257 126.086 13.4759 124.174 17.0041L124.125 17.0531C125.056 18.9152 125.595 20.9734 125.791 23.2275C126.135 27.6868 124.713 31.7541 121.822 34.7433C119.47 37.1444 116.236 38.6636 112.904 39.0066C112.267 39.0556 111.532 39.1046 110.845 39.1046Z" fill="white"/>
<path d="M38.3696 73.8969C19.2093 73.8969 18.7192 73.848 18.0822 73.7499C12.9369 73.1129 8.23254 70.3687 4.85131 66.0074C1.7151 61.9891 0 57.0398 0 52.0415C0 47.0431 1.7151 42.0938 4.85131 38.0755C8.23254 33.7142 12.9369 30.9701 18.0822 30.333C18.8172 30.235 19.6503 30.186 20.5324 30.186C21.2184 30.186 21.9045 30.235 22.4925 30.235C22.9825 30.235 23.4726 30.284 23.8646 30.284H94.3803C94.6253 30.284 94.8704 30.284 95.0664 30.284C95.3114 30.284 95.5564 30.284 95.8014 30.284C97.7616 30.284 99.9667 30.48 102.515 31.7051C107.121 33.9592 111.58 36.4584 115.942 38.9086C118.049 40.0847 120.205 41.3098 122.312 42.4368C125.742 44.299 127.899 47.7292 127.997 51.6005C128.095 55.5697 126.085 59.392 122.655 61.4991C120.45 62.8712 118.147 64.0473 115.942 65.1744C114.913 65.7134 113.884 66.2524 112.904 66.7425C111.825 67.3305 110.698 67.9676 109.571 68.6046C107.219 69.9277 104.769 71.2998 102.221 72.5249C99.8197 73.6519 97.6145 73.7989 95.7524 73.7989C95.4584 73.7989 95.1154 73.7989 94.8214 73.7989C94.5764 73.7989 94.3313 73.7989 94.0373 73.7989C93.4983 73.7989 91.1461 73.7989 87.6669 73.7989C76.9351 73.8479 54.5897 73.8969 38.3696 73.8969Z" fill="white"/>
<path d="M21.7575 66.4974C29.4977 66.4974 35.7724 59.74 35.7724 51.4044C35.7724 43.0688 29.4977 36.3114 21.7575 36.3114C14.0172 36.3114 7.74252 43.0688 7.74252 51.4044C7.74252 59.74 14.0172 66.4974 21.7575 66.4974Z" fill="#FF77E6"/>
<path d="M98.9376 36.2624H20.0423V66.4974H98.9376V36.2624Z" fill="#FFCA49"/>
<path d="M28.1279 36.2624H20.0423V66.4974H28.1279V36.2624Z" fill="#030401"/>
<path d="M120.352 55.1777L115.991 57.5298L102.956 64.5863L100.506 65.9094C97.4185 67.5755 93.4983 65.5174 93.3023 61.9891C93.3023 61.8911 93.3023 61.7931 93.3023 61.6951C93.3023 60.225 93.8903 58.9509 94.8214 57.9708C95.7524 57.0398 97.0755 56.4517 98.5456 56.4517C95.6544 56.4517 93.3023 54.0996 93.3023 51.2084C93.3023 48.7582 94.9684 46.7001 97.2715 46.112C95.0174 45.524 93.3023 43.4659 93.3023 41.0157C93.3023 40.9177 93.3023 40.8197 93.3023 40.7217C93.4983 37.1934 97.3695 35.1353 100.506 36.8014L102.956 38.1245L115.991 45.181L120.352 47.5331C123.341 49.2483 123.341 53.5605 120.352 55.1777Z" fill="#030401"/>
<path d="M97.8596 46.8961H28.1279C27.7359 46.8961 27.3928 46.5531 27.3928 46.161C27.3928 45.769 27.7359 45.426 28.1279 45.426H97.8596C98.2516 45.426 98.5946 45.769 98.5946 46.161C98.5946 46.5531 98.2516 46.8961 97.8596 46.8961Z" fill="#030401"/>
<path d="M97.8596 57.2358H28.1279C27.7359 57.2358 27.3928 56.8928 27.3928 56.5008C27.3928 56.1087 27.7359 55.7657 28.1279 55.7657H97.8596C98.2516 55.7657 98.5946 56.1087 98.5946 56.5008C98.5946 56.8928 98.2516 57.2358 97.8596 57.2358Z" fill="#030401"/>
<path d="M120.352 55.1777L115.991 57.5298C114.668 55.8147 113.884 53.7076 113.884 51.4044C113.884 49.1012 114.668 46.9451 115.991 45.279L120.352 47.6311C123.341 49.2483 123.341 53.5606 120.352 55.1777Z" fill="#FF77E6"/>
<path d="M14.701 7.88948C13.6719 8.1835 12.9368 9.11457 12.9368 10.1926C12.9368 12.3978 12.8878 16.5141 12.7898 20.8754C12.6918 24.9916 12.6428 28.5689 12.6918 30.676C12.6918 31.9011 13.6719 32.9302 14.897 32.9302C18.8662 33.0772 27.0988 32.1461 28.5199 22.9335C30.333 11.3687 23.4726 5.58633 14.701 7.88948ZM18.3762 23.9136C18.8662 19.4543 18.5232 16.4651 18.5232 16.4651C19.8463 16.269 21.7574 17.7882 21.8064 19.5033C22.0025 23.2765 18.3762 23.9136 18.3762 23.9136Z" fill="#030401"/>
<path d="M47.3861 19.6013C47.3861 14.3089 46.7491 7.20342 38.5655 7.84046C35.8703 8.03648 30.97 8.42848 30.578 15.0439C30.186 21.7084 30.0389 28.2258 32.1951 30.529C34.3512 32.8321 40.6237 33.9102 44.1029 30.921C47.6311 27.9318 47.4351 23.5215 47.3861 19.6013ZM40.2806 20.3853C39.9376 22.8845 40.6727 24.9916 38.2715 24.7956C36.7034 24.6486 37.0954 22.6394 37.4384 20.1403C37.7815 17.6411 37.1934 15.534 39.4476 15.73C40.8687 15.877 40.6237 17.8861 40.2806 20.3853Z" fill="#030401"/>
<path d="M60.4701 14.701C60.4701 14.701 58.755 19.0132 55.5698 17.8372C52.3845 16.6611 52.3846 10.4377 55.3738 8.72256C58.412 7.00744 60.3721 9.11458 65.9585 7.98751C71.5938 6.86043 74.093 11.0747 73.407 14.4559C72.8679 17.0531 70.7118 17.9842 68.9477 17.0531C67.1345 16.1221 66.5465 14.7989 66.5465 14.7989C66.5465 14.7989 65.7134 17.0531 66.9875 23.8646C67.7716 28.0788 67.5266 32.6362 63.4593 32.5381C60.9601 32.4891 58.2159 30.627 59.49 23.9136C60.5681 18.0822 60.4701 14.701 60.4701 14.701Z" fill="#030401"/>
<path d="M74.7301 11.0748C74.289 14.946 75.0241 15.2401 75.3671 20.2874C75.6611 25.3837 73.309 32.3422 78.4053 32.8812C85.7558 33.6163 83.9427 24.8937 82.4726 21.4635L87.8139 21.2675L87.1769 18.6213L82.5216 18.8173C82.5216 18.8173 84.6287 12.3979 83.3056 9.65368C81.5415 5.97843 75.1711 6.8115 74.7301 11.0748Z" fill="#030401"/>
<path d="M93.0572 10.9278C93.5473 14.799 92.8122 15.093 92.5672 20.1404C92.3222 25.2367 94.8704 32.1952 89.725 32.7832C82.3745 33.6653 84.0406 24.8937 85.4617 21.4144L80.1204 21.3165L80.7574 18.6703L85.4127 18.7683C85.4127 18.7683 83.4526 12.3488 84.7267 9.60466C86.3928 5.92941 92.5182 6.66447 93.0572 10.9278Z" fill="#030401"/>
<path d="M102.858 18.9643C102.368 15.044 95.8504 15.191 95.5564 19.1113C95.5564 19.3073 95.5564 19.5523 95.5564 19.7973C95.8014 24.5506 94.2822 25.7267 95.0173 30.039C95.6053 33.5673 101.535 33.7633 102.711 30.431C104.083 26.5108 102.417 24.1096 102.809 20.9244C102.907 20.1403 102.907 19.5033 102.858 18.9643Z" fill="#030401"/>
<path d="M102.319 11.3198C102.221 13.4269 100.408 15.093 98.3496 14.946C96.2425 14.848 94.6744 13.0349 94.7724 10.8787C94.8704 8.72257 96.6835 7.10548 98.7416 7.25249C100.849 7.3995 102.466 9.21261 102.319 11.3198Z" fill="#030401"/>
<path d="M112.512 26.9028C112.512 26.9028 113.296 23.1785 109.326 22.9825C107.17 22.8845 104.916 23.7176 104.867 27.0988C104.818 30.48 108.003 33.1262 113.835 32.5872C116.971 32.2932 120.989 29.745 120.597 24.1096C120.303 20.3853 118.098 16.9061 114.423 16.4161C113.296 16.2691 112.414 16.3181 111.826 15.387C110.796 13.7699 112.904 13.0348 112.904 13.0348C112.904 13.0348 111.777 15.779 116.089 16.2691C119.372 16.6611 121.479 12.7898 119.617 9.99664C117.755 7.20345 112.61 6.27239 108.591 9.01657C105.896 10.8297 104.818 13.8679 105.651 18.1802C106.484 22.4435 112.316 21.9534 113.198 23.6195C114.08 25.2857 112.512 26.9028 112.512 26.9028Z" fill="#030401"/>
<path d="M11.7608 5.78233C10.7317 6.07635 9.99663 7.00742 9.99663 8.08549C9.99663 10.2906 9.94763 14.4069 9.84963 18.7682C9.75162 22.8845 9.70261 26.4617 9.75161 28.5689C9.75161 29.7939 10.7317 30.823 11.9568 30.823C15.926 30.97 24.1586 30.039 25.5797 20.8264C27.3928 9.26157 20.5324 3.47918 11.7608 5.78233ZM15.436 21.8064C15.926 17.3471 15.583 14.3579 15.583 14.3579C16.9061 14.1619 18.8172 15.681 18.8662 17.3961C19.0133 21.1694 15.436 21.8064 15.436 21.8064Z" fill="#4BC17E"/>
<path d="M44.4459 17.4941C44.4459 12.2018 43.8089 5.09629 35.6253 5.73333C32.9301 5.92935 28.0298 6.32138 27.6378 12.9368C27.2458 19.6013 27.0987 26.1187 29.2549 28.4219C31.411 30.725 37.6835 31.8031 41.1627 28.8139C44.6419 25.8247 44.4459 21.4144 44.4459 17.4941ZM37.3404 18.2782C36.9974 20.7774 37.7325 22.8845 35.3313 22.6885C33.7632 22.5415 34.1552 20.5323 34.4982 18.0332C34.8413 15.534 34.2532 13.4269 36.5074 13.6229C37.9285 13.7699 37.6344 15.779 37.3404 18.2782Z" fill="#4BC17E"/>
<path d="M57.4809 12.5938C57.4809 12.5938 55.7657 16.9061 52.5805 15.73C49.3953 14.554 49.3953 8.33056 52.3845 6.61544C55.4227 4.90033 57.3828 7.00747 62.9692 5.88039C68.6046 4.75332 71.1037 8.96758 70.4177 12.3488C69.8787 14.946 67.7225 15.8771 65.9584 14.946C64.1943 14.0149 63.5572 12.6918 63.5572 12.6918C63.5572 12.6918 62.7242 14.946 63.9983 21.7574C64.7823 25.9717 64.5373 30.529 60.47 30.431C57.9709 30.382 55.2267 28.5199 56.5008 21.8065C57.5789 15.9751 57.4809 12.5938 57.4809 12.5938Z" fill="#4BC17E"/>
<path d="M71.7898 8.96754C71.3488 12.8388 72.0839 13.1328 72.4269 18.1802C72.7209 23.2765 70.3687 30.235 75.4651 30.774C82.8156 31.5091 81.0025 22.7865 79.5324 19.3562L84.8737 19.1602L84.2367 16.514L79.5813 16.7101C79.5813 16.7101 81.6885 10.2906 80.3654 7.54644C78.5523 3.87119 72.2309 4.70426 71.7898 8.96754Z" fill="#4BC17E"/>
<path d="M90.117 8.82053C90.6071 12.6918 89.872 12.9858 89.627 18.0331C89.382 23.1295 91.9302 30.088 86.7848 30.676C79.4343 31.5581 81.1004 22.7865 82.5215 19.3072L77.1802 19.2092L77.8172 16.563L82.4725 16.6611C82.4725 16.6611 80.5124 10.2416 81.7865 7.49744C83.4526 3.82219 89.578 4.55725 90.117 8.82053Z" fill="#4BC17E"/>
<path d="M99.9177 16.857C99.4276 12.9368 92.9102 13.0838 92.6162 17.0041C92.6162 17.2001 92.6162 17.4451 92.6162 17.6901C92.8612 22.4434 91.3421 23.6195 92.0771 27.9318C92.6652 31.46 98.5946 31.6561 99.7707 28.3238C101.143 24.4036 99.4766 22.0024 99.8687 18.8172C99.9667 18.0331 99.9667 17.3961 99.9177 16.857Z" fill="#4BC17E"/>
<path d="M99.8196 9.21255C99.7216 11.3197 97.9085 12.9858 95.8504 12.8388C93.7432 12.7408 92.1751 10.9277 92.2731 8.77151C92.3711 6.61536 94.1842 4.99827 96.2424 5.14528C98.3495 5.29229 99.9666 7.10541 99.8196 9.21255Z" fill="#4BC17E"/>
<path d="M109.571 24.7956C109.571 24.7956 110.355 21.0714 106.386 20.8754C104.23 20.7774 101.976 21.6104 101.927 24.9917C101.878 28.3729 105.063 31.019 110.894 30.48C114.031 30.186 118.049 27.6378 117.657 22.0024C117.363 18.2782 115.158 14.799 111.482 14.3089C110.355 14.1619 109.473 14.2109 108.885 13.2799C107.856 11.6628 109.963 10.9277 109.963 10.9277C109.963 10.9277 108.836 13.6719 113.149 14.1619C116.432 14.5539 118.539 10.6827 116.677 7.8895C114.864 5.09632 109.669 4.16525 105.651 6.90944C102.956 8.72256 101.878 11.7608 102.711 16.0731C103.544 20.3363 109.375 19.8463 110.257 21.5124C111.139 23.1785 109.571 24.7956 109.571 24.7956Z" fill="#4BC17E"/>
</svg>
