<svg width="64" height="64" viewBox="0 0 64 64" fill="none" xmlns="http://www.w3.org/2000/svg">
<path d="M41.518 17.2316L44.2398 16.1557C46.6235 19.6561 49.7094 21.0961 52.524 22.1529C52.848 22.2745 53.1804 22.3949 53.5141 22.5159C54.5664 22.8971 55.6319 23.2831 56.4906 23.728C57.6722 24.3402 58.8397 25.243 59.2654 26.8058C59.9626 29.3652 59.0543 31.6389 57.2838 33.1865C55.5646 34.6892 53.0706 35.5 50.4091 35.5H49.8318L49.4035 35.113L43.8694 30.113L43.475 29.7567L43.393 29.2316L41.518 17.2316Z" fill="#699BF7" stroke="black" stroke-width="3"/>
<path d="M22.482 17.2316L19.7602 16.1557C17.3765 19.6561 14.2906 21.0961 11.476 22.1529C11.152 22.2745 10.8196 22.3949 10.4859 22.5159C9.43362 22.8971 8.36813 23.2831 7.50945 23.728C6.32782 24.3402 5.16026 25.243 4.73458 26.8058C4.0374 29.3652 4.94566 31.6389 6.71617 33.1865C8.43535 34.6892 10.9294 35.5 13.5909 35.5H14.1682L14.5965 35.113L20.1306 30.113L20.525 29.7567L20.607 29.2316L22.482 17.2316Z" fill="#699BF7" stroke="black" stroke-width="3"/>
<path d="M27.5 39.5H36.5V51C36.5 53.4853 34.4853 55.5 32 55.5C29.5147 55.5 27.5 53.4853 27.5 51V39.5Z" fill="#FF7051" stroke="black" stroke-width="3"/>
<mask id="path-4-outside-1" maskUnits="userSpaceOnUse" x="9" y="7" width="46" height="47" fill="black">
<rect fill="white" x="9" y="7" width="46" height="47"/>
<path fill-rule="evenodd" clip-rule="evenodd" d="M33.0949 41.9754C33.0234 41.4257 32.5544 41 32 41V41V41C31.4456 41 30.9766 41.4257 30.9051 41.9754C30.2413 47.0759 26.1598 51 20.6364 51C16.0909 51 12 46.975 12 41.975C12 38.7105 13.6266 35.9604 15.9889 34.18C17.7798 32.8303 19.0719 30.5976 19.0076 28.356C19.0025 28.1807 19 28.0037 19 27.825C19 19.2646 20.5294 10 32 10C43.4706 10 45 19.2646 45 27.825C45 28.0037 44.9975 28.1807 44.9924 28.356C44.9281 30.5976 46.2202 32.8303 48.0111 34.18C50.3734 35.9604 52 38.7105 52 41.975C52 46.975 47.9091 51 43.3636 51C37.8402 51 33.7587 47.0759 33.0949 41.9754Z"/>
</mask>
<path fill-rule="evenodd" clip-rule="evenodd" d="M33.0949 41.9754C33.0234 41.4257 32.5544 41 32 41V41V41C31.4456 41 30.9766 41.4257 30.9051 41.9754C30.2413 47.0759 26.1598 51 20.6364 51C16.0909 51 12 46.975 12 41.975C12 38.7105 13.6266 35.9604 15.9889 34.18C17.7798 32.8303 19.0719 30.5976 19.0076 28.356C19.0025 28.1807 19 28.0037 19 27.825C19 19.2646 20.5294 10 32 10C43.4706 10 45 19.2646 45 27.825C45 28.0037 44.9975 28.1807 44.9924 28.356C44.9281 30.5976 46.2202 32.8303 48.0111 34.18C50.3734 35.9604 52 38.7105 52 41.975C52 46.975 47.9091 51 43.3636 51C37.8402 51 33.7587 47.0759 33.0949 41.9754Z" fill="#FFF4D9"/>
<path d="M19.0076 28.356L16.0088 28.4421L19.0076 28.356ZM30.9051 41.9754L27.9301 41.5883L30.9051 41.9754ZM33.0949 41.9754L36.0699 41.5883L33.0949 41.9754ZM20.6364 54C27.7378 54 33.031 48.8863 33.88 42.3626L27.9301 41.5883C27.4516 45.2654 24.5817 48 20.6364 48V54ZM9 41.975C9 48.5606 14.3637 54 20.6364 54V48C17.8181 48 15 45.3894 15 41.975H9ZM14.1833 31.7842C11.1673 34.0573 9 37.652 9 41.975H15C15 39.7691 16.0859 37.8635 17.7945 36.5758L14.1833 31.7842ZM16 27.825C16 28.0321 16.0029 28.2378 16.0088 28.4421L22.0063 28.2699C22.0021 28.1236 22 27.9753 22 27.825H16ZM32 7C28.7265 7 25.9429 7.66315 23.6427 8.97575C21.3292 10.296 19.69 12.1679 18.5548 14.2844C16.3588 18.3787 16 23.4967 16 27.825H22C22 23.5929 22.4059 19.7984 23.8423 17.1203C24.5233 15.8506 25.4171 14.8714 26.6165 14.1869C27.8292 13.4949 29.5382 13 32 13V7ZM48 27.825C48 23.4967 47.6412 18.3787 45.4452 14.2844C44.31 12.1679 42.6708 10.296 40.3573 8.97575C38.0571 7.66315 35.2735 7 32 7V13C34.4618 13 36.1708 13.4949 37.3835 14.1869C38.5829 14.8714 39.4767 15.8506 40.1577 17.1203C41.5941 19.7984 42 23.5929 42 27.825H48ZM47.9912 28.4421C47.9971 28.2378 48 28.0321 48 27.825H42C42 27.9753 41.9979 28.1236 41.9937 28.2699L47.9912 28.4421ZM55 41.975C55 37.652 52.8327 34.0573 49.8167 31.7842L46.2055 36.5758C47.9141 37.8635 49 39.7691 49 41.975H55ZM43.3636 54C49.6363 54 55 48.5606 55 41.975H49C49 45.3894 46.1819 48 43.3636 48V54ZM30.12 42.3626C30.969 48.8863 36.2622 54 43.3636 54V48C39.4183 48 36.5484 45.2654 36.0699 41.5883L30.12 42.3626ZM41.9937 28.2699C41.896 31.6694 43.7999 34.7628 46.2055 36.5758L49.8167 31.7842C48.6405 30.8978 47.9601 29.5259 47.9912 28.4421L41.9937 28.2699ZM17.7945 36.5758C20.2001 34.7628 22.104 31.6693 22.0063 28.2699L16.0088 28.4421C16.0399 29.5259 15.3595 30.8978 14.1833 31.7842L17.7945 36.5758ZM32 38C29.8863 38 28.1894 39.5962 27.9301 41.5883L33.88 42.3626C33.7638 43.2552 33.005 44 32 44V38ZM32 44C30.995 44 30.2362 43.2552 30.12 42.3626L36.0699 41.5883C35.8106 39.5962 34.1137 38 32 38V44Z" fill="black" mask="url(#path-4-outside-1)"/>
<path d="M37.3124 41.3327L34.671 42.8002C33.0099 43.723 30.9901 43.723 29.329 42.8002L26.6876 41.3327C25.3374 40.5826 24.5 39.1595 24.5 37.6149C24.5 35.6215 25.8845 33.8956 27.8304 33.4632L28.4626 33.3227C30.7924 32.8049 33.2076 32.8049 35.5374 33.3227L36.1696 33.4632C38.1155 33.8956 39.5 35.6215 39.5 37.6149C39.5 39.1595 38.6626 40.5826 37.3124 41.3327Z" fill="#699BF7" stroke="black" stroke-width="3"/>
<circle cx="26" cy="26" r="2" fill="black"/>
<circle cx="38" cy="26" r="2" fill="black"/>
</svg>
